<?xml version="1.0" encoding="UTF-8"?>
<svg id="Calque_vectoriel" data-name="Calque vectoriel" xmlns="http://www.w3.org/2000/svg" viewBox="0 0 2100 2100">
  <defs>
    <style>
      .cls-1 {
        fill: rgba(244, 181, 114, 0);
      }

      .cls-2 {
        fill: #f4b572;
      }

      .cls-3 {
        fill: #ffea00;
      }

      .cls-4 {
        fill: #ff3400;
      }

      .cls-5 {
        fill: #ff9100;
      }

      .cls-6 {
        fill: #73f3f4;
      }
    </style>
  </defs>
  <path class="cls-3" d="M507.84,1267.96c-.18-.68-.39-1.34-.63-2-.2-.57-.42-1.13-.57-1.71-.3-1.17-1.55-1.88-2.71-1.57-1.17,.31-1.87,1.54-1.57,2.71,.23,.92,.57,1.8,.88,2.7-1.19-1.01-1.9-2.56-2.29-4.03-4.52-16.82-8.8-33.72-12.87-50.66-2.42-10.07-4.6-20.21-6.36-30.41-1.21-7.09-1.2-14.37-2.29-21.48-1.68-11.07-2.5-22.18-2.88-33.3,5.97-2.63,11.98-5.15,18.14-7.3,8.95-3.02,18.18-5.79,27.53-7.72,.01,0,.02,0,.04,0,4.45-.63,8.98-1.32,13.74-1.97,4.96,0,9.39,.04,13.82-.04,.64-.01,1.27-.38,1.9-.65,1.54,.07,3.08,.19,4.62,.34,.42,.13,.84,.24,1.27,.32,3.46,.6,6.93,1.17,10.45,1.7,1.18,.29,2.35,.61,3.52,.96,5.81,1.41,11.57,3.04,17.26,4.87,3.47,1.11,7.02,2.02,10.49,3.13,11.23,5.47,21.09,13.52,31.82,19.96,8.66,5.2,17.02,11.25,26.3,14.98,11.39,4.59,23.71,6.1,36.05,3.41,3.68-.8,7.51-1.77,10.75-3.59,6.21-3.5,12.35-7.14,18.52-10.86,1.78-.11,4.13-2.56,5.54-3.29,.2-.14,.39-.28,.59-.43,2.43-1.47,4.86-2.95,7.32-4.44,3.16-1.87,6-3.57,8.95-5.05,3.59-1.79,7.17-3.61,10.75-5.41,1.79-.62,3.57-1.23,5.31-1.88,6.07-2.16,12.04-4.58,18.12-6.71,14.99-4.7,29.64-10.4,44.65-15.03,1.11-.34,2.23-.64,3.34-.91,4.28-.77,8.58-1.37,12.89-1.95,5.4-.41,10.86-.43,16.34-.43,4.3,.01,8.61,.09,12.91,.21,7.6,1.06,15.21,2.05,22.77,3.36,18.53,3.21,34.54,12.16,49.76,22.67,5.85,4.04,11.73,8.15,17.03,12.87,6.47,5.76,12.35,12.18,18.48,18.32,9.51,9.51,18.56,19.53,28.63,28.39,13.36,11.75,29.76,18.5,46.13,24.91,6.44,2.52,13.28,4.01,19.98,5.81,6.21,1.67,12.39,4.63,18.98,2.07,2.29-.89,4.05-3.05,6.29-4.13,14.2-6.89,28.55-13.47,42.67-20.52,8.86-4.42,17.3-9.69,26.11-14.2,9.8-5.02,19.89-9.49,29.74-14.41,14.88-7.43,29.61-15.16,44.51-22.56,8.87-4.41,17.78-8.72,26.76-13.09,1.3,.39,2.5-.89,3.74-1.32,2.55-1.23,5.11-2.43,7.7-3.55,9.99-4.22,20.17-7.98,30.14-12.26,7.16-2.98,14.32-6.02,21.78-8.2,9.07-2.66,18.32-4.65,27.61-6.38,12.67-2.93,25.6-4.47,38.57-5.14,12.2-.36,24.28-2.17,36.51-1.53,12.18,.25,24.32,1.18,36.44,2.33,17.43,1.25,34.85,2.73,52.25,4.41,12.6,1.16,25.04,4.34,37.68,5.33,.39,.04,.79,.09,1.18,.13,.13,8.88,.16,17.76-.32,26.61-.7,12.96-2.12,25.93-4.23,38.74-3.84,23.36-8.14,46.66-12.81,69.87-1.75,8.7-4.89,17.13-7.81,25.54-.3,.87-1.26,1.55-2.35,2.15-.18-1.16-1.26-1.97-2.43-1.86-1.64,.16-2.47,1.8-2.96,3.18H717.83c-68.78,0-136.5-.01-204.21,.04-1.84,0-3.69,.54-5.52,.94-.09-.33-.17-.66-.26-.98Z"/>
  <path class="cls-5" d="M1560.74,1090.54c.04,3.21,.1,6.43,.15,9.64-1.84-.21-3.69-.39-5.54-.59-.53-.36-1.09-.68-1.76-.9-.1,.23-.19,.46-.27,.67-1.22-.14-2.44-.3-3.65-.48-.43-.33-.86-.64-1.32-.84-.08-.04-.16-.07-.23-.1-.08-.03-.16-.05-.24-.08-.41-.12-.82-.19-1.25-.25-.2-.02-.4-.04-.61-.06-.44-.04-.88-.05-1.32-.08-.22,0-.43-.02-.65-.03-.43-.02-.86-.06-1.29-.12-.25-.04-.5-.07-.75-.11-1.75-.27-3.54-.62-5.73-.94-.51,.02-.98,.06-1.42,.1-2.75-.46-5.5-.86-8.27-1.16-1.88-.19-3.76-.38-5.64-.57-8-.8-16-1.55-24.02-2.23-1.76-.15-3.52-.3-5.27-.44-1.54-.13-3.07-.25-4.61-.37-1.88-.15-3.76-.29-5.64-.43h-.02c-.05,0-.11-.02-.16-.02-.36-.05-.71-.1-1.07-.15s-.72-.11-1.07-.15c-.77-.11-1.54-.22-2.3-.32s-1.54-.21-2.3-.31c-.77-.1-1.54-.2-2.31-.29-.86-.1-1.77,.17-2.67,.34-1.8-.16-3.61-.32-5.41-.48-1.14-.19-2.27-.39-3.41-.55-.27-.04-.54-.08-.81-.11-.2-.03-.4-.05-.61-.08-.41-.05-.81-.09-1.22-.13-.02,0-.04,0-.06,0-.02,0-.03,0-.05,0-.12,0-.25,.03-.38,.08t0,0c-.14,.06-.28,.14-.43,.23-2.46-.18-4.91-.36-7.38-.51l-1.24-.12c-2.57-.24-5.14-.47-7.72-.61-.27-.02-.54-.03-.82-.04-1.09-.05-2.18-.08-3.26-.08-.35,0-.7,.07-1.05,.18-1.45-.04-2.89-.08-4.33-.11-.61-.01-1.21-.02-1.82-.03-.6,0-1.21-.02-1.81-.02-1.3-.02-2.59-.02-3.89,.02,0,0-.02,0-.03,0-1.23,.03-2.46,.07-3.69,.14-.34,.02-.68,.04-1.02,.05-.3,.02-.61,.04-.91,.05-.57,.04-1.14,.07-1.72,.11l-.45-.04c-1.08-.09-2.14-.16-3.2-.23-.6-.04-1.2-.08-1.8-.11-.6-.04-1.19-.06-1.79-.09-1.22-.05-2.52,.66-3.7,1.21-.05,.02-.1,.05-.15,.09-.68,.05-1.37,.09-2.05,.12s-1.37,.07-2.05,.1c-.8,.03-1.59,.07-2.39,.11-.07,0-.14,0-.21,0-.29-.01-.57-.02-.86-.02-.18,0-.37,0-.55,0-.22,0-.45,.02-.67,.03-.05,0-.1,0-.16,.01-.05,0-.1,0-.16,.01-.14,0-.29,.02-.43,.04-.13,.01-.26,.02-.39,.04-.27,.03-.54,.06-.8,.09-.96,.06-1.91,.12-2.87,.18-.87,.06-1.74,.12-2.61,.19-.3,.02-.61,.05-.91,.07-.74,.06-1.48,.12-2.21,.19-1.33,.12-2.67,.25-4,.39-.35,.04-.7,.07-1.05,.11-3.08,.34-6.15,.73-9.21,1.2-.21,0-.43,.02-.64,.04s-.43,.04-.64,.06c-.21,.02-.43,.05-.64,.09s-.42,.07-.63,.11c-.42,.09-.84,.18-1.25,.27-.46,.11-.93,.21-1.39,.32-8.06,1.56-16.14,3.14-24.12,5.04-1.21,.29-2.43,.59-3.64,.89-3.05,.77-6.09,1.59-9.11,2.49-.34,.1-.67,.2-1,.3-.14,.04-.29,.09-.43,.13-.23,.07-.47,.14-.7,.21-1.57,.48-3.13,.98-4.69,1.51-.24,.08-.48,.16-.73,.25-.98,.34-1.96,.68-2.93,1.04-.18,.06-.35,.12-.53,.19-.51,.19-1.02,.38-1.52,.57-.59,.22-1.18,.45-1.77,.69-.59,.23-1.17,.46-1.76,.71-.54,.22-1.08,.45-1.62,.68s-1.07,.46-1.61,.7c-.21,.09-.42,.18-.63,.28-.46,.2-.91,.41-1.37,.62-.98,.42-1.96,.84-2.94,1.25-.63,.18-1.26,.36-1.88,.54-.32,.09-.63,.19-.95,.29-2.64,.8-5.23,1.71-7.8,2.68-.4,.15-.8,.3-1.2,.46-.7,.27-1.38,.54-2.07,.81-.45,.18-.9,.36-1.35,.55-.77,.32-1.55,.64-2.32,.96-1.03,.44-2.06,.88-3.09,1.33-3.7,1.62-7.37,3.31-11.05,5-.61,.28-1.22,.56-1.84,.84-3.28,1.5-6.57,2.98-9.89,4.38-12.41,5.24-23.73,13-35.8,19.12-10.57,5.36-21.54,9.94-32.22,15.1-.71,.34-1.43,.69-2.13,1.04-3.55,1.75-7.05,3.6-10.53,5.48-1.16,.63-2.32,1.26-3.48,1.89-.58,.31-1.16,.63-1.74,.95-1.16,.63-2.32,1.26-3.48,1.89-2.9,1.57-5.81,3.12-8.75,4.62-2.82,1.44-5.66,2.84-8.5,4.23-1.42,.7-2.85,1.39-4.27,2.08-2.14,1.04-4.28,2.07-6.41,3.11-1.43,.69-2.85,1.38-4.27,2.08-1.07,.52-2.13,1.05-3.2,1.57-1.06,.52-2.13,1.05-3.19,1.59-1.41,.71-2.82,1.43-4.23,2.16-4.57,2.36-9.1,4.78-13.62,7.22-1.2,.64-2.39,1.29-3.58,1.93-4.08,2.21-8.16,4.42-12.26,6.6-.82,.44-1.64,.87-2.46,1.3-.7,.37-1.39,.74-2.09,1.11-.38,.2-.76,.4-1.14,.6-1.39,.73-2.78,1.45-4.17,2.16-.12,.06-.24,.12-.37,.17-.08,.04-.16,.07-.25,.1-.13,.05-.26,.1-.39,.14-.18,.05-.36,.11-.55,.15-.09,.02-.17,.04-.26,.06-.02,0-.03,0-.05,0-.09,.02-.17,.04-.26,.05-.3,.06-.6,.1-.91,.13-.15,.02-.3,.03-.46,.04-.15,.01-.31,.02-.47,.02-.08,0-.16,0-.24,0-.1,0-.21,0-.31,0-.19,0-.38,0-.56-.01-.07,0-.14,0-.21,0-.17,0-.34-.02-.5-.03-.21-.02-.42-.04-.63-.06s-.42-.05-.62-.08c-.27-.04-.54-.09-.8-.13-5.7-1.07-11.4-2.38-16.88-4.23-2.11-.71-4.21-1.44-6.32-2.18-1.05-.37-2.11-.74-3.15-1.12-1.05-.38-2.09-.75-3.14-1.14-2.99-1.1-5.97-2.22-8.93-3.38-1.18-.46-2.37-.93-3.55-1.41-1.18-.48-2.36-.96-3.54-1.45-5.61-2.33-11.13-5.15-16.16-8.54-1.93-1.3-3.87-2.61-5.8-3.93-2.41-1.66-4.8-3.34-7.13-5.1-.46-.35-.93-.71-1.39-1.06-.46-.36-.92-.71-1.38-1.08-.46-.36-.91-.73-1.36-1.09-1.8-1.48-3.54-3.01-5.21-4.61-7.96-7.65-14.31-16.96-22.14-24.78-1.01-1-2.02-2-3.05-2.99-.87-.84-1.74-1.66-2.62-2.48-.33-.31-.66-.62-.99-.93-.07-.07-.14-.13-.21-.19-.41-.38-.82-.76-1.23-1.13-1.36-1.24-2.73-2.47-4.11-3.68-.46-.41-.92-.81-1.39-1.21-.39-.34-.79-.68-1.19-1.02-.13-.12-.27-.23-.41-.34-.37-.32-.74-.63-1.11-.95-.53-.45-1.06-.89-1.59-1.33-.73-.6-1.46-1.2-2.19-1.79-.76-.62-1.52-1.23-2.29-1.84-1.11-.89-2.23-1.77-3.36-2.63-1.81-1.39-3.66-2.73-5.55-4.03-.94-.65-1.89-1.29-2.86-1.91-2.88-1.88-5.82-3.67-8.8-5.4-.99-.57-1.99-1.14-2.99-1.71-1-.56-2-1.12-3-1.67-.36-.2-.71-.39-1.08-.58-.36-.19-.72-.38-1.09-.56-.35-.18-.71-.36-1.06-.53-.02,0-.04-.02-.06-.03-.35-.17-.7-.34-1.05-.51l-.06-.02c-.36-.17-.72-.34-1.09-.5-.32-.15-.64-.29-.96-.43-1.56-.68-3.14-1.33-4.73-1.94-.52-.2-1.04-.39-1.55-.58-1.03-.38-2.06-.75-3.09-1.1-.39-.13-.77-.27-1.16-.39-.39-.13-.78-.26-1.16-.39-1.04-.34-2.08-.68-3.12-1.01-2.09-.65-4.19-1.28-6.29-1.88-1.05-.3-2.11-.6-3.16-.89-.54-.15-1.09-.3-1.63-.45-.97-.27-1.94-.53-2.91-.79-1.12-.31-2.25-.61-3.38-.92-1.06-.29-2.12-.57-3.17-.86-.53-.14-1.06-.29-1.59-.43-4.21-1.16-8.45-2.41-12.75-3.04-1.12-.16-2.26-.2-3.41-.16-.21,0-.43,.02-.64,.03-.25,.01-.49,.03-.73,.05-.25,.02-.49,.04-.74,.06-.49,.04-.98,.09-1.47,.14-.49,.05-.98,.11-1.47,.16-5.11-.13-9.54-.16-13.51-.08-.49-.11-.99-.22-1.48-.32-1.13-.22-2.42,.03-3.57,.3-.3,.07-.6,.15-.89,.24-2.27,.13-4.41,.31-6.46,.55-.34,.04-.68,.08-1.02,.12s-.67,.09-1.01,.13c-1.52,.21-3.01,.46-4.49,.74-.44,.08-.88,.17-1.31,.26-.02,0-.04,0-.07,.01-.41,.09-.83,.17-1.24,.27-.38,.08-.76,.17-1.14,.26-5,1.17-10.1,2.78-16.29,4.92-4.72,1.25-9.43,2.54-14.11,3.93-1.3,.39-2.61,.79-3.91,1.2-.16,.05-.32,.1-.48,.15-.99,.31-1.98,.63-2.97,.96-1.01,.33-2.02,.67-3.02,1.01-.63,.21-1.26,.43-1.89,.66-.42,.14-.84,.29-1.25,.44-.65,.23-1.3,.46-1.95,.7-.82,.29-1.64,.59-2.46,.9-.71,.27-1.43,.53-2.14,.8-2.24,.85-4.48,1.72-6.7,2.62-.68,.28-1.35,.55-2.03,.84-1.69,.7-3.38,1.42-5.05,2.16-.51,.22-1.02,.45-1.54,.68-.52,.23-1.04,.46-1.55,.7-.43,.2-.86,.39-1.29,.59-.34,.16-.68,.32-1.02,.48-.25,.09-.51,.18-.77,.27-.77,.28-1.54,.56-2.32,.83-1.03,.37-2.06,.73-3.09,1.1-2.58,.84-5.12,1.85-7.59,3.01-.45,.21-.89,.43-1.34,.65-.33,.16-.66,.34-.99,.51s-.66,.35-.98,.53c-1.3,.71-2.59,1.48-3.84,2.29l-.82,.54c-1.2,.81-2.37,1.66-3.5,2.55-.17,.13-.34,.26-.5,.4l-.43,.35c-.24,.2-.48,.39-.71,.6-.75,.59-1.5,1.17-2.27,1.75-.42,.31-.84,.62-1.27,.93-.38,.28-.76,.55-1.14,.82-.14,.07-.27,.15-.41,.23-1.12,.61-2.23,1.23-3.34,1.87-.5,.28-1,.57-1.49,.86-.02,0-.03,.01-.04,.02-.26,.15-.52,.3-.77,.46-.47,.27-.93,.55-1.4,.83-.26,.16-.52,.32-.77,.49-.19,.12-.38,.25-.57,.38-.19,.13-.38,.26-.57,.39-.62,.45-1.24,.91-1.85,1.38-.24,.19-.49,.38-.73,.57-2.07,1.62-4.12,3.28-6.38,4.5-.11,.06-.23,.12-.34,.18-.27,.14-.55,.28-.84,.41-.38,.18-.76,.34-1.14,.51s-.76,.33-1.14,.5c-2.42,1.02-4.85,1.93-7.31,2.68-.18,.05-.37,.11-.55,.16-.21,.07-.43,.12-.64,.19-.25,.07-.5,.14-.75,.21-.22,.06-.45,.12-.66,.18-.37,.1-.73,.19-1.1,.27-.2,.05-.39,.09-.58,.14-.26,.06-.52,.12-.79,.17-.55,.12-1.11,.23-1.67,.33-.23,.04-.46,.08-.7,.12-.27,.04-.53,.09-.79,.12-.56,.09-1.12,.16-1.68,.22-.24,.03-.48,.05-.71,.08-.2,.02-.39,.04-.58,.06l-.43,.04c-.2,.02-.39,.03-.59,.04-4.77,.33-9.68-.05-14.78-1.32-.41-.1-.82-.21-1.22-.32-.34-.09-.67-.18-1-.28-.25-.07-.51-.14-.76-.22-.43-.13-.87-.26-1.3-.4-.35-.11-.7-.22-1.04-.34-.35-.11-.69-.23-1.04-.35-1.38-.48-2.73-1-4.07-1.55-.21-.09-.42-.18-.63-.27-.21-.09-.42-.18-.63-.27-2.56-1.11-5.04-2.33-7.49-3.64-.63-.34-1.26-.68-1.88-1.04-1.57-.88-3.11-1.79-4.65-2.72-.31-.19-.62-.38-.92-.56-1.54-.94-3.06-1.91-4.58-2.89-.66-.42-1.31-.85-1.96-1.28-.56-.37-1.11-.73-1.67-1.11-.4-.27-.8-.54-1.2-.81-2.36-1.59-4.7-3.22-7.04-4.84-.3-.21-.59-.41-.89-.61,0,0,0,0,0,0-.01-.01-.03-.02-.04-.03l-.04-.02c-.37-.27-.73-.55-1.1-.84-.37-.28-.73-.56-1.09-.85-2.59-2.04-5.14-4.16-7.8-6.1-.29-.21-.59-.43-.88-.63-.48-.34-.96-.67-1.45-.99-.18-.12-.36-.24-.54-.36-.14-.09-.27-.18-.41-.26-.2-.12-.39-.25-.59-.37-1.38-.84-2.8-1.62-4.29-2.29-.55-.26-1.11-.5-1.67-.74-1.96-.82-3.97-1.52-6-2.16-.58-.18-1.16-.36-1.75-.53-1.46-.43-2.93-.83-4.39-1.23-1.14-.36-2.29-.72-3.43-1.08-1.15-.36-2.3-.71-3.45-1.05,0,0,0,0-.01,0-.8-.29-1.6-.58-2.39-.87-.07-.03-.14-.05-.21-.07-.1-.02-.2-.04-.3-.05-.04,0-.08-.01-.12-.01-.13-.01-.27-.01-.41,0-.64-.19-1.29-.38-1.93-.55-1.16-.33-2.33-.66-3.5-.97,0-.07,0-.13,.01-.18,0-.11,0-.19,0-.23,0,0,0-.02,0-.02,0,0,0,0,0,0-1.03-.12-2.05-.25-3.08-.37-2.17-.56-4.35-1.09-6.54-1.58-.44-.11-.88-.21-1.32-.32-.43-.1-.86-.2-1.29-.29-.02,0-.05-.01-.07-.02-.41-.09-.82-.18-1.23-.26-.02,0-.05,0-.07-.01-.43-.09-.87-.17-1.3-.25-1.16-.21-2.32-.39-3.48-.55-.24-.04-.48-.07-.71-.1-.44-.05-.88-.11-1.32-.16-.38-.04-.75-.08-1.12-.12-.44-.05-.88-.09-1.32-.12h-.02c-.72-.06-1.45-.11-2.17-.16-.28-.02-.55-.04-.83-.05-.4-.02-.8-.04-1.2-.05-.31-.01-.62-.02-.93-.03-.41-.02-.81-.02-1.21-.03-.24,0-.48,0-.73-.01-1.32-.01-2.64,0-3.96,.04-.29,0-.58,.02-.87,.03-.43,.01-.85,.03-1.27,.05-.38,.02-.76,.04-1.14,.06-.38,.02-.76,.05-1.14,.07-.52,.04-1.04,.08-1.56,.12-1.14,.09-2.27,.21-3.4,.34-.35,.04-.69,.08-1.04,.12s-.69,.09-1.04,.13c-.39,.05-.77,.1-1.16,.16-.3,.04-.61,.08-.91,.13-.25,.04-.49,.07-.74,.11-.36,.05-.72,.11-1.08,.17-.12,.02-.24,.04-.36,.06-.65,.11-1.3,.21-1.95,.33-1.37,.25-2.74,.51-4.11,.79-2.73,.56-5.46,1.2-8.17,1.89-.52,.02-1.04,.05-1.55,.1-.14,.01-.27,.06-.41,.12-.02,0-.05,.02-.07,.04-.05,.03-.11,.06-.17,.1s-.11,.07-.17,.11c-.11,.08-.22,.16-.33,.24-1.95,.53-3.9,1.09-5.84,1.66-.64,.19-1.27,.38-1.91,.58-1.3,.39-2.59,.8-3.88,1.22-.17-.05-.34-.09-.5-.11-.04-.01-.07-.02-.1-.02-.04,0-.07-.01-.11-.01-.18-.02-.35,0-.51,.04-1.18,.32-2.35,.64-3.53,.98-.57,.16-1.13,.32-1.7,.49-.62,.18-1.25,.37-1.88,.55-.72,.21-1.45,.43-2.17,.66-1.02,.31-2.05,.63-3.07,.96-.39,.12-.56,.95-.83,1.46,.04,.02,.08,.03,.12,.05,0,0,0,0,0,0-1.48,.6-2.96,1.21-4.43,1.82-1.48,.62-2.95,1.25-4.41,1.89-.04-1.45-.07-2.89-.09-4.33-.02-1.4-.04-2.8-.06-4.2-.01-1.32-.02-2.64-.03-3.96,0-.48,0-.97,0-1.46-.04-9.73,.09-19.46,.09-29.2,0-3.23,.47-6.5,1.11-9.67,.07-.34,.18-.7,.33-1.05h0c.04-.09,.07-.17,.11-.25,.04-.09,.08-.17,.13-.26,.04-.09,.09-.18,.14-.26,.07-.13,.15-.25,.23-.38,.12-.18,.25-.36,.38-.53,.04-.06,.09-.11,.14-.17,.04-.05,.09-.11,.14-.16,.05-.05,.1-.11,.14-.16s.09-.1,.14-.15c.05-.05,.1-.1,.15-.14,.1-.09,.2-.18,.3-.26,.52-.41,1.04-.82,1.56-1.23,.12-.09,.24-.19,.36-.28,.97-.77,1.94-1.54,2.9-2.3,1.09-.86,2.17-1.72,3.25-2.59,1.08-.86,2.17-1.73,3.25-2.59,4.04-3.23,8.08-6.46,12.13-9.68,1.12-.89,2.23-1.77,3.36-2.66s2.24-1.77,3.36-2.65c1.12-.88,2.25-1.76,3.37-2.64,1.12-.88,2.25-1.75,3.38-2.62,1.13-.88,2.26-1.74,3.39-2.61,.89-.68,1.78-1.36,2.68-2.04,1.38-1.05,2.77-2.09,4.16-3.12,.98-.73,1.96-1.46,2.94-2.18,.2-.15,.4-.29,.6-.44,1.12-.82,2.24-1.63,3.36-2.44,2.13-1.54,4.31-3.02,6.53-4.45,1.84-1.19,3.71-2.35,5.6-3.49,.38-.23,.75-.45,1.13-.68,.76-.45,1.52-.9,2.28-1.34,.76-.44,1.52-.88,2.29-1.32,6.12-3.51,12.36-6.87,18.48-10.34,2.96-1.68,5.98-3.25,9.06-4.68,3.08-1.43,6.21-2.71,9.4-3.83,.71-.25,1.42-.48,2.13-.71,1.07-.34,2.15-.67,3.24-.97,.72-.2,1.45-.39,2.18-.57,2.55-.64,5.14-1.16,7.76-1.54,1.36-.2,2.74-.39,4.12-.56,1-.12,2.01-.23,3.02-.34,.76-.08,1.52-.15,2.28-.21,3.98-.32,7.97-.43,11.88-.16,1.15,.08,2.3,.19,3.43,.34,.38,.05,.75,.1,1.13,.16,1.45,.22,2.89,.46,4.33,.73,2.17,.39,4.33,.83,6.48,1.31,7.91,1.77,15.72,4.1,23.27,6.9,2.4,.89,4.79,1.82,7.17,2.77,.95,.38,1.9,.77,2.85,1.16,.48,.2,.95,.39,1.42,.59,.95,.39,1.89,.79,2.84,1.19,3.31,1.4,6.6,2.83,9.89,4.29,.94,.41,1.88,.83,2.81,1.25,.94,.42,1.88,.84,2.81,1.26,.94,.42,1.88,.84,2.81,1.26,.47,.21,.94,.42,1.41,.63,1.4,.63,2.81,1.27,4.21,1.89,2.34,1.05,4.68,2.1,7.03,3.14,5.92,2.61,11.84,5.23,17.74,7.87,2.53,1.13,5.06,2.27,7.58,3.42,5.05,2.3,10.07,4.63,15.08,7.02,1.86,.89,3.7,1.81,5.53,2.75,.73,.38,1.46,.76,2.2,1.14,2.2,1.15,4.38,2.32,6.56,3.49,.73,.39,1.45,.78,2.18,1.17,.73,.39,1.45,.77,2.18,1.16,.36,.19,.73,.38,1.09,.57,.73,.38,1.46,.76,2.2,1.14,1.83,.94,3.67,1.86,5.52,2.75,.74,.36,1.48,.7,2.23,1.04,.75,.34,1.5,.68,2.25,1,1.13,.49,2.26,.97,3.41,1.42,.99,.39,1.99,.79,2.98,1.17,1.99,.78,3.99,1.54,6,2.29,1,.38,2.01,.74,3.01,1.11,2.01,.73,4.03,1.45,6.05,2.15,3.03,1.05,6.08,2.08,9.14,3.06,2.04,.66,4.08,1.3,6.13,1.93,5.12,1.57,10.26,3.04,15.43,4.4,7.56,2,15.4-1.87,22.81-4.9,2.88-1.18,5.71-2.43,8.5-3.75,1.39-.66,2.78-1.34,4.16-2.03,1.38-.69,2.74-1.39,4.1-2.12,2.71-1.44,5.4-2.94,8.05-4.48,5.31-3.09,10.5-6.36,15.63-9.74,2.57-1.69,5.12-3.4,7.66-5.14,1.27-.86,2.54-1.73,3.8-2.61,1.27-.87,2.53-1.75,3.8-2.62,2.53-1.75,5.05-3.51,7.58-5.27,1.84-1.28,3.69-2.57,5.53-3.85,.92-.64,1.84-1.28,2.76-1.93,9.22-6.41,18.44-12.82,27.74-19.1,1.86-1.25,3.72-2.51,5.59-3.75,.93-.62,1.87-1.24,2.8-1.86,.83-.55,1.67-1.1,2.5-1.65,1.67-1.1,3.34-2.2,5.02-3.29,1.68-1.09,3.36-2.18,5.04-3.27,1.68-1.08,3.36-2.16,5.05-3.24,3.37-2.15,6.76-4.28,10.16-6.38,1.7-1.05,3.41-2.1,5.11-3.14s3.42-2.07,5.13-3.1c.86-.51,1.72-1.02,2.58-1.53,.55-.32,1.1-.64,1.65-.96,2.76-1.59,5.57-3.1,8.41-4.55,1.14-.58,2.27-1.16,3.42-1.73,1.71-.86,3.44-1.7,5.16-2.53,.58-.28,1.15-.55,1.73-.83,1.73-.83,3.46-1.66,5.18-2.49,.57-.27,1.15-.55,1.72-.83,1.27-.61,2.55-1.2,3.84-1.75,.96-.41,1.94-.81,2.91-1.19,.32-.12,.65-.25,.98-.37,2.29-.86,4.6-1.61,6.94-2.27,.34-.09,.67-.18,1.01-.27,1-.27,2.02-.52,3.03-.75,.68-.15,1.36-.3,2.04-.44,.34-.07,.68-.13,1.02-.2,1.37-.25,2.75-.48,4.13-.66,2.07-.28,4.17-.48,6.28-.6,8.07-.45,15.35,2.6,22.49,6.13,2.16,1.07,4.32,2.12,6.48,3.16,1.45,.69,2.89,1.38,4.34,2.07,2.9,1.38,5.8,2.74,8.7,4.11l4.35,2.06c1.45,.69,2.89,1.39,4.34,2.08,1.44,.7,2.88,1.4,4.32,2.11,.72,.36,1.44,.71,2.15,1.07,2.19,1.1,4.38,2.2,6.56,3.31s4.37,2.22,6.55,3.34,4.36,2.24,6.54,3.36c2.18,1.12,4.36,2.25,6.54,3.37,7.62,3.93,15.25,7.84,22.93,11.66,1.1,.55,2.2,1.09,3.29,1.63,14.45,7.1,29.14,13.71,43.8,20.4,13.45,6.14,26.86,12.4,40.52,18.03,4.84,1.99,9.7,3.94,14.59,5.82,1.63,.63,3.26,1.25,4.9,1.86,.82,.31,1.63,.61,2.45,.91,5.73,2.12,11.49,4.16,17.28,6.1,.46,.15,.91,.3,1.38,.46,0,0,0,0,0,0,4.59,1.54,9.2,3.09,13.84,4.48,.46,.14,.93,.28,1.4,.42,.93,.27,1.86,.54,2.79,.79,3.27,.9,6.55,1.7,9.87,2.34,.47,.09,.95,.18,1.42,.26,.95,.17,1.91,.33,2.87,.47,4.38,.65,8.82,.98,13.32,.87,1.83-.05,3.68-.18,5.52-.4,1.32-.15,2.64-.35,3.96-.58,1.32-.23,2.63-.5,3.94-.8,.52-.12,1.05-.24,1.57-.38,.52-.13,1.04-.26,1.56-.4s1.04-.29,1.55-.43,1.03-.3,1.54-.46c1.79-.55,3.56-1.14,5.29-1.78,.41-.15,.81-.3,1.22-.45,.81-.3,1.62-.61,2.42-.93,2.01-.79,4-1.62,5.96-2.48,.79-.34,1.57-.7,2.35-1.05,.78-.36,1.55-.71,2.33-1.08,.39-.18,.77-.37,1.16-.55,.77-.37,1.54-.75,2.3-1.13,.77-.38,1.53-.77,2.29-1.16,1.52-.78,3.02-1.58,4.52-2.41,1.5-.82,2.98-1.66,4.45-2.52,1.11-.64,2.21-1.29,3.3-1.96,1.82-1.1,3.63-2.23,5.43-3.38,.71-.46,1.43-.93,2.14-1.39,1.07-.7,2.13-1.41,3.19-2.13,.71-.48,1.41-.96,2.12-1.45,.35-.24,.7-.49,1.05-.73,.7-.49,1.4-.98,2.09-1.48,7.32-5.2,14.42-10.73,21.41-16.43,1.73-1.42,3.46-2.84,5.19-4.27,2.59-2.14,5.16-4.3,7.73-6.48,.86-.72,1.71-1.45,2.56-2.17,8.54-7.24,17.04-14.55,25.67-21.69,6.39-5.29,12.81-10.53,19.23-15.77,4.29-3.49,8.57-6.98,12.86-10.48,6.42-5.24,12.84-10.49,19.22-15.79,.05-.05,.11-.1,.16-.15,1.03-1.04,1.72-3.48,1.26-4.72-4.68-12.45-10.41-24.55-14.38-37.21-4.44-14.2-12.48-26.48-18.57-39.79-10.49-22.92-24.57-43.69-38.38-64.55-9.09-13.74-20.01-26.29-30.38-39.16-7.68-9.53-15.27-19.23-23.84-27.92-.6-.61-1.21-1.21-1.82-1.82-1.21-1.2-2.45-2.39-3.69-3.57-1.86-1.77-3.76-3.51-5.67-5.23-6.37-5.75-12.93-11.29-19.36-16.96-1.85-1.62-3.69-3.26-5.54-4.88-1.39-1.22-2.78-2.44-4.17-3.65-.93-.81-1.86-1.61-2.8-2.41-3.27-2.8-6.57-5.57-9.95-8.24-9.94-7.88-19.93-15.77-30.42-22.88-3.27-2.22-6.57-4.4-9.89-6.56-1.66-1.08-3.32-2.15-4.99-3.21-.83-.54-1.67-1.06-2.5-1.59-1.67-1.05-3.35-2.11-5.03-3.15-1.68-1.04-3.37-2.08-5.05-3.11-2.53-1.55-5.07-3.08-7.62-4.61-1.7-1.02-3.4-2.03-5.1-3.03-2.05-1.21-4.14-2.36-6.25-3.46-1.05-.55-2.12-1.1-3.18-1.63-1.6-.8-3.21-1.59-4.82-2.37-3.77-1.82-7.55-3.59-11.3-5.45-5.23-2.59-10.44-5.26-15.67-7.86-1.96-.98-3.93-1.95-5.89-2.9-3.29-1.59-6.59-3.13-9.93-4.6-.59-.26-1.18-.52-1.78-.77-2.38-1.02-4.77-2.01-7.17-2.96-1.8-.71-3.62-1.41-5.43-2.1-1.21-.46-2.43-.9-3.64-1.34-1.22-.44-2.44-.88-3.66-1.3-2.45-.86-4.89-1.68-7.35-2.49-9.52-3.12-19.05-6.22-28.62-9.18-2.13-.66-4.26-1.3-6.39-1.95-2.13-.64-4.27-1.27-6.4-1.89-3.21-.93-6.42-1.84-9.64-2.72-.75-.2-1.49-.4-2.24-.6-1.49-.39-2.99-.77-4.5-1.12-4.51-1.08-9.05-2.03-13.62-2.9-1.52-.29-3.04-.57-4.56-.86s-3.05-.55-4.57-.82c-2.29-.4-4.57-.8-6.86-1.2-1.81-.32-3.64-.48-5.48-.58-.37-.02-.74-.04-1.11-.05-1.85-.08-3.7-.11-5.55-.2-.37-.02-.74-.04-1.11-.05-1.48-.08-2.95-.2-4.41-.41-1.68-.24-3.35-.76-5.01-1.32-.83-.28-1.65-.56-2.48-.83-.07-.02-.14-.05-.21-.07-1.85-.59-3.7-1.05-5.54-1.05-.12,0-.23,0-.35,0-3.96,.13-7.79,.02-11.69-.41-2.42-.27-4.87-.33-7.3-.47-4.34-.25-8.68-.43-13.02-.7-.79-.05-1.58-.1-2.37-.16-.79-.06-1.57-.12-2.36-.18-.39-.03-.79-.07-1.18-.1-.46-.04-.91-.11-1.36-.21-.6-.12-1.2-.29-1.8-.46-.15-.04-.3-.09-.45-.13-.3-.09-.6-.18-.9-.28-.3-.09-.6-.18-.9-.27-.6-.17-1.2-.33-1.81-.44-.27-.05-.56-.11-.85-.16-.44-.09-.89-.17-1.33-.23-1.09-.15-2.17-.18-3,.22-8.03,3.94-16.29,1.72-24.49,1.39-.55-.02-1.11,.13-1.68,.22-.17,.03-.35,.05-.52,.06-2.72,.12-5.44,.23-8.16,.35-4.08,.17-8.16,.34-12.25,.52-4.08,.18-8.16,.39-12.24,.64-.9,.05-1.77,.41-2.65,.8l-.75,.34-.56,.25c-.69,.29-1.39,.52-2.09,.58-.89,.07-1.78,.13-2.68,.19-.89,.05-1.79,.1-2.68,.14-1.34,.07-2.68,.12-4.02,.18-.89,.04-1.79,.07-2.68,.11-1.34,.06-2.68,.12-4.02,.2-.89,.05-1.79,.11-2.68,.18-.89,.07-1.78,.14-2.67,.23-3.36,.34-6.71,.77-10.04,1.3-.84,.13-1.67,.27-2.5,.41-1.25,.21-2.49,.45-3.73,.69-1.24,.24-2.48,.5-3.71,.77-3.77,.84-7.55,1.67-11.33,2.52-1.89,.42-3.78,.84-5.66,1.27-1.88,.43-3.77,.86-5.65,1.3-1.89,.44-3.77,.88-5.65,1.33-.94,.23-1.88,.45-2.82,.68-1.88,.46-3.75,.93-5.62,1.4-1.88,.48-3.75,.96-5.61,1.46-.93,.25-1.86,.5-2.8,.76-5.12,1.4-10.2,2.94-15.27,4.54-1.69,.54-3.38,1.07-5.06,1.62-.84,.27-1.69,.55-2.53,.82-1.68,.55-3.37,1.11-5.05,1.67-1.68,.56-3.36,1.12-5.04,1.68s-3.36,1.12-5.04,1.68c-.84,.28-1.68,.56-2.52,.84-.86,.29-1.71,.57-2.57,.86-3,1.02-5.98,2.06-8.95,3.17-.85,.32-1.69,.64-2.54,.96s-1.68,.66-2.52,1c-1.25,.51-2.5,1.03-3.75,1.57-1.89,.82-3.78,1.66-5.66,2.52-3.14,1.42-6.25,2.88-9.37,4.34-1.25,.59-2.49,1.18-3.74,1.76-.62,.3-1.24,.59-1.87,.88-1.24,.59-2.49,1.18-3.73,1.76s-2.49,1.17-3.74,1.75l-1.88,.87c-25.06,11.59-48.87,25.38-71.35,41.35-3.32,2.36-6.64,4.73-9.95,7.12-4.96,3.59-9.88,7.23-14.71,10.97-1.61,1.25-3.21,2.51-4.8,3.78-3.18,2.55-6.31,5.14-9.38,7.81-5.33,4.64-10.66,9.3-15.93,14.03-1.58,1.42-3.16,2.84-4.73,4.27-1.05,.95-2.09,1.91-3.13,2.87-1.04,.96-2.08,1.92-3.11,2.89s-2.07,1.93-3.09,2.91c-.52,.49-1.03,.97-1.54,1.46-1.54,1.46-3.06,2.94-4.58,4.42-4.55,4.45-9.01,8.97-13.35,13.61-15.07,16.1-28.23,34-42.07,51.23-16.28,20.25-28.98,42.83-41.5,65.46-5.31,9.61-9.46,19.88-13.95,29.93-4.89,10.95-9.98,21.83-14.2,33.04-4.3,11.39-7.82,23.09-11.36,34.75-2.12,6.98-3.62,14.15-5.39,21.23-2.25,9.02-4.83,17.98-6.64,27.09-1.47,7.45-1.86,15.1-3.02,22.61-.57,3.64-2.14,7.13-2.66,10.77-.56,3.94-.45,7.98-.59,11.98-.04,.87,.2,1.76,.1,2.61-.67,5.64-1.39,11.27-2.12,16.89-.11,.83-.11,1.78-.54,2.43-.14,.21-.29,.41-.45,.61h0c-.09,.12-.18,.23-.27,.34-.09,.11-.18,.23-.29,.34-.09,.11-.19,.22-.29,.33-.38,.41-.76,.82-1.14,1.23-.12,.13-.24,.27-.36,.4-.31-1.22-.99-2.48-.87-3.64,.83-7.67,1.66-15.34,2.56-23,.18-1.49,.35-2.98,.54-4.48,.18-1.52,.37-3.05,.57-4.57,.19-1.52,.39-3.05,.59-4.57,1.58-11.91,3.27-23.81,5.38-35.64,1.28-7.17,3.34-14.21,5.27-21.26,3.97-14.52,7.36-29.25,12.32-43.43,5.8-16.56,12.6-32.82,19.78-48.84,5.92-13.21,12.62-26.11,19.73-38.73,7.82-13.89,15.93-27.69,24.92-40.84,10.04-14.68,20.87-28.85,32.01-42.72,.53-.66,1.06-1.32,1.6-1.98,.55-.68,1.1-1.35,1.65-2.02,.52-.64,1.05-1.27,1.58-1.91,.97-1.16,1.94-2.32,2.92-3.46,.35-.41,.71-.83,1.06-1.24,.92-1.07,1.84-2.13,2.78-3.19,.51-.59,1.03-1.17,1.55-1.75,.53-.59,1.06-1.19,1.6-1.78,.67-.75,1.35-1.49,2.03-2.23,.43-.46,.85-.93,1.28-1.39,.68-.73,1.35-1.45,2.04-2.16,.3-.32,.61-.65,.93-.97,.33-.35,.66-.7,1-1.04,1.69-1.75,3.4-3.49,5.14-5.2,.88-.87,1.76-1.73,2.64-2.59s1.77-1.72,2.66-2.58,1.77-1.71,2.66-2.57c5.34-5.12,10.76-10.18,16.22-15.2,1.58-1.45,3.16-2.89,4.74-4.33,.24-.22,.49-.45,.73-.66,1.37-1.25,2.75-2.49,4.12-3.73s2.75-2.48,4.13-3.71c1.84-1.65,3.68-3.29,5.53-4.93,.54-.48,1.07-.95,1.61-1.42,.41-.37,.83-.73,1.25-1.09,.46-.4,.91-.79,1.38-1.18,.61-.52,1.21-1.04,1.83-1.55,5.64-4.71,11.46-9.22,17.31-13.68,1.14-.87,2.28-1.73,3.42-2.6,.51-.39,1.03-.77,1.54-1.15,.45-.33,.89-.66,1.34-.98,.36-.26,.72-.52,1.09-.78,.34-.24,.67-.48,1.01-.71,5.04-3.55,10.23-6.91,15.33-10.38,5.4-3.67,10.75-7.43,16.29-10.9,5.33-3.34,10.79-6.5,16.33-9.47,1.89-1.01,3.78-2.01,5.68-3,.95-.5,1.9-.99,2.85-1.48,.95-.49,1.91-.98,2.86-1.47,3.81-1.95,7.64-3.88,11.46-5.82,9.31-4.73,18.7-9.28,28.23-13.48,1.36-.6,2.73-1.2,4.09-1.78,2.74-1.17,5.48-2.32,8.25-3.43,1.38-.55,2.77-1.1,4.15-1.64,6.94-2.69,13.97-5.17,21.11-7.37,1.36-.42,2.72-.83,4.09-1.25,1.44-.43,2.88-.86,4.32-1.29,1.29-.38,2.59-.76,3.88-1.14,4.1-1.2,8.21-2.38,12.32-3.57,2.74-.79,5.47-1.59,8.2-2.4,8.23-2.44,16.32-5.39,24.66-7.34,.81-.19,1.62-.38,2.43-.55,.22-.05,.44-.1,.66-.14,1.69-.38,3.39-.73,5.09-1.08,.91-.19,1.82-.37,2.73-.54,1.22-.23,2.43-.46,3.66-.68,1.22-.22,2.44-.43,3.66-.64,.61-.1,1.22-.2,1.84-.3,.5-.09,1-.17,1.5-.25,.72-.12,1.45-.23,2.17-.35,1.23-.19,2.45-.38,3.68-.56,.61-.09,1.22-.18,1.84-.27,14.15-2.05,28.35-3.84,42.57-5.33,1.39-.14,2.77-.28,4.16-.4,.56-.05,1.13-.1,1.69-.15,1.3-.11,2.6-.21,3.91-.31l1.43-.11c.82-.06,1.65-.12,2.48-.17,.99-.07,1.99-.13,2.98-.2,.96-.06,1.93-.12,2.89-.18,.98-.06,1.96-.11,2.94-.17,.98-.06,1.96-.11,2.94-.17,1.96-.11,3.91-.21,5.87-.33,8.61-.49,17.27-1.31,25.86-.97,1.97,.08,3.94,.16,5.91,.25,2.55,.11,5.09,.23,7.64,.36,.72,.04,1.45,.07,2.17,.11,1.35,.07,2.7,.14,4.05,.23,.55,.03,1.1,.06,1.65,.1,.74,.04,1.48,.09,2.21,.14,.98,.06,1.97,.13,2.95,.2,.98,.07,1.96,.14,2.95,.21,.98,.07,1.96,.15,2.95,.23,.98,.08,1.96,.16,2.95,.25,.98,.08,1.96,.17,2.95,.26,.98,.09,1.96,.19,2.94,.29,.98,.1,1.96,.2,2.94,.3,.98,.11,1.96,.21,2.93,.33,.88,.1,1.77,.21,2.65,.32,.11,.01,.23,.03,.35,.04,.84,.11,1.68,.21,2.52,.33,.08,.01,.16,.02,.23,.03,.87,.12,1.74,.24,2.61,.37,.93,.13,1.85,.27,2.78,.41,.75,.11,1.5,.23,2.26,.35,7.58,1.2,15.13,2.59,22.68,3.98,1.38,.25,2.77,.51,4.15,.76s2.77,.5,4.15,.75l2.07,.36c.35,.06,.69,.12,1.04,.18,.69,.12,1.38,.24,2.08,.36,1.73,.29,3.46,.59,5.2,.88,.7,.12,1.39,.24,2.08,.36,1.73,.3,3.46,.61,5.19,.93,.69,.13,1.38,.26,2.07,.39,3.91,.75,7.79,1.6,11.62,2.61,.57,.15,1.13,.3,1.7,.46,6.43,1.79,12.84,3.66,19.22,5.61,.78,.24,1.56,.48,2.34,.72,1.35,.42,2.7,.84,4.04,1.27,1.21,.38,2.41,.76,3.62,1.15,1.97,.63,3.95,1.27,5.91,1.92,1.05,.35,2.11,.7,3.17,1.05s2.11,.71,3.16,1.06,2.11,.71,3.16,1.07c1.05,.36,2.1,.72,3.16,1.09,1.05,.36,2.1,.73,3.15,1.1,1.4,.49,2.8,1,4.2,1.51,.57,.21,1.15,.42,1.72,.63,2.21,.82,4.43,1.66,6.63,2.52,.77,.3,1.54,.61,2.31,.91,.82,.33,1.64,.65,2.46,.98,1.64,.66,3.27,1.33,4.91,2,1.22,.51,2.45,1.02,3.66,1.54s2.44,1.04,3.66,1.55c3.25,1.39,6.48,2.81,9.71,4.23,.71,.32,1.43,.64,2.14,.96,.48,.21,.96,.43,1.45,.66,.27,.12,.54,.25,.8,.37,.46,.21,.91,.42,1.37,.64,.25,.11,.5,.23,.74,.34,.5,.23,1,.47,1.5,.71,.09,.04,.17,.08,.25,.12,1.27,.61,2.54,1.22,3.81,1.84,.66,.32,1.33,.65,1.99,.98,.7,.34,1.4,.7,2.1,1.04,1.29,.64,2.57,1.29,3.86,1.94,.66,.34,1.32,.67,1.98,1.01,.57,.29,1.14,.58,1.71,.88,.09,.05,.18,.09,.27,.14,1.15,.59,2.3,1.18,3.46,1.78,1.48,.76,2.96,1.53,4.44,2.29,1.76,.91,3.52,1.82,5.27,2.74,.92,.48,1.84,.96,2.75,1.45,.51,.27,1.01,.54,1.52,.8,.72,.38,1.44,.77,2.16,1.15,2.64,1.42,5.27,2.85,7.88,4.32,.35,.2,.7,.39,1.05,.59,.68,.39,1.37,.78,2.05,1.17,.74,.43,1.49,.86,2.23,1.29,.32,.18,.63,.37,.95,.55,.65,.38,1.3,.77,1.95,1.16,3.64,2.18,7.14,4.62,10.59,7.12,.77,.56,1.54,1.12,2.3,1.68s1.53,1.12,2.29,1.69c1.14,.85,2.29,1.69,3.43,2.53,1.52,1.11,3.05,2.23,4.57,3.34,9.72,7.07,19.5,14.07,29.13,21.26,.95,.71,1.91,1.42,2.86,2.14,1,.75,2.01,1.52,3.01,2.28,.92,.7,1.84,1.4,2.75,2.11,.77,.59,1.53,1.18,2.3,1.78,.54,.42,1.08,.84,1.62,1.26,.76,.59,1.52,1.19,2.27,1.79,.34,.27,.69,.55,1.03,.82,.17,.14,.33,.27,.5,.41,.17,.13,.33,.27,.5,.41,.33,.27,.66,.55,1,.84,.23,.19,.45,.39,.68,.58,.16,.13,.31,.27,.46,.4,1.63,1.43,3.23,2.89,4.81,4.39,1.05,1,2.09,2.01,3.13,3.02,1.46,1.43,2.9,2.88,4.34,4.32,.36,.35,.71,.7,1.06,1.06,1.36,1.36,2.71,2.71,4.07,4.06,.38,.38,.76,.75,1.14,1.12,.32,.32,.65,.64,.97,.95,.52,.51,1.05,1.01,1.57,1.51,5.45,5.17,11.19,10.05,16.39,15.45,6.15,6.38,12.05,13.03,17.73,19.84,7.11,8.53,14.12,17.16,20.72,26.08,7.59,10.27,15.16,20.61,21.89,31.46,11.18,18.04,22.43,36.1,32.24,54.89,8.73,16.71,15.77,34.32,23.12,51.71,3.13,7.41,5.06,15.32,7.68,22.95,7.39,21.55,13.18,43.53,17.01,65.99,1.96,11.49,3.86,23.01,5.29,34.58,1.41,11.43,2.36,22.91,3.23,34.39,.62,8.18,.96,16.4,1.07,24.61Z"/>
  <path class="cls-4" d="M481.42,1061.98c.09-.11,.18-.23,.27-.34-.13,1.64-.25,3.28-.33,4.92-.52,.41-1.04,.82-1.56,1.23-.1,.08-.2,.17-.3,.26-.05,.05-.1,.09-.15,.14-.05,.05-.1,.1-.14,.15-.05,.05-.1,.1-.14,.16-.05,.05-.1,.11-.14,.16-.05,.05-.09,.11-.14,.17-.14,.17-.26,.34-.38,.53-.08,.12-.16,.25-.23,.38-.05,.09-.1,.18-.14,.26-.05,.09-.09,.17-.13,.26-.04,.08-.08,.17-.11,.25,0-5.72,.45-11.44,1.16-17.14,.36-3.67,.69-7.34,.96-11.01,.02-.09,.04-.18,.05-.28,.02-.09,.02-.18,.03-.27,0-.08,.01-.16,.02-.24,.03-.6-.02-1.25,0-1.87,0-.05,0-.09,0-.14h0c0-.07,.01-.14,.02-.2s.02-.13,.03-.2c0-.03,0-.06,.02-.09,0-.03,.01-.06,.02-.09,.01-.06,.03-.12,.05-.18,.02-.06,.04-.12,.06-.18,.02-.06,.04-.11,.07-.17,.02-.05,.05-.11,.09-.16,.01-.03,.03-.05,.05-.08,.02-.02,.04-.05,.05-.07,.03-.04,.05-.07,.09-.11,.02-.02,.04-.04,.06-.06,.04-.04,.07-.08,.12-.11,.09-.08,.2-.15,.32-.21-.9,7.66-1.73,15.33-2.56,23-.12,1.17,.56,2.43,.87,3.64,.12-.13,.24-.27,.36-.4,.38-.41,.76-.82,1.14-1.23,.1-.11,.2-.22,.29-.33,.1-.11,.19-.22,.29-.34Z"/>
  <path class="cls-5" d="M481.24,1037.54c1.3-.47,2.55,.75,2.37,2.05-.33,7.37-1.32,14.7-1.92,22.05h0c-.13,1.64-.25,3.28-.33,4.92-.07,1.45-.12,2.9-.14,4.35,.05,4.45,.65,8.87,1.12,13.3,.13,2.29-3.29,2.58-3.53,.24-.72-4.64-1.03-9.29-1.04-13.95,0-5.72,.45-11.44,1.16-17.14,.36-3.67,.69-7.34,.96-11.01,.04-.17,.07-.36,.08-.55,.02-.21,.02-.43,.02-.65,0-.6-.04-1.23,.03-1.8,0-.07,.02-.13,.03-.2l.04-.19c.02-.06,.03-.12,.05-.18s.04-.12,.06-.18c.02-.06,.04-.11,.07-.17s.05-.11,.09-.16,.06-.1,.1-.15c.03-.04,.06-.07,.09-.11,.13-.15,.29-.28,.49-.38,.06-.04,.13-.07,.2-.09Z"/>
  <path class="cls-2" d="M1562.38,1451.39c10.02,11.46,15.3,24.49,11.1,39.76-2.93,10.66-9.69,19.5-18.39,25.79-10.85,7.85-22.48,14.93-34.55,20.71-11.95,5.71-24.74,9.84-37.42,13.84-13.88,4.38-27.95,8.24-42.13,11.52-10.98,2.54-22.23,3.94-33.4,5.64-12.57,1.91-25.18,3.62-37.77,5.34-3.57,.49-7.16,.88-10.75,1.06-15.16,.77-30.32,1.7-45.5,2.1-22.06,.59-44.13,1.12-66.19,1.01-14.99-.08-29.99-1.11-44.96-2.08-11.66-.75-23.29-2-34.93-3.16-17.22-1.71-34.42-3.58-51.64-5.3-11.46-1.15-22.91-2.64-34.39-3.09-13.9-.54-27.9-.95-41.74,.09-15.03,1.15-30.21,2.8-44.42,8.42-5.79,2.29-11.98,4.89-16.39,9.04-6.49,6.11-14.29,8.55-22.2,11.02-13.4,4.19-26.85,8.36-40.5,11.59-10.98,2.59-22.27,3.88-33.45,5.53-12.93,1.91-25.88,3.64-38.84,5.33-4.27,.56-8.58,.89-12.88,1.07-10.69,.45-21.38,.76-32.07,1.09-12.29,.38-24.59,.98-36.88,.99-11.94,0-23.89-.38-35.8-1.05-13.97-.79-27.96-1.62-41.85-3.25-17.15-2.01-34.27-4.46-51.28-7.46-17.28-3.05-34.51-6.52-51.55-10.67-20.98-5.12-41.36-11.98-61.15-20.95-17.61-7.98-34.09-17.15-47.12-31.57-9.47-10.49-14.55-22.77-8.53-36.58,2.9-6.65,7.44-13.33,12.95-17.96,23-19.36,50.76-28.81,79.49-35.66,14.49-3.45,29.01-6.84,43.63-9.66-.71-1.11-1.37-2.25-2.12-3.34-.8-1.05-1.61-2.09-2.41-3.13-.24-.16-.45-.36-.61-.59-9-12.4-17.86-24.91-26.64-37.45-4.32-6.17-8.83-12.27-12.56-18.8-7.79-13.61-15.33-27.38-22.57-41.29-4.09-7.86-7.51-16.07-11.03-24.21-4.63-10.7-9.06-21.48-13.57-32.23-.24-.57-.52-1.13-.79-1.7-.44-.27-.79-.68-.97-1.18h0v-.02c-.05-.17-.13-.34-.2-.52-.13-.37-.24-.74-.36-1.12-.3-.91-.64-1.82-1-2.71-.53-1.2-1.21-2.32-1.61-3.57-.32-1-.58-2.02-.87-3.02-.09-.32-.2-.63-.31-.95-.15-.12-.29-.26-.42-.4,.14,.14,.28,.27,.43,.4-.31-.9-.65-1.79-.88-2.7-.3-1.17,.4-2.39,1.57-2.71,1.16-.3,2.41,.41,2.71,1.57,.15,.59,.37,1.15,.57,1.71,.23,.66,.45,1.32,.63,2,.09,.32,.17,.65,.26,.98,.34-.07,.69-.16,1.03-.23-.34,.08-.69,.16-1.03,.24,.19,.71,.39,1.44,.66,2.12,.47,1.05,1.04,2.05,1.46,3.12,.2,.48,.38,.97,.56,1.46,.25,.27,.45,.54,.61,.84,1.7,3.36,2.93,6.95,4.36,10.45,3.91,9.58,7.63,19.23,11.78,28.7,4.88,11.13,9.96,22.19,15.28,33.12,2.89,5.94,6.47,11.55,9.73,17.3,9.58,14.91,18.39,29.45,27.77,43.6,3.9,5.88,8.34,11.4,12.72,16.97,.1-.02,.2-.03,.31-.04,1.09-.04,1.98,.71,2.24,1.73,0-.04-.02-.09-.03-.13,.04,.12,.07,.23,.11,.35,.11,.25,.22,.5,.34,.75,.27,.45,.55,.88,.86,1.31,.78,1.07,1.56,2.15,2.33,3.23,0,.01,.02,.02,.02,.03,.67,.92,1.36,1.81,2.06,2.71,.73,.93,1.46,1.88,2.08,2.88,.66,1.07,1.31,2.14,2,3.19,.07,.12,.15,.23,.23,.35,.01,0,.03,0,.04,0,10.25-1.88,20.75-2.46,31.17-3.31,15.01-1.23,30.02-2.64,45.06-3.13,19.19-.62,38.4-1.07,57.6-1.07,4.11,0,8.21,.02,12.32,.06,13.07,.13,26.12,1.98,39.19,3.02,9.3,.74,18.59,1.61,27.91,2.09,10.68,.56,21.44,1.6,32.06,.91,15.13-.98,30.18-3.24,45.24-5.2,5.29-.68,10.49-2.07,15.73-3.13,10.82-3.91,20.81-7.33,30.23-11.93,4.95-2.42,8.62-7.3,13.32-10.39,13.61-8.96,28.89-14.54,44.31-19.04,20.23-5.91,40.86-10.59,61.48-15.02,14.81-3.19,29.86-5.39,44.87-7.5,9.04-1.27,18.23-1.62,27.36-2.21,12.5-.8,24.99-1.8,37.5-2.08,26.86-.6,53.73-1.06,80.59-1.02,12.68,.02,25.37,1.08,38.03,2.07,14.89,1.17,29.79,2.43,44.61,4.3,16.44,2.07,32.95,4.09,49.12,7.55,24.52,5.23,48.88,11.36,73.14,17.71,2.3,.6,4.58,1.23,6.86,1.89,.14-.18,.28-.37,.42-.55,.79-1.02,1.67-1.96,2.45-2.98,1.32-1.74,2.69-3.43,3.99-5.17,.78-1.07,1.5-2.17,2.16-3.32,.46-.81,.9-1.64,1.36-2.44,.57-1.01,1.11-2.05,1.64-3.08,.6-1.16,1.26-2.28,1.93-3.4,.39-.65,1.12-.97,1.85-.96,4.77-7.79,9.54-15.58,13.89-23.6,6.5-11.96,12.23-24.38,17.71-36.84,4.07-9.24,7.56-18.73,11.26-28.14,0-.06,.01-.12,.02-.18v.06c.13-1.77,.37-3.55,.86-5.25,.3-1.04,.69-2.05,1.12-3.04,.36-.82,.83-1.59,1.25-2.38,.5-1.03,.89-2.12,1.28-3.19,.27-.8,.47-1.61,.68-2.42,.23-.88,.51-1.73,.8-2.59,.02-.04,.03-.09,.05-.13,.5-1.39,1.32-3.03,2.96-3.18,1.17-.11,2.25,.7,2.43,1.86,0,.03,0,.06,.01,.1,.09,.83-.32,1.63-.98,2.09-.08,.2-.16,.39-.24,.59-.63,1.88-1.05,3.83-1.73,5.69-.3,.83-.6,1.66-.96,2.46-.24,.54-.51,1.05-.79,1.56,.09,.81,.11,1.6-.15,2.28-.71,1.84-1.43,3.68-2.14,5.52-.02,.16-.03,.33-.04,.5,0-.09,.01-.19,.02-.28-.07,.88-.26,1.7-.55,2.55-.3,.87-.6,1.74-.93,2.6-.6,1.55-1.35,3.04-1.89,4.62-.13,.41-.26,.83-.4,1.24l-.02,.07c-.41,1.25-.9,2.48-1.31,3.73-.04,.12-.07,.24-.11,.37-.21,.74-.75,1.33-1.44,1.57-2.66,6.69-5.35,13.37-8.07,20.04-1.8,4.4-4.21,8.55-6.35,12.81-7.56,13.24-14.56,25.97-21.62,38.66-3.05,5.49-6.08,11-9.39,16.33-.42,.67-1.16,1.14-1.97,1.57-.85,1.09-1.71,2.19-2.55,3.29-.62,.8-1.26,1.58-1.9,2.36,18.86,5.81,37.02,13.56,54.57,22.66,14.87,7.7,28.74,17.02,39.91,29.78Z"/>
  <path class="cls-1" d="M1560.89,1100.17l-.09-5.78c-.02-1.27-.04-2.55-.05-3.82v-.04c-.11-8.21-.45-16.43-1.07-24.61-.87-11.48-1.81-22.97-3.23-34.39-1.43-11.57-3.32-23.09-5.29-34.58-3.83-22.46-9.62-44.43-17.01-65.99-2.61-7.63-4.55-15.54-7.68-22.95-7.35-17.39-14.39-35.01-23.12-51.71-9.82-18.79-21.06-36.86-32.24-54.89-6.72-10.84-14.3-21.19-21.89-31.46-6.6-8.92-13.61-17.55-20.72-26.08-5.68-6.81-11.58-13.45-17.73-19.84-5.21-5.4-10.95-10.28-16.39-15.45-3.41-3.25-6.73-6.62-10.07-9.95-.25-.26-.51-.52-.77-.77-.77-.77-1.55-1.54-2.32-2.3-1.04-1.02-2.08-2.02-3.13-3.02-.36-.34-.72-.68-1.09-1.02-2.55-2.38-5.16-4.68-7.88-6.83-6.04-4.78-12.18-9.43-18.37-14.01-.89-.66-1.77-1.31-2.66-1.96-2.02-1.49-4.06-2.97-6.09-4.46-1.02-.74-2.04-1.48-3.05-2.22-2.04-1.48-4.07-2.96-6.11-4.43l-3.06-2.21c-3.05-2.21-6.11-4.43-9.16-6.66-.57-.42-1.14-.84-1.71-1.27-.57-.42-1.14-.84-1.71-1.27-1.52-1.12-3.05-2.25-4.59-3.37-.38-.28-.77-.55-1.15-.83-3.08-2.21-6.2-4.35-9.44-6.29-3.39-2.04-6.84-4-10.3-5.93-1.16-.64-2.32-1.28-3.48-1.91-2.32-1.26-4.66-2.5-7-3.73-2.34-1.23-4.68-2.45-7.03-3.66-2.96-1.53-5.92-3.06-8.89-4.58-.99-.51-1.98-1.01-2.97-1.52-6.61-3.35-13.26-6.61-20.02-9.6-1.61-.71-3.23-1.42-4.85-2.13s-3.24-1.41-4.86-2.11c-2.43-1.04-4.88-2.07-7.32-3.09-1.84-.76-3.68-1.51-5.52-2.25-5.53-2.22-11.1-4.34-16.71-6.31-3.93-1.38-7.88-2.73-11.84-4.06-1.32-.44-2.64-.88-3.96-1.31-1.59-.52-3.17-1.04-4.76-1.55-3.18-1.02-6.36-2.03-9.55-3.02-1.59-.49-3.19-.98-4.79-1.46-1.06-.32-2.13-.64-3.2-.96-4.27-1.27-8.54-2.49-12.83-3.68-2.32-.64-4.65-1.22-7-1.75-1.41-.32-2.82-.62-4.24-.91-1.38-.28-2.75-.54-4.13-.8-.69-.13-1.38-.25-2.07-.38-1.04-.19-2.08-.37-3.11-.55-1.39-.24-2.77-.47-4.16-.71-.69-.12-1.39-.23-2.08-.35-2.08-.35-4.16-.71-6.23-1.07-2.77-.49-5.54-1-8.3-1.5-1.85-.34-3.69-.68-5.54-1.01-10.15-1.85-20.31-3.64-30.54-4.82-2.93-.34-5.87-.64-8.81-.92-.73-.07-1.47-.14-2.21-.2-2.21-.2-4.42-.37-6.63-.54-1.23-.09-2.46-.18-3.69-.26-8.61-.58-17.23-.98-25.84-1.32-8.59-.34-17.25,.48-25.86,.97-7.83,.45-15.67,.84-23.48,1.46-1.95,.16-3.91,.33-5.86,.52-.65,.06-1.3,.13-1.95,.2-14.22,1.48-28.42,3.28-42.57,5.33-.61,.09-1.23,.18-1.84,.27-1.23,.18-2.45,.37-3.68,.56-1.84,.29-3.67,.59-5.5,.9-1.22,.21-2.44,.43-3.66,.64-1.22,.22-2.44,.45-3.66,.68-3.65,.71-7.29,1.47-10.9,2.32-8.34,1.95-16.43,4.91-24.66,7.34-2.73,.81-5.46,1.61-8.2,2.4-.86,.25-1.71,.5-2.57,.74-4.28,1.24-8.55,2.47-12.82,3.72-1.71,.5-3.42,1.01-5.12,1.52-1.37,.41-2.73,.83-4.09,1.25-1.43,.44-2.85,.89-4.27,1.35-1.42,.46-2.83,.93-4.25,1.42-.7,.24-1.41,.48-2.11,.73-1.41,.49-2.81,.99-4.21,1.5s-2.79,1.04-4.19,1.56c-.7,.27-1.39,.53-2.08,.8-1.39,.54-2.77,1.09-4.15,1.64-2.76,1.11-5.51,2.26-8.25,3.43-1.37,.59-2.73,1.18-4.09,1.78-2.72,1.2-5.43,2.43-8.14,3.69-1.35,.62-2.7,1.26-4.04,1.9-5.38,2.55-10.73,5.2-16.05,7.9-3.82,1.94-7.64,3.87-11.46,5.82-2.86,1.46-5.71,2.93-8.55,4.43-.95,.5-1.89,1-2.84,1.51-5.54,2.98-11,6.13-16.33,9.47-1.38,.87-2.76,1.75-4.12,2.65s-2.72,1.81-4.07,2.72c-2.7,1.83-5.39,3.69-8.09,5.53-2.12,1.45-4.27,2.87-6.41,4.3-1.28,.86-2.57,1.71-3.84,2.58s-2.55,1.73-3.82,2.61c-2.11,1.47-4.2,2.96-6.24,4.52-1.14,.86-2.28,1.73-3.42,2.6-.86,.65-1.71,1.3-2.56,1.96-2.56,1.96-5.11,3.94-7.63,5.94-.56,.45-1.12,.89-1.68,1.34-1.12,.9-2.23,1.8-3.34,2.71-2.77,2.27-5.5,4.59-8.16,6.97-6.45,5.75-12.89,11.52-19.25,17.37-1.82,1.67-3.64,3.35-5.45,5.03-3.62,3.36-7.21,6.75-10.77,10.17-.67,.64-1.34,1.28-2,1.93-1.33,1.29-2.66,2.58-3.98,3.87-.66,.65-1.32,1.3-1.98,1.95-.6,.59-1.2,1.19-1.8,1.79-8.96,9-17.39,18.62-25.35,28.53-11.14,13.87-21.97,28.04-32.01,42.72-9,13.15-17.11,26.95-24.92,40.84-7.1,12.62-13.81,25.53-19.73,38.73-7.18,16.02-13.98,32.28-19.78,48.84-4.96,14.18-8.35,28.91-12.32,43.43-1.93,7.04-3.98,14.09-5.27,21.26-2.11,11.82-3.8,23.73-5.38,35.64-.2,1.52-.4,3.05-.59,4.57-.2,1.52-.38,3.05-.57,4.57-.18,1.49-.36,2.98-.54,4.48-.2,.11-.36,.23-.49,.38-.04,.04-.07,.07-.09,.11-.04,.05-.07,.1-.1,.15-.04,.05-.06,.11-.09,.16-.03,.05-.05,.11-.07,.17-.02,.06-.04,.12-.06,.18-.02,.06-.04,.12-.05,.18-.02,.06-.03,.12-.04,.19-.01,.06-.02,.13-.03,.2-.07,.57-.03,1.2-.03,1.8,0,.22,0,.44-.02,.65-.02,.19-.04,.38-.08,.55-.27,3.68-.59,7.34-.96,11.01-.71,5.7-1.17,11.43-1.16,17.14-.07,.18-.14,.36-.2,.54-.05,.18-.1,.35-.13,.52-.63,3.18-1.11,6.45-1.11,9.67,0,9.73-.12,19.46-.09,29.2,0,.48,0,.97,0,1.46,0,.55,0,1.11,.01,1.66,0,.72,.01,1.43,.02,2.15v.04c.02,1.43,.04,2.87,.06,4.3,.03,1.43,.05,2.86,.09,4.29v.05c2.87-1.25,5.75-2.46,8.65-3.63,.06-.03,.13-.05,.2-.08,0,0,0,0,0,0-.04-.02-.09-.03-.12-.05,.27-.5,.44-1.33,.83-1.46,1.02-.32,2.05-.64,3.07-.96,.77-.23,1.54-.47,2.31-.7,2.31-.69,4.63-1.36,6.96-1.98,.12-.03,.24-.04,.36-.04h0s.09,0,.14,0c.04,0,.07,0,.1,.01,.01,0,.02,0,.04,0,.01,0,.02,0,.04,0,.02,0,.04,0,.06,.01,.16,.02,.32,.06,.48,.11,.48-.16,.96-.31,1.44-.46,1.5-.48,3.01-.94,4.53-1.39,.42-.12,.85-.25,1.27-.38l1.02-.29c.15-.04,.29-.09,.44-.13l.46-.13c.19-.05,.38-.11,.57-.16,.63-.18,1.27-.35,1.9-.52,.22-.16,.44-.33,.67-.45,.02-.01,.05-.02,.07-.04,0,0,.01,0,.02-.01,.03-.02,.06-.03,.1-.04,.05-.02,.09-.04,.14-.05h0s0,0,0,0c0,0,.01,0,.02,0,.04-.01,.08-.02,.12-.02,.51-.05,1.03-.08,1.55-.1,.51-.13,1.02-.26,1.53-.38,.34-.09,.68-.17,1.02-.25,.51-.12,1.02-.24,1.53-.36,.68-.16,1.36-.31,2.05-.46,.68-.15,1.36-.3,2.05-.43,1.37-.28,2.74-.54,4.11-.79,3-.53,6.02-.96,9.03-1.29,.13-.02,.25-.03,.38-.04,.3-.03,.61-.06,.91-.09,.35-.04,.7-.07,1.05-.1,.62-.05,1.23-.1,1.84-.14,.76-.05,1.52-.1,2.29-.14,.34-.02,.67-.04,1.01-.05,.75-.03,1.49-.05,2.24-.07,.29,0,.58,0,.88-.01h.03c4.78-.05,9.57,.24,14.33,.95,.88,.13,1.77,.27,2.65,.43,1.32,.24,2.64,.51,3.96,.82,.44,.11,.88,.21,1.32,.32,.5,.11,1.01,.23,1.51,.35,.22,.05,.44,.1,.66,.16,.37,.09,.74,.18,1.11,.27,.55,.13,1.09,.27,1.63,.4,.54,.14,1.09,.27,1.63,.41h0c1.03,.12,2.05,.24,3.08,.37,.02,0,.02,.1,.01,.26,0,.05,0,.12-.01,.18,.07,.02,.15,.04,.23,.06,.69,.19,1.38,.38,2.07,.57,.4,.11,.8,.22,1.2,.34,.64,.18,1.29,.37,1.93,.55,.04,0,.07,0,.11,0,.08,0,.16,0,.24,0,.06,0,.12,0,.18,.02,.1,.01,.2,.03,.3,.05,.07,.02,.14,.04,.21,.07,.39,.14,.79,.29,1.19,.44s.8,.29,1.2,.43c0,0,0,0,.01,0,.57,.17,1.15,.35,1.72,.52s1.15,.35,1.72,.53c.65,.2,1.3,.41,1.95,.61,.49,.15,.99,.31,1.48,.46,1.76,.48,3.52,.96,5.27,1.49,.58,.18,1.16,.36,1.74,.54,.58,.18,1.15,.38,1.73,.58s1.14,.41,1.71,.62c1.13,.43,2.26,.9,3.36,1.41,.43,.2,.86,.4,1.28,.61,.38,.19,.76,.39,1.14,.59,.43,.23,.86,.48,1.28,.73,.7,.41,1.38,.84,2.05,1.29,.09,.05,.18,.11,.26,.17,.12,.08,.25,.16,.37,.25,.3,.2,.6,.41,.89,.62,.3,.21,.59,.42,.88,.63,.29,.21,.59,.43,.88,.65,.5,.37,1,.75,1.49,1.14,.18,.14,.36,.29,.55,.43,.35,.27,.69,.55,1.04,.82,1.7,1.35,3.39,2.73,5.11,4.04,.12,.09,.23,.18,.35,.27,.2,.14,.39,.29,.58,.44l.04,.02s.03,.02,.04,.03h0s0,0,0,0c.27,.18,.54,.38,.82,.57l.07,.05c.98,.68,1.96,1.36,2.95,2.04,.69,.48,1.38,.96,2.08,1.43,.62,.43,1.25,.85,1.88,1.27,.05,.04,.09,.07,.14,.09,.4,.27,.8,.54,1.2,.81,1.2,.81,2.41,1.61,3.63,2.39s2.44,1.56,3.66,2.32c.92,.57,1.84,1.13,2.77,1.69,.62,.37,1.23,.73,1.86,1.09s1.25,.71,1.87,1.07,1.25,.7,1.88,1.04c.63,.34,1.27,.67,1.91,1,1.27,.65,2.56,1.28,3.87,1.88,.98,.45,1.97,.88,2.97,1.3,1.34,.55,2.69,1.07,4.07,1.55,1.29,.45,2.6,.87,3.93,1.25,.8,.23,1.61,.45,2.42,.65,6.45,1.61,12.58,1.78,18.52,.92,.84-.12,1.68-.26,2.51-.43,.09-.02,.17-.04,.26-.05,.58-.12,1.16-.24,1.73-.38,.58-.14,1.15-.28,1.73-.43,1.14-.3,2.29-.64,3.43-1.02,.52-.17,1.03-.34,1.54-.52,.77-.27,1.54-.56,2.3-.86,1.54-.6,3.06-1.25,4.59-1.94,.14-.06,.27-.12,.41-.19,.41-.2,.8-.41,1.2-.63,.13-.07,.26-.15,.39-.23,1.04-.62,2.03-1.32,3.01-2.05,.12-.09,.24-.19,.37-.28,.24-.18,.48-.37,.73-.56,.73-.57,1.46-1.14,2.19-1.71,.12-.09,.24-.19,.37-.28,.24-.19,.49-.38,.73-.55,.87-.64,1.75-1.25,2.66-1.81,.44-.27,.88-.53,1.33-.79,.17-.1,.34-.2,.51-.3,.12-.07,.25-.14,.37-.22,.49-.29,.99-.58,1.49-.86,1.11-.63,2.22-1.25,3.34-1.87,.07-.04,.14-.08,.21-.11,.07-.04,.14-.08,.2-.12,.38-.27,.77-.54,1.14-.82,.06-.04,.12-.09,.18-.13,.31-.23,.63-.46,.94-.69,.05-.04,.1-.07,.15-.11,.38-.28,.75-.57,1.12-.85,0,0,.01-.01,.02-.02,.38-.29,.75-.59,1.12-.88,.95-.8,1.92-1.58,2.91-2.32,.4-.3,.8-.59,1.21-.87,.61-.43,1.23-.85,1.85-1.25,.42-.27,.84-.54,1.26-.79,.42-.26,.85-.52,1.28-.76,.43-.25,.86-.49,1.3-.73,.65-.36,1.31-.7,1.98-1.04l.67-.33c.45-.22,.89-.43,1.34-.64l.68-.3c2.04-.91,4.12-1.7,6.23-2.39,1.03-.36,2.06-.73,3.09-1.1,.86-.3,1.73-.61,2.59-.93l.49-.18c.27-.13,.55-.26,.82-.38,.04-.02,.08-.04,.12-.06,.27-.12,.54-.25,.82-.38,.24-.11,.48-.22,.72-.33,.11-.05,.22-.1,.33-.15,.28-.13,.56-.25,.84-.38,.07-.03,.14-.06,.21-.09,.51-.23,1.02-.46,1.54-.68,1.68-.74,3.36-1.46,5.05-2.16,.68-.28,1.35-.56,2.03-.84,2.1-.85,4.21-1.68,6.34-2.49,3.33-1.27,6.69-2.47,10.07-3.63,3.43-1.18,6.9-2.27,10.38-3.31,1.74-.52,3.49-1.02,5.24-1.52,.38-.11,.77-.21,1.15-.32,1.02-.29,2.05-.57,3.08-.85,1.03-.28,2.06-.56,3.09-.83l1.55-.41c.8-.28,1.58-.54,2.34-.8,.59-.2,1.18-.4,1.75-.59l.49-.16c1.1-.36,2.17-.7,3.21-1.03,.35-.11,.69-.21,1.04-.32s.68-.21,1.02-.3c.56-.17,1.12-.33,1.67-.48,.24-.07,.47-.13,.71-.19,.58-.16,1.16-.32,1.74-.47,.28-.07,.56-.14,.84-.21,1.76-.44,3.49-.82,5.24-1.15,.45-.09,.9-.17,1.36-.25,.17-.03,.34-.06,.52-.09,.21-.04,.42-.07,.63-.1,.33-.05,.66-.11,.99-.15,.29-.04,.58-.09,.87-.13,.04,0,.08,0,.12-.02,1-.14,2.02-.26,3.06-.37,.35-.04,.7-.07,1.05-.1,.7-.07,1.42-.13,2.15-.18,.37-.03,.73-.05,1.11-.08,.37-.03,.75-.05,1.12-.07,.3-.09,.59-.17,.89-.24,1.16-.27,2.44-.52,3.57-.3,.21,.04,.41,.08,.62,.13,.07,.01,.15,.03,.22,.04,.21,.05,.43,.09,.64,.14,2.71-.05,5.63-.05,8.84-.01h.05c.73,.01,1.48,.02,2.24,.04h.05c.73,.02,1.48,.04,2.25,.05h.09s.08,0,.12-.02c.44-.04,.89-.09,1.34-.14,1.91-.2,3.84-.38,5.71-.25,.43,.03,.86,.07,1.29,.13,1.08,.16,2.15,.36,3.22,.58,1.07,.23,2.13,.48,3.2,.75,.53,.14,1.06,.27,1.59,.41,1.59,.42,3.17,.87,4.75,1.3,.53,.14,1.05,.29,1.59,.43,3.7,1.01,7.41,2,11.1,3.03,1.05,.3,2.11,.59,3.16,.89,1.05,.3,2.11,.61,3.15,.92,1.05,.32,2.1,.63,3.14,.96s2.09,.66,3.12,1.01c1.16,.39,2.33,.78,3.49,1.19,1.16,.41,2.32,.84,3.48,1.28,.77,.3,1.54,.6,2.3,.91,.38,.16,.76,.31,1.14,.47,2.66,1.12,5.25,2.34,7.75,3.72,1,.55,2,1.11,3,1.67,1,.56,2,1.13,2.99,1.71,1,.58,1.98,1.16,2.97,1.75,1.97,1.18,3.92,2.39,5.84,3.65,1.92,1.25,3.81,2.55,5.66,3.89,.93,.67,1.84,1.36,2.74,2.05,1.13,.87,2.25,1.75,3.36,2.63,1.54,1.22,3.06,2.46,4.57,3.71,3.77,3.13,7.47,6.37,11.07,9.71,.72,.67,1.43,1.34,2.14,2.01,.52,.49,1.03,.98,1.55,1.48,1.02,.99,2.04,1.99,3.05,2.99,7.83,7.82,14.18,17.13,22.14,24.78,1.67,1.6,3.41,3.13,5.21,4.61,1.35,1.11,2.73,2.18,4.12,3.23,.93,.7,1.88,1.39,2.82,2.07,.48,.34,.95,.68,1.43,1.02,.96,.67,1.92,1.34,2.88,2,1.93,1.32,3.87,2.63,5.8,3.93,5.03,3.39,10.55,6.21,16.16,8.54,1.18,.49,2.35,.97,3.54,1.45,1.18,.48,2.36,.95,3.55,1.41l1.78,.69c.59,.23,1.19,.46,1.79,.68,1.79,.68,3.57,1.35,5.37,2.01,4.18,1.53,8.39,3.01,12.61,4.44,5.48,1.86,11.19,3.16,16.88,4.23,.26,.05,.53,.09,.8,.13,1.88,.27,4,.29,5.77-.21,.09-.03,.18-.05,.27-.08s.18-.06,.26-.09c.26-.1,.51-.21,.75-.33,5.57-2.86,11.1-5.81,16.61-8.79,1.84-.99,3.67-1.99,5.51-2.98,5.71-3.09,11.44-6.17,17.21-9.16,1.41-.73,2.82-1.45,4.23-2.16,2.12-1.07,4.25-2.12,6.38-3.16,1.42-.7,2.84-1.39,4.27-2.08,3.56-1.73,7.13-3.45,10.69-5.18,1.42-.7,2.84-1.39,4.26-2.1s2.83-1.41,4.24-2.13c4.71-2.39,9.34-4.93,13.97-7.45,1.16-.63,2.32-1.26,3.48-1.89,1.16-.62,2.32-1.25,3.49-1.87s2.34-1.23,3.51-1.83c1.17-.6,2.35-1.2,3.53-1.78,.71-.35,1.42-.7,2.13-1.04,1.42-.69,2.85-1.37,4.28-2.04,.72-.34,1.43-.67,2.15-1,1.44-.67,2.88-1.32,4.31-1.98,1.44-.66,2.88-1.31,4.32-1.97,2.16-.98,4.32-1.96,6.47-2.96,1.43-.66,2.86-1.34,4.29-2.02,.71-.34,1.43-.68,2.14-1.03,1.42-.69,2.84-1.39,4.25-2.11,12.07-6.12,23.39-13.88,35.8-19.12,.2-.08,.39-.17,.59-.25,.2-.08,.39-.17,.59-.25,.95-.41,1.91-.82,2.86-1.24,.45-.2,.89-.39,1.34-.59,.45-.2,.89-.39,1.34-.6,.12-.06,.25-.11,.38-.17,.32-.15,.64-.29,.96-.44,.61-.28,1.22-.55,1.84-.84,.61-.28,1.22-.56,1.84-.84,3.68-1.68,7.35-3.38,11.05-5,.72-.32,1.45-.63,2.18-.94,.07-.03,.14-.06,.21-.09,.23-.1,.47-.2,.7-.3l.75-.32c.4-.17,.8-.33,1.2-.5,.85-.35,1.71-.7,2.57-1.04,.31-.12,.62-.24,.93-.36,.03-.02,.06-.03,.1-.04,1.2-.46,2.41-.92,3.62-1.35,.92-.33,1.85-.65,2.78-.96,.46-.16,.93-.31,1.39-.46,.14-.05,.29-.09,.43-.13,.33-.11,.66-.21,.99-.31,.37-.12,.75-.23,1.12-.34,.1-.03,.2-.06,.29-.09,.04,0,.08-.02,.12-.04,.43-.12,.87-.25,1.3-.37,.98-.41,1.96-.83,2.94-1.25,.43-.2,.86-.39,1.29-.59,.23-.11,.47-.21,.7-.31,1.07-.47,2.14-.93,3.23-1.38,1.64-.68,3.3-1.32,4.96-1.93,.2-.07,.41-.15,.61-.22,.11-.04,.21-.08,.32-.12,.34-.12,.67-.24,1-.36,.54-.19,1.07-.38,1.6-.56,.24-.09,.49-.17,.73-.25,.51-.17,1.02-.34,1.54-.51,.38-.12,.77-.25,1.15-.37,.67-.21,1.34-.43,2-.63,.23-.07,.47-.14,.7-.21,.08-.03,.16-.05,.25-.07,.39-.12,.79-.24,1.19-.36,.6-.18,1.21-.36,1.81-.53,.04-.01,.07-.02,.11-.03,.55-.16,1.11-.32,1.66-.47h.05c.55-.16,1.09-.31,1.64-.46,.06-.02,.12-.04,.18-.05,.41-.11,.82-.22,1.23-.33,.48-.12,.96-.25,1.45-.38,.33-.08,.66-.16,.98-.25,1.21-.3,2.43-.6,3.64-.89,.68-.16,1.36-.32,2.05-.48,.56-.13,1.12-.26,1.68-.38,2.46-.56,4.93-1.09,7.4-1.6,.62-.13,1.24-.26,1.86-.38s1.24-.25,1.86-.38c1.24-.25,2.48-.5,3.71-.74,1.24-.25,2.48-.48,3.71-.73,.62-.12,1.24-.24,1.86-.36,.44-.1,.88-.2,1.32-.3,.02,0,.04,0,.07-.02,.42-.09,.84-.18,1.25-.27s.84-.15,1.27-.2c.21-.02,.43-.04,.64-.06s.43-.03,.64-.04c.47-.07,.95-.14,1.42-.21,.32-.05,.64-.09,.96-.14,.59-.08,1.17-.16,1.75-.24,.18-.02,.35-.04,.53-.07,.76-.1,1.53-.2,2.29-.29,.63-.07,1.27-.15,1.9-.22,.47-.05,.94-.1,1.41-.15,.07-.01,.15-.02,.22-.02,.3-.04,.61-.07,.92-.09,.48-.05,.95-.1,1.43-.14,.48-.05,.95-.09,1.43-.13,.91-.08,1.83-.16,2.75-.23,1-.07,1.99-.15,2.98-.22,.96-.07,1.91-.12,2.87-.18,.13-.02,.27-.04,.4-.05,1.18-.14,2.37-.21,3.57-.16h.05c.06,0,.12,0,.18,0,.81-.04,1.61-.08,2.42-.11,.68-.03,1.37-.06,2.05-.1,.09,0,.17,0,.25-.02,.31-.02,.63-.04,.94-.06,.29-.01,.57-.03,.86-.05h0s.1-.06,.15-.09c1.18-.55,2.48-1.26,3.7-1.21,.6,.02,1.19,.05,1.79,.09,.6,.03,1.2,.07,1.8,.11,1.05,.07,2.12,.15,3.2,.23l.45,.04c.64-.04,1.27-.09,1.91-.12,.9-.05,1.8-.11,2.7-.14,.09,0,.18,0,.27-.01,.81-.04,1.62-.06,2.43-.08h.03s.03,0,.04,0c.39-.01,.78-.02,1.16-.02,.91-.01,1.82-.01,2.72,0,.6,0,1.21,.01,1.81,.02,.74,0,1.47,.02,2.21,.03,.65,.02,1.3,.03,1.95,.05,.66,.02,1.32,.04,1.99,.05,.09-.03,.18-.05,.26-.07,0,0,0,0,.01,0,.17-.04,.34-.07,.52-.09,.09,0,.17-.01,.26-.01,.27,0,.54,0,.82,0,.27,0,.54,.01,.81,.02,.27,0,.55,.02,.82,.02,.07,0,.15,0,.23,0,.7,.03,1.39,.06,2.09,.1,.49,.03,.97,.06,1.46,.1,.37,.02,.75,.05,1.12,.08,.3,.02,.59,.05,.89,.07,.52,.04,1.04,.09,1.55,.13,.67,.06,1.34,.12,2.02,.18l1.24,.12s.1,0,.14,0c1.09,.07,2.19,.14,3.28,.22,1.32,.09,2.63,.19,3.95,.29,.04-.02,.07-.05,.11-.07,.11-.07,.21-.12,.32-.16t0,0c.07-.03,.14-.05,.21-.06,.04,0,.07-.01,.1-.02,.05,0,.09,0,.14,0,.02,0,.03,0,.04,0,.25,.02,.5,.05,.76,.07,.15,.02,.31,.04,.46,.05,.2,.02,.4,.05,.61,.08,1.16,.15,2.31,.34,3.46,.54,.25,.04,.5,.09,.75,.13,1.33,.11,2.66,.23,3.98,.35,.45,.04,.9,.08,1.35,.12,.03,0,.05,0,.08,0,.83-.15,1.67-.4,2.47-.36,.07,0,.13,.01,.2,.02,.77,.09,1.54,.19,2.31,.29,2.25,.3,4.5,.62,6.76,.94,.05,0,.11,.02,.16,.02h.02c3.21,.23,6.42,.48,9.63,.74,.2,.02,.41,.03,.61,.05,3.77,.3,7.54,.63,11.3,.96,.68,.06,1.37,.12,2.05,.19,.07,0,.14,.01,.2,.02,1.48,.13,2.96,.27,4.44,.41,3.77,.35,7.53,.72,11.29,1.09,1.88,.18,3.77,.38,5.64,.57,.35,.04,.69,.07,1.04,.11,.35,.04,.69,.08,1.04,.12,.11,.02,.22,.03,.34,.04,.34,.04,.68,.09,1.02,.14,.24,.03,.48,.07,.73,.1,.68,.1,1.37,.2,2.05,.31,.04,0,.07,.01,.11,.02,.31,.05,.62,.1,.92,.15,.34,.05,.69,.11,1.03,.17,.22-.02,.45-.04,.69-.05,.23-.02,.48-.03,.73-.04,.16,.02,.31,.04,.46,.07,.46,.07,.9,.14,1.33,.21,1.71,.28,3.2,.57,4.69,.77,.43,.06,.86,.09,1.29,.12,.22,.01,.43,.02,.65,.03,.21,.01,.43,.02,.65,.03,.43,.02,.86,.05,1.29,.11,.21,.03,.42,.06,.63,.1,.21,.04,.41,.09,.62,.15,.08,.02,.16,.05,.23,.07,.48,.18,.92,.46,1.35,.78,.07,.05,.14,.11,.21,.16,.61,.09,1.21,.18,1.82,.25,.61,.08,1.21,.16,1.83,.22h0c.08-.22,.17-.44,.27-.67,.05,.02,.1,.04,.15,.05l.09,.04c.08,.03,.16,.06,.24,.1,.07,.03,.15,.07,.23,.1,.02,.01,.05,.02,.07,.03,.13,.06,.25,.13,.37,.2,.07,.04,.14,.08,.21,.12,.07,.04,.14,.08,.2,.13,.07,.04,.13,.09,.2,.13,.61,.07,1.22,.13,1.82,.19,.4,.05,.8,.09,1.21,.13,.84,.09,1.67,.18,2.51,.27Zm12.59,390.98c4.2-15.27-1.07-28.3-11.1-39.76-11.17-12.77-25.04-22.08-39.91-29.78-17.55-9.09-35.71-16.84-54.57-22.66,.64-.78,1.29-1.55,1.9-2.36,.84-1.1,1.7-2.2,2.55-3.29,.81-.43,1.55-.9,1.97-1.57,3.32-5.33,6.35-10.84,9.39-16.33,7.05-12.7,14.06-25.42,21.62-38.66,2.13-4.27,4.54-8.41,6.35-12.81,2.73-6.66,5.41-13.34,8.07-20.04,.68-.25,1.23-.83,1.44-1.57,.04-.12,.07-.25,.11-.37,.41-1.26,.9-2.48,1.31-3.73l.02-.07c.14-.41,.27-.83,.4-1.24,.54-1.59,1.29-3.07,1.89-4.62,.33-.86,.63-1.73,.93-2.6,.29-.84,.48-1.66,.55-2.55,0,.09-.02,.19-.02,.28,.01-.17,.03-.33,.04-.5,.72-1.84,1.43-3.68,2.14-5.52,.26-.68,.25-1.46,.15-2.28,.28-.51,.55-1.02,.79-1.56,.36-.8,.66-1.63,.96-2.46,.68-1.86,1.1-3.8,1.73-5.69,.08-.2,.16-.39,.24-.59,.67-.45,1.08-1.26,.98-2.09,0-.04,0-.07-.01-.1,.07-.04,.14-.07,.2-.11,.46-.27,.9-.55,1.26-.86,.41-.35,.73-.74,.88-1.18,2.92-8.41,6.06-16.84,7.81-25.54,4.67-23.21,8.97-46.5,12.81-69.87,2.1-12.81,3.53-25.79,4.23-38.74,.34-6.39,.42-12.79,.39-19.2,0-.64,0-1.27-.01-1.91,0-.3,0-.61,0-.91-.01-1.53-.03-3.06-.05-4.59-.39-.04-.78-.09-1.18-.13-3.95-.31-7.88-.83-11.8-1.44-.79-.12-1.57-.25-2.35-.38-1.57-.25-3.13-.52-4.7-.79-1.18-.2-2.35-.4-3.53-.6-.78-.13-1.56-.26-2.35-.39-.39-.06-.79-.12-1.18-.19-1.96-.31-3.92-.61-5.88-.88-1.96-.26-3.93-.49-5.89-.68-6.52-.63-13.05-1.23-19.58-1.8-2.18-.19-4.35-.38-6.53-.56-4.35-.37-8.71-.72-13.07-1.06-2.18-.17-4.36-.34-6.54-.5-2.18-.16-4.36-.32-6.54-.48-.85-.08-1.7-.16-2.55-.24-1.71-.16-3.41-.31-5.12-.46s-3.41-.29-5.12-.42c-2.56-.2-5.12-.38-7.69-.54-2.28-.14-4.56-.27-6.84-.37-.76-.04-1.52-.07-2.28-.1-1.52-.06-3.04-.11-4.57-.15-.76-.02-1.52-.04-2.28-.05-.88-.05-1.75-.08-2.63-.1-.04,0-.09,0-.13,0-3.16-.08-6.31-.01-9.46,.14,0,0-.01,0-.02,0-1.29,.06-2.58,.14-3.87,.21-.33,.02-.66,.04-.98,.06-1.62,.11-3.23,.23-4.84,.34-.33,.02-.65,.05-.98,.07-.64,.05-1.29,.09-1.93,.14-.32,.02-.65,.05-.98,.07-.64,.05-1.29,.09-1.94,.14h0c-.97,.07-1.94,.13-2.91,.19-1.94,.11-3.89,.21-5.84,.27-2.03,.11-4.05,.23-6.08,.38-1.21,.09-2.43,.19-3.64,.29-1.21,.11-2.43,.22-3.64,.35-.81,.09-1.62,.17-2.42,.26-.4,.05-.8,.09-1.21,.14-2.01,.24-4.02,.51-6.03,.8-1.2,.18-2.41,.37-3.61,.56-.8,.13-1.6,.27-2.4,.41-.8,.14-1.6,.29-2.39,.44s-1.59,.31-2.39,.47c-1.19,.25-2.38,.5-3.57,.77-.39,.09-.79,.18-1.19,.27-5.23,.97-10.44,2.02-15.62,3.23-.5,.12-1,.24-1.51,.36-1,.24-2.01,.49-3.01,.74-.5,.12-1,.25-1.5,.39-1,.26-2,.53-2.99,.8-1,.28-1.99,.56-2.98,.85-1.92,.56-3.82,1.18-5.71,1.84-.95,.33-1.89,.67-2.82,1.02-.31,.11-.62,.23-.94,.35-.62,.24-1.25,.48-1.87,.72s-1.24,.49-1.86,.73c-.62,.25-1.24,.5-1.86,.75-1.8,.73-3.59,1.48-5.38,2.23-.45,.19-.89,.37-1.34,.56-9.96,4.28-20.14,8.04-30.14,12.26-2.59,1.12-5.16,2.32-7.7,3.55-.2,.07-.4,.16-.61,.27-.27,.14-.53,.3-.8,.45h0c-.2,.11-.4,.23-.6,.33-.45,.22-.89,.37-1.36,.34-.04,0-.08,0-.12-.01-.04,0-.08-.01-.12-.02-.04,0-.08-.02-.12-.03-8.42,4.09-16.78,8.14-25.09,12.26-.55,.27-1.11,.55-1.66,.82-7.45,3.7-14.86,7.48-22.26,11.27-7.4,3.78-14.8,7.57-22.25,11.29-.62,.31-1.23,.61-1.85,.92-1.23,.61-2.47,1.21-3.71,1.81-.62,.3-1.24,.6-1.86,.89-4.35,2.08-8.71,4.12-13.06,6.21-.62,.3-1.24,.6-1.86,.9-1.86,.9-3.71,1.81-5.56,2.74-.61,.31-1.23,.62-1.84,.93-.55,.28-1.1,.57-1.65,.86-3.29,1.72-6.54,3.54-9.77,5.37-4.86,2.73-9.71,5.49-14.69,7.98-1.77,.88-3.53,1.75-5.3,2.62-.89,.43-1.77,.86-2.66,1.3-1.77,.86-3.55,1.72-5.33,2.57-.89,.43-1.78,.85-2.67,1.28-7.12,3.4-14.26,6.76-21.38,10.18-1.78,.85-3.55,1.71-5.33,2.57-.28,.14-.55,.29-.82,.45-.27,.16-.53,.34-.79,.53-.26,.18-.51,.38-.77,.57-.25,.2-.5,.39-.75,.59s-.5,.39-.76,.58c-.76,.57-1.55,1.08-2.4,1.41-3.18,1.24-6.27,1.19-9.31,.62-.42-.08-.85-.17-1.27-.27-.57-.13-1.13-.28-1.69-.43-.28-.08-.56-.16-.84-.24-.28-.08-.56-.17-.84-.25-.28-.09-.56-.17-.84-.25-.14-.04-.28-.09-.42-.13-.42-.13-.84-.26-1.26-.39-.28-.09-.56-.17-.84-.25-.42-.12-.84-.25-1.26-.36-.14-.04-.28-.07-.42-.11-.84-.23-1.68-.45-2.52-.66-2.1-.54-4.21-1.07-6.31-1.63-1.26-.34-2.52-.68-3.77-1.04-.83-.24-1.66-.49-2.49-.75-1.24-.39-2.46-.81-3.68-1.26-.41-.15-.81-.3-1.21-.46-.51-.2-1.02-.4-1.54-.6-1.02-.4-2.05-.8-3.07-1.21-1.54-.61-3.06-1.23-4.59-1.86-2.54-1.05-5.07-2.12-7.57-3.25-.5-.23-1-.45-1.5-.68-1.5-.69-2.98-1.39-4.46-2.12-.49-.24-.98-.49-1.47-.73-.98-.5-1.95-1-2.91-1.52-.96-.52-1.92-1.05-2.87-1.59-3.8-2.16-7.49-4.53-11-7.18-1.32-.99-2.62-2.02-3.89-3.1-.42-.36-.84-.72-1.26-1.09-10.07-8.86-19.13-18.88-28.63-28.39-3.45-3.45-6.82-6.99-10.26-10.45-.38-.39-.77-.77-1.15-1.15-1.15-1.15-2.31-2.29-3.49-3.41-1.18-1.12-2.37-2.23-3.58-3.3-1.32-1.18-2.69-2.32-4.07-3.43-3.12-2.5-6.38-4.86-9.66-7.15-1.09-.77-2.19-1.53-3.29-2.29-4.04-2.79-8.14-5.47-12.33-7.96-.5-.29-.99-.59-1.48-.87-.74-.43-1.49-.86-2.23-1.28-.25-.14-.5-.28-.75-.42-.5-.28-1-.55-1.51-.82-1.76-.95-3.54-1.86-5.34-2.72-.52-.25-1.03-.49-1.55-.73-1.04-.48-2.07-.95-3.12-1.39-.79-.34-1.57-.66-2.37-.98-.53-.21-1.06-.42-1.6-.62-1.6-.61-3.21-1.18-4.85-1.71-.54-.18-1.09-.35-1.64-.52-.82-.25-1.65-.49-2.48-.72-.84-.23-1.67-.45-2.52-.65-1.97-.48-3.96-.9-5.99-1.25-.74-.13-1.48-.25-2.22-.37-.55-.09-1.11-.18-1.66-.27-.6-.1-1.2-.19-1.8-.29-.44-.07-.88-.13-1.32-.2-.5-.08-1.01-.15-1.52-.23h-.01c-.95-.14-1.89-.28-2.84-.41-1.9-.27-3.8-.54-5.7-.8-.95-.14-1.9-.27-2.85-.39-.95-.13-1.9-.26-2.85-.39-.05,0-.09,0-.14,0-.99-.03-1.98-.05-2.97-.08-.07,0-.15,0-.23,0-1-.02-2-.04-3.01-.05-.05,0-.11,0-.17,0-1.06-.02-2.11-.03-3.17-.04-.11,0-.23,0-.34,0-.96,0-1.93-.01-2.89-.02-.62,0-1.24,0-1.86,0-.62,0-1.24,0-1.86,0-.47,0-.94,0-1.41,0-1.07,.01-2.15,.02-3.22,.05-.31,0-.62,.02-.93,.02-.11,0-.21,0-.32,0-.55,.02-1.1,.03-1.65,.05-.1,0-.2,0-.3,.01-.58,.02-1.16,.05-1.74,.08-.23,.02-.47,.03-.71,.04-.05,0-.11,0-.16,0-.29,.02-.58,.04-.88,.05-.43,.03-.87,.06-1.3,.09-1.08,.15-2.15,.29-3.23,.45-.24,.03-.48,.07-.71,.1-.33,.05-.66,.09-.98,.14-1.05,.15-2.09,.31-3.14,.47l-1.48,.23c-.68,.11-1.36,.22-2.03,.34-.44,.07-.88,.15-1.31,.23-.21,.05-.42,.1-.63,.16-.07,.02-.14,.04-.2,.05-.28,.07-.56,.15-.84,.22-.28,.08-.55,.16-.84,.23-.28,.08-.55,.16-.83,.25-2.82,.87-5.62,1.77-8.41,2.7-1.86,.62-3.72,1.25-5.58,1.89-4.64,1.59-9.27,3.23-13.91,4.84-3.71,1.29-7.42,2.57-11.15,3.8-1.86,.61-3.73,1.22-5.61,1.8-.76,.27-1.52,.54-2.27,.81-1.52,.55-3.02,1.11-4.53,1.68s-3.01,1.14-4.52,1.71c-2.26,.85-4.52,1.7-6.8,2.51-.43,.16-.88,.32-1.31,.48-.59,.21-1.19,.42-1.79,.64-.49,.17-.99,.34-1.48,.51-.24,.08-.48,.17-.73,.25-1.79,.9-3.58,1.81-5.37,2.71-1.79,.9-3.59,1.8-5.38,2.7-.74,.37-1.47,.75-2.2,1.15-1.1,.59-2.19,1.22-3.31,1.87-1.12,.65-2.26,1.33-3.44,2.03-2.45,1.48-4.89,2.96-7.32,4.44-.2,.14-.39,.29-.59,.43-.07,.04-.14,.07-.21,.12-.02,.01-.05,.02-.07,.04-.14,.08-.28,.18-.43,.28-.27,.19-.55,.4-.85,.62-.14,.1-.27,.21-.41,.32-.66,.5-1.35,1.01-2.03,1.38-.08,.04-.16,.09-.24,.12-.1,.05-.19,.09-.29,.14-.05,.02-.1,.04-.15,.06-.03,.01-.06,.02-.09,.03-.15,.05-.3,.1-.44,.13-.11,.02-.23,.04-.34,.05-1.43,.86-2.85,1.71-4.27,2.57-.71,.43-1.42,.85-2.13,1.27-1.11,.66-2.22,1.32-3.33,1.97-.54,.32-1.08,.64-1.62,.95-2.38,1.39-4.76,2.75-7.15,4.1-1.42,.8-2.95,1.43-4.53,1.96-.45,.15-.91,.29-1.37,.43-.46,.13-.92,.26-1.38,.38-.69,.18-1.39,.35-2.08,.51-.46,.11-.93,.21-1.39,.31-1.55,.34-3.1,.61-4.64,.82-.26,.03-.52,.07-.77,.1-.52,.06-1.03,.12-1.55,.16-.26,.02-.52,.05-.77,.07-.51,.04-1.03,.07-1.54,.1-4.09,.21-8.15,0-12.15-.61-1-.15-1.99-.33-2.98-.53-.74-.15-1.48-.32-2.22-.49-.49-.12-.98-.24-1.47-.37-.24-.07-.49-.13-.73-.2-2.44-.68-4.85-1.5-7.21-2.45-.29-.12-.58-.23-.87-.36-1.44-.61-2.86-1.27-4.26-1.97-.28-.14-.56-.29-.84-.43-.84-.43-1.67-.88-2.5-1.33-1.11-.61-2.2-1.24-3.29-1.88-.54-.32-1.09-.65-1.63-.98-1.08-.66-2.16-1.33-3.24-2-1.34-.84-2.68-1.7-4.03-2.54-1.88-1.19-3.76-2.37-5.65-3.5l-.71-.43c-2.2-1.34-4.37-2.75-6.52-4.18-.23-.15-.45-.3-.68-.46-4.27-2.86-8.48-5.8-12.8-8.56-.3-.19-.6-.38-.9-.57-.24-.15-.48-.3-.72-.45-.2-.13-.41-.25-.61-.38-.22-.14-.45-.28-.67-.41-.24-.14-.48-.29-.72-.44-.12-.07-.24-.14-.36-.21-.31-.19-.62-.37-.94-.55-.19-.11-.38-.22-.57-.33-.26-.15-.52-.3-.78-.45-1.14-.64-2.29-1.26-3.45-1.86-.21-.11-.43-.21-.64-.32-.25-.12-.5-.25-.75-.37-.33-.11-.66-.21-.99-.31-.01,0-.02,0-.03,0-.09-.03-.19-.06-.28-.09-.3-.09-.59-.18-.89-.27-.38-.12-.77-.23-1.15-.34-1.2-.35-2.4-.69-3.59-1.04-.75-.22-1.5-.44-2.25-.67-.05-.02-.1-.03-.14-.04l-1.16-.36c-.71-.23-1.43-.45-2.14-.68-.71-.22-1.43-.45-2.14-.66-1.43-.43-2.87-.85-4.3-1.26-2.88-.82-5.77-1.57-8.68-2.28-.29-.09-.59-.18-.88-.26-.25-.07-.5-.14-.75-.21-.63-.18-1.26-.34-1.89-.5,0,0,0,0,0,0,0,0-.01,0-.02,0-1.36-.2-2.7-.41-4.05-.63-.12-.02-.25-.04-.38-.06-.39-.06-.79-.13-1.18-.2-.51-.08-1.02-.16-1.53-.25-1.1-.18-2.2-.37-3.29-.56-.15-.03-.3-.06-.45-.09-.07-.02-.15-.04-.22-.05-.07-.02-.14-.04-.21-.05-.13-.04-.26-.07-.39-.11-.67-.07-1.34-.13-2.01-.18-.34-.03-.68-.05-1.02-.07-.52-.04-1.04-.07-1.55-.09,0,0-.01,0-.02,0h-.02s-.04,.02-.06,.03c-.18,.08-.36,.16-.55,.24-.02,.01-.05,.02-.07,.03-.05,.03-.1,.05-.16,.07-.02,0-.03,.02-.05,.02-.06,.03-.13,.05-.19,.08-.24,.09-.48,.15-.71,.17-.04,0-.08,0-.12,0-1.11,.02-2.21,.03-3.33,.04-3.34,.02-6.77,0-10.49,0-.9,.12-1.79,.25-2.68,.38-.45,.06-.89,.12-1.32,.19-1.58,.23-3.14,.45-4.69,.68-.89,.13-1.77,.26-2.64,.39-.8,.11-1.61,.23-2.41,.34-.01,0-.02,0-.04,0-.44,.09-.88,.18-1.31,.28-.11,.02-.23,.05-.34,.07-.12,.02-.24,.05-.36,.08-.5,.11-1,.22-1.49,.34-.4,.09-.8,.18-1.19,.28-.41,.09-.81,.19-1.21,.29-.36,.09-.72,.18-1.09,.27-.88,.22-1.76,.45-2.63,.68-.33,.09-.66,.17-.98,.26-.45,.12-.91,.24-1.36,.37-.65,.18-1.3,.36-1.95,.55-.57,.16-1.15,.33-1.72,.5-.5,.15-1.01,.3-1.51,.45-.27,.08-.54,.16-.8,.24-.54,.16-1.07,.32-1.61,.49-1.82,.57-3.64,1.14-5.44,1.74-.84,.28-1.69,.56-2.53,.84-.77,.27-1.54,.54-2.3,.82-.38,.14-.77,.28-1.14,.42-1.53,.57-3.05,1.16-4.56,1.77h0c-.75,.3-1.51,.61-2.26,.92h0c-.75,.31-1.5,.62-2.25,.94-1.13,.48-2.25,.96-3.37,1.45-.75,.32-1.5,.65-2.24,.98h0c.05,1.39,.1,2.78,.16,4.17,.03,.64,.06,1.29,.09,1.93,.03,.57,.06,1.13,.09,1.7,.02,.28,.03,.57,.05,.85,.05,.8,.09,1.61,.15,2.41,.05,.83,.11,1.66,.17,2.48,0,.1,.01,.2,.02,.3,.06,.82,.12,1.64,.19,2.46,.02,.22,.04,.43,.05,.65,.09,1.02,.18,2.04,.27,3.05,.02,.27,.05,.54,.08,.8,.02,.18,.04,.36,.05,.54,.05,.52,.1,1.04,.16,1.56h0c.06,.56,.12,1.12,.18,1.68,.02,.13,.03,.27,.05,.4,.05,.5,.12,1,.18,1.5,.1,.84,.21,1.68,.32,2.52,.01,.09,.02,.18,.04,.27,.07,.53,.14,1.06,.22,1.59,.02,.15,.04,.3,.06,.45,.09,.66,.19,1.33,.29,2,1.08,7.11,1.07,14.4,2.29,21.48,1.75,10.2,3.93,20.34,6.36,30.41,4.07,16.94,8.35,33.84,12.87,50.66h0c.02,.09,.05,.19,.08,.28s.05,.18,.09,.28c.04,.14,.09,.28,.14,.42,.06,.16,.12,.32,.19,.48,.07,.16,.14,.31,.21,.47h0c.09,.18,.18,.35,.28,.52,.05,.08,.1,.17,.16,.25,.16,.25,.33,.49,.52,.71,.06,.07,.13,.15,.2,.22h0c.13,.14,.27,.28,.42,.41,.11,.31,.21,.62,.31,.95,.29,1.01,.55,2.02,.87,3.02,.4,1.25,1.09,2.38,1.61,3.57,.36,.89,.7,1.8,1,2.71,.12,.38,.23,.75,.36,1.12,.07,.17,.14,.34,.19,.52h0v.02c.18,.5,.53,.91,.97,1.18,.27,.56,.55,1.12,.79,1.7,4.52,10.74,8.95,21.53,13.57,32.23,3.52,8.14,6.94,16.35,11.03,24.21,7.24,13.91,14.78,27.68,22.57,41.29,3.73,6.53,8.24,12.62,12.56,18.8,8.79,12.55,17.64,25.05,26.64,37.45,.16,.23,.37,.42,.61,.59,.8,1.05,1.61,2.08,2.41,3.13,.75,1.09,1.42,2.23,2.12,3.34-14.62,2.82-29.14,6.21-43.63,9.66-28.73,6.85-56.49,16.3-79.49,35.66-5.51,4.63-10.05,11.31-12.95,17.96-6.02,13.81-.94,26.09,8.53,36.58,13.02,14.42,29.51,23.59,47.12,31.57,19.79,8.98,40.17,15.83,61.15,20.95,17.04,4.16,34.27,7.62,51.55,10.67,17,3,34.12,5.45,51.28,7.46,13.89,1.63,27.88,2.46,41.85,3.25,11.92,.67,23.87,1.05,35.8,1.05,12.29,0,24.58-.62,36.88-.99,10.69-.34,21.39-.65,32.07-1.09,4.3-.18,8.61-.51,12.88-1.07,12.96-1.69,25.91-3.42,38.84-5.33,11.18-1.66,22.47-2.95,33.45-5.53,13.65-3.23,27.09-7.4,40.5-11.59,7.9-2.47,15.71-4.91,22.2-11.02,4.41-4.15,10.6-6.75,16.39-9.04,14.21-5.62,29.39-7.27,44.42-8.42,13.84-1.05,27.84-.63,41.74-.09,11.49,.45,22.94,1.94,34.39,3.09,17.22,1.72,34.42,3.59,51.64,5.3,11.63,1.16,23.27,2.41,34.93,3.16,14.97,.97,29.97,2,44.96,2.08,22.06,.11,44.13-.42,66.19-1.01,15.18-.41,30.34-1.33,45.5-2.1,3.59-.18,7.19-.57,10.75-1.06,12.6-1.72,25.2-3.43,37.77-5.34,11.16-1.7,22.42-3.1,33.4-5.64,14.18-3.27,28.25-7.14,42.13-11.52,12.68-4,25.46-8.13,37.42-13.84,12.07-5.78,23.7-12.86,34.55-20.71,8.7-6.29,15.46-15.12,18.39-25.79ZM2100,0V2100H0V0H2100Z"/>
  <path class="cls-6" d="M1532.71,933.48c.46,1.24-.23,3.68-1.26,4.72-.02,.03-.05,.05-.08,.08-.03,.03-.05,.05-.08,.07-6.38,5.29-12.8,10.54-19.22,15.79-4.29,3.5-8.57,6.99-12.86,10.48-6.43,5.24-12.84,10.49-19.23,15.77-1.62,1.34-3.23,2.68-4.84,4.03s-3.21,2.7-4.82,4.06c-1.07,.91-2.14,1.81-3.2,2.71-2.14,1.81-4.27,3.63-6.4,5.45-2.13,1.82-4.27,3.63-6.4,5.44-.86,.73-1.71,1.45-2.56,2.17-2.57,2.17-5.14,4.33-7.73,6.48-1.72,1.43-3.45,2.86-5.19,4.27-6.98,5.7-14.09,11.23-21.41,16.43-.7,.5-1.39,.99-2.09,1.48-.35,.24-.7,.49-1.05,.73-.7,.48-1.41,.97-2.12,1.45-1.06,.72-2.12,1.43-3.19,2.13-.71,.47-1.43,.93-2.14,1.39-1.8,1.15-3.6,2.28-5.43,3.38-1.09,.66-2.2,1.32-3.3,1.96-1.47,.86-2.96,1.7-4.45,2.52-1.5,.82-3,1.62-4.52,2.41-.76,.39-1.52,.78-2.29,1.16-.76,.38-1.53,.76-2.3,1.13-.39,.19-.77,.37-1.16,.55-.77,.37-1.55,.73-2.33,1.08-.78,.36-1.57,.71-2.35,1.05-1.96,.86-3.95,1.69-5.96,2.48-.8,.32-1.61,.63-2.42,.93-.41,.15-.81,.3-1.22,.45-1.73,.63-3.5,1.23-5.29,1.78-.51,.16-1.02,.31-1.54,.46s-1.03,.29-1.55,.43-1.04,.27-1.56,.4c-.52,.13-1.05,.26-1.57,.38-.65,.15-1.31,.29-1.97,.43-.66,.14-1.32,.26-1.97,.38-.66,.12-1.32,.22-1.98,.32s-1.32,.18-1.98,.26c-.23,.03-.46,.05-.69,.08-.4,.04-.8,.08-1.21,.12-1.21,.11-2.41,.18-3.62,.21-2.73,.07-5.43-.03-8.11-.26l-.9-.08c-1.44-.14-2.88-.32-4.31-.53-.96-.14-1.92-.3-2.87-.47-.48-.08-.95-.17-1.42-.26-3.32-.64-6.61-1.44-9.87-2.34-.93-.25-1.86-.52-2.79-.79-.47-.14-.94-.28-1.4-.42-.58-.18-1.16-.35-1.74-.53-1.16-.36-2.32-.72-3.47-1.09-.58-.18-1.16-.37-1.73-.56-1.15-.38-2.3-.76-3.45-1.14s-2.3-.77-3.45-1.15c0,0,0,0,0,0-.46-.15-.92-.3-1.38-.46-1.45-.48-2.89-.98-4.34-1.47-1.45-.5-2.89-1-4.33-1.51-.72-.25-1.44-.51-2.16-.77-1.44-.51-2.88-1.04-4.31-1.56-.71-.26-1.43-.53-2.15-.79-.82-.3-1.64-.61-2.45-.91-1.64-.61-3.27-1.23-4.9-1.86-4.89-1.88-9.75-3.82-14.59-5.82-13.66-5.63-27.07-11.89-40.52-18.03-14.65-6.69-29.35-13.3-43.8-20.4-1.1-.54-2.2-1.08-3.29-1.63-7.68-3.82-15.31-7.73-22.93-11.66-2.18-1.12-4.36-2.24-6.54-3.37-2.18-1.12-4.36-2.24-6.54-3.36s-4.36-2.23-6.55-3.34-4.37-2.21-6.56-3.31c-.71-.36-1.43-.71-2.15-1.07-1.44-.71-2.88-1.41-4.32-2.11-1.45-.7-2.89-1.39-4.34-2.08l-4.35-2.06c-2.9-1.37-5.8-2.74-8.7-4.11-1.45-.69-2.89-1.38-4.34-2.07-2.17-1.04-4.33-2.09-6.48-3.16-7.14-3.53-14.42-6.58-22.49-6.13-2.11,.12-4.2,.32-6.28,.6-1.38,.19-2.76,.41-4.13,.66-.34,.07-.68,.13-1.02,.2-.68,.14-1.36,.29-2.04,.44-1.02,.23-2.03,.48-3.03,.75-.34,.09-.67,.18-1.01,.27-2.34,.66-4.65,1.41-6.94,2.27-.32,.12-.65,.25-.98,.37-.98,.38-1.95,.78-2.91,1.19-.32,.14-.64,.28-.96,.42-.48,.21-.96,.43-1.44,.65-.48,.22-.96,.45-1.43,.68-.57,.28-1.15,.55-1.72,.83-1.73,.83-3.46,1.66-5.18,2.49-.57,.28-1.15,.55-1.73,.83-1.72,.84-3.45,1.68-5.16,2.53-1.14,.57-2.28,1.15-3.42,1.73-.71,.36-1.42,.73-2.12,1.1-1.41,.75-2.81,1.5-4.2,2.28-.7,.39-1.39,.78-2.08,1.18-.55,.32-1.11,.64-1.65,.96-.86,.51-1.72,1.02-2.58,1.53-1.71,1.03-3.43,2.06-5.13,3.1s-3.41,2.09-5.11,3.14c-3.4,2.11-6.79,4.23-10.16,6.38-1.69,1.07-3.37,2.16-5.05,3.24-1.68,1.09-3.36,2.18-5.04,3.27-1.67,1.09-3.34,2.19-5.02,3.29-.83,.55-1.67,1.1-2.5,1.65-.94,.62-1.87,1.24-2.8,1.86-1.87,1.25-3.73,2.5-5.59,3.75-2.33,1.57-4.65,3.15-6.96,4.73-1.16,.79-2.32,1.59-3.47,2.38-2.31,1.59-4.62,3.18-6.93,4.78-3.46,2.4-6.92,4.8-10.38,7.21-.92,.64-1.84,1.29-2.76,1.93-1.84,1.28-3.69,2.57-5.53,3.85-2.53,1.76-5.05,3.52-7.58,5.27-1.27,.88-2.53,1.75-3.8,2.62-1.27,.88-2.54,1.75-3.8,2.61-2.54,1.73-5.09,3.45-7.66,5.14-.64,.42-1.29,.84-1.93,1.26-1.29,.84-2.58,1.67-3.88,2.49-.65,.41-1.3,.82-1.95,1.23-1.95,1.22-3.92,2.42-5.9,3.59-.66,.39-1.32,.78-1.98,1.17-2.65,1.55-5.34,3.04-8.05,4.48-1.36,.72-2.72,1.43-4.1,2.12-1.38,.69-2.76,1.37-4.16,2.03-2.79,1.32-5.62,2.57-8.5,3.75-7.41,3.03-15.25,6.9-22.81,4.9-5.16-1.36-10.31-2.83-15.43-4.4-2.05-.62-4.09-1.27-6.13-1.93-3.06-.98-6.11-2.01-9.14-3.06-2.02-.7-4.04-1.42-6.05-2.15-1-.37-2.01-.73-3.01-1.11-2-.75-4-1.51-6-2.29-1-.39-1.99-.78-2.98-1.17-1.14-.45-2.28-.93-3.41-1.42-.75-.32-1.5-.66-2.25-1-.75-.34-1.49-.69-2.23-1.04-1.86-.88-3.7-1.8-5.52-2.75-.73-.38-1.46-.76-2.2-1.14-.36-.19-.73-.38-1.09-.57-.73-.39-1.46-.77-2.18-1.16-.73-.39-1.46-.78-2.18-1.17-2.18-1.17-4.36-2.34-6.56-3.49-.73-.38-1.46-.76-2.2-1.14-1.83-.94-3.68-1.86-5.53-2.75-5-2.39-10.03-4.72-15.08-7.02-2.52-1.15-5.05-2.29-7.58-3.42-5.9-2.64-11.82-5.26-17.74-7.87-2.35-1.04-4.69-2.09-7.03-3.14-1.41-.63-2.81-1.26-4.21-1.89-.47-.21-.94-.42-1.41-.63-.94-.42-1.88-.84-2.81-1.26-.94-.42-1.88-.84-2.81-1.26-.94-.42-1.88-.84-2.81-1.25-3.29-1.46-6.58-2.89-9.89-4.29-.95-.4-1.89-.79-2.84-1.19-.47-.2-.95-.39-1.42-.59-.95-.39-1.9-.77-2.85-1.16-2.38-.95-4.77-1.88-7.17-2.77-2.95-1.1-5.94-2.12-8.96-3.07-1.81-.57-3.63-1.11-5.46-1.62-.49-.13-.98-.27-1.47-.4-.98-.26-1.96-.52-2.94-.77-1.48-.37-2.95-.72-4.44-1.05-.54-.12-1.08-.24-1.62-.35-1.62-.35-3.24-.67-4.87-.96-1.44-.26-2.89-.5-4.33-.73-.38-.06-.75-.11-1.13-.16-1.14-.15-2.29-.26-3.43-.34-.77-.05-1.54-.09-2.31-.12h0c-2.27-.07-4.56-.04-6.85,.09-.61,.03-1.21,.07-1.82,.11-.3,.02-.61,.05-.91,.07-.76,.06-1.52,.13-2.28,.21-1.01,.1-2.02,.21-3.02,.34-1.38,.17-2.76,.36-4.12,.56-2.62,.38-5.21,.9-7.76,1.54-.73,.18-1.45,.38-2.18,.57-1.09,.3-2.16,.63-3.24,.97-.71,.23-1.43,.47-2.13,.71-1.6,.56-3.18,1.16-4.74,1.8-.79,.32-1.57,.65-2.34,.99-.78,.34-1.55,.69-2.32,1.04s-1.54,.72-2.3,1.1c-1.14,.56-2.28,1.14-3.4,1.74-1.13,.6-2.25,1.21-3.36,1.84-2.3,1.3-4.61,2.59-6.93,3.87s-4.64,2.56-6.95,3.86c-1.54,.86-3.08,1.73-4.61,2.61-.77,.44-1.53,.88-2.29,1.32-.76,.45-1.52,.89-2.28,1.34-.38,.23-.76,.45-1.13,.68-1.89,1.14-3.75,2.3-5.6,3.49-2.21,1.43-4.39,2.91-6.53,4.45-1.12,.81-2.24,1.62-3.36,2.44-.2,.15-.4,.29-.6,.44-.98,.72-1.96,1.45-2.94,2.18-1.39,1.04-2.78,2.07-4.16,3.12-.89,.68-1.79,1.36-2.68,2.04-1.13,.87-2.27,1.73-3.39,2.61-1.13,.87-2.26,1.75-3.38,2.62-1.12,.88-2.25,1.76-3.37,2.64-1.12,.88-2.24,1.77-3.36,2.65s-2.24,1.77-3.36,2.66c-4.05,3.22-8.09,6.45-12.13,9.68-1.08,.87-2.17,1.73-3.25,2.59-1.08,.87-2.17,1.73-3.25,2.59-.96,.77-1.93,1.54-2.9,2.3-.12,.09-.24,.19-.36,.28,.08-1.64,.2-3.28,.33-4.92h0c.16-.2,.3-.41,.45-.62,.43-.65,.44-1.6,.54-2.43,.73-5.63,1.45-11.26,2.12-16.89,.1-.85-.13-1.74-.1-2.61,.15-4,.03-8.04,.59-11.98,.52-3.64,2.09-7.13,2.66-10.77,1.16-7.52,1.55-15.17,3.02-22.61,1.8-9.11,4.39-18.07,6.64-27.09,1.77-7.09,3.27-14.25,5.39-21.23,3.54-11.66,7.06-23.36,11.36-34.75,4.23-11.2,9.32-22.09,14.2-33.04,4.49-10.05,8.64-20.32,13.95-29.93,12.52-22.63,25.21-45.21,41.5-65.46,13.85-17.23,27-35.13,42.07-51.23,4.34-4.64,8.8-9.16,13.35-13.61,1.52-1.48,3.04-2.95,4.58-4.42,.51-.49,1.02-.97,1.54-1.46,1.03-.97,2.06-1.94,3.09-2.91s2.07-1.93,3.11-2.89c1.04-.96,2.09-1.91,3.13-2.87,1.57-1.43,3.14-2.85,4.73-4.27,5.27-4.73,10.59-9.39,15.93-14.03,.6-.52,1.21-1.05,1.82-1.56,.46-.39,.91-.78,1.38-1.16,.18-.16,.36-.3,.54-.45,.5-.42,1-.84,1.51-1.26,1.37-1.14,2.75-2.26,4.14-3.38,1.59-1.27,3.19-2.54,4.8-3.78,4.83-3.75,9.75-7.39,14.71-10.97,3.31-2.39,6.63-4.76,9.95-7.12,22.48-15.97,46.29-29.77,71.35-41.35l1.88-.87c1.25-.58,2.49-1.16,3.74-1.75s2.49-1.18,3.73-1.76c.62-.29,1.25-.59,1.87-.88,1.25-.59,2.49-1.18,3.74-1.76,3.11-1.46,6.23-2.91,9.37-4.34,1.88-.85,3.77-1.69,5.66-2.52,1.24-.54,2.49-1.06,3.75-1.57,.84-.34,1.68-.67,2.52-1s1.69-.65,2.54-.96c2.96-1.11,5.95-2.16,8.95-3.17,.86-.29,1.71-.58,2.57-.86,.84-.28,1.68-.56,2.52-.84,1.68-.56,3.36-1.12,5.04-1.68s3.36-1.12,5.04-1.68c1.68-.56,3.36-1.12,5.05-1.67,.84-.27,1.68-.55,2.53-.82,1.68-.55,3.37-1.09,5.06-1.62,5.07-1.61,10.15-3.14,15.27-4.54,.93-.25,1.86-.51,2.8-.76,1.87-.5,3.74-.99,5.61-1.46,1.87-.48,3.75-.95,5.62-1.4,.94-.23,1.88-.46,2.82-.68,1.88-.45,3.76-.89,5.65-1.33,1.88-.44,3.77-.87,5.65-1.3,1.89-.43,3.78-.85,5.66-1.27,3.77-.84,7.55-1.68,11.33-2.52,1.23-.27,2.47-.53,3.71-.77,1.24-.25,2.49-.48,3.73-.69,.83-.14,1.67-.28,2.5-.41s1.67-.26,2.5-.38c.72-.1,1.44-.2,2.16-.3,.54-.07,1.07-.14,1.6-.2,.42-.05,.84-.1,1.26-.15,.42-.05,.84-.1,1.26-.14,.42-.05,.84-.09,1.26-.13,.89-.09,1.78-.17,2.67-.23,.89-.07,1.79-.13,2.68-.18,1.34-.08,2.68-.14,4.02-.2,.89-.04,1.79-.07,2.68-.11,1.34-.05,2.68-.11,4.02-.18,.89-.04,1.79-.09,2.68-.14,.89-.06,1.79-.12,2.68-.19,.1,0,.2-.02,.3-.04,.07-.01,.15-.02,.22-.04,.09-.02,.18-.04,.26-.05,.18-.04,.35-.1,.52-.15,.18-.06,.35-.12,.52-.19l.26-.11,.56-.25,.75-.34c.88-.39,1.75-.74,2.65-.8,1.02-.06,2.04-.12,3.06-.18,1.53-.09,3.06-.17,4.59-.24,1.53-.08,3.06-.15,4.59-.22,4.08-.19,8.16-.36,12.25-.52,2.72-.11,5.45-.23,8.16-.35,.17,0,.35-.03,.52-.06,.56-.09,1.12-.25,1.68-.22,8.2,.33,16.46,2.55,24.49-1.39,.06-.03,.12-.06,.19-.08,.13-.05,.26-.09,.4-.12,.72-.18,1.56-.13,2.41-.02,.45,.06,.89,.14,1.33,.23,.29,.05,.57,.11,.85,.16,.61,.11,1.21,.27,1.81,.44,.3,.09,.6,.18,.9,.27,.3,.09,.6,.18,.9,.28,.15,.05,.3,.09,.45,.13,.6,.18,1.2,.34,1.8,.46,.45,.09,.91,.17,1.36,.21,.39,.04,.79,.07,1.18,.1,.79,.06,1.58,.12,2.36,.18,.79,.05,1.58,.11,2.37,.16,1.16,.07,2.32,.14,3.48,.2,.47,.03,.94,.05,1.41,.07,.81,.04,1.63,.08,2.44,.12,.95,.05,1.9,.09,2.85,.14,.95,.05,1.9,.1,2.85,.15,2.43,.14,4.88,.2,7.3,.47,3.89,.43,7.73,.55,11.69,.41,.12,0,.23,0,.35,0,1.84,0,3.68,.47,5.54,1.05,.07,.02,.14,.05,.21,.07,.82,.27,1.65,.55,2.48,.83,1.66,.55,3.32,1.07,5.01,1.32,.73,.11,1.46,.19,2.2,.25,.18,.02,.37,.04,.55,.05,.18,.02,.37,.03,.55,.04,.37,.03,.73,.05,1.11,.07s.74,.04,1.11,.05c1.85,.08,3.71,.12,5.55,.2,.37,.02,.74,.04,1.11,.05,1.84,.1,3.68,.26,5.48,.58,2.29,.4,4.57,.8,6.86,1.2,1.53,.27,3.05,.54,4.57,.82s3.04,.57,4.56,.86c4.56,.88,9.11,1.82,13.62,2.9,1.5,.36,3,.73,4.5,1.12,.75,.2,1.49,.39,2.24,.6,3.22,.88,6.43,1.79,9.64,2.72,2.14,.62,4.27,1.25,6.4,1.89,2.13,.64,4.26,1.29,6.39,1.95,9.57,2.96,19.1,6.06,28.62,9.18,2.46,.8,4.91,1.63,7.35,2.49,1.22,.43,2.44,.86,3.66,1.3,1.21,.44,2.43,.89,3.64,1.34,1.82,.68,3.63,1.38,5.43,2.1,2.41,.95,4.8,1.94,7.17,2.96,.59,.25,1.19,.51,1.78,.77,3.34,1.46,6.64,3.01,9.93,4.6,1.97,.95,3.93,1.92,5.89,2.9,5.23,2.61,10.43,5.27,15.67,7.86,3.74,1.86,7.53,3.63,11.3,5.45,1.61,.78,3.22,1.57,4.82,2.37,1.07,.54,2.13,1.08,3.18,1.63,2.11,1.11,4.2,2.25,6.25,3.46,1.7,1,3.4,2.02,5.1,3.03,2.55,1.52,5.09,3.06,7.62,4.61,1.69,1.03,3.37,2.07,5.05,3.11,1.68,1.05,3.36,2.1,5.03,3.15,.84,.53,1.67,1.06,2.5,1.59,1.67,1.06,3.33,2.13,4.99,3.21,3.32,2.16,6.61,4.34,9.89,6.56,10.49,7.11,20.48,15,30.42,22.88,3.38,2.68,6.68,5.44,9.95,8.24,.94,.8,1.87,1.61,2.8,2.41,1.39,1.21,2.79,2.43,4.17,3.65,1.85,1.62,3.69,3.26,5.54,4.88,3.82,3.36,7.68,6.69,11.52,10.04,.61,.53,1.21,1.06,1.82,1.59,.41,.36,.82,.72,1.23,1.08,.8,.7,1.59,1.4,2.39,2.11,.8,.71,1.6,1.43,2.39,2.14,1.91,1.72,3.8,3.46,5.67,5.23,1.24,1.18,2.48,2.37,3.69,3.57,.61,.6,1.21,1.21,1.82,1.82,8.57,8.69,16.16,18.39,23.84,27.92,10.37,12.87,21.29,25.43,30.38,39.16,13.81,20.87,27.89,41.63,38.38,64.55,6.09,13.3,14.13,25.59,18.57,39.79,3.96,12.66,9.7,24.76,14.38,37.21Z"/>
  <path class="cls-6" d="M1528.05,1267.96s-.03,.09-.05,.13c-.29,.86-.57,1.72-.8,2.59-.21,.81-.41,1.62-.68,2.42-.39,1.07-.79,2.16-1.28,3.19-.42,.79-.89,1.56-1.25,2.38-.43,.99-.82,2-1.12,3.04-.49,1.7-.73,3.48-.86,5.25v-.06c0,.06,0,.12-.02,.18-3.7,9.4-7.19,18.89-11.26,28.14-5.48,12.47-11.22,24.88-17.71,36.84-4.35,8.02-9.12,15.81-13.89,23.6-.73,0-1.46,.31-1.85,.96-.67,1.12-1.33,2.24-1.93,3.4-.54,1.04-1.07,2.07-1.64,3.08-.46,.8-.9,1.63-1.36,2.44-.66,1.15-1.38,2.25-2.16,3.32-1.3,1.74-2.68,3.43-3.99,5.17-.78,1.02-1.66,1.97-2.45,2.98-.14,.18-.28,.37-.42,.55-2.27-.66-4.56-1.29-6.86-1.89-24.27-6.35-48.62-12.48-73.14-17.71-16.18-3.45-32.69-5.48-49.12-7.55-14.81-1.88-29.71-3.13-44.61-4.3-12.66-.99-25.35-2.05-38.03-2.07-26.86-.04-53.73,.42-80.59,1.02-12.51,.27-25,1.27-37.5,2.08-9.13,.59-18.31,.95-27.36,2.21-15.02,2.11-30.06,4.31-44.87,7.5-20.62,4.44-41.25,9.12-61.48,15.02-15.43,4.5-30.7,10.08-44.31,19.04-4.7,3.09-8.38,7.97-13.32,10.39-9.41,4.6-19.41,8.02-30.23,11.93-5.24,1.06-10.44,2.45-15.73,3.13-15.06,1.95-30.11,4.21-45.24,5.2-10.62,.69-21.38-.35-32.06-.91-9.31-.48-18.61-1.35-27.91-2.09-13.07-1.04-26.12-2.89-39.19-3.02-4.11-.04-8.21-.06-12.32-.06-19.2,0-38.41,.45-57.6,1.07-15.04,.49-30.05,1.91-45.06,3.13-10.41,.85-20.92,1.43-31.17,3.31-.01,0-.03,0-.04,0-.08-.12-.16-.23-.23-.35-.69-1.05-1.34-2.12-2-3.19-.62-1.01-1.35-1.95-2.08-2.88-.7-.9-1.39-1.79-2.06-2.71,0-.01-.02-.02-.02-.03-.77-1.07-1.55-2.15-2.33-3.23-.31-.43-.59-.86-.86-1.31-.12-.25-.23-.5-.34-.75-.04-.12-.07-.23-.11-.35,.01,.04,.02,.09,.03,.13-.09-.37-.27-.71-.51-.98-.04-.05-.08-.09-.12-.13-.04-.04-.08-.08-.13-.11-.03-.03-.06-.05-.09-.07-.04-.03-.08-.06-.12-.09,0,0-.01-.01-.02-.01-.04-.03-.09-.05-.14-.08-.04-.02-.08-.04-.12-.06-.04-.02-.09-.04-.14-.05-.08-.03-.16-.05-.24-.07-.04-.01-.09-.02-.13-.03-.05-.01-.11-.02-.17-.02-.07,0-.14-.01-.21-.01h-.09c-.11,0-.21,.02-.31,.04-4.38-5.57-8.82-11.09-12.72-16.97-9.38-14.16-18.19-28.7-27.77-43.6-3.27-5.76-6.84-11.37-9.73-17.3-5.32-10.93-10.4-21.98-15.28-33.12-4.14-9.47-7.87-19.12-11.78-28.7-1.43-3.5-2.66-7.09-4.36-10.45-.16-.3-.36-.58-.61-.84-.18-.49-.37-.98-.56-1.46-.43-1.07-.99-2.07-1.46-3.12-.27-.68-.46-1.41-.66-2.12,.34-.07,.69-.16,1.03-.24h0c.23-.05,.46-.11,.69-.16s.46-.11,.69-.15c1.04-.22,2.07-.39,3.11-.39,5.93,0,11.85,0,17.77-.02,.66,0,1.32,0,1.98,0,6.59,0,13.17,0,19.76-.01,13.17,0,26.36,0,39.55-.01,41.48-.01,83.11,0,125.14,0h810.22Z"/>
</svg>