<?xml version="1.0" encoding="UTF-8"?>
<svg id="Calque_vectoriel" data-name="Calque vectoriel" xmlns="http://www.w3.org/2000/svg" viewBox="0 0 2100 2100">
  <defs>
    <style>
      .cls-1 {
        fill: rgba(244, 181, 114, 0);
      }

      .cls-2 {
        fill: #f4b572;
      }

      .cls-3 {
        fill: #ffea00;
      }

      .cls-4 {
        fill: #ff9100;
      }

      .cls-5 {
        fill: #73f3f4;
      }
    </style>
  </defs>
  <path class="cls-3" d="M507.84,1267.96c-.18-.68-.39-1.34-.63-2-.2-.57-.42-1.13-.57-1.71-.3-1.17-1.55-1.88-2.71-1.57-1.17,.31-1.87,1.54-1.57,2.71,.23,.92,.57,1.8,.88,2.7-1.19-1.01-1.9-2.56-2.29-4.03-4.52-16.82-8.8-33.72-12.87-50.66-2.42-10.07-4.6-20.21-6.36-30.41-1.21-7.09-1.2-14.37-2.29-21.48-1.68-11.07-2.5-22.18-2.88-33.3,5.97-2.63,11.98-5.15,18.14-7.3,8.95-3.02,18.18-5.79,27.53-7.72,.01,0,.02,0,.04,0,4.45-.63,8.98-1.32,13.74-1.97,4.96,0,9.39,.04,13.82-.04,.64-.01,1.27-.38,1.9-.65,1.54,.07,3.08,.19,4.62,.34,.42,.13,.84,.24,1.27,.32,3.46,.6,6.93,1.17,10.45,1.7,1.18,.29,2.35,.61,3.52,.96,5.81,1.41,11.57,3.04,17.26,4.87,3.47,1.11,7.02,2.02,10.49,3.13,11.23,5.47,21.09,13.52,31.82,19.96,8.66,5.2,17.02,11.25,26.3,14.98,11.39,4.59,23.71,6.1,36.05,3.41,3.68-.8,7.51-1.77,10.75-3.59,6.21-3.5,12.35-7.14,18.52-10.86,1.78-.11,4.13-2.56,5.54-3.29,.2-.14,.39-.28,.59-.43,2.43-1.47,4.86-2.95,7.32-4.44,3.16-1.87,6-3.57,8.95-5.05,3.59-1.79,7.17-3.61,10.75-5.41,1.79-.62,3.57-1.23,5.31-1.88,6.07-2.16,12.04-4.58,18.12-6.71,14.99-4.7,29.64-10.4,44.65-15.03,1.11-.34,2.23-.64,3.34-.91,4.28-.77,8.58-1.37,12.89-1.95,5.4-.41,10.86-.43,16.34-.43,4.3,.01,8.61,.09,12.91,.21,7.6,1.06,15.21,2.05,22.77,3.36,18.53,3.21,34.54,12.16,49.76,22.67,5.85,4.04,11.73,8.15,17.03,12.87,6.47,5.76,12.35,12.18,18.48,18.32,9.51,9.51,18.56,19.53,28.63,28.39,13.36,11.75,29.76,18.5,46.13,24.91,6.44,2.52,13.28,4.01,19.98,5.81,6.21,1.67,12.39,4.63,18.98,2.07,2.29-.89,4.05-3.05,6.29-4.13,14.2-6.89,28.55-13.47,42.67-20.52,8.86-4.42,17.3-9.69,26.11-14.2,9.8-5.02,19.89-9.49,29.74-14.41,14.88-7.43,29.61-15.16,44.51-22.56,8.87-4.41,17.78-8.72,26.76-13.09,1.3,.39,2.5-.89,3.74-1.32,2.55-1.23,5.11-2.43,7.7-3.55,9.99-4.22,20.17-7.98,30.14-12.26,7.16-2.98,14.32-6.02,21.78-8.2,9.07-2.66,18.32-4.65,27.61-6.38,12.67-2.93,25.6-4.47,38.57-5.14,12.2-.36,24.28-2.17,36.51-1.53,12.18,.25,24.32,1.18,36.44,2.33,17.43,1.25,34.85,2.73,52.25,4.41,12.6,1.16,25.04,4.34,37.68,5.33,.39,.04,.79,.09,1.18,.13,.13,8.88,.16,17.76-.32,26.61-.7,12.96-2.12,25.93-4.23,38.74-3.84,23.36-8.14,46.66-12.81,69.87-1.75,8.7-4.89,17.13-7.81,25.54-.3,.87-1.26,1.55-2.35,2.15-.18-1.16-1.26-1.97-2.43-1.86-1.64,.16-2.47,1.8-2.96,3.18H717.83c-68.78,0-136.5-.01-204.21,.04-1.84,0-3.69,.54-5.52,.94-.09-.33-.17-.66-.26-.98Z"/>
  <path class="cls-2" d="M1562.38,1451.39c10.02,11.46,15.3,24.49,11.1,39.76-2.93,10.66-9.69,19.5-18.39,25.79-10.85,7.85-22.48,14.93-34.55,20.71-11.95,5.71-24.74,9.84-37.42,13.84-13.88,4.38-27.95,8.24-42.13,11.52-10.98,2.54-22.23,3.94-33.4,5.64-12.57,1.91-25.18,3.62-37.77,5.34-3.57,.49-7.16,.88-10.75,1.06-15.16,.77-30.32,1.7-45.5,2.1-22.06,.59-44.13,1.12-66.19,1.01-14.99-.08-29.99-1.11-44.96-2.08-11.66-.75-23.29-2-34.93-3.16-17.22-1.71-34.42-3.58-51.64-5.3-11.46-1.15-22.91-2.64-34.39-3.09-13.9-.54-27.9-.95-41.74,.09-15.03,1.15-30.21,2.8-44.42,8.42-5.79,2.29-11.98,4.89-16.39,9.04-6.49,6.11-14.29,8.55-22.2,11.02-13.4,4.19-26.85,8.36-40.5,11.59-10.98,2.59-22.27,3.88-33.45,5.53-12.93,1.91-25.88,3.64-38.84,5.33-4.27,.56-8.58,.89-12.88,1.07-10.69,.45-21.38,.76-32.07,1.09-12.29,.38-24.59,.98-36.88,.99-11.94,0-23.89-.38-35.8-1.05-13.97-.79-27.96-1.62-41.85-3.25-17.15-2.01-34.27-4.46-51.28-7.46-17.28-3.05-34.51-6.52-51.55-10.67-20.98-5.12-41.36-11.98-61.15-20.95-17.61-7.98-34.09-17.15-47.12-31.57-9.47-10.49-14.55-22.77-8.53-36.58,2.9-6.65,7.44-13.33,12.95-17.96,23-19.36,50.76-28.81,79.49-35.66,14.49-3.45,29.01-6.84,43.63-9.66-.71-1.11-1.37-2.25-2.12-3.34-.8-1.05-1.61-2.09-2.41-3.13-.24-.16-.45-.36-.61-.59-9-12.4-17.86-24.91-26.64-37.45-4.32-6.17-8.83-12.27-12.56-18.8-7.79-13.61-15.33-27.38-22.57-41.29-4.09-7.86-7.51-16.07-11.03-24.21-4.63-10.7-9.06-21.48-13.57-32.23-.24-.57-.52-1.13-.79-1.7-.44-.27-.79-.68-.97-1.18h0v-.02c-.05-.17-.13-.34-.2-.52-.13-.37-.24-.74-.36-1.12-.3-.91-.64-1.82-1-2.71-.53-1.2-1.21-2.32-1.61-3.57-.32-1-.58-2.02-.87-3.02-.09-.32-.2-.63-.31-.95-.15-.12-.29-.26-.42-.4,.14,.14,.28,.27,.43,.4-.31-.9-.65-1.79-.88-2.7-.3-1.17,.4-2.39,1.57-2.71,1.16-.3,2.41,.41,2.71,1.57,.15,.59,.37,1.15,.57,1.71,.23,.66,.45,1.32,.63,2,.09,.32,.17,.65,.26,.98,.34-.07,.69-.16,1.03-.23-.34,.08-.69,.16-1.03,.24,.19,.71,.39,1.44,.66,2.12,.47,1.05,1.04,2.05,1.46,3.12,.2,.48,.38,.97,.56,1.46,.25,.27,.45,.54,.61,.84,1.7,3.36,2.93,6.95,4.36,10.45,3.91,9.58,7.63,19.23,11.78,28.7,4.88,11.13,9.96,22.19,15.28,33.12,2.89,5.94,6.47,11.55,9.73,17.3,9.58,14.91,18.39,29.45,27.77,43.6,3.9,5.88,8.34,11.4,12.72,16.97,.1-.02,.2-.03,.31-.04h.09c.07,0,.14,0,.21,.01,.13,0,.25,.03,.38,.07,.05,.01,.09,.02,.13,.04,.1,.03,.2,.07,.29,.12,.05,.02,.09,.05,.14,.08,0,0,.01,0,.02,.01h0s.08,.06,.12,.09c0,0,0,0,0,0,.03,.02,.05,.04,.08,.06,.05,.04,.09,.08,.14,.12s.09,.09,.12,.13c.06,.07,.11,.13,.16,.2,0,.01,.02,.02,.02,.04,.05,.07,.09,.14,.13,.21,.04,.08,.07,.16,.11,.24,0,.01,.01,.03,.02,.04,.03,.08,.05,.16,.08,.25,0-.04-.02-.09-.03-.13,.04,.12,.07,.23,.11,.35,.11,.25,.22,.5,.34,.75,.27,.45,.55,.88,.86,1.31,.78,1.07,1.56,2.15,2.33,3.23,0,.01,.02,.02,.02,.03,.67,.92,1.36,1.81,2.06,2.71,.73,.93,1.46,1.88,2.08,2.88,.66,1.07,1.31,2.14,2,3.19,.07,.12,.15,.23,.23,.35,.01,0,.03,0,.04,0,10.25-1.88,20.75-2.46,31.17-3.31,15.01-1.23,30.02-2.64,45.06-3.13,19.19-.62,38.4-1.07,57.6-1.07,4.11,0,8.21,.02,12.32,.06,13.07,.13,26.12,1.98,39.19,3.02,9.3,.74,18.59,1.61,27.91,2.09,10.68,.56,21.44,1.6,32.06,.91,15.13-.98,30.18-3.24,45.24-5.2,5.29-.68,10.49-2.07,15.73-3.13,10.82-3.91,20.81-7.33,30.23-11.93,4.95-2.42,8.62-7.3,13.32-10.39,13.61-8.96,28.89-14.54,44.31-19.04,20.23-5.91,40.86-10.59,61.48-15.02,14.81-3.19,29.86-5.39,44.87-7.5,9.04-1.27,18.23-1.62,27.36-2.21,12.5-.8,24.99-1.8,37.5-2.08,26.86-.6,53.73-1.06,80.59-1.02,12.68,.02,25.37,1.08,38.03,2.07,14.89,1.17,29.79,2.43,44.61,4.3,16.44,2.07,32.95,4.09,49.12,7.55,24.52,5.23,48.88,11.36,73.14,17.71,2.3,.6,4.58,1.23,6.86,1.89,.14-.18,.28-.37,.42-.55,.79-1.02,1.67-1.96,2.45-2.98,1.32-1.74,2.69-3.43,3.99-5.17,.78-1.07,1.5-2.17,2.16-3.32,.46-.81,.9-1.64,1.36-2.44,.57-1.01,1.11-2.05,1.64-3.08,.6-1.16,1.26-2.28,1.93-3.4,.39-.65,1.12-.97,1.85-.96,4.77-7.79,9.54-15.58,13.89-23.6,6.5-11.96,12.23-24.38,17.71-36.84,4.07-9.24,7.56-18.73,11.26-28.14,0-.06,.01-.12,.02-.18v.06c.13-1.77,.37-3.55,.86-5.25,.3-1.04,.69-2.05,1.12-3.04,.36-.82,.83-1.59,1.25-2.38,.5-1.03,.89-2.12,1.28-3.19,.27-.8,.47-1.61,.68-2.42,.23-.88,.51-1.73,.8-2.59,.02-.04,.03-.09,.05-.13,.5-1.39,1.32-3.03,2.96-3.18,1.17-.11,2.25,.7,2.43,1.86,0,.03,0,.06,.01,.1,.09,.83-.32,1.63-.98,2.09-.08,.2-.16,.39-.24,.59-.63,1.88-1.05,3.83-1.73,5.69-.3,.83-.6,1.66-.96,2.46-.24,.54-.51,1.05-.79,1.56,.09,.81,.11,1.6-.15,2.28-.71,1.84-1.43,3.68-2.14,5.52-.02,.16-.03,.33-.04,.5,0-.09,.01-.19,.02-.28-.07,.88-.26,1.7-.55,2.55-.3,.87-.6,1.74-.93,2.6-.6,1.55-1.35,3.04-1.89,4.62-.13,.41-.26,.83-.4,1.24l-.02,.07c-.41,1.25-.9,2.48-1.31,3.73-.04,.12-.07,.24-.11,.37-.21,.74-.75,1.33-1.44,1.57-2.66,6.69-5.35,13.37-8.07,20.04-1.8,4.4-4.21,8.55-6.35,12.81-7.56,13.24-14.56,25.97-21.62,38.66-3.05,5.49-6.08,11-9.39,16.33-.42,.67-1.16,1.14-1.97,1.57-.85,1.09-1.71,2.19-2.55,3.29-.62,.8-1.26,1.58-1.9,2.36,18.86,5.81,37.02,13.56,54.57,22.66,14.87,7.7,28.74,17.02,39.91,29.78Z"/>
  <path class="cls-1" d="M1560.89,1100.17c-.05-3.21-.11-6.43-.15-9.64-.11-8.21-.45-16.43-1.07-24.61-.87-11.48-1.81-22.97-3.23-34.39-1.43-11.57-3.32-23.09-5.29-34.58-3.83-22.46-9.62-44.43-17.01-65.99-2.61-7.63-4.55-15.54-7.68-22.95-7.35-17.39-14.39-35.01-23.12-51.71-9.82-18.79-21.06-36.86-32.24-54.89-6.72-10.84-14.3-21.19-21.89-31.46-6.6-8.92-13.61-17.55-20.72-26.08-5.68-6.81-11.58-13.45-17.73-19.84-5.21-5.4-10.95-10.28-16.39-15.45-.52-.5-1.05-1-1.57-1.51-.32-.31-.65-.63-.97-.95-.38-.37-.76-.75-1.14-1.12-.04-.04-.08-.08-.12-.11-.64-.64-1.29-1.27-1.92-1.91-.68-.68-1.36-1.36-2.04-2.04-.35-.36-.7-.71-1.06-1.06-1.44-1.45-2.89-2.89-4.34-4.32-1.04-1.02-2.08-2.02-3.13-3.02-.39-.38-.79-.74-1.18-1.11-.4-.37-.8-.74-1.2-1.11-.4-.37-.8-.73-1.21-1.09-.4-.36-.81-.72-1.22-1.08-.13-.12-.26-.23-.4-.35-.02-.02-.04-.04-.06-.05-.23-.2-.45-.39-.68-.58-.33-.29-.66-.57-1-.84-.16-.14-.33-.28-.5-.41-.16-.14-.33-.27-.5-.41-.34-.28-.68-.55-1.03-.82-.75-.6-1.51-1.2-2.27-1.79-.54-.42-1.08-.84-1.62-1.26-.77-.6-1.53-1.19-2.3-1.78-.91-.71-1.83-1.41-2.75-2.11-1-.76-2-1.52-3.01-2.28-.95-.72-1.9-1.43-2.86-2.14-1.19-.89-2.38-1.77-3.57-2.66-.02-.01-.03-.02-.05-.03-2.41-1.79-4.84-3.57-7.27-5.34-.48-.35-.96-.7-1.44-1.05-.74-.54-1.47-1.07-2.21-1.6-4.87-3.54-9.74-7.05-14.6-10.59-1.53-1.11-3.05-2.22-4.57-3.34-1.14-.84-2.29-1.68-3.43-2.53-.76-.56-1.53-1.12-2.29-1.69s-1.53-1.12-2.3-1.68c-.77-.55-1.54-1.11-2.31-1.66-.39-.27-.77-.55-1.16-.82-.27-.19-.54-.38-.82-.57-.18-.12-.36-.25-.54-.37-.25-.17-.5-.34-.75-.51-.17-.11-.34-.23-.51-.34-.02-.02-.04-.03-.07-.04-.28-.19-.56-.38-.84-.56-.32-.21-.63-.41-.95-.62-.08-.05-.16-.1-.24-.15-.33-.21-.66-.42-1-.63-.02,0-.04-.02-.05-.03-.45-.28-.9-.56-1.36-.83-.65-.39-1.3-.78-1.95-1.16-.31-.18-.63-.37-.95-.55-.74-.43-1.48-.86-2.23-1.29-.68-.39-1.36-.78-2.05-1.17-.02-.02-.05-.03-.07-.04-.33-.19-.65-.38-.98-.55-1.27-.71-2.54-1.42-3.81-2.12-.12-.07-.24-.13-.36-.2-.46-.25-.92-.5-1.38-.75-.12-.06-.23-.13-.35-.19-.66-.36-1.32-.71-1.98-1.07-.08-.04-.16-.09-.24-.13-.64-.34-1.28-.68-1.92-1.02-.51-.27-1.01-.54-1.52-.8-.33-.18-.66-.35-.99-.53-.59-.31-1.17-.61-1.76-.92-1.75-.92-3.51-1.83-5.27-2.74-1.48-.77-2.96-1.53-4.44-2.29-1.15-.6-2.3-1.19-3.46-1.78-.09-.05-.18-.09-.27-.14-.57-.29-1.14-.59-1.71-.88-.66-.34-1.32-.68-1.98-1.01-1.26-.64-2.52-1.27-3.78-1.9-.01,0-.02-.01-.03-.02l-.05-.02c-.7-.35-1.4-.7-2.1-1.04-.66-.33-1.33-.66-1.99-.98-1.14-.56-2.29-1.11-3.44-1.66-.12-.06-.25-.12-.37-.18-.09-.04-.17-.08-.25-.12-.35-.17-.7-.34-1.05-.5-.15-.07-.3-.14-.45-.21-.25-.11-.49-.23-.74-.34-.45-.21-.91-.43-1.37-.64-.27-.12-.54-.25-.8-.37-.14-.06-.27-.12-.41-.18-.34-.16-.69-.32-1.04-.47-.71-.32-1.43-.64-2.14-.96-1.61-.71-3.23-1.42-4.85-2.13s-3.24-1.41-4.86-2.11c-1.21-.52-2.44-1.04-3.66-1.55s-2.44-1.03-3.66-1.54c-1.63-.68-3.27-1.34-4.91-2-.2-.09-.41-.17-.61-.25s-.41-.16-.61-.24l-1.23-.49c-.77-.3-1.54-.61-2.31-.91-.7-.27-1.39-.54-2.08-.8-.65-.25-1.31-.5-1.96-.75-.86-.33-1.72-.65-2.59-.97-.57-.21-1.15-.43-1.72-.63-1.4-.51-2.8-1.02-4.2-1.51-1.05-.37-2.1-.73-3.15-1.1s-2.1-.73-3.16-1.09-2.11-.72-3.16-1.07c-.79-.27-1.58-.54-2.37-.8-.27-.09-.53-.18-.79-.26-1.05-.35-2.11-.7-3.17-1.05-1.94-.64-3.88-1.27-5.82-1.89-.03,0-.06-.02-.09-.03-1.21-.39-2.41-.77-3.62-1.15-1.34-.43-2.69-.85-4.04-1.27-.78-.24-1.56-.48-2.34-.72-1.8-.55-3.61-1.1-5.43-1.64-.32-.1-.64-.19-.96-.29-.27-.08-.54-.16-.8-.23-1.5-.45-3.01-.89-4.52-1.32-1.43-.41-2.86-.82-4.3-1.23-.07-.02-.14-.04-.22-.06-1-.28-2-.56-2.99-.84-.56-.16-1.13-.31-1.7-.46-.64-.17-1.28-.33-1.92-.49-.64-.16-1.28-.31-1.93-.46h0c-.4-.09-.8-.18-1.2-.27-.09-.02-.18-.04-.26-.06-.22-.05-.44-.1-.66-.14-.42-.1-.84-.19-1.26-.28-.27-.06-.53-.11-.79-.17-.43-.09-.85-.18-1.27-.26-.14-.03-.29-.06-.43-.09-.63-.12-1.26-.25-1.89-.37-.69-.13-1.38-.27-2.07-.39-1.73-.32-3.46-.63-5.19-.93-.7-.12-1.39-.24-2.08-.36-1.38-.24-2.77-.47-4.16-.71-.35-.06-.69-.12-1.04-.18-.7-.12-1.39-.23-2.08-.36-.35-.06-.69-.12-1.04-.18l-2.07-.36c-1.38-.25-2.77-.5-4.15-.75s-2.77-.5-4.15-.76c-4.38-.8-8.77-1.61-13.15-2.38-.64-.11-1.27-.22-1.91-.33-1.27-.22-2.54-.44-3.81-.65-1.27-.21-2.54-.42-3.81-.62-.75-.12-1.5-.23-2.26-.35-.93-.14-1.85-.28-2.78-.41-.87-.12-1.74-.25-2.61-.37-.08,0-.16-.02-.23-.03-.02,0-.05,0-.07,0-.81-.11-1.63-.22-2.45-.32-.12-.02-.23-.03-.35-.04-.43-.05-.86-.11-1.29-.16-.45-.05-.9-.11-1.36-.16-.98-.11-1.96-.22-2.93-.33-.98-.11-1.96-.21-2.94-.3-.98-.1-1.96-.2-2.94-.29-.49-.04-.98-.09-1.47-.13-.49-.04-.98-.09-1.47-.13-.98-.09-1.96-.17-2.95-.25s-1.96-.16-2.95-.23-1.96-.14-2.95-.21-1.97-.13-2.95-.2c-.74-.05-1.48-.09-2.21-.14-.55-.04-1.1-.07-1.65-.1-.34-.02-.69-.04-1.03-.06-.78-.05-1.57-.09-2.35-.13l-.67-.04c-.72-.04-1.45-.08-2.17-.11-.21-.01-.41-.02-.62-.03-2.16-.11-4.31-.21-6.46-.3-.18,0-.37-.02-.55-.02-1.97-.09-3.94-.17-5.91-.25-8.59-.34-17.25,.48-25.86,.97-1.96,.11-3.91,.22-5.87,.33-.98,.05-1.96,.11-2.94,.17-.98,.05-1.96,.11-2.94,.17-.96,.06-1.93,.12-2.89,.18-.02,0-.03,0-.05,0-.98,.06-1.95,.12-2.93,.19-.82,.05-1.63,.11-2.44,.17-.01,0-.03,0-.04,0-.48,.03-.95,.07-1.43,.11-.65,.05-1.3,.1-1.95,.15s-1.3,.11-1.95,.16c-.46,.04-.92,.08-1.38,.12-.08,0-.16,.01-.25,.02-.02,0-.05,0-.07,0-1.39,.12-2.77,.26-4.16,.4-14.22,1.48-28.42,3.28-42.57,5.33-.61,.09-1.23,.18-1.84,.27-1.23,.18-2.45,.37-3.68,.56-.72,.11-1.45,.23-2.17,.35-.5,.08-1,.16-1.5,.25-.61,.1-1.22,.2-1.84,.3-1.22,.21-2.44,.43-3.66,.64-1.22,.22-2.44,.45-3.66,.68-.91,.18-1.82,.36-2.73,.54-.85,.17-1.7,.35-2.55,.53-.06,.01-.12,.02-.18,.04-.6,.12-1.21,.26-1.81,.39l-.26,.06c-.1,.02-.19,.04-.29,.06-.22,.05-.44,.09-.66,.14-.02,0-.05,.01-.07,.02-.79,.18-1.57,.36-2.35,.54-8.34,1.95-16.43,4.91-24.66,7.34-2.73,.81-5.46,1.61-8.2,2.4-4.11,1.19-8.21,2.37-12.32,3.57-1.29,.38-2.59,.75-3.88,1.14-1.44,.43-2.88,.86-4.32,1.29-1.37,.41-2.73,.83-4.09,1.25-.55,.17-1.11,.34-1.66,.52-.5,.16-1,.32-1.5,.48-.05,.02-.11,.04-.16,.05-.03,.01-.07,.02-.1,.03-.29,.09-.57,.18-.85,.27l-.49,.16c-.55,.18-1.09,.36-1.63,.54-.7,.23-1.39,.46-2.09,.7-1.46,.5-2.92,1.01-4.37,1.53-.33,.12-.66,.24-.99,.36-.57,.2-1.15,.41-1.72,.62-.46,.17-.91,.34-1.36,.51-.64,.23-1.27,.47-1.9,.71-.06,.02-.13,.05-.19,.07-.29,.11-.57,.22-.85,.33-.41,.16-.82,.31-1.23,.47-1.39,.54-2.77,1.09-4.15,1.64-2.76,1.11-5.51,2.26-8.25,3.43-1.37,.59-2.73,1.18-4.09,1.78-1.07,.47-2.14,.95-3.21,1.44-1.07,.48-2.14,.96-3.2,1.46-.57,.26-1.15,.53-1.72,.79-.68,.31-1.35,.63-2.02,.95-.67,.31-1.35,.63-2.02,.95-.67,.32-1.34,.64-2.02,.96-1.18,.56-2.35,1.13-3.52,1.7-.59,.29-1.17,.57-1.76,.86-.58,.29-1.17,.57-1.75,.86-1,.5-2,1-3,1.5-.27,.14-.55,.27-.82,.41-1.06,.53-2.12,1.07-3.18,1.61-3.82,1.94-7.64,3.87-11.46,5.82-.95,.49-1.91,.98-2.86,1.47-.95,.49-1.9,.98-2.85,1.48-.95,.49-1.9,.99-2.84,1.49-.95,.5-1.89,1-2.84,1.51-5.54,2.98-11,6.13-16.33,9.47-5.54,3.46-10.89,7.23-16.29,10.9-1.06,.72-2.13,1.44-3.2,2.16-2.14,1.43-4.28,2.85-6.41,4.29-.55,.37-1.11,.75-1.66,1.12-.13,.09-.26,.18-.39,.27-.36,.24-.72,.49-1.08,.74-.15,.1-.3,.2-.44,.3-.12,.08-.24,.16-.36,.25-.18,.12-.36,.24-.54,.37-.42,.29-.84,.59-1.26,.89-.17,.12-.34,.23-.5,.36-.17,.12-.34,.24-.5,.36-.36,.26-.73,.52-1.09,.78-.45,.32-.9,.65-1.34,.98-.52,.38-1.03,.77-1.54,1.15-1.14,.86-2.28,1.73-3.42,2.6l-2.19,1.68c-.12,.09-.25,.19-.37,.28-.61,.46-1.21,.93-1.82,1.4-1.32,1.02-2.63,2.04-3.94,3.06-.63,.49-1.25,.98-1.88,1.48-.02,.02-.05,.04-.07,.06-.54,.42-1.07,.85-1.61,1.28-.11,.09-.23,.18-.34,.28-.07,.05-.13,.11-.2,.16-.38,.3-.76,.61-1.13,.91-1.26,1.02-2.52,2.05-3.76,3.09-.61,.51-1.22,1.03-1.83,1.55-.46,.39-.92,.78-1.38,1.18-.42,.36-.84,.72-1.25,1.09-.54,.47-1.07,.94-1.61,1.42-1.84,1.64-3.69,3.29-5.53,4.93-1.38,1.24-2.76,2.48-4.13,3.71s-2.75,2.48-4.12,3.73c-.24,.22-.49,.44-.73,.66-.02,.02-.04,.04-.06,.05-.17,.16-.34,.31-.51,.46-1.39,1.27-2.79,2.54-4.17,3.81-1.37,1.25-2.73,2.51-4.09,3.77-.45,.42-.91,.84-1.36,1.26-.91,.84-1.81,1.68-2.71,2.53-1.15,1.07-2.3,2.15-3.44,3.23-.09,.08-.17,.16-.25,.24-.21,.2-.41,.39-.62,.59-.62,.59-1.25,1.18-1.87,1.78-.63,.6-1.26,1.2-1.89,1.8-.67,.64-1.34,1.28-2,1.93-.22,.21-.44,.43-.66,.64-.89,.86-1.77,1.72-2.66,2.58-.22,.21-.44,.43-.66,.64-.66,.65-1.32,1.3-1.98,1.95-.66,.65-1.32,1.31-1.98,1.97-.39,.39-.77,.77-1.15,1.16-.31,.32-.62,.64-.93,.96-.36,.37-.72,.74-1.08,1.11-.23,.23-.45,.46-.68,.7-.04,.05-.09,.1-.14,.15-.07,.06-.12,.13-.19,.2-.31,.32-.62,.64-.93,.97-.68,.72-1.36,1.44-2.04,2.16-.14,.15-.27,.29-.41,.44-.29,.31-.58,.63-.87,.95-.68,.74-1.36,1.48-2.03,2.23,0,0-.01,.01-.02,.02-.53,.58-1.06,1.17-1.58,1.76-.52,.58-1.04,1.17-1.55,1.75-.93,1.06-1.86,2.12-2.78,3.19-.36,.41-.71,.83-1.06,1.24-.98,1.15-1.95,2.3-2.92,3.46-.53,.63-1.05,1.27-1.58,1.91-.55,.67-1.11,1.35-1.65,2.02-.54,.66-1.07,1.32-1.6,1.98-11.14,13.87-21.97,28.04-32.01,42.72-9,13.15-17.11,26.95-24.92,40.84-7.1,12.62-13.81,25.53-19.73,38.73-7.18,16.02-13.98,32.28-19.78,48.84-4.96,14.18-8.35,28.91-12.32,43.43-1.93,7.04-3.98,14.09-5.27,21.26-2.11,11.82-3.8,23.73-5.38,35.64-.2,1.52-.4,3.05-.59,4.57-.2,1.52-.38,3.05-.57,4.57-.18,1.49-.36,2.98-.54,4.48-.12,.07-.23,.14-.32,.21l-.02,.02s-.07,.06-.09,.09c-.02,.02-.04,.04-.06,.06-.03,.04-.06,.07-.09,.11-.02,.02-.04,.05-.05,.07-.02,.03-.04,.05-.05,.08-.04,.05-.06,.11-.09,.16-.03,.05-.05,.11-.07,.17-.02,.06-.04,.12-.06,.18-.02,.06-.04,.12-.05,.18,0,.03-.02,.06-.02,.09,0,.03-.01,.06-.02,.09-.01,.06-.02,.13-.03,.2s-.02,.13-.02,.2h0c0,.05,0,.1,0,.14,0,.09,0,.18,0,.26,0,.02,0,.04,0,.05,0,.35,0,.71,0,1.06,0,.09,0,.19,0,.29,0,.06,0,.12,0,.19v.02c0,.08,0,.16-.02,.24,0,.04,0,.07-.01,.11,0,.02,0,.03,0,.05,0,.02,0,.04,0,.06,0,.02,0,.03,0,.05,0,0,0,.02,0,.03,0,.02,0,.05-.01,.07-.01,.06-.02,.12-.04,.18-.27,3.68-.59,7.34-.96,11.01-.71,5.7-1.17,11.43-1.16,17.14h0c-.07,.18-.14,.36-.2,.53h0c-.05,.18-.1,.35-.13,.52-.63,3.18-1.11,6.45-1.11,9.67,0,9.73-.12,19.46-.09,29.2,0,.48,0,.97,0,1.46,0,1.32,.02,2.64,.03,3.96,.02,1.4,.04,2.8,.06,4.2,.03,1.45,.05,2.89,.09,4.33,1.46-.64,2.94-1.27,4.41-1.89,1.47-.62,2.95-1.23,4.43-1.82,0,0,0,0,0,0-.04-.02-.09-.03-.12-.05,.27-.5,.44-1.33,.83-1.46,1.02-.32,2.05-.64,3.07-.96,.72-.22,1.45-.44,2.17-.66,.1-.03,.2-.06,.3-.09,.53-.16,1.05-.31,1.58-.46,.57-.17,1.13-.33,1.7-.49,1.18-.34,2.35-.66,3.53-.98,.16-.04,.33-.05,.51-.04,.04,0,.07,0,.11,.01,.01,0,.02,0,.04,0,0,0,.02,0,.03,0,.01,0,.03,0,.04,0,0,0,.02,0,.02,0,.12,.02,.23,.04,.36,.07,.04,.01,.08,.02,.12,.03,.48-.16,.96-.31,1.44-.46,.38-.12,.76-.24,1.14-.36,.43-.14,.86-.27,1.3-.4,.64-.2,1.27-.39,1.91-.58,1.94-.58,3.89-1.13,5.84-1.66,.11-.08,.22-.16,.33-.24,.05-.04,.11-.07,.17-.11s.11-.07,.17-.1c.02-.02,.05-.03,.07-.04,.04-.02,.08-.04,.12-.05,.04-.02,.08-.03,.12-.04,.01,0,.02,0,.03,0,0,0,.01,0,.02,0,.04-.01,.08-.02,.12-.02,.51-.05,1.03-.08,1.55-.1,.51-.13,1.02-.26,1.53-.38,.19-.05,.38-.09,.57-.14,.66-.16,1.32-.32,1.98-.47,.61-.14,1.23-.28,1.84-.41,.11-.03,.23-.05,.34-.08l.45-.09c.17-.04,.34-.07,.51-.11,.32-.07,.64-.14,.96-.2,1.37-.28,2.74-.54,4.11-.79,.65-.11,1.3-.22,1.95-.33,.12-.02,.24-.04,.36-.06,.36-.06,.72-.11,1.08-.17,.25-.04,.49-.07,.74-.11,.3-.05,.61-.09,.91-.13,.39-.06,.77-.11,1.16-.16,.34-.05,.69-.09,1.04-.13s.69-.08,1.04-.12c.39-.04,.77-.09,1.16-.12,.13-.01,.26-.03,.39-.04,.18-.02,.35-.04,.52-.05,.45-.04,.89-.09,1.34-.12,.52-.04,1.04-.09,1.56-.12,.38-.03,.76-.05,1.14-.07,.38-.02,.76-.04,1.14-.06h0c.27-.02,.53-.03,.8-.04,.02,0,.04,0,.05,0,.14,0,.27-.01,.41-.02,.04,0,.07,0,.1,0,.25-.01,.51-.02,.77-.03,.5-.02,1-.03,1.5-.04,.49,0,.98-.01,1.47-.01h.02c.32,0,.64,0,.96,0h.73c.28,.02,.55,.02,.84,.03h.38c.3,.02,.61,.03,.91,.04h.01c.12,0,.24,0,.37,.02,.28,.01,.56,.02,.84,.04,.28,.01,.55,.03,.83,.05,.36,.02,.72,.04,1.09,.07s.72,.05,1.09,.09h.02c.27,.02,.54,.05,.81,.07,.17,.02,.34,.03,.51,.05,.33,.03,.65,.07,.98,.1,.05,0,.09,.01,.14,.02,.44,.05,.88,.11,1.32,.16,.24,.03,.48,.06,.71,.1,.29,.04,.58,.08,.87,.12,.43,.07,.86,.13,1.29,.2,.44,.07,.88,.15,1.32,.23,.43,.08,.87,.16,1.3,.25,.02,0,.04,0,.07,.01,.04,0,.09,.02,.13,.03,.37,.07,.73,.15,1.1,.23,.02,0,.05,0,.07,.02,.43,.09,.86,.19,1.29,.29,.44,.11,.88,.21,1.32,.32,2.19,.5,4.37,1.02,6.54,1.58,1.03,.12,2.05,.24,3.08,.37,0,0,0,0,0,0,0,0,0,.01,0,.02,0,.04,0,.12,0,.23,0,.05,0,.12-.01,.18,.63,.17,1.25,.34,1.88,.52l.42,.12,1.2,.34c.64,.18,1.29,.37,1.93,.55,.14,0,.27,0,.41,0,.04,0,.08,0,.12,.01,.1,.01,.2,.03,.3,.05,.07,.02,.14,.04,.21,.07,.79,.29,1.59,.59,2.39,.87,0,0,0,0,.01,0,1.15,.35,2.3,.7,3.45,1.05,1.14,.36,2.29,.71,3.43,1.08,1.47,.4,2.94,.8,4.39,1.23,.1,.03,.2,.06,.3,.09,.2,.05,.39,.11,.58,.17,.29,.09,.58,.18,.87,.27,1.21,.38,2.41,.78,3.59,1.21,.18,.07,.36,.13,.54,.2,.34,.13,.69,.26,1.03,.4,.28,.11,.56,.23,.84,.34,.56,.23,1.12,.48,1.67,.74,.23,.1,.45,.21,.68,.31,.39,.18,.77,.38,1.14,.57,.2,.1,.4,.21,.59,.32,.21,.11,.43,.23,.64,.36,.21,.12,.43,.24,.63,.37,.2,.12,.4,.23,.59,.36,.2,.12,.39,.24,.59,.37,.13,.09,.27,.17,.41,.26,.15,.1,.3,.2,.46,.3,.03,.02,.05,.03,.08,.05,.06,.04,.12,.08,.18,.12,.18,.12,.36,.24,.54,.37,.24,.16,.48,.33,.72,.5,.3,.21,.59,.42,.88,.63s.59,.43,.88,.65c.04,.03,.08,.06,.12,.09,.33,.25,.66,.5,.99,.75,.31,.24,.62,.48,.93,.73,1.64,1.29,3.25,2.61,4.89,3.89,.36,.29,.73,.57,1.09,.85,.36,.28,.73,.56,1.1,.84l.04,.02s.03,.02,.04,.03c0,0,0,0,0,0,.3,.2,.59,.41,.89,.61,2.34,1.62,4.68,3.25,7.04,4.84,.4,.27,.8,.54,1.2,.81,.27,.18,.54,.37,.82,.55s.55,.36,.82,.54c.01,0,.02,.01,.03,.02,.09,.06,.18,.11,.26,.17,.56,.37,1.13,.74,1.7,1.11,1.14,.73,2.29,1.46,3.43,2.18,.07,.05,.15,.1,.23,.14,.31,.19,.61,.38,.92,.57,.31,.19,.61,.38,.92,.56,.31,.19,.61,.38,.92,.56,.18,.11,.36,.22,.55,.32,.43,.26,.87,.52,1.31,.77,.06,.03,.11,.07,.17,.1,.02,.01,.04,.02,.05,.03,.55,.32,1.09,.63,1.65,.94,.62,.35,1.25,.7,1.88,1.04,2.45,1.31,4.93,2.54,7.49,3.64,.21,.09,.42,.18,.63,.27,.21,.09,.42,.18,.63,.27,1.34,.55,2.69,1.07,4.07,1.55l.52,.18c.17,.06,.34,.12,.52,.18,.35,.12,.7,.23,1.04,.34,.21,.07,.43,.14,.64,.2,.18,.06,.37,.11,.55,.17,.03,.01,.06,.02,.09,.03,0,0,.01,0,.02,0,.02,0,.03,0,.04,.01,.23,.07,.48,.14,.71,.21,.33,.1,.67,.19,1,.28,.4,.11,.81,.21,1.22,.32,.5,.12,.99,.24,1.48,.34s.98,.2,1.46,.29c.47,.09,.94,.17,1.41,.24,.23,.04,.46,.07,.7,.1s.46,.06,.7,.09l.18,.02c.06,0,.12,.02,.18,.02,.27,.04,.55,.06,.82,.09,.28,.03,.56,.05,.84,.07,.05,0,.11,.01,.16,.02,.32,.02,.63,.04,.95,.06,.29,.02,.58,.04,.87,.04,.3,.01,.6,.02,.9,.03,.29,0,.58,0,.88,0,.55,0,1.09,0,1.64-.03l.52-.02c.37-.02,.73-.04,1.1-.06,.19-.01,.38-.02,.57-.04h.02l.43-.04c.2-.02,.39-.04,.58-.06,.24-.02,.48-.05,.71-.08,.2-.02,.4-.05,.6-.07,.03,0,.05,0,.08,0,.16-.02,.33-.04,.49-.07,.03,0,.06,0,.09-.01,.14-.02,.28-.04,.42-.06,.27-.04,.53-.08,.79-.12,.12-.02,.23-.04,.35-.06s.23-.04,.34-.06h0c.56-.1,1.11-.21,1.67-.33,.26-.05,.52-.11,.79-.17,.1-.02,.2-.04,.3-.07,.09-.02,.19-.05,.29-.07,.37-.09,.73-.18,1.1-.27,.11-.03,.23-.05,.34-.09,.11-.03,.21-.06,.32-.09,.24-.06,.49-.13,.73-.2,0,0,.01,0,.02,0,.21-.06,.43-.12,.64-.19,.18-.05,.36-.11,.55-.16,.02,0,.04-.01,.06-.02h0c.25-.07,.49-.15,.74-.23,.69-.22,1.37-.45,2.05-.69,.26-.09,.52-.19,.78-.29,.14-.05,.27-.1,.4-.15,.3-.11,.6-.22,.9-.34,.05-.02,.09-.04,.14-.05,.31-.12,.62-.24,.93-.37,.43-.18,.87-.36,1.3-.54,.38-.16,.76-.33,1.14-.5s.76-.34,1.14-.51c.28-.13,.56-.27,.84-.41,.11-.05,.23-.12,.34-.18,.14-.07,.29-.15,.43-.23,.04-.02,.07-.04,.11-.06,.09-.05,.19-.11,.28-.16,.06-.04,.13-.08,.19-.12,.37-.22,.73-.45,1.09-.7,.12-.08,.25-.16,.37-.25l.4-.28c.13-.09,.27-.19,.39-.29,.13-.09,.27-.19,.39-.29l.18-.13c.12-.09,.24-.19,.37-.28,.08-.06,.16-.12,.24-.19,.65-.5,1.3-1.01,1.95-1.52,.24-.19,.49-.38,.73-.57,.61-.47,1.22-.93,1.85-1.38,.19-.13,.38-.27,.57-.39s.38-.26,.57-.38c.03-.02,.07-.04,.1-.06,.22-.14,.45-.29,.68-.43,.46-.28,.93-.56,1.4-.83,.26-.16,.52-.31,.77-.46,.01-.01,.02-.02,.04-.02,.49-.29,.99-.58,1.49-.86,1.11-.63,2.22-1.25,3.34-1.87,.14-.08,.27-.16,.41-.23,.38-.27,.77-.54,1.14-.82,.43-.31,.85-.62,1.27-.93,.38-.29,.77-.58,1.14-.87s.75-.59,1.12-.88c.24-.2,.48-.4,.71-.6l.43-.35c.16-.14,.33-.27,.5-.4,.27-.21,.54-.42,.8-.62l.14-.11c.26-.2,.52-.39,.79-.58,.25-.18,.49-.36,.74-.53,.3-.21,.61-.43,.92-.64,.04-.02,.07-.05,.11-.07l.82-.54c.42-.27,.84-.54,1.26-.79,.26-.16,.53-.32,.8-.48,.27-.16,.54-.31,.8-.46,.16-.09,.32-.19,.49-.28,.16-.09,.32-.18,.48-.27,.33-.18,.66-.36,.98-.53s.66-.34,.99-.51l.67-.33c.22-.11,.45-.21,.67-.32,.23-.11,.46-.21,.69-.32,.22-.11,.45-.2,.67-.3,.25-.11,.5-.22,.75-.33,0,0,.01,0,.02,0,.33-.14,.66-.28,1-.42,.45-.18,.89-.36,1.34-.53,.23-.09,.45-.18,.68-.26,.02,0,.05-.02,.07-.03,.34-.12,.67-.25,1.01-.36,.45-.16,.9-.31,1.36-.46,1.03-.36,2.06-.73,3.09-1.1,.77-.27,1.54-.55,2.32-.83,.25-.09,.51-.18,.77-.27,.34-.16,.68-.32,1.02-.48,.43-.2,.86-.39,1.29-.59,.17-.08,.34-.15,.5-.23,.35-.16,.7-.32,1.05-.47,.51-.23,1.02-.46,1.54-.68,1.68-.74,3.36-1.46,5.05-2.16,.68-.28,1.35-.56,2.03-.84,2.22-.9,4.45-1.78,6.7-2.62,.71-.27,1.43-.54,2.14-.8,.65-.24,1.3-.48,1.96-.71,.17-.06,.34-.12,.51-.18,.24-.09,.48-.18,.72-.26,.41-.15,.82-.3,1.23-.44l.16-.06c.36-.12,.72-.25,1.09-.38,.63-.22,1.26-.44,1.89-.66,1-.34,2.01-.68,3.02-1.01,.49-.16,.99-.32,1.48-.48,.46-.15,.92-.3,1.39-.44,0,0,.02,0,.03,0,.02,0,.05-.02,.07-.02,.16-.05,.32-.1,.48-.15,1.3-.41,2.61-.8,3.91-1.2,.82-.24,1.63-.48,2.45-.72,1.82-.53,3.65-1.04,5.48-1.54,.5-.14,.99-.27,1.49-.41,.03,0,.07-.02,.1-.03,.89-.24,1.77-.48,2.65-.71l1.93-.52c.8-.28,1.57-.54,2.34-.8,.72-.25,1.42-.48,2.11-.71,.32-.11,.64-.21,.95-.31,.04-.01,.07-.02,.11-.04,.35-.11,.7-.23,1.04-.34,.57-.18,1.12-.36,1.67-.52,.27-.09,.55-.17,.82-.25,.27-.08,.54-.16,.81-.24,.28-.09,.56-.17,.84-.25,.31-.09,.61-.18,.91-.26,.21-.06,.41-.11,.62-.17,.29-.08,.58-.16,.87-.24,.28-.08,.56-.15,.84-.22,.02,0,.03,0,.04-.01,.71-.19,1.43-.36,2.13-.53,.05-.01,.11-.03,.16-.04,.38-.09,.77-.18,1.14-.26,.41-.09,.83-.18,1.24-.27,.02,0,.04,0,.07-.01,.43-.09,.87-.18,1.31-.26,.74-.14,1.48-.27,2.23-.39,.21-.04,.42-.07,.63-.1,.21-.04,.42-.07,.64-.1,.33-.05,.66-.1,.99-.14,.34-.05,.67-.09,1.01-.13s.68-.08,1.02-.12c.25-.03,.51-.06,.77-.09,.13-.02,.26-.03,.39-.04,.13-.01,.26-.03,.39-.04,.17-.02,.35-.04,.52-.05,.35-.04,.71-.07,1.07-.1s.72-.06,1.08-.09,.73-.05,1.11-.08c.18-.01,.37-.02,.56-.04s.38-.02,.57-.04c.3-.09,.59-.17,.89-.24,1.16-.27,2.44-.52,3.57-.3,.5,.1,.99,.2,1.48,.32,3.97-.08,8.4-.05,13.51,.08,.49-.05,.98-.11,1.47-.16,.49-.05,.98-.1,1.47-.14,.25-.02,.49-.04,.74-.06,.25-.02,.49-.04,.73-.05,.11,0,.21-.01,.32-.02,.11,0,.21-.01,.32-.01,.09,0,.18,0,.27,0,.18,0,.36,0,.54,0h.17c.06,0,.13,0,.19,0,.12,0,.23,0,.34,0,.03,0,.05,0,.08,0,.18,0,.35,.01,.53,.02,.21,.01,.43,.03,.64,.05,.21,.02,.43,.05,.64,.08,4.31,.63,8.54,1.89,12.75,3.04,.53,.14,1.05,.29,1.59,.43,1.05,.29,2.11,.57,3.17,.86,1.12,.3,2.25,.61,3.38,.92,.84,.23,1.67,.45,2.51,.68,.13,.04,.27,.07,.4,.11,.54,.15,1.09,.3,1.63,.45,1.05,.3,2.11,.59,3.16,.89,.53,.15,1.05,.3,1.58,.46,.53,.16,1.05,.31,1.57,.46,.53,.16,1.05,.32,1.57,.48s1.04,.32,1.57,.48c1.04,.33,2.09,.66,3.12,1.01,.39,.13,.78,.26,1.16,.39,.32,.11,.65,.22,.97,.33,.06,.02,.12,.04,.19,.06,.1,.04,.2,.07,.29,.1,.41,.14,.83,.29,1.25,.44,.52,.18,1.04,.37,1.55,.56,.52,.19,1.04,.39,1.55,.58,1.59,.61,3.18,1.25,4.73,1.94,.32,.14,.64,.28,.96,.43,.36,.16,.73,.33,1.09,.5l.06,.02s.07,.03,.1,.05c.32,.15,.64,.3,.95,.46,.02,0,.04,.02,.06,.03,.36,.18,.71,.35,1.06,.53,.37,.18,.73,.37,1.09,.56,.36,.19,.72,.39,1.08,.58,1,.55,2,1.11,3,1.67,1,.56,2,1.13,2.99,1.71,1,.58,2,1.17,3,1.77,.48,.29,.96,.58,1.45,.88,.48,.29,.95,.59,1.43,.89,.5,.31,1,.62,1.49,.94,.48,.31,.96,.62,1.45,.93,.96,.63,1.91,1.26,2.86,1.91,1.89,1.3,3.74,2.64,5.55,4.03,1.13,.87,2.25,1.75,3.36,2.63,.77,.61,1.53,1.22,2.29,1.84,.73,.59,1.46,1.19,2.19,1.79,.54,.44,1.07,.89,1.59,1.33,.37,.31,.74,.63,1.11,.95,.14,.11,.27,.23,.41,.34,.4,.34,.79,.68,1.19,1.02,.46,.4,.93,.8,1.39,1.21,.69,.61,1.38,1.21,2.07,1.83,.69,.61,1.37,1.23,2.05,1.85,.36,.33,.72,.66,1.08,.99,.05,.05,.1,.1,.15,.14,.07,.06,.14,.12,.21,.19,.33,.3,.66,.61,.99,.93,.36,.34,.71,.67,1.07,1.01,.52,.49,1.04,.98,1.55,1.48,1.02,.99,2.04,1.99,3.05,2.99,7.83,7.82,14.18,17.13,22.14,24.78,1.67,1.6,3.41,3.13,5.21,4.61,.45,.37,.9,.73,1.36,1.09,.45,.36,.91,.72,1.38,1.08,.46,.36,.93,.71,1.39,1.06,.75,.56,1.5,1.12,2.26,1.66l.56,.41c.14,.1,.27,.19,.41,.29,.02,.02,.04,.03,.06,.04,.15,.11,.3,.22,.46,.32,.17,.12,.34,.24,.51,.36,.21,.14,.41,.29,.62,.43,.09,.07,.18,.13,.27,.19,.66,.46,1.32,.92,1.98,1.38,1.93,1.32,3.87,2.63,5.8,3.93,5.03,3.39,10.55,6.21,16.16,8.54,1.18,.49,2.35,.97,3.54,1.45,1.18,.48,2.36,.95,3.55,1.41,1.2,.47,2.4,.93,3.61,1.39,.79,.3,1.59,.61,2.39,.9,.98,.37,1.96,.73,2.94,1.09,1.05,.38,2.09,.76,3.14,1.14,1.05,.38,2.1,.75,3.15,1.12,2.1,.74,4.21,1.47,6.32,2.18,5.48,1.86,11.19,3.16,16.88,4.23,.26,.05,.53,.09,.8,.13,.2,.03,.41,.05,.62,.08s.42,.04,.63,.06c.17,.01,.34,.02,.5,.03h.02c.07,0,.13,0,.2,0,.19,0,.38,.01,.56,.01,.11,0,.21,0,.31,0,.08,0,.16,0,.24,0,.16,0,.32-.01,.47-.02h.02s.06,0,.09,0l.26-.02s.04,0,.05,0c.01,0,.02,0,.04,0s.02,0,.04,0c.08,0,.16-.02,.25-.03,.09,0,.18-.02,.26-.04,.12-.02,.25-.04,.37-.06,.09-.02,.17-.03,.26-.05,.02,0,.04,0,.05,0,.09-.02,.17-.04,.26-.06,.19-.04,.37-.1,.55-.15,.09-.03,.18-.06,.26-.09,.04-.02,.09-.04,.13-.05,.09-.03,.17-.07,.25-.1,.12-.05,.25-.11,.37-.17,1.39-.71,2.79-1.43,4.17-2.16,.38-.2,.76-.4,1.14-.6,.7-.37,1.4-.73,2.09-1.11,.82-.43,1.64-.87,2.46-1.3,4.09-2.18,8.18-4.39,12.26-6.6,1.19-.64,2.39-1.29,3.58-1.93,2.42-1.3,4.84-2.61,7.27-3.89l1.37-.73c.46-.24,.91-.48,1.37-.72,1.2-.63,2.41-1.26,3.62-1.89,1.41-.73,2.82-1.45,4.23-2.16,1.06-.53,2.12-1.06,3.19-1.59,1.06-.53,2.13-1.05,3.2-1.57,1.42-.7,2.84-1.39,4.27-2.08,2.14-1.04,4.28-2.07,6.41-3.11,1.43-.69,2.85-1.38,4.27-2.08,2.84-1.39,5.68-2.79,8.5-4.23,.74-.38,1.48-.75,2.21-1.14,.1-.05,.2-.1,.3-.15,.12-.06,.24-.12,.36-.19,.51-.27,1.02-.53,1.52-.8,.68-.36,1.37-.72,2.05-1.09,.77-.41,1.55-.83,2.32-1.25,1.16-.63,2.32-1.26,3.48-1.89,.58-.32,1.16-.63,1.74-.95,1.16-.63,2.32-1.26,3.48-1.89,3.48-1.88,6.98-3.73,10.53-5.48,.71-.35,1.42-.7,2.13-1.04,.67-.32,1.34-.64,2-.96,1.34-.64,2.68-1.27,4.03-1.89,.67-.31,1.35-.62,2.02-.93,.68-.31,1.35-.62,2.02-.93,1.35-.62,2.7-1.23,4.05-1.84,1.35-.62,2.7-1.23,4.05-1.85,.04-.02,.09-.04,.13-.06,.83-.38,1.66-.76,2.48-1.14,.2-.09,.4-.18,.6-.28,.77-.35,1.53-.71,2.3-1.07,.67-.31,1.34-.62,2-.95,.81-.38,1.62-.77,2.43-1.16,.58-.28,1.16-.57,1.73-.85,.79-.39,1.58-.79,2.37-1.18,12.07-6.12,23.39-13.88,35.8-19.12,.39-.17,.79-.34,1.18-.5,1.85-.79,3.7-1.61,5.54-2.43,.12-.06,.25-.11,.38-.17,.15-.07,.3-.14,.45-.2,.79-.36,1.57-.71,2.35-1.07,.61-.28,1.22-.56,1.84-.84,3.68-1.68,7.35-3.38,11.05-5,.72-.32,1.45-.63,2.18-.94,.3-.13,.61-.26,.91-.39l.75-.32c.39-.16,.78-.32,1.17-.49,.13-.05,.26-.11,.39-.16,.45-.18,.89-.36,1.35-.55,.59-.24,1.18-.47,1.78-.7,.1-.04,.2-.07,.3-.11,.4-.16,.8-.31,1.2-.46,.2-.07,.39-.15,.59-.22,.45-.17,.89-.33,1.34-.49,.18-.07,.36-.13,.55-.2,.37-.14,.74-.27,1.12-.39,0,0,0,0,.01,0,.46-.16,.93-.32,1.39-.47,.42-.14,.85-.28,1.28-.42l.18-.06c.45-.14,.9-.29,1.35-.42,.32-.1,.63-.19,.95-.29,.06-.02,.11-.04,.17-.05,.25-.08,.51-.15,.77-.23,.31-.09,.63-.18,.94-.27,.98-.41,1.96-.83,2.94-1.25,.45-.21,.91-.42,1.37-.62,.21-.1,.42-.19,.63-.28,.54-.24,1.07-.47,1.61-.7s1.08-.45,1.62-.68c.41-.17,.82-.34,1.23-.5,.18-.07,.35-.14,.52-.21,.29-.12,.59-.23,.88-.35,.29-.12,.59-.23,.88-.34,.5-.19,1.01-.38,1.52-.57,.18-.07,.35-.13,.53-.19,.44-.16,.89-.32,1.33-.48,.53-.19,1.07-.38,1.6-.56,.25-.09,.49-.17,.73-.25,.56-.19,1.13-.38,1.7-.56,.33-.11,.66-.21,.99-.32,.67-.21,1.34-.43,2-.63,.23-.07,.47-.14,.7-.21,.14-.05,.29-.09,.43-.13,.02,0,.04-.01,.06-.02,.31-.1,.62-.19,.94-.28,.75-.22,1.51-.44,2.27-.66,.02,0,.05-.01,.07-.02,.34-.1,.67-.19,1-.29,.14-.04,.27-.07,.41-.11,.02,0,.04-.01,.07-.02,.48-.13,.97-.27,1.46-.39,.06-.02,.12-.04,.18-.05,.41-.11,.82-.22,1.23-.33,.29-.08,.59-.15,.88-.23,.52-.14,1.04-.27,1.55-.4,1.21-.3,2.43-.6,3.64-.89,.68-.16,1.36-.32,2.05-.48,.56-.13,1.12-.26,1.68-.38,.1-.02,.21-.05,.31-.07,.66-.15,1.32-.3,1.97-.44,.75-.16,1.5-.33,2.25-.48,.34-.07,.68-.15,1.02-.22,.62-.13,1.24-.26,1.86-.39s1.23-.26,1.86-.38c.62-.12,1.24-.25,1.86-.38,1.08-.22,2.16-.43,3.24-.64,2.02-.4,4.03-.79,6.05-1.18,.46-.11,.92-.21,1.39-.32,.42-.09,.84-.18,1.25-.27,.21-.04,.42-.08,.63-.11,.21-.04,.42-.06,.64-.09s.43-.04,.64-.06,.43-.03,.64-.04c1.51-.23,3.02-.44,4.54-.64,.1-.01,.2-.02,.3-.04,.68-.09,1.37-.17,2.05-.25,.15-.02,.29-.04,.44-.05,.45-.05,.91-.11,1.36-.16,.17-.02,.34-.04,.51-.05,.35-.04,.7-.07,1.05-.11,1.33-.14,2.67-.27,4-.39,.74-.07,1.48-.13,2.21-.19,.09,0,.18-.02,.27-.02,.21-.02,.43-.04,.64-.05,.87-.07,1.74-.13,2.61-.19,.96-.07,1.91-.12,2.87-.18,.27-.04,.54-.07,.8-.09,.13-.02,.26-.03,.39-.04,.14-.02,.29-.03,.43-.04,.03,0,.05,0,.08,0,.03,0,.05,0,.08,0,.04,0,.08,0,.12,0,0,0,.01,0,.02,0h.02c.18-.01,.36-.02,.53-.03,.05,0,.09,0,.14,0,.18,0,.37,0,.55,0,.14,0,.28,0,.42,0,.13,0,.25,0,.38,.01h.05c.07,0,.14,0,.21,0,.8-.04,1.59-.08,2.39-.11,.68-.03,1.37-.06,2.05-.1,.08,0,.17,0,.25-.02,.46-.02,.91-.05,1.37-.08,.14,0,.29-.02,.43-.03,.05-.04,.1-.06,.15-.09,1.18-.55,2.48-1.26,3.7-1.21,.6,.02,1.19,.05,1.79,.09,.6,.03,1.2,.07,1.8,.11,1.05,.07,2.12,.15,3.2,.23l.45,.04c.57-.04,1.14-.08,1.72-.11,.3-.02,.61-.04,.91-.05,.34-.02,.68-.04,1.02-.05,.41-.02,.82-.04,1.22-.06,.07,0,.13,0,.2,0,.27-.01,.54-.02,.8-.03,.49-.02,.98-.03,1.46-.04,0,0,.02,0,.03,0,1.3-.04,2.59-.04,3.89-.02,.6,0,1.21,.01,1.81,.02,.61,0,1.21,.02,1.82,.03,.43,0,.85,.02,1.28,.03,.3,0,.59,.01,.89,.02,.72,.02,1.45,.04,2.17,.06,.35-.11,.7-.18,1.05-.18,1.09,0,2.18,.03,3.26,.08,.27,.01,.54,.02,.82,.04,.32,.02,.64,.04,.96,.05,.8,.05,1.59,.11,2.39,.17,.27,.02,.53,.04,.8,.07,.5,.04,1.01,.08,1.51,.13,.69,.06,1.38,.12,2.06,.19l1.24,.12c2.46,.16,4.92,.33,7.38,.51,.04-.03,.09-.05,.13-.08,.04-.03,.09-.05,.13-.07,.06-.03,.11-.06,.17-.08t0,0s.07-.03,.11-.04c.02,0,.04-.01,.07-.02,.02,0,.04-.01,.05-.01,.03,0,.06-.01,.09-.02,.02,0,.05,0,.07,0,.02,0,.04,0,.05,0,.02,0,.04,0,.06,0,.41,.04,.81,.08,1.22,.13,.2,.02,.4,.05,.61,.08,.27,.04,.54,.07,.81,.11,1.14,.16,2.27,.36,3.41,.55,1.8,.15,3.61,.31,5.41,.48,.9-.16,1.8-.44,2.67-.34,.77,.09,1.54,.19,2.31,.29,.77,.1,1.54,.21,2.3,.31s1.54,.21,2.3,.32c.36,.05,.71,.1,1.07,.15s.72,.1,1.07,.15c.05,0,.11,.02,.16,.02h.02c1.31,.09,2.62,.19,3.93,.29,.05,0,.11,0,.16,.01,.51,.04,1.03,.08,1.54,.12,.27,.02,.53,.04,.8,.06,.9,.07,1.8,.14,2.71,.21,.37,.03,.73,.06,1.1,.09,1.63,.13,3.26,.27,4.88,.41,.07,0,.14,0,.2,.02,.06,0,.12,.01,.19,.02,2,.17,4,.34,6.01,.52,.73,.07,1.46,.13,2.19,.2,.03,0,.06,0,.09,0,.35,.03,.7,.06,1.05,.1,.73,.07,1.46,.13,2.19,.2,1.58,.15,3.16,.3,4.74,.45,2.58,.25,5.16,.5,7.75,.75,1.88,.18,3.77,.38,5.64,.57,2.77,.29,5.53,.7,8.27,1.16,.44-.04,.91-.07,1.42-.1,.19,.03,.37,.05,.55,.08,.2,.03,.39,.06,.59,.09,.15,.02,.29,.05,.44,.07l.38,.06c.12,.02,.25,.04,.37,.06,.24,.04,.48,.08,.71,.12,.41,.07,.8,.14,1.18,.2,.18,.03,.36,.06,.53,.09,.33,.06,.66,.11,.99,.16,.25,.04,.5,.07,.75,.11,.43,.06,.86,.09,1.29,.12,.22,.01,.43,.02,.65,.03,.44,.02,.89,.04,1.32,.08,.21,.02,.41,.04,.61,.06,.21,.03,.42,.06,.63,.1,.21,.04,.41,.09,.62,.15,.08,.02,.16,.05,.24,.08,.08,.03,.16,.06,.23,.1,.06,.03,.11,.05,.17,.08,.05,.03,.11,.06,.17,.09,.34,.19,.66,.42,.98,.67,1.21,.18,2.43,.34,3.65,.48,.08-.21,.17-.44,.27-.67,.67,.22,1.23,.54,1.76,.9,1.85,.2,3.7,.39,5.54,.59Zm12.59,390.98c4.2-15.27-1.07-28.3-11.1-39.76-11.17-12.77-25.04-22.08-39.91-29.78-17.55-9.09-35.71-16.84-54.57-22.66,.64-.78,1.29-1.55,1.9-2.36,.84-1.1,1.7-2.2,2.55-3.29,.81-.43,1.55-.9,1.97-1.57,3.32-5.33,6.35-10.84,9.39-16.33,7.05-12.7,14.06-25.42,21.62-38.66,2.13-4.27,4.54-8.41,6.35-12.81,2.73-6.66,5.41-13.34,8.07-20.04,.68-.25,1.23-.83,1.44-1.57,.04-.12,.07-.25,.11-.37,.41-1.26,.9-2.48,1.31-3.73l.02-.07c.14-.41,.27-.83,.4-1.24,.54-1.59,1.29-3.07,1.89-4.62,.33-.86,.63-1.73,.93-2.6,.29-.84,.48-1.66,.55-2.55,0,.09-.02,.19-.02,.28,.01-.17,.03-.33,.04-.5,.72-1.84,1.43-3.68,2.14-5.52,.26-.68,.25-1.46,.15-2.28,.28-.51,.55-1.02,.79-1.56,.36-.8,.66-1.63,.96-2.46,.68-1.86,1.1-3.8,1.73-5.69,.08-.2,.16-.39,.24-.59,.67-.45,1.08-1.26,.98-2.09,0-.04,0-.07-.01-.1,1.09-.6,2.04-1.28,2.34-2.15,2.92-8.41,6.06-16.84,7.81-25.54,4.67-23.21,8.97-46.5,12.81-69.87,2.1-12.81,3.53-25.79,4.23-38.74,.43-8.03,.45-16.08,.35-24.14,0-.82-.02-1.64-.03-2.47-.39-.04-.78-.09-1.18-.13-.46-.04-.93-.07-1.39-.12-3.48-.32-6.95-.79-10.41-1.32-.79-.12-1.57-.25-2.35-.38-4.48-.73-8.96-1.54-13.45-2.23-.41-.07-.83-.13-1.25-.19-.34-.05-.67-.1-1.01-.15-.25-.04-.5-.07-.75-.11-.79-.11-1.57-.22-2.36-.32-.38-.05-.77-.1-1.15-.14-.73-.09-1.46-.17-2.2-.25-.46-.05-.91-.09-1.37-.13-1.63-.16-3.27-.31-4.89-.46-1.63-.16-3.27-.31-4.89-.46-1.63-.15-3.27-.3-4.89-.45-3.81-.34-7.62-.68-11.43-1-4.35-.37-8.71-.72-13.07-1.06-4.36-.34-8.71-.66-13.07-.98-2.39-.23-4.79-.45-7.18-.66-.16-.02-.33-.03-.49-.04-1.23-.11-2.46-.21-3.7-.3-.47-.04-.95-.08-1.42-.11-.29-.02-.57-.04-.86-.06-.76-.06-1.52-.11-2.28-.17-.6-.05-1.21-.09-1.81-.13-1.68-.11-3.36-.22-5.05-.31-.66-.04-1.32-.08-1.97-.11-3.89-.21-7.79-.36-11.69-.43-1.87-.1-3.74-.14-5.61-.13-.41,0-.81,0-1.22,0-.18,0-.35,0-.53,0-.65,0-1.3,.02-1.95,.04-.32,.01-.65,.02-.97,.03-.32,0-.65,.02-.97,.04-.32,.01-.65,.03-.97,.04,0,0-.01,0-.02,0-3.56,.16-7.12,.43-10.68,.69-.64,.05-1.29,.09-1.93,.14-.32,.02-.65,.05-.98,.07-.64,.05-1.29,.09-1.94,.14h0c-.97,.07-1.94,.13-2.91,.19-1.46,.09-2.92,.16-4.38,.21-.49,.02-.97,.04-1.46,.05-6.18,.32-12.36,.84-18.5,1.61-.5,.06-1.01,.13-1.51,.2-.46,.06-.92,.12-1.38,.19-3.36,.46-6.71,1.01-10.04,1.64-.8,.15-1.59,.31-2.39,.47-1.59,.32-3.18,.67-4.76,1.04-.58,.11-1.16,.22-1.74,.33-.42,.08-.84,.16-1.27,.24-.3,.06-.61,.12-.91,.18-.65,.12-1.3,.25-1.95,.39-.38,.07-.77,.15-1.14,.23-.47,.09-.94,.19-1.41,.29-.18,.04-.36,.07-.54,.11-.48,.1-.97,.2-1.45,.31l-1.3,.28c-.65,.14-1.3,.29-1.95,.43-.32,.07-.65,.14-.97,.22l-.97,.22c-1,.24-2.01,.48-3.01,.73-.4,.1-.79,.2-1.19,.3-.43,.11-.87,.22-1.3,.33-.17,.04-.34,.09-.51,.13-.19,.05-.38,.1-.57,.15-1.81,.48-3.61,.98-5.41,1.5-.48,.14-.96,.29-1.44,.43-.48,.14-.95,.3-1.43,.45-.89,.29-1.79,.59-2.67,.9-1.83,.64-3.65,1.32-5.46,2.02-.11,.04-.23,.09-.34,.13-.34,.13-.68,.27-1.02,.4-.28,.11-.57,.22-.85,.33-.62,.25-1.24,.5-1.86,.75-2.25,.92-4.48,1.86-6.72,2.79-9.96,4.28-20.14,8.04-30.14,12.26-2.59,1.12-5.16,2.32-7.7,3.55-.74,.26-1.47,.82-2.22,1.14-.05,.02-.1,.04-.15,.06-.15,.06-.3,.11-.46,.14-.07,.02-.13,.02-.2,.03-.23,.03-.47,.01-.71-.06-2.25,1.09-4.48,2.18-6.72,3.27-1.96,.95-3.91,1.9-5.86,2.86-.28,.13-.56,.27-.84,.41-1.81,.88-3.62,1.77-5.43,2.66-.42,.2-.84,.41-1.25,.61-1.67,.82-3.33,1.64-5,2.46-.55,.27-1.11,.55-1.66,.82-14.89,7.4-29.63,15.12-44.51,22.56-5.7,2.84-11.47,5.54-17.22,8.27-1.09,.52-2.18,1.04-3.26,1.56-.62,.3-1.24,.6-1.86,.9-.86,.41-1.72,.84-2.57,1.26-.12,.06-.25,.12-.37,.18-.87,.43-1.74,.86-2.61,1.3-.61,.31-1.23,.62-1.84,.93-4.41,2.26-8.72,4.7-13.04,7.13-.54,.3-1.08,.61-1.62,.91-1.74,.98-3.48,1.95-5.23,2.9-.39,.21-.79,.43-1.18,.64-1.67,.9-3.35,1.77-5.05,2.62-6.18,3.09-12.4,6.08-18.63,9.05-1.78,.85-3.56,1.7-5.34,2.54-2.68,1.27-5.35,2.54-8.02,3.81-1.78,.85-3.56,1.7-5.34,2.55s-3.55,1.71-5.33,2.57c-1.4,.68-2.61,1.78-3.88,2.72-.13,.09-.25,.19-.38,.28-.36,.26-.73,.5-1.11,.71l-.2,.11c-.05,.03-.1,.05-.16,.08-.06,.03-.13,.06-.2,.09-.12,.05-.23,.11-.36,.15-1.85,.72-3.67,1-5.46,1-.16,0-.32,0-.48,0s-.32-.01-.48-.02c-.2-.01-.39-.03-.59-.04-.12,0-.23-.02-.34-.03-.39-.04-.78-.09-1.16-.15-.26-.04-.52-.09-.79-.13-1.55-.3-3.1-.73-4.64-1.19-.28-.09-.56-.17-.84-.25-.14-.04-.28-.09-.42-.13-.42-.13-.84-.26-1.26-.39-.28-.09-.56-.17-.84-.25-.42-.12-.84-.25-1.26-.36-.14-.04-.28-.07-.42-.11-1.68-.45-3.36-.88-5.05-1.31-.73-.19-1.47-.38-2.21-.57-3.47-.9-6.93-1.85-10.3-3.03-.41-.14-.82-.29-1.22-.44s-.81-.3-1.21-.46c-2.3-.9-4.61-1.81-6.9-2.73-.77-.31-1.53-.62-2.29-.93-1.05-.43-2.11-.88-3.15-1.32-.43-.18-.86-.37-1.29-.55-.42-.18-.83-.36-1.25-.54-.63-.27-1.26-.55-1.88-.83-1-.45-2-.91-2.99-1.38-.45-.21-.89-.41-1.33-.63-4-1.92-7.93-3.99-11.71-6.29-.59-.36-1.17-.71-1.75-1.08-.29-.19-.57-.37-.86-.55h0c-.29-.19-.57-.38-.86-.56h0c-.29-.19-.57-.38-.85-.57-.85-.57-1.7-1.16-2.53-1.77-.45-.32-.89-.65-1.33-.98-.21-.16-.43-.32-.64-.48-.21-.16-.42-.33-.63-.5-.05-.03-.1-.07-.14-.11-.3-.23-.59-.47-.89-.71-.15-.12-.3-.24-.45-.36-.38-.31-.75-.62-1.12-.93-.42-.36-.84-.72-1.26-1.09-10.07-8.86-19.13-18.88-28.63-28.39-3.83-3.83-7.57-7.78-11.41-11.61-.58-.57-1.16-1.15-1.73-1.71-.58-.57-1.17-1.13-1.76-1.69-.29-.28-.59-.56-.89-.84-.3-.28-.59-.56-.89-.83-.6-.55-1.2-1.1-1.8-1.64-.66-.59-1.34-1.17-2.01-1.74-.68-.57-1.37-1.13-2.06-1.69-.7-.56-1.39-1.11-2.1-1.65-.33-.26-.67-.51-1-.76-.55-.42-1.11-.83-1.66-1.24-.4-.3-.81-.59-1.21-.89-.41-.3-.81-.59-1.22-.88-1.9-1.36-3.82-2.7-5.75-4.02-.82-.57-1.64-1.12-2.46-1.68-.31-.21-.63-.42-.95-.63-1.02-.68-2.04-1.35-3.06-2.01-.38-.24-.75-.48-1.12-.71-2.05-1.31-4.12-2.58-6.22-3.79-.37-.22-.74-.43-1.12-.64-.37-.21-.75-.43-1.12-.63-.25-.14-.5-.28-.75-.42-.5-.28-1-.55-1.51-.82-.91-.49-1.82-.97-2.74-1.43-.35-.18-.7-.36-1.06-.54-.06-.03-.13-.06-.19-.09-.45-.22-.89-.44-1.34-.66-.52-.25-1.03-.49-1.55-.73-.44-.2-.88-.4-1.31-.6-2.29-1.03-4.62-1.98-6.98-2.85-.4-.15-.8-.29-1.21-.44-.41-.14-.81-.29-1.22-.42-1.36-.46-2.72-.89-4.1-1.29-.41-.12-.83-.24-1.25-.36-1.2-.33-2.41-.64-3.62-.91-.19-.05-.38-.09-.57-.13,0,0-.01,0-.02,0-.41-.09-.81-.18-1.22-.27-.03,0-.07-.02-.1-.02-.49-.1-.98-.2-1.46-.29-.5-.1-1.01-.19-1.52-.28-.64-.12-1.29-.22-1.93-.32-.1-.02-.19-.04-.29-.05-.45-.08-.91-.15-1.36-.22-6.38-1.03-12.79-1.88-19.19-2.77-4.3-.12-8.61-.2-12.91-.21-.62,0-1.24,0-1.86,0-.62,0-1.24,0-1.86,0-.47,0-.94,0-1.41,0-1.07,.01-2.15,.02-3.22,.05-.31,0-.62,.02-.93,.02-.32,0-.64,.02-.96,.03-.34,0-.68,.02-1.02,.03-.1,0-.2,0-.3,.01-.58,.02-1.16,.05-1.74,.08-.23,.02-.47,.03-.71,.04-.05,0-.11,0-.16,0-.14,0-.29,.02-.44,.03-.58,.04-1.16,.08-1.74,.12-4.31,.59-8.61,1.19-12.89,1.95-1.12,.27-2.23,.57-3.34,.91-.85,.26-1.7,.53-2.55,.8-.27,.09-.55,.18-.82,.26-.51,.16-1.03,.33-1.54,.5-.47,.15-.94,.3-1.4,.46-12.82,4.2-25.46,8.98-38.34,13.02-.76,.27-1.52,.54-2.27,.81-1.52,.55-3.02,1.11-4.53,1.68-3.77,1.42-7.52,2.87-11.31,4.22-.43,.16-.88,.32-1.31,.48-.44,.16-.88,.31-1.32,.47-.89,.31-1.78,.62-2.68,.93-1.79,.9-3.58,1.81-5.37,2.71-1.79,.9-3.59,1.8-5.38,2.7-2.96,1.47-5.8,3.18-8.95,5.05-2.45,1.48-4.89,2.96-7.32,4.44-.2,.14-.39,.29-.59,.43-.07,.04-.14,.07-.21,.12-.02,.01-.05,.02-.07,.04-.07,.04-.14,.09-.21,.13-.06,.04-.12,.08-.18,.12-.43,.3-.91,.68-1.42,1.06-.12,.09-.24,.18-.37,.27,0,0,0,0-.01,.01-.12,.08-.24,.17-.36,.25-.12,.09-.25,.18-.38,.26-.06,.04-.12,.09-.19,.12-.75,.49-1.5,.86-2.16,.9-1.43,.86-2.85,1.71-4.27,2.57-.71,.43-1.42,.85-2.13,1.27-.2,.12-.4,.24-.61,.36-.66,.4-1.32,.79-1.99,1.18-.85,.5-1.7,1-2.55,1.5-1.05,.61-2.1,1.22-3.15,1.82-.14,.08-.28,.16-.41,.24-1.13,.65-2.26,1.29-3.4,1.93-.2,.11-.41,.22-.61,.33-.23,.12-.47,.24-.71,.35-.18,.09-.37,.17-.55,.25-.23,.11-.47,.21-.71,.3-.18,.07-.36,.14-.54,.21-.1,.04-.2,.08-.3,.11-.17,.07-.34,.13-.51,.19-.2,.07-.39,.14-.59,.2-.45,.15-.91,.29-1.37,.43-.69,.2-1.38,.39-2.07,.56-.23,.06-.46,.12-.7,.17-.7,.17-1.39,.32-2.08,.47-.78,.17-1.55,.32-2.32,.46-.44,.08-.88,.15-1.32,.21-.33,.05-.66,.1-1,.14-.26,.03-.52,.07-.77,.1-.52,.06-1.03,.12-1.55,.16-1.8,.17-3.6,.25-5.39,.25-.38,0-.76,0-1.14-.01s-.76-.02-1.14-.03c-.43-.02-.86-.04-1.28-.07-.33-.02-.66-.04-.99-.07h0c-.32-.03-.64-.05-.96-.08-.44-.04-.87-.09-1.3-.14-.38-.04-.75-.09-1.13-.14s-.75-.1-1.12-.16c-.25-.04-.5-.08-.75-.12-.5-.08-.99-.17-1.49-.27-.25-.05-.5-.09-.75-.14-.37-.07-.74-.16-1.11-.24-.37-.08-.74-.16-1.11-.25-.49-.12-.98-.24-1.47-.37-.49-.13-.98-.27-1.46-.41-.23-.06-.46-.13-.69-.2-.19-.05-.37-.11-.56-.17-.25-.08-.5-.16-.75-.24-.79-.25-1.57-.52-2.34-.81-.24-.09-.48-.18-.71-.27-.48-.18-.95-.36-1.43-.55-7.76-3.12-14.88-7.86-22.06-12.37-.34-.21-.67-.42-1.01-.63-.62-.39-1.24-.77-1.87-1.16-.46-.28-.91-.55-1.37-.83-.83-.5-1.66-1.01-2.48-1.53-.5-.32-1-.63-1.5-.95-1.32-.85-2.62-1.71-3.93-2.59-.54-.36-1.07-.71-1.6-1.07-.12-.08-.24-.16-.36-.24-.95-.64-1.89-1.29-2.84-1.93-4.44-3.01-8.88-6.01-13.5-8.66-.24-.14-.48-.28-.71-.41-.59-.33-1.18-.66-1.78-.98-.34-.18-.69-.37-1.03-.55-.69-.36-1.39-.71-2.09-1.05-.73-.23-1.46-.46-2.19-.68-.38-.12-.77-.23-1.15-.34-2.39-.7-4.79-1.36-7.15-2.11-5.69-1.83-11.45-3.46-17.26-4.87-.54-.16-1.08-.32-1.62-.46-.32-.09-.63-.17-.94-.25-.32-.09-.64-.17-.95-.25-.72-.11-1.44-.22-2.16-.33-.48-.07-.95-.15-1.42-.22l-.86-.14c-.39-.06-.79-.13-1.18-.2-.18-.03-.37-.06-.55-.09l-.98-.16c-.55-.09-1.1-.18-1.65-.28s-1.1-.19-1.64-.28c-.15-.03-.3-.06-.45-.09-.07-.02-.15-.04-.22-.05-.2-.05-.4-.11-.6-.17-.39-.04-.77-.07-1.16-.11-.3-.03-.61-.05-.91-.07-.32-.03-.64-.05-.96-.07-.22-.02-.45-.03-.68-.04-.3-.02-.61-.04-.92-.05-.2,.09-.4,.18-.61,.27-.02,.01-.05,.02-.07,.03-.02,.02-.05,.02-.08,.04-.16,.07-.33,.14-.5,.19-.1,.03-.2,.06-.29,.08-.02,0-.04,.01-.06,.01-.06,.01-.12,.02-.18,.02-.04,0-.08,0-.12,0-4.43,.07-8.86,.04-13.82,.04-.9,.12-1.79,.25-2.68,.38-.45,.06-.89,.12-1.32,.19-3.32,.47-6.55,.95-9.74,1.41-.01,0-.02,0-.04,0-.55,.11-1.1,.23-1.65,.35-.12,.02-.24,.05-.36,.08-.9,.2-1.79,.4-2.68,.61-.34,.08-.66,.16-1,.24-.07,.02-.14,.04-.21,.05-.36,.09-.72,.18-1.09,.27-3.41,.85-6.8,1.79-10.16,2.8-.27,.08-.54,.16-.8,.24-.54,.16-1.07,.32-1.61,.49-.91,.28-1.82,.57-2.73,.86-.91,.29-1.81,.58-2.71,.88-.84,.28-1.69,.56-2.53,.84-3.46,1.21-6.88,2.54-10.28,3.93-.75,.31-1.5,.62-2.25,.94-1.88,.79-3.75,1.61-5.61,2.43h0c.05,1.39,.1,2.78,.16,4.17,.03,.64,.06,1.29,.09,1.93,.03,.57,.06,1.13,.09,1.7,.02,.28,.03,.57,.05,.85,.07,1.22,.14,2.43,.23,3.65,.03,.41,.06,.83,.09,1.24,.02,.35,.05,.7,.07,1.04,.04,.52,.08,1.03,.12,1.55,0,.06,0,.12,.02,.18,.02,.22,.04,.43,.05,.65,.16,1.98,.36,3.97,.57,5.95,.06,.55,.12,1.12,.18,1.67,.02,.13,.03,.27,.05,.4,.05,.5,.12,1,.18,1.5,.04,.29,.07,.59,.11,.88,.07,.54,.14,1.09,.21,1.64,.01,.09,.02,.18,.04,.27,.18,1.34,.37,2.68,.57,4.03,1.08,7.11,1.07,14.4,2.29,21.48,1.75,10.2,3.93,20.34,6.36,30.41,4.07,16.94,8.35,33.84,12.87,50.66,.09,.34,.2,.69,.33,1.04,.05,.12,.09,.23,.14,.35,.19,.46,.42,.9,.68,1.32,.07,.11,.13,.21,.21,.31,.16,.22,.32,.43,.51,.62,.13,.14,.27,.28,.42,.4,.11,.31,.21,.62,.31,.95,.29,1.01,.55,2.02,.87,3.02,.4,1.25,1.09,2.38,1.61,3.57,.36,.89,.7,1.8,1,2.71,.12,.38,.23,.75,.36,1.12,.07,.17,.14,.34,.19,.52h0v.02c.18,.5,.53,.91,.97,1.18,.27,.56,.55,1.12,.79,1.7,4.52,10.74,8.95,21.53,13.57,32.23,3.52,8.14,6.94,16.35,11.03,24.21,7.24,13.91,14.78,27.68,22.57,41.29,3.73,6.53,8.24,12.62,12.56,18.8,8.79,12.55,17.64,25.05,26.64,37.45,.16,.23,.37,.42,.61,.59,.8,1.05,1.61,2.08,2.41,3.13,.75,1.09,1.42,2.23,2.12,3.34-14.62,2.82-29.14,6.21-43.63,9.66-28.73,6.85-56.49,16.3-79.49,35.66-5.51,4.63-10.05,11.31-12.95,17.96-6.02,13.81-.94,26.09,8.53,36.58,13.02,14.42,29.51,23.59,47.12,31.57,19.79,8.98,40.17,15.83,61.15,20.95,17.04,4.16,34.27,7.62,51.55,10.67,17,3,34.12,5.45,51.28,7.46,13.89,1.63,27.88,2.46,41.85,3.25,11.92,.67,23.87,1.05,35.8,1.05,12.29,0,24.58-.62,36.88-.99,10.69-.34,21.39-.65,32.07-1.09,4.3-.18,8.61-.51,12.88-1.07,12.96-1.69,25.91-3.42,38.84-5.33,11.18-1.66,22.47-2.95,33.45-5.53,13.65-3.23,27.09-7.4,40.5-11.59,7.9-2.47,15.71-4.91,22.2-11.02,4.41-4.15,10.6-6.75,16.39-9.04,14.21-5.62,29.39-7.27,44.42-8.42,13.84-1.05,27.84-.63,41.74-.09,11.49,.45,22.94,1.94,34.39,3.09,17.22,1.72,34.42,3.59,51.64,5.3,11.63,1.16,23.27,2.41,34.93,3.16,14.97,.97,29.97,2,44.96,2.08,22.06,.11,44.13-.42,66.19-1.01,15.18-.41,30.34-1.33,45.5-2.1,3.59-.18,7.19-.57,10.75-1.06,12.6-1.72,25.2-3.43,37.77-5.34,11.16-1.7,22.42-3.1,33.4-5.64,14.18-3.27,28.25-7.14,42.13-11.52,12.68-4,25.46-8.13,37.42-13.84,12.07-5.78,23.7-12.86,34.55-20.71,8.7-6.29,15.46-15.12,18.39-25.79ZM2100,0V2100H0V0H2100Z"/>
  <path class="cls-4" d="M1528.05,1267.96s-.03,.09-.05,.13c-.29,.86-.57,1.72-.8,2.59-.21,.81-.41,1.62-.68,2.42-.39,1.07-.79,2.16-1.28,3.19-.42,.79-.89,1.56-1.25,2.38-.43,.99-.82,2-1.12,3.04-.49,1.7-.73,3.48-.86,5.25v-.06c0,.06,0,.12-.02,.18-3.7,9.4-7.19,18.89-11.26,28.14-5.48,12.47-11.22,24.88-17.71,36.84-4.35,8.02-9.12,15.81-13.89,23.6-.73,0-1.46,.31-1.85,.96-.67,1.12-1.33,2.24-1.93,3.4-.54,1.04-1.07,2.07-1.64,3.08-.46,.8-.9,1.63-1.36,2.44-.66,1.15-1.38,2.25-2.16,3.32-1.3,1.74-2.68,3.43-3.99,5.17-.78,1.02-1.66,1.97-2.45,2.98-.14,.18-.28,.37-.42,.55-2.27-.66-4.56-1.29-6.86-1.89-24.27-6.35-48.62-12.48-73.14-17.71-16.18-3.45-32.69-5.48-49.12-7.55-14.81-1.88-29.71-3.13-44.61-4.3-12.66-.99-25.35-2.05-38.03-2.07-26.86-.04-53.73,.42-80.59,1.02-12.51,.27-25,1.27-37.5,2.08-9.13,.59-18.31,.95-27.36,2.21-15.02,2.11-30.06,4.31-44.87,7.5-20.62,4.44-41.25,9.12-61.48,15.02-15.43,4.5-30.7,10.08-44.31,19.04-4.7,3.09-8.38,7.97-13.32,10.39-9.41,4.6-19.41,8.02-30.23,11.93-5.24,1.06-10.44,2.45-15.73,3.13-15.06,1.95-30.11,4.21-45.24,5.2-10.62,.69-21.38-.35-32.06-.91-9.31-.48-18.61-1.35-27.91-2.09-13.07-1.04-26.12-2.89-39.19-3.02-4.11-.04-8.21-.06-12.32-.06-19.2,0-38.41,.45-57.6,1.07-15.04,.49-30.05,1.91-45.06,3.13-10.41,.85-20.92,1.43-31.17,3.31-.01,0-.03,0-.04,0-.08-.12-.16-.23-.23-.35-.69-1.05-1.34-2.12-2-3.19-.62-1.01-1.35-1.95-2.08-2.88-.7-.9-1.39-1.79-2.06-2.71,0-.01-.02-.02-.02-.03-.77-1.07-1.55-2.15-2.33-3.23-.31-.43-.59-.86-.86-1.31-.12-.25-.23-.5-.34-.75-.04-.12-.07-.23-.11-.35,.01,.04,.02,.09,.03,.13-.02-.09-.05-.17-.08-.25,0-.01,0-.03-.02-.04-.03-.08-.07-.16-.11-.24-.04-.07-.08-.14-.13-.21,0-.01-.01-.02-.02-.04-.05-.07-.1-.14-.16-.2-.04-.05-.08-.09-.12-.13-.04-.04-.09-.09-.14-.12-.02-.03-.05-.05-.08-.06,0,0,0,0,0,0-.04-.03-.08-.06-.12-.09h0s-.01-.02-.02-.02c-.04-.03-.09-.05-.14-.08-.09-.05-.19-.09-.29-.12-.04-.02-.09-.03-.13-.04-.12-.04-.25-.06-.38-.07-.07,0-.14-.01-.21-.01h-.09c-.11,0-.21,.02-.31,.04-4.38-5.57-8.82-11.09-12.72-16.97-9.38-14.16-18.19-28.7-27.77-43.6-3.27-5.76-6.84-11.37-9.73-17.3-5.32-10.93-10.4-21.98-15.28-33.12-4.14-9.47-7.87-19.12-11.78-28.7-1.43-3.5-2.66-7.09-4.36-10.45-.16-.3-.36-.58-.61-.84-.18-.49-.37-.98-.56-1.46-.43-1.07-.99-2.07-1.46-3.12-.27-.68-.46-1.41-.66-2.12,.34-.07,.69-.16,1.03-.24h0c.23-.05,.46-.11,.69-.16s.46-.11,.69-.15h0c.39-.08,.78-.16,1.16-.22,.13-.02,.26-.04,.39-.06,.52-.07,1.04-.11,1.55-.11,5.93,0,11.85,0,17.77-.02,.66,0,1.32,0,1.98,0,3.29,0,6.59,0,9.88,0s6.59,0,9.88,0c13.17,0,26.36,0,39.55-.01,41.48-.01,83.11,0,125.14,0h810.22Z"/>
  <path class="cls-5" d="M1531.45,938.2c1.03-1.04,1.72-3.48,1.26-4.72-4.68-12.45-10.41-24.55-14.38-37.21-4.44-14.2-12.48-26.48-18.57-39.79-10.49-22.92-24.57-43.69-38.38-64.55-9.09-13.74-20.01-26.29-30.38-39.16-7.68-9.53-15.27-19.23-23.84-27.92-.6-.61-1.21-1.21-1.82-1.82-1.21-1.2-2.45-2.39-3.69-3.57-1.86-1.77-3.76-3.51-5.67-5.23-1.99-1.8-4-3.57-6.02-5.34-.61-.53-1.21-1.06-1.82-1.59-3.84-3.35-7.71-6.67-11.52-10.04-1.85-1.62-3.69-3.26-5.54-4.88-1.39-1.22-2.78-2.44-4.17-3.65-.93-.81-1.86-1.61-2.8-2.41-3.27-2.8-6.57-5.57-9.95-8.24-9.94-7.88-19.93-15.77-30.42-22.88-3.27-2.22-6.57-4.4-9.89-6.56-1.66-1.08-3.32-2.15-4.99-3.21-.83-.54-1.67-1.06-2.5-1.59-1.67-1.05-3.35-2.11-5.03-3.15-1.68-1.04-3.37-2.08-5.05-3.11-2.53-1.55-5.07-3.08-7.62-4.61-1.7-1.02-3.4-2.03-5.1-3.03-2.05-1.21-4.14-2.36-6.25-3.46-1.05-.55-2.12-1.1-3.18-1.63-1.6-.8-3.21-1.59-4.82-2.37-3.77-1.82-7.55-3.59-11.3-5.45-5.23-2.59-10.44-5.26-15.67-7.86-1.96-.98-3.93-1.95-5.89-2.9-3.29-1.59-6.59-3.13-9.93-4.6-.59-.26-1.18-.52-1.78-.77-2.38-1.02-4.77-2.01-7.17-2.96-1.8-.71-3.62-1.41-5.43-2.1-1.21-.46-2.43-.9-3.64-1.34-1.22-.44-2.44-.88-3.66-1.3-2.45-.86-4.89-1.68-7.35-2.49-9.52-3.12-19.05-6.22-28.62-9.18-2.13-.66-4.26-1.3-6.39-1.95-2.13-.64-4.27-1.27-6.4-1.89-3.21-.93-6.42-1.84-9.64-2.72-.75-.2-1.49-.4-2.24-.6-1.49-.39-2.99-.77-4.5-1.12-4.51-1.08-9.05-2.03-13.62-2.9-1.52-.29-3.04-.57-4.56-.86s-3.05-.55-4.57-.82c-2.29-.4-4.57-.8-6.86-1.2-1.81-.32-3.64-.48-5.48-.58-.37-.02-.74-.04-1.11-.05-1.85-.08-3.7-.11-5.55-.2-.37-.02-.74-.04-1.11-.05s-.74-.04-1.11-.07c-.37-.03-.74-.05-1.11-.09s-.73-.07-1.1-.11c-.37-.04-.73-.09-1.1-.14-1.68-.24-3.35-.76-5.01-1.32-.83-.28-1.65-.56-2.48-.83-.07-.02-.14-.05-.21-.07-1.85-.59-3.7-1.05-5.54-1.05-.12,0-.23,0-.35,0-3.96,.13-7.79,.02-11.69-.41-2.42-.27-4.87-.33-7.3-.47-.95-.05-1.9-.11-2.85-.15-.95-.05-1.9-.1-2.85-.14-1.36-.07-2.71-.14-4.07-.21-1.09-.06-2.17-.12-3.25-.19-.79-.05-1.58-.1-2.37-.16-.79-.06-1.57-.12-2.36-.18-.39-.03-.79-.07-1.18-.1-.46-.04-.91-.11-1.36-.21-.6-.12-1.2-.29-1.8-.46-.15-.04-.3-.09-.45-.13-.3-.09-.6-.18-.9-.28-.3-.09-.6-.18-.9-.27-.6-.17-1.2-.33-1.81-.44-.27-.05-.56-.11-.85-.16-.44-.09-.89-.17-1.33-.23s-.89-.1-1.31-.1c-.1,0-.19,0-.29,0s-.19,.01-.28,.02c-.07,0-.13,.02-.2,.02-.04,0-.09,.02-.13,.02-.28,.05-.55,.13-.79,.25-8.03,3.94-16.29,1.72-24.49,1.39-.55-.02-1.11,.13-1.68,.22-.17,.03-.35,.05-.52,.06-2.72,.12-5.44,.23-8.16,.35-4.08,.17-8.16,.34-12.25,.52-.77,.04-1.53,.07-2.29,.11s-1.53,.07-2.3,.11c-.77,.04-1.53,.07-2.3,.12-1.78,.09-3.57,.19-5.35,.3-.9,.05-1.77,.41-2.65,.8l-.75,.34-.56,.25-.26,.11c-.18,.07-.35,.13-.52,.19-.17,.05-.35,.11-.52,.15-.16,.04-.32,.07-.48,.09-.1,.02-.2,.03-.3,.04-.89,.07-1.78,.13-2.68,.19-.89,.05-1.79,.1-2.68,.14-1.34,.07-2.68,.12-4.02,.18-.89,.04-1.79,.07-2.68,.11-1.34,.06-2.68,.12-4.02,.2-.89,.05-1.79,.11-2.68,.18-.89,.07-1.78,.14-2.67,.23-1.26,.13-2.52,.27-3.77,.42-.54,.07-1.07,.13-1.6,.2-.72,.09-1.44,.2-2.16,.3-.84,.12-1.67,.25-2.5,.38s-1.67,.27-2.5,.41c-1.25,.21-2.49,.45-3.73,.69-1.24,.24-2.48,.5-3.71,.77-3.77,.84-7.55,1.67-11.33,2.52-1.89,.42-3.78,.84-5.66,1.27-1.88,.43-3.77,.86-5.65,1.3-1.89,.44-3.77,.88-5.65,1.33-.94,.23-1.88,.45-2.82,.68-1.88,.46-3.75,.93-5.62,1.4-1.88,.48-3.75,.96-5.61,1.46-.93,.25-1.86,.5-2.8,.76-5.12,1.4-10.2,2.94-15.27,4.54-1.69,.54-3.38,1.07-5.06,1.62-.84,.27-1.69,.55-2.53,.82-1.68,.55-3.37,1.11-5.05,1.67-1.68,.56-3.36,1.12-5.04,1.68s-3.36,1.12-5.04,1.68c-.84,.28-1.68,.56-2.52,.84-.86,.29-1.71,.57-2.57,.86-3,1.02-5.98,2.06-8.95,3.17-.85,.32-1.69,.64-2.54,.96s-1.68,.66-2.52,1c-1.25,.51-2.5,1.03-3.75,1.57-1.89,.82-3.78,1.66-5.66,2.52-3.14,1.42-6.25,2.88-9.37,4.34-1.25,.59-2.49,1.18-3.74,1.76-.62,.3-1.24,.59-1.87,.88-1.24,.59-2.49,1.18-3.73,1.76s-2.49,1.17-3.74,1.75l-1.88,.87c-25.06,11.59-48.87,25.38-71.35,41.35-3.32,2.36-6.64,4.73-9.95,7.12-4.96,3.59-9.88,7.23-14.71,10.97-1.61,1.25-3.21,2.51-4.8,3.78-1.39,1.11-2.77,2.24-4.14,3.38-.25,.21-.5,.41-.75,.62-.89,.74-1.79,1.49-2.67,2.25-.61,.52-1.21,1.04-1.82,1.56-5.33,4.64-10.66,9.3-15.93,14.03-1.58,1.42-3.16,2.84-4.73,4.27-1.05,.95-2.09,1.91-3.13,2.87-1.04,.96-2.08,1.92-3.11,2.89s-2.07,1.93-3.09,2.91c-.52,.49-1.03,.97-1.54,1.46-1.54,1.46-3.06,2.94-4.58,4.42-4.55,4.45-9.01,8.97-13.35,13.61-15.07,16.1-28.23,34-42.07,51.23-16.28,20.25-28.98,42.83-41.5,65.46-5.31,9.61-9.46,19.88-13.95,29.93-4.89,10.95-9.98,21.83-14.2,33.04-4.3,11.39-7.82,23.09-11.36,34.75-2.12,6.98-3.62,14.15-5.39,21.23-2.25,9.02-4.83,17.98-6.64,27.09-1.47,7.45-1.86,15.1-3.02,22.61-.57,3.64-2.14,7.13-2.66,10.77-.56,3.94-.45,7.98-.59,11.98-.04,.87,.2,1.76,.1,2.61-.67,5.64-1.39,11.27-2.12,16.89-.11,.83-.11,1.78-.54,2.43-.14,.21-.29,.41-.45,.61h0c-.13,1.64-.25,3.28-.33,4.92,.12-.09,.24-.19,.36-.28,.97-.77,1.94-1.54,2.9-2.3,1.09-.86,2.17-1.72,3.25-2.59,1.08-.86,2.17-1.73,3.25-2.59,4.04-3.23,8.08-6.46,12.13-9.68,1.12-.89,2.23-1.77,3.36-2.66s2.24-1.77,3.36-2.65c1.12-.88,2.25-1.76,3.37-2.64,1.12-.88,2.25-1.75,3.38-2.62,1.13-.88,2.26-1.74,3.39-2.61,.89-.68,1.78-1.36,2.68-2.04,1.38-1.05,2.77-2.09,4.16-3.12,.98-.73,1.96-1.46,2.94-2.18,.2-.15,.4-.29,.6-.44,1.12-.82,2.24-1.63,3.36-2.44,2.13-1.54,4.31-3.02,6.53-4.45,1.84-1.19,3.71-2.35,5.6-3.49,.38-.23,.75-.45,1.13-.68,.76-.45,1.52-.9,2.28-1.34,.76-.44,1.52-.88,2.29-1.32,1.53-.88,3.07-1.75,4.61-2.61,.77-.43,1.54-.86,2.31-1.29,1.54-.86,3.09-1.71,4.63-2.57,2.32-1.28,4.63-2.57,6.93-3.87,.53-.3,1.06-.59,1.59-.88,.59-.33,1.18-.64,1.77-.96,.53-.28,1.06-.55,1.59-.83,1.36-.7,2.73-1.37,4.11-2.01,3.08-1.43,6.21-2.71,9.4-3.83,.71-.25,1.42-.48,2.13-.71,1.07-.34,2.15-.67,3.24-.97,.72-.2,1.45-.39,2.18-.57,2.55-.64,5.14-1.16,7.76-1.54,1.36-.2,2.74-.39,4.12-.56,1-.12,2.01-.23,3.02-.34,.76-.08,1.52-.15,2.28-.21,.3-.02,.61-.05,.91-.07,.61-.04,1.21-.08,1.82-.11,.3-.02,.6-.03,.91-.04,.3-.02,.6-.03,.91-.04,.26,0,.52-.02,.78-.02,.08,0,.15,0,.23,0,.27,0,.54-.01,.8-.02,.69,0,1.37,0,2.05,0,1.17,.02,2.33,.07,3.48,.14,1.15,.08,2.3,.19,3.43,.34,.38,.05,.75,.1,1.13,.16,1.45,.22,2.89,.46,4.33,.73,.56,.1,1.12,.21,1.68,.32,.52,.1,1.04,.2,1.57,.31,1.08,.22,2.16,.45,3.24,.69,.72,.16,1.44,.33,2.16,.5l.14,.04c.71,.17,1.43,.34,2.14,.52,1.47,.37,2.95,.76,4.41,1.17,1.46,.41,2.92,.84,4.38,1.28,.48,.15,.97,.3,1.45,.45,.51,.16,1.01,.32,1.52,.48,.39,.12,.78,.25,1.17,.39,.55,.18,1.09,.36,1.63,.55,.63,.21,1.25,.43,1.88,.66,.16,.05,.32,.11,.48,.17,.64,.23,1.28,.46,1.92,.7,2.4,.89,4.79,1.82,7.17,2.77,.95,.38,1.9,.77,2.85,1.16,.48,.2,.95,.39,1.42,.59,.95,.39,1.89,.79,2.84,1.19,3.31,1.4,6.6,2.83,9.89,4.29,.94,.41,1.88,.83,2.81,1.25,.94,.42,1.88,.84,2.81,1.26,.94,.42,1.88,.84,2.81,1.26,.47,.21,.94,.42,1.41,.63,1.4,.63,2.81,1.27,4.21,1.89,2.34,1.05,4.68,2.1,7.03,3.14,5.92,2.61,11.84,5.23,17.74,7.87,2.53,1.13,5.06,2.27,7.58,3.42,5.05,2.3,10.07,4.63,15.08,7.02,1.86,.89,3.7,1.81,5.53,2.75,.73,.38,1.46,.76,2.2,1.14,2.2,1.15,4.38,2.32,6.56,3.49,.73,.39,1.45,.78,2.18,1.17,.73,.39,1.45,.77,2.18,1.16,.36,.19,.73,.38,1.09,.57,.73,.38,1.46,.76,2.2,1.14,1.83,.94,3.67,1.86,5.52,2.75,.74,.36,1.48,.7,2.23,1.04,.75,.34,1.5,.68,2.25,1,1.13,.49,2.26,.97,3.41,1.42,.99,.39,1.99,.79,2.98,1.17,1.99,.78,3.99,1.54,6,2.29,1,.38,2.01,.74,3.01,1.11,2.01,.73,4.03,1.45,6.05,2.15,3.03,1.05,6.08,2.08,9.14,3.06,2.04,.66,4.08,1.3,6.13,1.93,5.12,1.57,10.26,3.04,15.43,4.4,7.56,2,15.4-1.87,22.81-4.9,2.88-1.18,5.71-2.43,8.5-3.75,1.39-.66,2.78-1.34,4.16-2.03,1.38-.69,2.74-1.39,4.1-2.12,2.71-1.44,5.4-2.94,8.05-4.48,5.31-3.09,10.5-6.36,15.63-9.74,2.57-1.69,5.12-3.4,7.66-5.14,1.27-.86,2.54-1.73,3.8-2.61,1.27-.87,2.53-1.75,3.8-2.62,2.53-1.75,5.05-3.51,7.58-5.27,1.84-1.28,3.69-2.57,5.53-3.85,.92-.64,1.84-1.28,2.76-1.93,3.46-2.41,6.91-4.81,10.38-7.21,3.46-2.39,6.93-4.79,10.4-7.16,2.32-1.59,4.64-3.16,6.96-4.73,1.86-1.25,3.72-2.51,5.59-3.75,.93-.62,1.87-1.24,2.8-1.86,.83-.55,1.67-1.1,2.5-1.65,1.67-1.1,3.34-2.2,5.02-3.29,1.68-1.09,3.36-2.18,5.04-3.27,1.68-1.08,3.36-2.16,5.05-3.24,3.37-2.15,6.76-4.28,10.16-6.38,1.7-1.05,3.41-2.1,5.11-3.14s3.42-2.07,5.13-3.1c.86-.51,1.72-1.02,2.58-1.53,.55-.32,1.1-.64,1.65-.96,.69-.4,1.38-.79,2.08-1.18,2.09-1.16,4.2-2.29,6.33-3.38,1.14-.58,2.27-1.16,3.42-1.73,1.71-.86,3.44-1.7,5.16-2.53,.58-.28,1.15-.55,1.73-.83,1.73-.83,3.46-1.66,5.18-2.49,.57-.27,1.15-.55,1.72-.83,.32-.15,.64-.3,.95-.45,.96-.45,1.91-.88,2.88-1.29,.96-.41,1.94-.81,2.91-1.19,.32-.12,.65-.25,.98-.37,2.29-.86,4.6-1.61,6.94-2.27,.34-.09,.67-.18,1.01-.27,1-.27,2.02-.52,3.03-.75,.68-.15,1.36-.3,2.04-.44,.34-.07,.68-.13,1.02-.2,1.37-.25,2.75-.48,4.13-.66,2.07-.28,4.17-.48,6.28-.6,8.07-.45,15.35,2.6,22.49,6.13,2.16,1.07,4.32,2.12,6.48,3.16,1.45,.69,2.89,1.38,4.34,2.07,2.9,1.38,5.8,2.74,8.7,4.11l4.35,2.06c1.45,.69,2.89,1.39,4.34,2.08,1.44,.7,2.88,1.4,4.32,2.11,.72,.36,1.44,.71,2.15,1.07,2.19,1.1,4.38,2.2,6.56,3.31s4.37,2.22,6.55,3.34,4.36,2.24,6.54,3.36c2.18,1.12,4.36,2.25,6.54,3.37,7.62,3.93,15.25,7.84,22.93,11.66,1.1,.55,2.2,1.09,3.29,1.63,14.45,7.1,29.14,13.71,43.8,20.4,13.45,6.14,26.86,12.4,40.52,18.03,4.84,1.99,9.7,3.94,14.59,5.82,1.63,.63,3.26,1.25,4.9,1.86,.82,.31,1.63,.61,2.45,.91,2.87,1.06,5.74,2.1,8.62,3.12,1.44,.51,2.88,1.01,4.33,1.51,1.44,.5,2.89,.99,4.34,1.47,.46,.15,.91,.3,1.38,.46,0,0,0,0,0,0,4.59,1.54,9.2,3.09,13.84,4.48,.46,.14,.93,.28,1.4,.42,.93,.27,1.86,.54,2.79,.79,3.27,.9,6.55,1.7,9.87,2.34,.47,.09,.95,.18,1.42,.26,.95,.17,1.91,.33,2.87,.47,.48,.07,.95,.14,1.43,.2s.96,.12,1.44,.18c.48,.06,.96,.11,1.44,.15,.35,.04,.71,.07,1.06,.09,.21,.02,.42,.04,.63,.05,.3,.03,.61,.05,.92,.07,.22,.02,.44,.03,.66,.04,.27,.02,.53,.03,.8,.04,.25,.02,.51,.02,.76,.03,.37,.01,.73,.02,1.11,.03,.44,.01,.88,.02,1.32,.02,.58,0,1.16,0,1.75-.02,.33,0,.67-.02,1-.04,.23,0,.46-.02,.69-.04,.64-.04,1.29-.08,1.93-.14,.4-.04,.81-.07,1.21-.12,.23-.02,.46-.05,.69-.08,.66-.08,1.32-.16,1.98-.26s1.32-.2,1.98-.32c1.32-.23,2.63-.5,3.94-.8,.52-.12,1.05-.24,1.57-.38,.52-.13,1.04-.26,1.56-.4s1.04-.29,1.55-.43,1.03-.3,1.54-.46c1.79-.55,3.56-1.14,5.29-1.78,.41-.15,.81-.3,1.22-.45,.81-.3,1.62-.61,2.42-.93,2.01-.79,4-1.62,5.96-2.48,.79-.34,1.57-.7,2.35-1.05,.78-.36,1.55-.71,2.33-1.08,.39-.18,.77-.37,1.16-.55,.77-.37,1.54-.75,2.3-1.13,.77-.38,1.53-.77,2.29-1.16,1.52-.78,3.02-1.58,4.52-2.41,1.5-.82,2.98-1.66,4.45-2.52,1.11-.64,2.21-1.29,3.3-1.96,1.82-1.1,3.63-2.23,5.43-3.38,.71-.46,1.43-.93,2.14-1.39,1.07-.7,2.13-1.41,3.19-2.13,.71-.48,1.41-.96,2.12-1.45,.35-.24,.7-.49,1.05-.73,.7-.49,1.4-.98,2.09-1.48,7.32-5.2,14.42-10.73,21.41-16.43,1.73-1.42,3.46-2.84,5.19-4.27,2.59-2.14,5.16-4.3,7.73-6.48,.86-.72,1.71-1.45,2.56-2.17,6.41-5.43,12.79-10.9,19.21-16.31,1.04-.88,2.09-1.75,3.13-2.62,1.11-.93,2.21-1.84,3.32-2.76,6.39-5.29,12.81-10.53,19.23-15.77,4.29-3.49,8.57-6.98,12.86-10.48,6.42-5.24,12.84-10.49,19.22-15.79,.05-.05,.11-.1,.16-.15Zm29.29,152.33c.04,3.21,.1,6.43,.15,9.64-1.84-.21-3.69-.39-5.54-.59-.53-.36-1.09-.68-1.76-.9-.1,.23-.19,.46-.27,.67-1.22-.14-2.44-.3-3.65-.48-.32-.25-.65-.48-.98-.67-.05-.03-.11-.06-.17-.09-.06-.03-.11-.05-.17-.08-.08-.04-.16-.07-.23-.1s-.16-.05-.24-.08c-.2-.06-.41-.11-.62-.15-.21-.04-.42-.07-.63-.1-.2-.02-.4-.04-.61-.06-.44-.04-.88-.05-1.32-.08-.22,0-.43-.02-.65-.03-.43-.02-.86-.06-1.29-.12-.25-.04-.5-.07-.75-.11-.33-.05-.66-.1-.99-.16-.17-.03-.35-.06-.53-.09-.39-.06-.78-.13-1.18-.2-.23-.04-.47-.08-.71-.12-.12-.02-.24-.04-.37-.06l-.38-.06c-.14-.02-.29-.05-.44-.07-.19-.03-.39-.06-.59-.09-.18-.03-.37-.05-.55-.08-.51,.02-.98,.06-1.42,.1-2.75-.46-5.5-.86-8.27-1.16-1.88-.19-3.76-.38-5.64-.57-2.58-.26-5.16-.51-7.75-.75-1.58-.15-3.16-.3-4.74-.45-.73-.07-1.46-.14-2.19-.2-.35-.04-.7-.07-1.05-.1-.03,0-.06,0-.09,0-.73-.07-1.46-.13-2.19-.2-2-.18-4-.35-6.01-.52-.06,0-.12-.01-.19-.02-.07,0-.14-.01-.2-.02-1.63-.14-3.25-.28-4.88-.41-.37-.03-.73-.06-1.1-.09-.9-.07-1.8-.14-2.71-.21-.27-.02-.53-.04-.8-.06-.51-.04-1.03-.08-1.54-.12-.05,0-.11,0-.16-.01-1.31-.1-2.62-.2-3.93-.29h-.02c-.05,0-.11-.02-.16-.02-.36-.05-.71-.1-1.07-.15s-.72-.11-1.07-.15c-.77-.11-1.54-.22-2.3-.32s-1.54-.21-2.3-.31c-.77-.1-1.54-.2-2.31-.29-.86-.1-1.77,.17-2.67,.34-1.8-.16-3.61-.32-5.41-.48-1.14-.19-2.27-.39-3.41-.55-.27-.04-.54-.08-.81-.11-.2-.03-.4-.05-.61-.08-.41-.05-.81-.09-1.22-.13-.02,0-.04,0-.06,0-.02,0-.03,0-.05,0-.02,0-.05,0-.07,0-.03,0-.06,0-.09,.02-.02,0-.04,0-.05,.01-.02,0-.04,0-.07,.02-.04,0-.07,.02-.11,.04t0,0c-.05,.02-.11,.05-.17,.08-.04,.02-.09,.04-.13,.07-.04,.02-.09,.05-.13,.08-2.46-.18-4.91-.36-7.38-.51l-1.24-.12c-.68-.06-1.37-.12-2.06-.19-.5-.05-1.01-.09-1.51-.13-.27-.02-.53-.05-.8-.07-.79-.06-1.59-.12-2.39-.17-.32-.02-.64-.04-.96-.05-.27-.02-.54-.03-.82-.04-1.09-.05-2.18-.08-3.26-.08-.35,0-.7,.07-1.05,.18-.72-.02-1.45-.04-2.17-.06-.3,0-.59-.02-.89-.02-.43-.01-.85-.02-1.28-.03-.61-.01-1.21-.02-1.82-.03-.6,0-1.21-.02-1.81-.02-1.3-.02-2.59-.02-3.89,.02,0,0-.02,0-.03,0-.49,.01-.98,.02-1.46,.04-.27,0-.53,.02-.8,.03-.07,0-.13,0-.2,0-.41,.02-.82,.04-1.22,.06-.34,.02-.68,.04-1.02,.05-.3,.02-.61,.04-.91,.05-.57,.04-1.14,.07-1.72,.11l-.45-.04c-1.08-.09-2.14-.16-3.2-.23-.6-.04-1.2-.08-1.8-.11-.6-.04-1.19-.06-1.79-.09-1.22-.05-2.52,.66-3.7,1.21-.05,.02-.1,.05-.15,.09-.14,.01-.29,.02-.43,.03-.46,.03-.91,.06-1.37,.08-.08,0-.17,.01-.25,.02-.68,.04-1.37,.07-2.05,.1-.8,.03-1.59,.07-2.39,.11-.07,0-.14,0-.21,0h-.05c-.13,0-.25-.01-.38-.01-.14,0-.28,0-.42,0-.18,0-.37,0-.55,0-.05,0-.09,0-.14,0-.18,0-.36,.02-.53,.03h-.02s-.01,0-.02,0h-.2s-.05,.02-.08,.02c-.14,0-.29,.02-.43,.04-.13,.01-.26,.02-.39,.04-.27,.03-.54,.06-.8,.09-.96,.06-1.91,.12-2.87,.18-.87,.06-1.74,.12-2.61,.19-.21,.02-.43,.03-.64,.05-.09,0-.18,.02-.27,.02-.74,.06-1.48,.12-2.21,.19-1.33,.12-2.67,.25-4,.39-.35,.04-.7,.07-1.05,.11-.17,.02-.34,.04-.51,.05-.45,.05-.91,.11-1.36,.16-.15,.02-.29,.03-.44,.05-.68,.08-1.37,.17-2.05,.25-.1,.02-.2,.03-.3,.04-1.52,.2-3.03,.41-4.54,.64-.21,0-.43,.02-.64,.04s-.43,.04-.64,.06c-.21,.02-.43,.05-.64,.09s-.42,.07-.63,.11c-.42,.09-.84,.18-1.25,.27-.46,.11-.93,.21-1.39,.32-2.02,.39-4.03,.78-6.05,1.18-1.08,.21-2.16,.43-3.24,.64-.62,.12-1.24,.25-1.86,.38-.62,.12-1.24,.25-1.86,.38-.62,.12-1.24,.26-1.86,.39-.34,.07-.68,.14-1.02,.22-.75,.16-1.5,.32-2.25,.48-.66,.14-1.32,.29-1.97,.44-.1,.02-.21,.05-.31,.07-.56,.12-1.12,.25-1.68,.38-.68,.16-1.37,.32-2.05,.48-1.21,.29-2.43,.59-3.64,.89-.52,.13-1.04,.26-1.55,.4-.29,.07-.59,.15-.88,.23-.41,.11-.82,.21-1.23,.33-.06,.02-.12,.03-.18,.05-.49,.12-.97,.26-1.46,.39-.02,0-.04,.01-.07,.02-.14,.04-.27,.07-.41,.11-.34,.09-.67,.19-1,.29-.02,0-.05,.01-.07,.02-.76,.21-1.52,.43-2.27,.66-.32,.09-.63,.18-.94,.28-.02,0-.04,.01-.06,.02-.14,.04-.29,.09-.43,.13-.23,.07-.47,.14-.7,.21-.67,.2-1.34,.41-2,.63-.33,.11-.66,.21-.99,.32-.57,.18-1.13,.37-1.7,.56-.24,.08-.48,.16-.73,.25-.54,.18-1.07,.37-1.6,.56-.44,.16-.89,.32-1.33,.48-.18,.06-.35,.12-.53,.19-.51,.19-1.02,.38-1.52,.57-.29,.11-.59,.22-.88,.34-.29,.11-.59,.23-.88,.35-.18,.07-.35,.14-.52,.21-.41,.16-.82,.33-1.23,.5-.54,.22-1.08,.45-1.62,.68s-1.07,.46-1.61,.7c-.21,.09-.42,.18-.63,.28-.46,.2-.91,.41-1.37,.62-.98,.42-1.96,.84-2.94,1.25-.31,.09-.63,.18-.94,.27-.26,.07-.52,.15-.77,.23-.06,.02-.11,.04-.17,.05-.32,.09-.63,.19-.95,.29-.45,.14-.9,.28-1.35,.42l-.18,.06c-.43,.14-.86,.27-1.28,.42-.46,.16-.93,.31-1.39,.47,0,0,0,0-.01,0-.38,.13-.75,.26-1.12,.39-.18,.06-.36,.13-.55,.2-.45,.16-.9,.32-1.34,.49-.2,.07-.39,.15-.59,.22-.4,.15-.8,.3-1.2,.46-.1,.04-.2,.07-.3,.11-.59,.23-1.18,.46-1.78,.7-.45,.18-.9,.36-1.35,.55-.13,.05-.26,.11-.39,.16-.39,.16-.78,.32-1.17,.49l-.75,.32c-.3,.13-.61,.26-.91,.39-.73,.31-1.45,.62-2.18,.94-3.7,1.62-7.37,3.31-11.05,5-.61,.28-1.22,.56-1.84,.84-.79,.36-1.57,.71-2.35,1.07-.27,.12-.55,.25-.82,.37-1.84,.82-3.68,1.64-5.54,2.43-.39,.17-.79,.34-1.18,.5-12.41,5.24-23.73,13-35.8,19.12-.79,.4-1.58,.79-2.37,1.18-.57,.29-1.15,.57-1.73,.85-.81,.39-1.62,.78-2.43,1.16-.67,.32-1.34,.63-2,.95-.77,.36-1.53,.72-2.3,1.07-.2,.09-.4,.19-.6,.28-.83,.39-1.66,.77-2.48,1.14-.04,.02-.09,.04-.13,.06-1.35,.62-2.7,1.23-4.05,1.85-1.35,.61-2.7,1.23-4.05,1.84-.68,.3-1.35,.61-2.02,.93-.67,.31-1.35,.62-2.02,.93-1.34,.62-2.69,1.25-4.03,1.89-.67,.32-1.34,.64-2,.96-.71,.34-1.43,.69-2.13,1.04-3.55,1.75-7.05,3.6-10.53,5.48-1.16,.63-2.32,1.26-3.48,1.89-.58,.31-1.16,.63-1.74,.95-1.16,.63-2.32,1.26-3.48,1.89-.77,.42-1.54,.83-2.32,1.25-.68,.37-1.36,.73-2.05,1.09-.5,.27-1.01,.54-1.52,.8-.12,.07-.24,.13-.36,.19-.1,.05-.2,.1-.3,.15-.73,.38-1.47,.76-2.21,1.14-2.82,1.44-5.66,2.84-8.5,4.23-1.42,.7-2.85,1.39-4.27,2.08-2.14,1.04-4.28,2.07-6.41,3.11-1.43,.69-2.85,1.38-4.27,2.08-1.07,.52-2.13,1.05-3.2,1.57-1.06,.52-2.13,1.05-3.19,1.59-1.41,.71-2.82,1.43-4.23,2.16-1.21,.62-2.41,1.25-3.62,1.89-.46,.24-.91,.48-1.37,.72l-1.37,.73c-2.43,1.28-4.85,2.58-7.27,3.89-1.2,.64-2.39,1.29-3.58,1.93-4.08,2.21-8.16,4.42-12.26,6.6-.82,.44-1.64,.87-2.46,1.3-.7,.37-1.39,.74-2.09,1.11-.38,.2-.76,.4-1.14,.6-1.39,.73-2.78,1.45-4.17,2.16-.12,.06-.24,.12-.37,.17-.08,.04-.16,.07-.25,.1-.13,.05-.26,.1-.39,.14-.18,.05-.36,.11-.55,.15-.09,.02-.17,.04-.26,.06-.02,0-.03,0-.05,0-.09,.02-.17,.04-.26,.05-.12,.02-.24,.05-.37,.06-.09,.02-.18,.03-.26,.04-.08,.02-.16,.02-.25,.03-.01,0-.02,0-.04,0s-.02,0-.04,0c-.02,0-.04,0-.05,0l-.26,.02s-.06,0-.09,0h-.02c-.15,.01-.31,.02-.47,.02-.08,0-.16,0-.24,0-.1,0-.21,0-.31,0-.19,0-.38,0-.56-.01-.07,0-.13,0-.2,0h-.02c-.17,0-.34-.02-.5-.03-.21-.02-.42-.04-.63-.06s-.42-.05-.62-.08c-.27-.04-.54-.09-.8-.13-5.7-1.07-11.4-2.38-16.88-4.23-2.11-.71-4.21-1.44-6.32-2.18-1.05-.37-2.11-.74-3.15-1.12-1.05-.38-2.09-.75-3.14-1.14-.98-.36-1.96-.72-2.94-1.09-.8-.3-1.59-.6-2.39-.9-1.21-.46-2.41-.92-3.61-1.39-1.18-.46-2.37-.93-3.55-1.41-1.18-.48-2.36-.96-3.54-1.45-5.61-2.33-11.13-5.15-16.16-8.54-1.93-1.3-3.87-2.61-5.8-3.93-.66-.46-1.32-.91-1.98-1.38-.09-.06-.18-.12-.27-.19-.38-.26-.76-.53-1.13-.8-.15-.11-.3-.21-.46-.32-.02-.02-.04-.03-.06-.04-.32-.23-.65-.46-.97-.7-.76-.55-1.52-1.1-2.26-1.66-.46-.35-.93-.71-1.39-1.06-.46-.36-.92-.71-1.38-1.08-.46-.36-.91-.73-1.36-1.09-1.8-1.48-3.54-3.01-5.21-4.61-7.96-7.65-14.31-16.96-22.14-24.78-1.01-1-2.02-2-3.05-2.99-.51-.5-1.03-.99-1.55-1.48-.36-.34-.71-.67-1.07-1.01-.33-.31-.66-.62-.99-.93-.07-.07-.14-.13-.21-.19-.05-.05-.1-.09-.15-.14-.36-.33-.71-.66-1.08-.99-.68-.62-1.36-1.24-2.05-1.85-.68-.62-1.38-1.23-2.07-1.83-.46-.41-.92-.81-1.39-1.21-.39-.34-.79-.68-1.19-1.02-.13-.12-.27-.23-.41-.34-.37-.32-.74-.63-1.11-.95-.53-.45-1.06-.89-1.59-1.33-.73-.6-1.46-1.2-2.19-1.79-.76-.62-1.52-1.23-2.29-1.84-1.11-.89-2.23-1.77-3.36-2.63-1.81-1.39-3.66-2.73-5.55-4.03-.94-.65-1.89-1.29-2.86-1.91-.48-.31-.96-.62-1.45-.93-.49-.32-.99-.63-1.49-.94-.48-.3-.95-.59-1.43-.89-.48-.29-.96-.59-1.45-.88-.99-.6-1.99-1.18-3-1.77-.99-.57-1.99-1.14-2.99-1.71-1-.56-2-1.12-3-1.67-.36-.2-.71-.39-1.08-.58-.36-.19-.72-.38-1.09-.56-.35-.18-.71-.36-1.06-.53-.02,0-.04-.02-.06-.03-.32-.16-.63-.31-.95-.46-.04-.02-.07-.04-.1-.05l-.06-.02c-.36-.17-.72-.34-1.09-.5-.32-.15-.64-.29-.96-.43-1.56-.68-3.14-1.33-4.73-1.94-.52-.2-1.04-.39-1.55-.58-.52-.19-1.04-.38-1.55-.56-.41-.15-.83-.29-1.25-.44-.1-.04-.2-.07-.29-.1-.06-.02-.12-.04-.19-.06-.32-.11-.65-.22-.97-.33-.39-.13-.78-.26-1.16-.39-1.04-.34-2.08-.68-3.12-1.01-.52-.16-1.04-.32-1.57-.48s-1.05-.32-1.57-.48c-.52-.16-1.05-.31-1.57-.46-.53-.15-1.05-.3-1.58-.46-1.05-.3-2.11-.6-3.16-.89-.54-.15-1.09-.3-1.63-.45-.13-.04-.27-.07-.4-.11-.84-.23-1.67-.46-2.51-.68-1.12-.31-2.25-.61-3.38-.92-1.06-.29-2.12-.57-3.17-.86-.53-.14-1.06-.29-1.59-.43-4.21-1.16-8.45-2.41-12.75-3.04-.21-.03-.43-.06-.64-.08-.21-.02-.43-.04-.64-.05-.18-.01-.35-.02-.53-.02-.03,0-.05,0-.08,0-.11,0-.23,0-.34,0-.06,0-.13,0-.19,0h-.17c-.18,0-.36,0-.54,0-.09,0-.18,0-.27,0-.11,0-.22,0-.32,.01-.11,0-.21,0-.32,.02-.25,.01-.49,.03-.73,.05-.25,.02-.49,.04-.74,.06-.49,.04-.98,.09-1.47,.14-.49,.05-.98,.11-1.47,.16-5.11-.13-9.54-.16-13.51-.08-.49-.11-.99-.22-1.48-.32-1.13-.22-2.42,.03-3.57,.3-.3,.07-.6,.15-.89,.24-.19,.01-.38,.02-.57,.04s-.38,.02-.56,.04c-.37,.02-.74,.05-1.11,.08s-.72,.05-1.08,.09-.71,.06-1.07,.1c-.18,.02-.35,.03-.52,.05-.13,.01-.26,.03-.39,.04-.13,.01-.26,.03-.39,.04-.26,.02-.52,.05-.77,.09-.34,.04-.68,.08-1.02,.12s-.67,.09-1.01,.13c-.33,.05-.66,.09-.99,.14-.21,.03-.43,.06-.64,.1-.21,.03-.42,.07-.63,.1-.75,.12-1.49,.25-2.23,.39-.44,.08-.88,.17-1.31,.26-.02,0-.04,0-.07,.01-.41,.09-.83,.17-1.24,.27-.38,.08-.76,.17-1.14,.26-.05,.01-.11,.03-.16,.04-.71,.17-1.42,.34-2.13,.53-.02,0-.03,0-.04,.01-.28,.07-.56,.14-.84,.22-.49,.13-.99,.27-1.49,.41-.3,.09-.61,.17-.91,.26-.28,.08-.56,.16-.84,.25-.27,.08-.54,.16-.81,.24-.27,.08-.55,.16-.82,.25-.55,.17-1.11,.34-1.67,.52-.34,.11-.69,.22-1.04,.34-.04,.01-.07,.02-.11,.04-.31,.1-.63,.21-.95,.31-.12,.04-.24,.08-.36,.12-.23,.07-.46,.15-.69,.23-.35,.12-.71,.23-1.07,.36-.77,.26-1.54,.52-2.34,.8l-1.93,.52c-.88,.23-1.77,.47-2.65,.71-.03,.01-.07,.02-.1,.03-.5,.14-1,.27-1.49,.41-1.83,.5-3.66,1.02-5.48,1.54-.82,.24-1.63,.48-2.45,.72-1.3,.39-2.61,.79-3.91,1.2-.16,.05-.32,.1-.48,.15-.02,0-.05,.02-.07,.02,0,0-.02,0-.03,0-.46,.14-.92,.29-1.39,.44-.5,.16-.99,.32-1.48,.48-1.01,.33-2.02,.67-3.02,1.01-.63,.21-1.26,.43-1.89,.66-.36,.12-.73,.25-1.09,.38l-.16,.06c-.41,.14-.82,.29-1.23,.44-.24,.08-.48,.17-.72,.26-.17,.06-.34,.12-.51,.18-.65,.23-1.3,.47-1.96,.71-.71,.27-1.43,.53-2.14,.8-2.24,.85-4.48,1.72-6.7,2.62-.68,.28-1.35,.55-2.03,.84-1.69,.7-3.38,1.42-5.05,2.16-.51,.22-1.02,.45-1.54,.68-.35,.16-.7,.31-1.05,.47-.17,.08-.34,.15-.5,.23-.43,.2-.86,.39-1.29,.59-.34,.16-.68,.32-1.02,.48-.25,.09-.51,.18-.77,.27-.77,.28-1.54,.56-2.32,.83-1.03,.37-2.06,.73-3.09,1.1-.45,.15-.91,.3-1.36,.46-.34,.12-.67,.24-1.01,.36-.02,0-.05,.02-.07,.03-.23,.08-.46,.17-.68,.26-.45,.17-.9,.35-1.34,.53-.34,.14-.67,.28-1,.42,0,0-.01,0-.02,0-.25,.11-.5,.21-.75,.33-.22,.1-.45,.2-.67,.3-.23,.1-.46,.21-.69,.32-.45,.21-.89,.43-1.34,.65-.33,.16-.66,.34-.99,.51s-.66,.35-.98,.53c-.16,.09-.32,.18-.48,.27-.16,.09-.33,.18-.49,.28-.27,.15-.54,.31-.8,.46-.27,.16-.54,.32-.8,.48-.43,.26-.84,.52-1.26,.79l-.82,.54s-.07,.05-.11,.07c-.31,.21-.62,.42-.92,.64-.25,.18-.5,.35-.74,.53-.27,.19-.53,.39-.79,.58l-.14,.11c-.27,.2-.54,.41-.8,.62-.17,.13-.34,.26-.5,.4l-.43,.35c-.24,.2-.48,.39-.71,.6-.37,.29-.75,.59-1.12,.88s-.76,.58-1.14,.87c-.42,.31-.84,.62-1.27,.93-.38,.28-.76,.55-1.14,.82-.14,.07-.27,.15-.41,.23-1.12,.61-2.23,1.23-3.34,1.87-.5,.28-1,.57-1.49,.86-.02,0-.03,.01-.04,.02-.26,.15-.52,.3-.77,.46-.47,.27-.93,.55-1.4,.83-.23,.14-.45,.28-.68,.43-.03,.02-.07,.04-.1,.06-.19,.12-.38,.25-.57,.38-.19,.13-.38,.26-.57,.39-.62,.45-1.24,.91-1.85,1.38-.24,.19-.49,.38-.73,.57-.65,.51-1.29,1.02-1.95,1.52-.26,.2-.52,.4-.78,.59-.13,.1-.26,.2-.39,.29-.13,.1-.26,.19-.39,.29l-.4,.28c-.12,.09-.25,.17-.37,.25-.36,.25-.72,.48-1.09,.7-.16,.1-.31,.19-.47,.29-.18,.1-.35,.2-.53,.3-.11,.06-.23,.12-.34,.18-.27,.14-.55,.28-.84,.41-.38,.18-.76,.34-1.14,.51s-.76,.33-1.14,.5c-.43,.18-.87,.36-1.3,.54-.31,.12-.62,.25-.93,.37-.05,.02-.09,.04-.14,.05-.3,.12-.6,.23-.9,.34-.13,.05-.27,.1-.4,.15-.26,.1-.52,.19-.78,.29-.68,.24-1.37,.47-2.05,.69-.25,.08-.49,.16-.74,.23h0s-.04,.01-.06,.02c-.18,.05-.37,.11-.55,.16-.21,.07-.43,.12-.64,.19,0,0-.01,0-.02,0-.24,.07-.49,.14-.73,.2-.22,.06-.45,.12-.66,.18-.37,.1-.73,.19-1.1,.27-.2,.05-.39,.09-.58,.14-.26,.06-.52,.12-.79,.17-.55,.12-1.11,.23-1.67,.33h0c-.11,.02-.23,.04-.34,.06s-.23,.04-.35,.06c-.27,.04-.53,.09-.79,.12-.14,.02-.28,.04-.42,.06-.03,0-.06,0-.09,.01-.16,.03-.32,.05-.49,.07-.03,0-.05,0-.08,0-.2,.03-.4,.05-.6,.07-.24,.03-.48,.05-.71,.08-.2,.02-.39,.04-.58,.06l-.43,.04h-.02c-.19,.02-.38,.03-.57,.04-.36,.02-.73,.05-1.1,.06l-.52,.02c-.55,.02-1.09,.03-1.64,.03-.29,0-.58,0-.88,0-.3,0-.6-.02-.9-.03-.29-.01-.58-.02-.87-.04-.32-.02-.63-.04-.95-.06-.05,0-.11,0-.16-.02-.28-.02-.56-.05-.84-.07-.27-.03-.55-.05-.82-.09-.06,0-.12-.01-.18-.02l-.18-.02c-.23-.03-.46-.06-.7-.09s-.46-.07-.7-.1c-.47-.07-.94-.16-1.41-.24-.49-.09-.98-.19-1.46-.29-.49-.11-.98-.22-1.48-.34-.41-.1-.82-.21-1.22-.32-.34-.09-.67-.18-1-.28-.24-.07-.48-.14-.71-.21-.02,0-.03,0-.04-.01,0,0-.01,0-.02,0-.03,0-.06-.02-.09-.03-.19-.05-.37-.11-.55-.17-.21-.06-.43-.13-.64-.2-.35-.11-.7-.22-1.04-.34-.18-.05-.35-.12-.52-.18l-.52-.18c-1.38-.48-2.73-1-4.07-1.55-.21-.09-.42-.18-.63-.27-.21-.09-.42-.18-.63-.27-2.56-1.11-5.04-2.33-7.49-3.64-.63-.34-1.26-.68-1.88-1.04-.55-.31-1.1-.62-1.65-.94-.02,0-.04-.02-.05-.03-.06-.03-.11-.07-.17-.1-.44-.25-.87-.51-1.31-.77-.49-.29-.98-.59-1.47-.88-.31-.19-.62-.38-.92-.56-.38-.23-.77-.47-1.15-.71-1.15-.71-2.29-1.44-3.43-2.18-.57-.37-1.14-.74-1.7-1.11-.09-.06-.18-.11-.26-.17-.01,0-.02-.02-.03-.02-.55-.36-1.09-.72-1.64-1.09-.4-.27-.8-.54-1.2-.81-2.36-1.59-4.7-3.22-7.04-4.84-.3-.21-.59-.41-.89-.61,0,0,0,0,0,0-.01-.01-.03-.02-.04-.03l-.04-.02c-.37-.27-.73-.55-1.1-.84-.37-.28-.73-.56-1.09-.85-1.63-1.28-3.25-2.6-4.89-3.89-.31-.24-.62-.48-.93-.73-.33-.25-.66-.5-.99-.75-.04-.03-.08-.06-.12-.09-.29-.22-.58-.43-.88-.65s-.59-.43-.88-.63c-.24-.17-.48-.34-.72-.5-.18-.12-.36-.25-.54-.37-.06-.04-.12-.09-.18-.12-.03-.02-.05-.04-.08-.05-.15-.11-.3-.21-.46-.3-.14-.09-.27-.18-.41-.26-.2-.12-.39-.25-.59-.37-.2-.12-.39-.24-.59-.36-.21-.12-.42-.25-.63-.37-.21-.12-.43-.25-.64-.36-.2-.11-.39-.21-.59-.32-.38-.2-.76-.39-1.14-.57-.22-.11-.45-.21-.68-.31-.55-.26-1.11-.5-1.67-.74-.28-.12-.56-.23-.84-.34-.34-.14-.68-.27-1.03-.4-.18-.07-.36-.14-.54-.2-1.19-.43-2.39-.84-3.59-1.21-.29-.09-.58-.18-.87-.27-.19-.06-.38-.12-.58-.17-.1-.03-.2-.06-.3-.09-1.46-.43-2.93-.83-4.39-1.23-1.14-.36-2.29-.72-3.43-1.08-1.15-.36-2.3-.71-3.45-1.05,0,0,0,0-.01,0-.8-.29-1.6-.58-2.39-.87-.07-.03-.14-.05-.21-.07-.1-.02-.2-.04-.3-.05-.04,0-.08-.01-.12-.01-.13-.01-.27-.01-.41,0-.64-.19-1.29-.38-1.93-.55l-1.2-.34-.42-.12c-.62-.17-1.25-.35-1.88-.52,0-.07,0-.13,.01-.18,0-.11,0-.19,0-.23,0,0,0-.02,0-.02,0,0,0,0,0,0-1.03-.12-2.05-.25-3.08-.37-2.17-.56-4.35-1.09-6.54-1.58-.44-.11-.88-.21-1.32-.32-.43-.1-.86-.2-1.29-.29-.02,0-.05-.01-.07-.02-.37-.08-.73-.16-1.1-.23-.04,0-.09-.02-.13-.03-.02,0-.05,0-.07-.01-.43-.09-.87-.17-1.3-.25-.44-.08-.88-.16-1.32-.23-.43-.07-.86-.14-1.29-.2-.29-.04-.58-.08-.87-.12-.24-.04-.48-.07-.71-.1-.44-.05-.88-.11-1.32-.16-.05,0-.09-.01-.14-.02-.33-.04-.65-.07-.98-.1-.17-.02-.34-.04-.51-.05-.27-.03-.54-.05-.81-.07h-.02c-.36-.03-.72-.06-1.09-.09s-.72-.05-1.09-.07c-.28-.02-.55-.04-.83-.05-.28-.02-.56-.03-.84-.04-.12,0-.25-.01-.37-.02h-.01c-.3-.01-.61-.02-.91-.03h-.38c-.28-.02-.56-.02-.84-.03-.24,0-.48,0-.73-.01-.32,0-.64,0-.96,0h-.02c-.49,0-.98,0-1.47,.01-.5,0-1,.02-1.5,.04-.25,0-.51,.02-.77,.03-.04,0-.07,0-.1,0-.14,0-.27,0-.41,.02-.02,0-.04,0-.05,0-.27,0-.53,.02-.8,.04h0c-.38,.02-.76,.04-1.14,.06-.38,.02-.76,.05-1.14,.07-.52,.04-1.04,.08-1.56,.12-.45,.04-.89,.08-1.34,.12-.18,.02-.35,.03-.52,.05-.13,.01-.26,.03-.39,.04-.39,.04-.77,.08-1.16,.12-.35,.04-.69,.08-1.04,.12s-.69,.09-1.04,.13c-.39,.05-.77,.1-1.16,.16-.3,.04-.61,.08-.91,.13-.25,.04-.49,.07-.74,.11-.36,.05-.72,.11-1.08,.17-.12,.02-.24,.04-.36,.06-.65,.11-1.3,.21-1.95,.33-1.37,.25-2.74,.51-4.11,.79-.32,.06-.64,.13-.96,.2-.17,.04-.34,.07-.51,.11l-.45,.09c-.11,.03-.23,.05-.34,.08-.61,.13-1.23,.27-1.84,.41-.66,.15-1.32,.31-1.98,.47-.19,.05-.38,.09-.57,.14-.51,.12-1.02,.25-1.53,.38-.52,.02-1.04,.05-1.55,.1-.04,0-.08,.01-.12,.02,0,0-.01,0-.02,0,0,0-.02,0-.03,0-.04,.01-.08,.02-.12,.04-.04,.02-.08,.03-.12,.05-.02,0-.05,.02-.07,.04-.05,.03-.11,.06-.17,.1s-.11,.07-.17,.11c-.11,.08-.22,.16-.33,.24-1.95,.53-3.9,1.09-5.84,1.66-.64,.19-1.27,.38-1.91,.58-.43,.13-.86,.27-1.3,.4-.38,.12-.76,.23-1.14,.36-.48,.15-.96,.3-1.44,.46-.04-.01-.08-.02-.12-.03-.12-.03-.24-.06-.36-.07,0,0-.02,0-.02,0-.01,0-.03,0-.04,0-.01,0-.02,0-.03,0-.01,0-.02,0-.04,0-.04,0-.07-.01-.11-.01-.18-.02-.35,0-.51,.04-1.18,.32-2.35,.64-3.53,.98-.57,.16-1.13,.32-1.7,.49-.53,.15-1.05,.31-1.58,.46-.1,.03-.2,.06-.3,.09-.72,.21-1.45,.43-2.17,.66-1.02,.31-2.05,.63-3.07,.96-.39,.12-.56,.95-.83,1.46,.04,.02,.08,.03,.12,.05,0,0,0,0,0,0-1.48,.6-2.96,1.21-4.43,1.82-1.48,.62-2.95,1.25-4.41,1.89-.04-1.45-.07-2.89-.09-4.33-.02-1.4-.04-2.8-.06-4.2-.01-1.32-.02-2.64-.03-3.96,0-.48,0-.97,0-1.46-.04-9.73,.09-19.46,.09-29.2,0-3.23,.47-6.5,1.11-9.67,.04-.17,.08-.35,.14-.52s.12-.35,.2-.53h0c0-5.72,.45-11.45,1.16-17.15,.36-3.67,.69-7.34,.96-11.01,.01-.06,.02-.12,.04-.18,0-.02,.01-.05,.01-.07,0,0,0-.02,0-.03,0-.02,0-.03,0-.05,0-.02,0-.04,0-.06,0-.02,0-.03,0-.05,0-.04,0-.07,.01-.11,0-.08,.01-.16,.02-.24v-.02c0-.06,0-.12,0-.19,0-.09,0-.19,0-.29,0-.35-.01-.71,0-1.06,0-.02,0-.04,0-.05,0-.09,0-.18,0-.26,0-.05,0-.09,0-.14h0c0-.07,.01-.14,.02-.2s.02-.13,.03-.2c0-.03,0-.06,.02-.09,0-.03,.01-.06,.02-.09,.01-.06,.03-.12,.05-.18,.02-.06,.04-.12,.06-.18,.02-.06,.04-.11,.07-.17s.05-.11,.09-.16c.01-.03,.03-.05,.05-.08,.02-.02,.04-.05,.05-.07,.03-.04,.05-.07,.09-.11,.02-.02,.04-.04,.06-.06,.03-.03,.06-.06,.09-.09l.02-.02c.09-.08,.2-.15,.32-.21,.18-1.49,.35-2.98,.54-4.48,.18-1.52,.37-3.05,.57-4.57,.19-1.52,.39-3.05,.59-4.57,1.58-11.91,3.27-23.81,5.38-35.64,1.28-7.17,3.34-14.21,5.27-21.26,3.97-14.52,7.36-29.25,12.32-43.43,5.8-16.56,12.6-32.82,19.78-48.84,5.92-13.21,12.62-26.11,19.73-38.73,7.82-13.89,15.93-27.69,24.92-40.84,10.04-14.68,20.87-28.85,32.01-42.72,.53-.66,1.06-1.32,1.6-1.98,.55-.68,1.1-1.35,1.65-2.02,.52-.64,1.05-1.27,1.58-1.91,.97-1.16,1.94-2.32,2.92-3.46,.35-.41,.71-.83,1.06-1.24,.92-1.07,1.84-2.13,2.78-3.19,.51-.59,1.03-1.17,1.55-1.75,.53-.59,1.05-1.18,1.58-1.76,0,0,0-.01,.02-.02,.67-.75,1.35-1.49,2.03-2.23,.29-.32,.58-.63,.87-.95,.14-.15,.27-.29,.41-.44,.68-.73,1.35-1.45,2.04-2.16,.3-.32,.61-.65,.93-.97,.06-.07,.12-.13,.19-.2,.05-.05,.09-.1,.14-.15,.23-.23,.45-.47,.68-.7,.36-.37,.71-.74,1.08-1.11,.31-.32,.62-.64,.93-.96,.38-.39,.76-.77,1.15-1.16,.66-.66,1.31-1.32,1.98-1.97,.88-.87,1.76-1.73,2.64-2.59s1.77-1.72,2.66-2.58,1.77-1.71,2.66-2.57c.63-.61,1.26-1.21,1.89-1.8,.62-.6,1.24-1.19,1.87-1.78,.21-.2,.41-.39,.62-.59,.09-.08,.17-.16,.25-.24,1.14-1.08,2.29-2.16,3.44-3.23,1.35-1.27,2.71-2.53,4.07-3.79,1.36-1.26,2.72-2.52,4.09-3.77,1.39-1.27,2.78-2.54,4.17-3.81,.17-.16,.34-.31,.51-.46,.02-.02,.04-.04,.06-.05,.24-.22,.49-.45,.73-.66,1.37-1.25,2.75-2.49,4.12-3.73s2.75-2.48,4.13-3.71c1.84-1.65,3.68-3.29,5.53-4.93,.54-.48,1.07-.95,1.61-1.42,.41-.37,.83-.73,1.25-1.09,.46-.4,.91-.79,1.38-1.18,.61-.52,1.21-1.04,1.83-1.55,1.25-1.04,2.5-2.07,3.76-3.09,.38-.31,.75-.62,1.13-.91,.07-.05,.13-.11,.2-.16,.65-.52,1.3-1.04,1.95-1.55s1.3-1.03,1.95-1.54c1.31-1.03,2.62-2.05,3.94-3.06,.73-.56,1.46-1.12,2.19-1.68l2.19-1.68c1.14-.87,2.28-1.73,3.42-2.6,.51-.39,1.03-.77,1.54-1.15,.45-.33,.89-.66,1.34-.98,.36-.26,.72-.52,1.09-.78,.17-.12,.34-.24,.5-.36,.16-.12,.34-.24,.5-.36,.6-.42,1.2-.84,1.8-1.25,.12-.09,.24-.17,.36-.25,.14-.1,.29-.2,.44-.3,.36-.25,.72-.5,1.08-.74,.13-.09,.26-.18,.39-.27,.55-.38,1.11-.75,1.66-1.12,2.13-1.44,4.27-2.86,6.41-4.29,1.07-.71,2.14-1.43,3.2-2.16,5.4-3.67,10.75-7.43,16.29-10.9,5.33-3.34,10.79-6.5,16.33-9.47,1.89-1.01,3.78-2.01,5.68-3,.95-.5,1.9-.99,2.85-1.48,.95-.49,1.91-.98,2.86-1.47,3.81-1.95,7.64-3.88,11.46-5.82,1.06-.54,2.12-1.07,3.18-1.61,.27-.14,.54-.27,.82-.41,1-.5,2-1,3-1.5,.59-.29,1.17-.58,1.75-.86,.59-.29,1.17-.57,1.76-.86,1.17-.57,2.35-1.14,3.52-1.7,.67-.32,1.34-.64,2.02-.96,.67-.32,1.35-.64,2.02-.95,.67-.32,1.35-.63,2.02-.95,.57-.27,1.14-.53,1.72-.79,1.07-.49,2.13-.98,3.2-1.46,1.07-.48,2.14-.96,3.21-1.44,1.36-.6,2.73-1.2,4.09-1.78,2.74-1.17,5.48-2.32,8.25-3.43,1.38-.55,2.77-1.1,4.15-1.64,.41-.16,.82-.32,1.23-.47,.35-.14,.7-.27,1.04-.4,.63-.24,1.27-.48,1.9-.71,.45-.17,.91-.34,1.36-.51,.57-.21,1.14-.42,1.72-.62,.33-.12,.66-.24,.99-.36,1.45-.52,2.91-1.03,4.37-1.53,.7-.24,1.39-.47,2.09-.7,.54-.18,1.09-.36,1.63-.54,.45-.15,.89-.3,1.34-.44,.03-.01,.07-.02,.1-.03,.05-.02,.11-.04,.16-.05,.5-.16,1-.32,1.5-.48,.55-.18,1.11-.35,1.66-.52,1.36-.42,2.72-.83,4.09-1.25,1.44-.43,2.88-.86,4.32-1.29,1.29-.38,2.59-.76,3.88-1.14,4.1-1.2,8.21-2.38,12.32-3.57,2.74-.79,5.47-1.59,8.2-2.4,8.23-2.44,16.32-5.39,24.66-7.34,.79-.18,1.57-.36,2.35-.54,.02,0,.05-.01,.07-.02,.22-.05,.44-.1,.66-.14,.1-.02,.19-.04,.29-.06l.26-.06c.6-.13,1.21-.27,1.81-.39,.06-.02,.12-.03,.18-.04,.85-.18,1.7-.36,2.55-.53,.91-.19,1.82-.37,2.73-.54,1.22-.23,2.43-.46,3.66-.68,1.22-.22,2.44-.43,3.66-.64,.61-.1,1.22-.2,1.84-.3,.5-.09,1-.17,1.5-.25,.72-.12,1.45-.23,2.17-.35,1.23-.19,2.45-.38,3.68-.56,.61-.09,1.22-.18,1.84-.27,14.15-2.05,28.35-3.84,42.57-5.33,1.39-.14,2.77-.28,4.16-.4,.02,0,.05,0,.07,0,.08,0,.16-.02,.25-.02,.46-.04,.92-.08,1.38-.12,1.3-.11,2.6-.21,3.91-.31l1.43-.11s.03,0,.04,0c.81-.06,1.62-.11,2.44-.17,.98-.07,1.96-.13,2.93-.19,.02,0,.03,0,.05,0,.96-.06,1.93-.12,2.89-.18,.98-.06,1.96-.11,2.94-.17,.98-.06,1.96-.11,2.94-.17,1.96-.11,3.91-.21,5.87-.33,8.61-.49,17.27-1.31,25.86-.97,1.97,.08,3.94,.16,5.91,.25,.18,0,.37,.02,.55,.02,2.16,.09,4.31,.19,6.46,.3,.21,.01,.41,.02,.62,.03,.72,.04,1.45,.07,2.17,.11l.67,.04c.79,.04,1.57,.09,2.35,.13,.34,.02,.69,.04,1.03,.06,.55,.03,1.1,.06,1.65,.1,.74,.04,1.48,.09,2.21,.14,.98,.06,1.97,.13,2.95,.2,.98,.07,1.96,.14,2.95,.21,.98,.07,1.96,.15,2.95,.23,.98,.08,1.96,.16,2.95,.25,.49,.04,.98,.09,1.47,.13s.98,.09,1.47,.13c.98,.09,1.96,.19,2.94,.29,.98,.1,1.96,.2,2.94,.3,.98,.11,1.96,.21,2.93,.33,.45,.05,.9,.11,1.36,.16,.43,.05,.86,.11,1.29,.16,.11,.01,.23,.03,.35,.04,.82,.1,1.63,.21,2.45,.32,.02,0,.05,0,.07,0,.08,.01,.16,.02,.23,.03,.87,.12,1.74,.24,2.61,.37,.93,.13,1.85,.27,2.78,.41,.75,.11,1.5,.23,2.26,.35,1.27,.2,2.54,.41,3.81,.62,1.27,.21,2.54,.43,3.81,.65,.64,.11,1.27,.22,1.91,.33,4.39,.77,8.77,1.58,13.15,2.38,1.38,.25,2.77,.51,4.15,.76s2.77,.5,4.15,.75l2.07,.36c.35,.06,.69,.12,1.04,.18,.69,.12,1.38,.24,2.08,.36,.35,.06,.69,.12,1.04,.18,1.39,.23,2.77,.47,4.16,.71,.7,.12,1.39,.24,2.08,.36,1.73,.3,3.46,.61,5.19,.93,.69,.13,1.38,.26,2.07,.39,.63,.12,1.26,.25,1.89,.37,.14,.03,.28,.06,.43,.09,.43,.09,.85,.17,1.27,.26,.26,.05,.52,.11,.79,.17,.42,.09,.84,.18,1.26,.28,.31,.07,.62,.14,.93,.21,.4,.09,.8,.18,1.2,.27h0c.64,.15,1.29,.3,1.93,.46,.64,.16,1.29,.32,1.92,.49,.57,.15,1.13,.3,1.7,.46,1,.28,2,.55,2.99,.84,.07,.02,.14,.04,.22,.06,1.43,.41,2.87,.82,4.3,1.23,1.51,.43,3.01,.88,4.52,1.32,.59,.17,1.18,.35,1.77,.52,1.81,.54,3.62,1.09,5.43,1.64,.78,.24,1.56,.48,2.34,.72,1.35,.42,2.7,.84,4.04,1.27,1.21,.38,2.41,.76,3.62,1.15,.03,0,.06,.02,.09,.03,1.94,.62,3.89,1.25,5.82,1.89,1.05,.35,2.11,.7,3.17,1.05s2.11,.71,3.16,1.06,2.11,.71,3.16,1.07c1.05,.36,2.1,.72,3.16,1.09,1.05,.36,2.1,.73,3.15,1.1,1.4,.49,2.8,1,4.2,1.51,.57,.21,1.15,.42,1.72,.63,.86,.32,1.72,.64,2.59,.97,.65,.25,1.31,.5,1.96,.75,.7,.27,1.39,.54,2.08,.8,.77,.3,1.54,.61,2.31,.91l1.23,.49c.41,.16,.82,.33,1.23,.49,1.64,.66,3.27,1.33,4.91,2,1.22,.51,2.45,1.02,3.66,1.54s2.44,1.04,3.66,1.55c1.62,.7,3.25,1.4,4.86,2.11s3.23,1.42,4.85,2.13c.71,.32,1.43,.64,2.14,.96,.34,.16,.69,.31,1.04,.47,.14,.06,.27,.12,.41,.18,.27,.12,.54,.25,.8,.37,.46,.21,.91,.42,1.37,.64,.25,.11,.5,.23,.74,.34,.15,.07,.3,.14,.45,.21,.35,.16,.7,.33,1.05,.5,.09,.04,.17,.08,.25,.12,.12,.06,.25,.12,.37,.18,1.15,.55,2.3,1.1,3.44,1.66,.66,.32,1.33,.65,1.99,.98,.7,.34,1.4,.7,2.1,1.04l.05,.02s.02,.01,.03,.02c1.26,.63,2.52,1.27,3.78,1.9,.66,.34,1.32,.67,1.98,1.01,.57,.29,1.14,.58,1.71,.88,.09,.05,.18,.09,.27,.14,1.15,.59,2.3,1.18,3.46,1.78,1.48,.76,2.96,1.53,4.44,2.29,1.76,.91,3.52,1.82,5.27,2.74,.92,.48,1.84,.96,2.75,1.45,.51,.27,1.01,.54,1.52,.8,.64,.34,1.28,.68,1.92,1.02,.08,.04,.16,.09,.24,.13,.66,.36,1.32,.71,1.98,1.07,.58,.31,1.15,.62,1.73,.94,.12,.07,.24,.13,.36,.2,1.27,.7,2.55,1.4,3.81,2.12,.33,.18,.65,.37,.98,.55,.02,.01,.05,.02,.07,.04,.68,.39,1.37,.78,2.05,1.17,.74,.43,1.49,.86,2.23,1.29,.32,.18,.63,.37,.95,.55,.65,.38,1.3,.77,1.95,1.16,.46,.27,.91,.55,1.36,.83,.02,.01,.04,.02,.05,.03,.33,.21,.66,.42,1,.63,.08,.05,.16,.1,.24,.15,.32,.2,.63,.41,.95,.62,.28,.18,.57,.37,.84,.56,.02,.01,.04,.03,.07,.04,.17,.11,.34,.23,.51,.34,.25,.17,.5,.34,.75,.51,.18,.12,.36,.25,.54,.37,.27,.18,.55,.38,.82,.57,.39,.27,.78,.54,1.16,.82,.77,.55,1.54,1.1,2.31,1.66,.77,.56,1.54,1.12,2.3,1.68s1.53,1.12,2.29,1.69c1.14,.85,2.29,1.69,3.43,2.53,1.52,1.11,3.05,2.23,4.57,3.34,4.86,3.54,9.73,7.05,14.6,10.59,1.21,.88,2.43,1.77,3.64,2.65,2.43,1.77,4.85,3.55,7.27,5.34,1.21,.89,2.41,1.79,3.62,2.69,.95,.71,1.91,1.42,2.86,2.14,1,.75,2.01,1.52,3.01,2.28,.92,.7,1.84,1.4,2.75,2.11,.77,.59,1.53,1.18,2.3,1.78,.54,.42,1.08,.84,1.62,1.26,.76,.59,1.52,1.19,2.27,1.79,.34,.27,.69,.55,1.03,.82,.17,.14,.33,.27,.5,.41,.17,.13,.33,.27,.5,.41,.33,.27,.66,.55,1,.84,.23,.19,.45,.39,.68,.58,.02,.02,.04,.04,.06,.05,.14,.11,.27,.23,.4,.35,.41,.36,.81,.71,1.22,1.08,.41,.36,.81,.72,1.21,1.09,.4,.37,.8,.73,1.2,1.11,.39,.37,.79,.74,1.18,1.11,1.05,1,2.09,2.01,3.13,3.02,1.46,1.43,2.9,2.88,4.34,4.32,.36,.35,.71,.7,1.06,1.06,.68,.68,1.36,1.36,2.04,2.04,.64,.64,1.28,1.27,1.92,1.91,.04,.04,.08,.07,.12,.11,.38,.38,.76,.75,1.14,1.12,.32,.32,.65,.64,.97,.95,.52,.51,1.05,1.01,1.57,1.51,5.45,5.17,11.19,10.05,16.39,15.45,6.15,6.38,12.05,13.03,17.73,19.84,7.11,8.53,14.12,17.16,20.72,26.08,7.59,10.27,15.16,20.61,21.89,31.46,11.18,18.04,22.43,36.1,32.24,54.89,8.73,16.71,15.77,34.32,23.12,51.71,3.13,7.41,5.06,15.32,7.68,22.95,7.39,21.55,13.18,43.53,17.01,65.99,1.96,11.49,3.86,23.01,5.29,34.58,1.41,11.43,2.36,22.91,3.23,34.39,.62,8.18,.96,16.4,1.07,24.61Z"/>
  <path class="cls-4" d="M1532.71,933.48c.46,1.24-.23,3.68-1.26,4.72-.05,.05-.11,.11-.16,.15-6.38,5.29-12.8,10.54-19.22,15.79-4.29,3.5-8.57,6.99-12.86,10.48-6.43,5.24-12.84,10.49-19.23,15.77-1.11,.92-2.21,1.84-3.32,2.76-.51,.42-1.02,.84-1.52,1.27-.54,.45-1.07,.9-1.61,1.35-6.43,5.41-12.81,10.88-19.21,16.31-.86,.73-1.71,1.45-2.56,2.17-2.57,2.17-5.14,4.33-7.73,6.48-1.72,1.43-3.45,2.86-5.19,4.27-6.98,5.7-14.09,11.23-21.41,16.43-.7,.5-1.39,.99-2.09,1.48-.35,.24-.7,.49-1.05,.73-.7,.48-1.41,.97-2.12,1.45-1.06,.72-2.12,1.43-3.19,2.13-.71,.47-1.43,.93-2.14,1.39-1.8,1.15-3.6,2.28-5.43,3.38-1.09,.66-2.2,1.32-3.3,1.96-1.47,.86-2.96,1.7-4.45,2.52-1.5,.82-3,1.62-4.52,2.41-.76,.39-1.52,.78-2.29,1.16-.76,.38-1.53,.76-2.3,1.13-.39,.19-.77,.37-1.16,.55-.77,.37-1.55,.73-2.33,1.08-.78,.36-1.57,.71-2.35,1.05-1.96,.86-3.95,1.69-5.96,2.48-.8,.32-1.61,.63-2.42,.93-.41,.15-.81,.3-1.22,.45-1.73,.63-3.5,1.23-5.29,1.78-.51,.16-1.02,.31-1.54,.46s-1.03,.29-1.55,.43-1.04,.27-1.56,.4c-.52,.13-1.05,.26-1.57,.38-1.31,.3-2.62,.57-3.94,.8-.66,.12-1.32,.22-1.98,.32s-1.32,.18-1.98,.26c-.23,.03-.46,.05-.69,.08-.4,.04-.8,.08-1.21,.12-.64,.06-1.29,.1-1.93,.14-.23,.02-.46,.03-.69,.04-.33,.02-.67,.03-1,.04-.58,.02-1.16,.02-1.75,.02-.44,0-.88,0-1.32-.02-.37,0-.74-.02-1.11-.03-.25,0-.51-.02-.76-.03-.27,0-.53-.02-.8-.04-.22-.01-.44-.03-.66-.04-.31-.02-.62-.04-.92-.07-.21-.02-.42-.03-.63-.05-.35-.03-.71-.06-1.06-.09-.48-.05-.96-.09-1.44-.15-.48-.05-.96-.11-1.44-.18s-.96-.13-1.43-.2c-.96-.14-1.92-.3-2.87-.47-.48-.08-.95-.17-1.42-.26-3.32-.64-6.61-1.44-9.87-2.34-.93-.25-1.86-.52-2.79-.79-.47-.14-.94-.28-1.4-.42-4.64-1.39-9.25-2.94-13.84-4.48,0,0,0,0,0,0-.46-.15-.92-.3-1.38-.46-1.45-.48-2.89-.98-4.34-1.47-1.45-.5-2.89-1-4.33-1.51-2.88-1.02-5.75-2.05-8.62-3.12-.82-.3-1.64-.61-2.45-.91-1.64-.61-3.27-1.23-4.9-1.86-4.89-1.88-9.75-3.82-14.59-5.82-13.66-5.63-27.07-11.89-40.52-18.03-14.65-6.69-29.35-13.3-43.8-20.4-1.1-.54-2.2-1.08-3.29-1.63-7.68-3.82-15.31-7.73-22.93-11.66-2.18-1.12-4.36-2.24-6.54-3.37-2.18-1.12-4.36-2.24-6.54-3.36s-4.36-2.23-6.55-3.34-4.37-2.21-6.56-3.31c-.71-.36-1.43-.71-2.15-1.07-1.44-.71-2.88-1.41-4.32-2.11-1.45-.7-2.89-1.39-4.34-2.08l-4.35-2.06c-2.9-1.37-5.8-2.74-8.7-4.11-1.45-.69-2.89-1.38-4.34-2.07-2.17-1.04-4.33-2.09-6.48-3.16-7.14-3.53-14.42-6.58-22.49-6.13-2.11,.12-4.2,.32-6.28,.6-1.38,.19-2.76,.41-4.13,.66-.34,.07-.68,.13-1.02,.2-.68,.14-1.36,.29-2.04,.44-1.02,.23-2.03,.48-3.03,.75-.34,.09-.67,.18-1.01,.27-2.34,.66-4.65,1.41-6.94,2.27-.32,.12-.65,.25-.98,.37-.98,.38-1.95,.78-2.91,1.19-.97,.41-1.93,.84-2.88,1.29-.32,.15-.64,.3-.95,.45-.57,.28-1.15,.55-1.72,.83-1.73,.83-3.46,1.66-5.18,2.49-.57,.28-1.15,.55-1.73,.83-1.72,.84-3.45,1.68-5.16,2.53-1.14,.57-2.28,1.15-3.42,1.73-2.13,1.09-4.24,2.21-6.33,3.38-.7,.39-1.39,.78-2.08,1.18-.55,.32-1.11,.64-1.65,.96-.86,.51-1.72,1.02-2.58,1.53-1.71,1.03-3.43,2.06-5.13,3.1s-3.41,2.09-5.11,3.14c-3.4,2.11-6.79,4.23-10.16,6.38-1.69,1.07-3.37,2.16-5.05,3.24-1.68,1.09-3.36,2.18-5.04,3.27-1.67,1.09-3.34,2.19-5.02,3.29-.83,.55-1.67,1.1-2.5,1.65-.94,.62-1.87,1.24-2.8,1.86-1.87,1.25-3.73,2.5-5.59,3.75-2.33,1.57-4.65,3.15-6.96,4.73-3.47,2.38-6.94,4.77-10.4,7.16-3.46,2.4-6.92,4.8-10.38,7.21-.92,.64-1.84,1.29-2.76,1.93-1.84,1.28-3.69,2.57-5.53,3.85-2.53,1.76-5.05,3.52-7.58,5.27-1.27,.88-2.53,1.75-3.8,2.62-1.27,.88-2.54,1.75-3.8,2.61-2.54,1.73-5.09,3.45-7.66,5.14-5.13,3.38-10.32,6.66-15.63,9.74-2.65,1.55-5.34,3.04-8.05,4.48-1.36,.72-2.72,1.43-4.1,2.12-1.38,.69-2.76,1.37-4.16,2.03-2.79,1.32-5.62,2.57-8.5,3.75-7.41,3.03-15.25,6.9-22.81,4.9-5.16-1.36-10.31-2.83-15.43-4.4-2.05-.62-4.09-1.27-6.13-1.93-3.06-.98-6.11-2.01-9.14-3.06-2.02-.7-4.04-1.42-6.05-2.15-1-.37-2.01-.73-3.01-1.11-2-.75-4-1.51-6-2.29-1-.39-1.99-.78-2.98-1.17-1.14-.45-2.28-.93-3.41-1.42-.75-.32-1.5-.66-2.25-1-.75-.34-1.49-.69-2.23-1.04-1.86-.88-3.7-1.8-5.52-2.75-.73-.38-1.46-.76-2.2-1.14-.36-.19-.73-.38-1.09-.57-.73-.39-1.46-.77-2.18-1.16-.73-.39-1.46-.78-2.18-1.17-2.18-1.17-4.36-2.34-6.56-3.49-.73-.38-1.46-.76-2.2-1.14-1.83-.94-3.68-1.86-5.53-2.75-5-2.39-10.03-4.72-15.08-7.02-2.52-1.15-5.05-2.29-7.58-3.42-5.9-2.64-11.82-5.26-17.74-7.87-2.35-1.04-4.69-2.09-7.03-3.14-1.41-.63-2.81-1.26-4.21-1.89-.47-.21-.94-.42-1.41-.63-.94-.42-1.88-.84-2.81-1.26-.94-.42-1.88-.84-2.81-1.26-.94-.42-1.88-.84-2.81-1.25-3.29-1.46-6.58-2.89-9.89-4.29-.95-.4-1.89-.79-2.84-1.19-.47-.2-.95-.39-1.42-.59-.95-.39-1.9-.77-2.85-1.16-2.38-.95-4.77-1.88-7.17-2.77-.64-.24-1.28-.47-1.92-.7-.16-.06-.32-.12-.48-.17-.62-.22-1.25-.44-1.88-.66-.54-.19-1.09-.37-1.63-.55-.39-.13-.78-.26-1.17-.39-.5-.16-1.01-.33-1.52-.48l-.36-.12c-.36-.11-.72-.23-1.09-.34-1.45-.45-2.91-.88-4.38-1.28s-2.94-.8-4.41-1.17c-.71-.18-1.42-.35-2.14-.52l-.14-.04c-.72-.17-1.44-.34-2.16-.5-1.08-.24-2.16-.47-3.24-.69-.52-.11-1.04-.21-1.57-.31-.56-.11-1.12-.21-1.68-.32-1.44-.26-2.89-.5-4.33-.73-.38-.06-.75-.11-1.13-.16-1.14-.15-2.29-.26-3.43-.34-1.16-.08-2.32-.12-3.48-.14-.68-.01-1.37-.01-2.05,0-.27,0-.54,0-.8,.02-.07,0-.15,0-.23,0-.26,0-.52,.01-.78,.02-.3,0-.6,.02-.91,.04-.3,.01-.61,.03-.91,.04-.61,.03-1.21,.07-1.82,.11-.3,.02-.61,.05-.91,.07-.76,.06-1.52,.13-2.28,.21-1.01,.1-2.02,.21-3.02,.34-1.38,.17-2.76,.36-4.12,.56-2.62,.38-5.21,.9-7.76,1.54-.73,.18-1.45,.38-2.18,.57-1.09,.3-2.16,.63-3.24,.97-.71,.23-1.43,.47-2.13,.71-3.19,1.11-6.32,2.4-9.4,3.83-1.38,.64-2.75,1.31-4.11,2.01-.54,.27-1.07,.55-1.59,.83-.59,.32-1.18,.63-1.77,.96-.53,.29-1.06,.58-1.59,.88-2.3,1.3-4.61,2.59-6.93,3.87-1.54,.86-3.09,1.71-4.63,2.57-.77,.43-1.54,.86-2.31,1.29-1.54,.86-3.08,1.73-4.61,2.61-.77,.44-1.53,.88-2.29,1.32-.76,.45-1.52,.89-2.28,1.34-.38,.23-.76,.45-1.13,.68-1.89,1.14-3.75,2.3-5.6,3.49-2.21,1.43-4.39,2.91-6.53,4.45-1.12,.81-2.24,1.62-3.36,2.44-.2,.15-.4,.29-.6,.44-.98,.72-1.96,1.45-2.94,2.18-1.39,1.04-2.78,2.07-4.16,3.12-.89,.68-1.79,1.36-2.68,2.04-1.13,.87-2.27,1.73-3.39,2.61-1.13,.87-2.26,1.75-3.38,2.62-1.12,.88-2.25,1.76-3.37,2.64-1.12,.88-2.24,1.77-3.36,2.65s-2.24,1.77-3.36,2.66c-4.05,3.22-8.09,6.45-12.13,9.68-1.08,.87-2.17,1.73-3.25,2.59-1.08,.87-2.17,1.73-3.25,2.59-.96,.77-1.93,1.54-2.9,2.3-.12,.09-.24,.19-.36,.28,.08-1.64,.2-3.28,.33-4.92h0c.16-.2,.3-.41,.45-.62,.43-.65,.44-1.6,.54-2.43,.73-5.63,1.45-11.26,2.12-16.89,.1-.85-.13-1.74-.1-2.61,.15-4,.03-8.04,.59-11.98,.52-3.64,2.09-7.13,2.66-10.77,1.16-7.52,1.55-15.17,3.02-22.61,1.8-9.11,4.39-18.07,6.64-27.09,1.77-7.09,3.27-14.25,5.39-21.23,3.54-11.66,7.06-23.36,11.36-34.75,4.23-11.2,9.32-22.09,14.2-33.04,4.49-10.05,8.64-20.32,13.95-29.93,12.52-22.63,25.21-45.21,41.5-65.46,13.85-17.23,27-35.13,42.07-51.23,4.34-4.64,8.8-9.16,13.35-13.61,1.52-1.48,3.04-2.95,4.58-4.42,.51-.49,1.02-.97,1.54-1.46,1.03-.97,2.06-1.94,3.09-2.91s2.07-1.93,3.11-2.89c1.04-.96,2.09-1.91,3.13-2.87,1.57-1.43,3.14-2.85,4.73-4.27,5.27-4.73,10.59-9.39,15.93-14.03,.6-.52,1.21-1.05,1.82-1.56,.88-.76,1.77-1.51,2.67-2.25,.25-.21,.5-.42,.75-.62,1.37-1.14,2.75-2.26,4.14-3.38,1.59-1.27,3.19-2.54,4.8-3.78,4.83-3.75,9.75-7.39,14.71-10.97,3.31-2.39,6.63-4.76,9.95-7.12,22.48-15.97,46.29-29.77,71.35-41.35l1.88-.87c1.25-.58,2.49-1.16,3.74-1.75s2.49-1.18,3.73-1.76c.62-.29,1.25-.59,1.87-.88,1.25-.59,2.49-1.18,3.74-1.76,3.11-1.46,6.23-2.91,9.37-4.34,1.88-.85,3.77-1.69,5.66-2.52,1.24-.54,2.49-1.06,3.75-1.57,.84-.34,1.68-.67,2.52-1s1.69-.65,2.54-.96c2.96-1.11,5.95-2.16,8.95-3.17,.86-.29,1.71-.58,2.57-.86,.84-.28,1.68-.56,2.52-.84,1.68-.56,3.36-1.12,5.04-1.68s3.36-1.12,5.04-1.68c1.68-.56,3.36-1.12,5.05-1.67,.84-.27,1.68-.55,2.53-.82,1.68-.55,3.37-1.09,5.06-1.62,5.07-1.61,10.15-3.14,15.27-4.54,.93-.25,1.86-.51,2.8-.76,1.87-.5,3.74-.99,5.61-1.46,1.87-.48,3.75-.95,5.62-1.4,.94-.23,1.88-.46,2.82-.68,1.88-.45,3.76-.89,5.65-1.33,1.88-.44,3.77-.87,5.65-1.3,1.89-.43,3.78-.85,5.66-1.27,3.77-.84,7.55-1.68,11.33-2.52,1.23-.27,2.47-.53,3.71-.77,1.24-.25,2.49-.48,3.73-.69,.83-.14,1.67-.28,2.5-.41s1.67-.26,2.5-.38c.72-.1,1.44-.2,2.16-.3,.54-.07,1.07-.14,1.6-.2,1.26-.15,2.52-.29,3.77-.42,.89-.09,1.78-.17,2.67-.23,.89-.07,1.79-.13,2.68-.18,1.34-.08,2.68-.14,4.02-.2,.89-.04,1.79-.07,2.68-.11,1.34-.05,2.68-.11,4.02-.18,.89-.04,1.79-.09,2.68-.14,.89-.06,1.79-.12,2.68-.19,.1,0,.2-.02,.3-.04,.16-.02,.32-.05,.48-.09,.18-.04,.35-.1,.52-.15,.18-.06,.35-.12,.52-.19l.26-.11,.56-.25,.75-.34c.88-.39,1.75-.74,2.65-.8,1.79-.11,3.57-.21,5.35-.3,.77-.04,1.53-.08,2.3-.12,.77-.04,1.53-.08,2.3-.11s1.53-.07,2.29-.11c4.08-.19,8.16-.36,12.25-.52,2.72-.11,5.45-.23,8.16-.35,.17,0,.35-.03,.52-.06,.56-.09,1.12-.25,1.68-.22,8.2,.33,16.46,2.55,24.49-1.39,.25-.12,.51-.2,.79-.25,.04,0,.09-.02,.13-.02,.06,0,.13-.02,.2-.02,.09,0,.18-.02,.28-.02s.19,0,.29,0c.43,0,.87,.04,1.31,.1s.89,.14,1.33,.23c.29,.05,.57,.11,.85,.16,.61,.11,1.21,.27,1.81,.44,.3,.09,.6,.18,.9,.27,.3,.09,.6,.18,.9,.28,.15,.05,.3,.09,.45,.13,.6,.18,1.2,.34,1.8,.46,.45,.09,.91,.17,1.36,.21,.39,.04,.79,.07,1.18,.1,.79,.06,1.58,.12,2.36,.18,.79,.05,1.58,.11,2.37,.16,1.08,.07,2.17,.13,3.25,.19,1.36,.07,2.71,.14,4.07,.21,.95,.05,1.9,.09,2.85,.14,.95,.05,1.9,.1,2.85,.15,2.43,.14,4.88,.2,7.3,.47,3.89,.43,7.73,.55,11.69,.41,.12,0,.23,0,.35,0,1.84,0,3.68,.47,5.54,1.05,.07,.02,.14,.05,.21,.07,.82,.27,1.65,.55,2.48,.83,1.66,.55,3.32,1.07,5.01,1.32,.37,.05,.73,.1,1.1,.14,.36,.04,.73,.08,1.1,.11s.73,.06,1.11,.09c.37,.03,.73,.05,1.11,.07s.74,.04,1.11,.05c1.85,.08,3.71,.12,5.55,.2,.37,.02,.74,.04,1.11,.05,1.84,.1,3.68,.26,5.48,.58,2.29,.4,4.57,.8,6.86,1.2,1.53,.27,3.05,.54,4.57,.82s3.04,.57,4.56,.86c4.56,.88,9.11,1.82,13.62,2.9,1.5,.36,3,.73,4.5,1.12,.75,.2,1.49,.39,2.24,.6,3.22,.88,6.43,1.79,9.64,2.72,2.14,.62,4.27,1.25,6.4,1.89,2.13,.64,4.26,1.29,6.39,1.95,9.57,2.96,19.1,6.06,28.62,9.18,2.46,.8,4.91,1.63,7.35,2.49,1.22,.43,2.44,.86,3.66,1.3,1.21,.44,2.43,.89,3.64,1.34,1.82,.68,3.63,1.38,5.43,2.1,2.41,.95,4.8,1.94,7.17,2.96,.59,.25,1.19,.51,1.78,.77,3.34,1.46,6.64,3.01,9.93,4.6,1.97,.95,3.93,1.92,5.89,2.9,5.23,2.61,10.43,5.27,15.67,7.86,3.74,1.86,7.53,3.63,11.3,5.45,1.61,.78,3.22,1.57,4.82,2.37,1.07,.54,2.13,1.08,3.18,1.63,2.11,1.11,4.2,2.25,6.25,3.46,1.7,1,3.4,2.02,5.1,3.03,2.55,1.52,5.09,3.06,7.62,4.61,1.69,1.03,3.37,2.07,5.05,3.11,1.68,1.05,3.36,2.1,5.03,3.15,.84,.53,1.67,1.06,2.5,1.59,1.67,1.06,3.33,2.13,4.99,3.21,3.32,2.16,6.61,4.34,9.89,6.56,10.49,7.11,20.48,15,30.42,22.88,3.38,2.68,6.68,5.44,9.95,8.24,.94,.8,1.87,1.61,2.8,2.41,1.39,1.21,2.79,2.43,4.17,3.65,1.85,1.62,3.69,3.26,5.54,4.88,3.82,3.36,7.68,6.69,11.52,10.04,.61,.53,1.21,1.06,1.82,1.59,2.02,1.77,4.03,3.54,6.02,5.34,1.91,1.72,3.8,3.46,5.67,5.23,1.24,1.18,2.48,2.37,3.69,3.57,.61,.6,1.21,1.21,1.82,1.82,8.57,8.69,16.16,18.39,23.84,27.92,10.37,12.87,21.29,25.43,30.38,39.16,13.81,20.87,27.89,41.63,38.38,64.55,6.09,13.3,14.13,25.59,18.57,39.79,3.96,12.66,9.7,24.76,14.38,37.21Z"/>
</svg>