<?xml version="1.0" encoding="UTF-8"?>
<svg id="Calque_vectoriel" data-name="Calque vectoriel" xmlns="http://www.w3.org/2000/svg" viewBox="0 0 1014.25 1540.14">
  <defs>
    <style>
      .cls-1 {
        fill: #ff00db;
      }

      .cls-2 {
        fill: #0c00ff;
      }
    </style>
  </defs>
  <path d="M0,0c0,2.57,0,5.14,0,7.71,0,.01-.01,.03-.02,.04C0,5.17,0,2.58,0,0Z"/>
  <path d="M430.71,967.64c.28-.16,.57-.31,.85-.47,.05,0,.11-.01,.16-.02-.35,.21-.69,.42-1.04,.64,.01-.05,.02-.1,.03-.15Z"/>
  <path d="M439.41,926.67c.25-.14,.5-.28,.74-.42-.26,.18-.51,.35-.77,.53,0-.04,.02-.07,.02-.11Z"/>
  <path class="cls-1" d="M182.7,514.14c-.11-.04-.22-.09-.32-.13,0,.07-.02,.12-.03,.19,.11-.02,.23-.04,.35-.05Zm244.06-57.03c1.8-12.82-2.41-23.04-10.08-32.07-8.42-9.91-19.86-13.2-32.8-12.05-9.08,.8-16.88,3.75-23.75,9.94-8.04,7.25-10.95,16.59-12.61,27.85,1.22,6.25,1.61,12.82,3.86,18.68,3.7,9.64,10.89,16.38,20.82,19.94,16.39,5.89,30.8,3.11,43.12-8.05,6.9-6.25,10.07-14.53,11.44-24.24Zm340.48,940.79c-.9-1.07-1.58-2.56-2.72-3.14-14.33-7.36-29.59-11.69-45.64-12.75-13.07-.87-25.83,1.48-38.94,5.73-5.14,2.04-10.31,4-15.36,6.24-.61,.27-.57,2.03-.83,3.09,.93,.2,2.09,.85,2.76,.52,11.52-5.69,23.53-9.64,36.46-9.78,4.14-.04,8.33-.18,12.5-.18,5.49,0,10.95,.23,16.26,1.19,10.68,1.93,20.92,6.19,31.39,9.29,1.24,.37,2.74-.12,4.12-.21Zm31.63-936.68c-.04-6.62,1.3-13.61-.38-19.78-4.73-17.31-21.84-30.2-39.07-29.33-12.41,.62-23.63,4.78-31.66,15.63-10.39,14.03-9.8,32.77-1.26,46.82,9.28,15.25,24.12,19.55,40.68,17.14,9.05-1.31,17.76-5.37,23.05-13.8,3.15-5.01,5.79-10.34,8.65-16.69Zm10.59,712.49c1.37-4.13,3.38-8.26,3.14-11.89-.98,3.98-2.03,7.95-3.14,11.89Zm99.79-868.95c.2-.21,.4-.42,.6-.6-.3-.09-.62-.2-.93-.32,.11,.31,.23,.61,.33,.93Zm89.79,771.2c6.43-1.54,8-7.02,6.99-12.98-.96-7.63-3.14-14.98-6.34-21.96-4.73-11.37-9.56-22.7-15.22-33.64-7.18-14.03-15.55-27.39-23.98-40.7-17.03-27.98-31.71-57.38-51.25-83.77-23.32-33.36-49.62-64.46-73.11-97.69-3.98-5.53-7.95-11.07-11.92-16.6-.28-.23-.54-.51-.78-.85-11.34-15.27-21.61-31.31-33.06-46.49-22.43-29.99-55.63-48.57-86.32-68.93-12,3.6-24.35,6.2-36.61,8.93-14.06,3.12-28.22,7.1-42.46,7.7-11.01,.46-13.54,5.88-17.1,14.22-11.01,25.75-30.55,42.39-58.23,47.62-32.94,6.22-60.32-4.23-80.57-31.15-5.22-6.93-8.51-15.36-12.43-23.22-1.93-3.87-4.2-6.39-8.87-7.07-13.97-2.03-28-3.94-41.76-7-18.13-4.04-36.27-8.36-53.95-13.97-.08-.02-.16-.05-.24-.07-.7,.25-1.41,.48-2.06,.83-2.72,1.03-5.48,1.94-8.26,2.75t0,0c-1.11,.46-2.2,1.08-3.36,1.29l-4.73,.83c-8.96,2.08-18.11,3.44-27.26,4.77-.02,0-.04,0-.06,0-9.33,1.62-18.67,3.25-28,4.86-15.7,2.72-31.46,5.09-47.08,8.21-15.73,3.14-31.38,6.69-47.05,10.16-26.86,7.21-53.9,14.23-80.68,21.18-15.09,4.11-29.94,8.96-44.84,13.68-6.68,2.37-21.45,6.51-32.73,12.17-2.27,1.33-4.5,2.75-6.68,4.29-2.46,1.73-4.74,3.88-6.72,6.19-.66,1.16-1.07,2.35-1.18,3.58,9.07,12.81,34.38,16.1,48.71,20.64,33.04,9.46,66.82,16.05,100.96,18.66,15.71,1.06,31.48,1.19,47.16,2.66,18.18,1.59,36.16,6.42,54.44,6.44,1.21-5.48,9.1-5.05,8.23,.61,.92,.67,1.56,1.72,1.64,2.93,.05,2.9-1.83,3.93-4.14,4.28-1.25,3.43-2.48,6.86-3.63,10.31-15.26,49.55-23.33,101.51-24.63,153.52,.46,.66,.9,1.34,1.21,2.04,.26,.61-.46,1.64-.73,2.47-.2-.07-.4-.13-.58-.18-.41,23.29,.53,46.58,2.78,69.65,3.61,29,7.96,57.92,12.77,86.75,3.17,18.57,6.49,37.12,9.82,55.66,1.76,7,3.64,13.96,5.63,20.89,.45,.7,.91,1.39,1.37,2.08,12.95,19.42,30.8,32.66,53.78,37.47,15.48,3.24,31.32,4.11,47.19,1.59,7.73-1.23,15.64-1.3,23.38-2.47,13.77-2.07,27.48-4.57,41.21-6.89,.29-.05,.58-.1,.87-.16,3.07-2.12,6.27-3.88,9.59-5.34,.32-.75,.68-1.4,1.22-1.62,2.48-1.05,5.52-2.38,7.88-1.8,.14,.04,.27,.07,.41,.09,6.64-1.81,13.57-2.75,20.59-3.27,8.62-.88,17.27-1.5,25.92-2.04,.37-.04,.74-.08,1.11-.12,4.19-.39,8.39-.77,12.6-1.11,.36-.32,.7-.82,.77-.78,.33,.25,.66,.46,.99,.64,4-.32,8-.62,12-.87,1.44-.34,2.88-.5,4.34-.26,23-1.27,46.07-1.02,68.77,3.33,7.33,1.48,15.16,2.05,21.74,5.88,4.06,2.95,7.86,6.22,11.58,9.6,12.23,2.23,24.46,4.43,36.79,5.74,16.4,1.73,33.06,3.16,49.46,2.2,23.61-1.39,45.23-9.34,61.39-27.82,.43-.49,.86-.99,1.28-1.48,.21-.48,.43-.93,.61-1.35,6.01-14.48,11.3-29.3,15.39-44.3,15.9-66.61,23.32-134.87,26.41-203.17-2.69-2.68-3.51-6.81,.34-8,.34-8.3,.61-16.59,.83-24.88-1-5.96,8.1-7.13,7.95-.77-.15,10.21-.44,20.44-.87,30.68,3.33,3.41,6.9,6.61,10.3,9.96,13.6,13.02,26.32,26.52,40.59,38.63,2.77,2.18,5.55,4.35,8.35,6.48,1.26,.96,2.52,1.92,3.79,2.88,10.95,7.73,22.42,14.73,33.32,22.55,15.37,10.77,30.71,21.86,48.24,28.89,5.45,2.14,10.98,4.52,16.8,5.32Zm8.43-36.93c3.63,8.88,9.3,24.28,5.54,34.5-.96,4.5-3.42,7.25-7.23,8.22-3.51,2.02-7.64,2.88-11.55,1.42-28.14-7.38-51.29-25.71-74.88-41.87-13.44-9.07-27.43-17.48-39.52-28.37-14.5-13.4-28.6-27.28-42.66-41.13-.41,8.18-.91,16.36-1.5,24.54,.21,8.69-1.33,17.59-1.87,26.37-.08,1.34-.05,2.68-.12,4.02-.77,15.14-.62,30.41-2.51,45.41-3.47,27.55-6.54,55.21-14.69,82-1.76,5.8-.58,12.43-1.45,18.59-1.64,11.61-3.88,23.14-5.69,34.73-1.68,10.75-2.9,21.57-4.73,32.29-2.36,13.85-5.03,27.66-7.73,41.45-2.72,13.93-5.21,27.93-8.56,41.71-5.28,21.73-11.12,43.32-16.88,64.92-1.5,5.61-1.95,9.07,4.64,13.04,21.66,13.06,38.06,31.57,49.04,54.45,5.75,11.97,8.96,24.77,8.53,38.21-.47,14.67-13.46,30.24-29.07,35.83-12.11,4.33-24.55,6.46-37.24,8.18-15.01,2.04-30.05,2.6-45.09,2.6s-29.64-.55-44.44-.77c-17.65-.27-35.53-2.43-52.43-8.89-14.62-5.6-26.78-13.33-31.13-29.86-2.54-9.66-1.47-18.91,1.01-28.14,7.56-28.12,24.68-49.46,47.8-66.4,3.23-2.37,6.58-4.59,9.98-6.71,3.05-1.91,3.77-4.55,2.88-7.79-5.3-19.26-11.12-38.39-15.84-57.8-4.17-17.14-7.27-34.55-10.58-51.89-2.91-15.27-5.44-30.62-8.17-45.93-1.18-6.62-7.08-6.36-11.55-7.04-15.19-2.32-30.43-4.45-45.73-5.79-1.23-.11-2.46-.19-3.69-.25-.8,0-1.6,0-2.41,.02-5.25,.21-11.68,.42-18.85,.73-.52,.33-1.15,.54-1.91,.61-12.08,.69-24.16,1.28-36.22,2.09-20.04,2.16-40.3,5.87-54.81,12.59-2.61,13.97-5.32,27.92-8.19,41.84-3.22,15.65-6.37,31.33-10.13,46.86-5.23,21.57-11.09,42.98-16.43,64.52-.97,3.9-2.02,4.09-5.63,2.7-11.02-4.23-22.02-9.11-33.5-11.39-12.03-2.39-24.6-2.83-36.84,.66-8.84,2.51-17.8,4.62-26.61,7.23-1.99,.59-3.57,2.54-5.35,3.87,.77,.82,1.45,1.76,2.34,2.41,.46,.34,1.48,.5,1.92,.22,14.04-8.92,30.29-9.8,46.02-11.99,5.75-.8,12.02,1.05,17.9,2.38,8.07,1.82,16.02,4.19,23.96,6.54,2.37,.7,4.53,2.12,6.79,3.21,.97,.46,2.2,1.55,2.88,1.27,9.3-3.84,15.09,3.35,20.79,7.71,16.41,12.59,29.95,27.93,39.09,46.78,6.55,13.52,10.3,27.71,8.7,42.75-1.29,12.16-8.61,20.86-18.74,27.88-11.46,4.12-22.54,8.32-33.86,11.62-5.79,1.69-12.03,2.36-18.09,2.49-27.1,.61-54.22,1.57-81.31,1.02-19.1-.39-38.3-2.47-56.46-9.14-15.62-5.74-28.59-15.27-31.08-32.86-1.24-8.78,.12-18.43,2.41-27.12,5.88-22.32,19.09-40.45,35.98-55.75,6.89-6.24,15.15-10.94,22.66-16.52,1.12-.83,2.39-2.86,2.11-3.95-5.01-19.16-10.57-38.2-15.35-57.42-3.81-15.33-6.81-30.86-10.03-46.33-3.19-15.33-6.42-30.66-9.23-46.05-1.92-10.5-3.06-21.15-4.74-31.71-2.19-13.76-4.68-27.48-6.8-41.25-.79-5.18-.71-10.5-1.35-15.71-.51-4.16-1.48-8.26-2.27-12.39-2.31-12-4.96-23.94-6.88-36-2.29-14.42-4.1-28.92-5.82-43.42-.78-6.63-.95-13.34-1.2-20.02-.3-7.97-.57-15.94-.81-23.91-.19-2.23-.38-4.45-.55-6.68-.46-11.39-.68-22.83-.63-34.28v-.02c-.14-5.96-.25-11.92-.27-17.88-.04-10.67-.02-21.42,1.24-31.99,.89-7.48,2-14.93,3.17-22.38,4.18-36.5,11.76-72.55,23.72-107.22-5.65-.16-11.29-.76-16.9-1.48-40.34-7.94-81.71-5.12-122.12-12.39-21.56-3.68-43.66-8.35-64.51-14.58-14.18-3.93-29-6.9-41.92-14.23-21.13-12.96-8.59-26.75,8.39-34.97,20.85-9.78,43.36-15.38,65.2-22.48,22.86-6.9,46.2-11.95,69.21-18.27,11.86-3.28,23.01-6.5,34.87-9.37,48.19-12.45,98-16.67,146.56-27.07,.38-.11,.75-.21,1.12-.33-19.23-6.61-38.04-14.45-55.51-24.91-17.19-10.3-33.61-21.96-49.79-33.82-8.82-6.47-16.96-14.11-24.47-22.09-13.93-14.8-26.11-31.03-36.22-48.74-11.93-20.88-19.91-43.34-25.45-66.57-2.77-11.64-3.84-23.77-4.71-35.74-1-13.52-1.83-27.18-1.05-40.68,.82-14.34,3.05-28.68,5.71-42.83,2.79-14.93,6.2-29.8,10.48-44.37,3.26-11.1,8.25-21.69,12.58-32.47,8.6-21.45,20.05-41.44,32.64-60.68,8.17-12.49,17.41-24.39,27.15-35.72,11.44-13.32,23.41-26.27,36.07-38.41,19.53-18.72,40.97-35.18,64.44-48.75,14.45-8.36,29-16.7,44.09-23.8,19.45-9.15,39.64-16.66,60.68-21.51,13.78-3.18,27.52-6.63,41.43-9.14,8.81-1.6,17.88-2.02,26.86-2.41,15.11-.64,30.27-1.76,45.33-.98,16.08,.83,32.05,3.62,48.07,5.55,22.95,2.77,44.82,9.66,66.45,17.43,23.86,8.57,46.88,19.05,68.11,32.95,16.98,11.12,33.91,22.45,49.84,34.98,12.7,9.98,23.86,21.92,35.99,33.28,4.94,5.71,9.88,10.91,14.18,16.6,12.53,16.61,25.62,32.87,36.95,50.27,14.2,21.81,25.91,45.09,33.82,70.04,5.21,16.42,10.73,32.79,14.89,49.48,2.75,11.05,3.77,22.6,4.76,34,1.24,14.33,2.82,28.79,2.12,43.1-.79,16.35-2.64,32.68-6.28,48.86-4.88,21.75-11.79,42.68-22.64,61.98-8.02,14.25-17.35,27.92-27.46,40.78-8.6,10.93-18.61,20.91-28.95,30.25-17.16,15.51-36.42,28.21-56.7,39.4-22.11,12.2-45.49,21.45-69.27,29.55,7.07,4.73,14.26,9.3,21.39,13.96,11.1,6,21.38,13.3,30.96,21.67,.95,.82,2.12,1.38,3.48,2.35,2.75,2.67,5.43,5.37,8.06,8.1,8.05,7.68,15.38,16.12,22.04,25.06,4.29,5.32,8.45,10.75,12.5,16.28,21.47,29.27,43.58,58.08,65.04,87.36,5.63,7.68,10.86,15.66,16.06,23.66,5.98,7.88,11.86,15.82,17.55,23.9,19.39,25.61,35.31,54.29,51.02,82.1,17.34,27.29,34.06,55.05,45.61,85.38Z"/>
  <path class="cls-2" d="M430.68,967.79c.35-.21,.7-.43,1.04-.64-.05,0-.11,0-.16,.02-.28,.16-.57,.31-.85,.46,0,.05-.02,.1-.03,.16Zm8.71-41.02c.25-.17,.51-.35,.77-.52-.25,.14-.5,.28-.74,.41,0,.04-.02,.07-.02,.11Zm566.64,136.21c1,5.96-.56,11.44-6.99,12.98-5.82-.8-11.35-3.18-16.8-5.32-17.53-7.04-32.87-18.13-48.24-28.89-10.89-7.82-22.36-14.82-33.32-22.55-1.27-.96-2.53-1.92-3.79-2.88-2.8-2.13-5.59-4.3-8.35-6.48-14.27-12.11-26.99-25.61-40.59-38.63-3.39-3.36-6.96-6.55-10.3-9.96,.43-10.24,.72-20.47,.87-30.68,.15-6.36-8.94-5.19-7.95,.77-.22,8.29-.49,16.59-.83,24.88-3.85,1.2-3.03,5.32-.34,8-3.08,68.3-10.5,136.56-26.41,203.17-4.08,15-9.38,29.82-15.39,44.3-.18,.41-.4,.87-.61,1.35-.42,.5-.85,.99-1.28,1.48-16.16,18.48-37.79,26.43-61.39,27.82-16.4,.97-33.06-.46-49.46-2.2-12.33-1.3-24.56-3.5-36.79-5.74-3.72-3.38-7.52-6.65-11.58-9.6-6.58-3.82-14.41-4.39-21.74-5.88-22.7-4.35-45.77-4.61-68.77-3.33-1.46-.25-2.9-.08-4.34,.26-4,.25-8,.55-12,.87-.33-.18-.66-.39-.99-.64-.06-.04-.41,.46-.77,.78-4.21,.35-8.41,.72-12.6,1.11-.37,.04-.74,.08-1.11,.12-8.65,.53-17.3,1.16-25.92,2.04-7.02,.52-13.95,1.46-20.59,3.27-.13-.03-.27-.06-.41-.09-2.37-.58-5.4,.75-7.88,1.8-.54,.23-.9,.88-1.22,1.62-3.32,1.45-6.52,3.21-9.59,5.34-.29,.05-.58,.11-.87,.16-13.73,2.32-27.44,4.82-41.21,6.89-7.74,1.16-15.65,1.24-23.38,2.47-15.87,2.52-31.71,1.65-47.19-1.59-22.98-4.81-40.83-18.05-53.78-37.47-.46-.69-.92-1.38-1.37-2.08-2-6.93-3.87-13.89-5.63-20.89-3.33-18.54-6.65-37.09-9.82-55.66-4.81-28.83-9.16-57.75-12.77-86.75-2.25-23.07-3.2-46.36-2.78-69.65,.18,.05,.38,.11,.58,.18,.27-.84,.99-1.87,.73-2.47-.3-.7-.75-1.38-1.21-2.04,1.3-52.01,9.37-103.97,24.63-153.52,1.16-3.45,2.39-6.88,3.63-10.31,2.31-.35,4.19-1.38,4.14-4.28-.09-1.21-.72-2.26-1.64-2.93,.87-5.66-7.02-6.09-8.23-.61-18.28-.02-36.26-4.85-54.44-6.44-15.68-1.47-31.45-1.59-47.16-2.66-34.14-2.61-67.92-9.2-100.96-18.66-14.34-4.54-39.64-7.84-48.71-20.64,.11-1.23,.52-2.43,1.18-3.58,1.98-2.31,4.25-4.46,6.72-6.19,2.18-1.54,4.41-2.96,6.68-4.29,11.28-5.66,26.06-9.8,32.73-12.17,14.9-4.72,29.76-9.57,44.84-13.68,26.78-6.95,53.82-13.96,80.68-21.18,15.66-3.47,31.31-7.02,47.05-10.16,15.62-3.12,31.38-5.49,47.08-8.21,9.33-1.62,18.67-3.24,28-4.86,.02,0,.04,0,.06,0,9.14-1.33,18.3-2.69,27.26-4.77l4.73-.83c1.16-.2,2.24-.82,3.36-1.29t0,0c2.78-.82,5.54-1.73,8.26-2.75,.65-.35,1.36-.58,2.06-.83,.08,.02,.16,.05,.24,.07,17.69,5.61,35.82,9.93,53.95,13.97,13.76,3.07,27.79,4.97,41.76,7,4.68,.68,6.95,3.2,8.87,7.07,3.92,7.86,7.21,16.29,12.43,23.22,20.25,26.92,47.63,37.38,80.57,31.15,27.68-5.23,47.22-21.88,58.23-47.62,3.57-8.34,6.09-13.76,17.1-14.22,14.24-.6,28.4-4.57,42.46-7.7,12.25-2.72,24.6-5.33,36.61-8.93,30.69,20.36,63.89,38.94,86.32,68.93,11.45,15.18,21.72,31.22,33.06,46.49,.24,.34,.5,.62,.78,.85,3.98,5.53,7.94,11.07,11.92,16.6,23.49,33.22,49.79,64.33,73.11,97.69,19.53,26.39,34.22,55.79,51.25,83.77,8.43,13.3,16.79,26.66,23.98,40.7,5.66,10.94,10.48,22.28,15.22,33.64,3.21,6.98,5.38,14.33,6.34,21.96Z"/>
  <path class="cls-2" d="M421.82,442.63c6.76,20.45-9.16,41.54-28.29,45.04-20.74,3.79-40.87-11.85-42.24-32.61-1.31-19.84,12.66-37.3,34.08-38.38,4.36-.22,8.79,1.04,13.48,1.91,12.55,3.72,19.12,12.46,22.96,24.05Z"/>
  <path class="cls-2" d="M794.43,444.77c4.77,20.5-8.95,39.32-30,43.5-4.85,.96-10.28-.93-15.73-1.8-13.16-3.9-20.68-12.89-23.98-25.27-5.52-20.71,8.18-40.84,28.73-44.39,18.9-3.26,36.39,8.19,40.98,27.96Z"/>
</svg>