<?xml version="1.0" encoding="UTF-8"?>
<svg id="Calque_vectoriel" data-name="Calque vectoriel" xmlns="http://www.w3.org/2000/svg" viewBox="0 0 1130.5 1125.24">
  <defs>
    <style>
      .cls-1 {
        fill: #0013ff;
      }

      .cls-2 {
        fill: #ff00d0;
      }
    </style>
  </defs>
  <path d="M180.89,862.11h0s.05,.09,.08,.14c-.03-.05-.05-.09-.08-.14Z"/>
  <path d="M819.91,1060.78c-.05,.03-.11,.06-.17,.09,.06-.03,.11-.06,.17-.09Z"/>
  <path d="M247.77,1001.01s.03,0,.05,0c.07,0,.13,.02,.2,.03-.08-.01-.17-.02-.25-.03Z"/>
  <path d="M197.8,925.66c0-.07-.01-.14-.02-.21,0,0,0,0,0,0,0,.01,0,.03,0,.04,0,.06,0,.12,.01,.18,0,.02,0,.03,0,.05,0-.02,0-.03,0-.05Z"/>
  <path d="M197.59,922.94c0,.05,0,.1,.01,.15,0,.04,0,.08,0,.12,0-.09-.01-.18-.02-.27Z"/>
  <path d="M197.57,922.8s0,.06,0,.09c0,.02,0,.04,0,.06,0-.05,0-.1-.01-.14Z"/>
  <path d="M196.87,877.62v.12s0,0,0,.01c0,.16,0,.33,0,.49,0-.21,0-.42,0-.63Z"/>
  <path d="M196.88,876.89s0-.01,0-.02c0,.03,0,.07,0,.1h0v-.08Z"/>
  <path d="M587.15,1124.46c-.07,0-.14,0-.21,.01,.07,0,.14-.01,.21-.01Z"/>
  <path d="M587.57,1124.43s.08,0,.12,0c-.04,0-.08,0-.12,0,0,0,0,0,0,0Z"/>
  <path d="M820.04,1060.71s-.08,.05-.13,.07c.04-.02,.09-.05,.13-.07Z"/>
  <path d="M247.86,1001.02c.17,.02,.33,.04,.5,.06-.17-.02-.34-.04-.5-.06Z"/>
  <path d="M227.01,996.62c-.05-.02-.11-.04-.17-.05,.06,.02,.13,.04,.19,.06,0,0-.02,0-.02,0Z"/>
  <path d="M594.53,1124.01c-.22,.02-.44,.03-.66,.04,.22-.02,.44-.03,.66-.04Z"/>
  <path d="M814.25,1063.76s-.05,.03-.08,.05c-.1,.05-.21,.1-.31,.15,.13-.07,.26-.13,.39-.2Z"/>
  <path d="M160.49,993.24c.14,.13,.28,.27,.43,.4-.14-.13-.28-.27-.43-.4Z"/>
  <path d="M156.23,989.18s-.07-.06-.1-.1c.05,.05,.11,.11,.17,.16-.02-.02-.05-.04-.07-.06Z"/>
  <path d="M166.92,978.63s0,0,.01,0c.05,.05,.1,.09,.15,.14-.05-.05-.1-.1-.16-.15Z"/>
  <path d="M315.14,70.17c-.07,0-.15,.02-.22,.03,.07,0,.15-.02,.22-.03Z"/>
  <path d="M533.11,67.29s.08,0,.12,.01c.12,.01,.23,.03,.35,.04,.02,0,.05,0,.07,0-.18-.02-.36-.04-.53-.06Z"/>
  <path d="M815.06,122.78s.02,.01,.03,.02c.04,.03,.08,.05,.13,.08-.05-.03-.1-.07-.16-.1Z"/>
  <path d="M1048.96,544.83c0,.09,.01,.18,.02,.27,0-.09-.02-.18-.02-.27Z"/>
  <path d="M1023.32,407.1c.03,.08,.05,.17,.08,.25,.02,.07,.04,.13,.06,.2-.05-.15-.09-.3-.14-.45Z"/>
  <path d="M994.7,872.77s.04-.07,.06-.11c-.02,.04-.04,.08-.06,.11Z"/>
  <path d="M189.4,201.48c0,.17-.01,.35-.02,.52,0-.17,.01-.35,.02-.52Z"/>
  <path d="M189.42,201.17s0,.07,0,.11c0,.02,0,.04,0,.06,0-.05,0-.11,0-.16Z"/>
  <path d="M509.88,728.08s.01-.06,.02-.08c0,.04-.01,.08-.02,.11,0-.01,0-.02,0-.03Z"/>
  <path d="M510.01,727.45c-.03,.13-.05,.26-.08,.4,.03-.13,.05-.26,.08-.4Z"/>
  <path d="M704.15,239.7c0,.08,0,.15,.01,.23,0-.07-.01-.15-.01-.23Z"/>
  <path d="M704.19,240.51s0-.01,0-.02c0,.03,0,.07,0,.1,0,.01,0,.03,0,.04,0-.04,0-.08,0-.13Z"/>
  <path d="M704.18,240.24s0-.04,0-.06c0,.1,.01,.21,.02,.31,0-.09,0-.17-.01-.26Z"/>
  <path d="M700.46,483.86c-.02,.05-.04,.11-.06,.16,.02-.05,.04-.11,.06-.16Z"/>
  <path d="M704.08,471.95c-.02,.08-.04,.15-.06,.23,.02-.08,.04-.16,.06-.23Z"/>
  <path d="M704.16,471.64s-.02,.09-.03,.14c.01-.04,.02-.09,.03-.14Z"/>
  <path d="M398.32,910.7s-.01,.02-.02,.03c-.02,.03-.04,.06-.05,.09,.02-.04,.05-.08,.07-.12Z"/>
  <path d="M257.6,699.56s-.03-.06-.05-.08c.02,.03,.04,.07,.06,.1,0,0,0-.01-.01-.02Z"/>
  <path d="M412.67,455.12s0,.09,0,.14c0,.02,0,.04,0,.06,0-.06,0-.13,0-.19Z"/>
  <path d="M412.67,455.05s0-.01,0-.02v-.07s0,.07,0,.1c0,0,0-.01,0-.02Z"/>
  <path d="M410.46,435.55s0,0,0,0c0,.04,.02,.08,.02,.12,0-.04-.02-.08-.02-.12Z"/>
  <path d="M408.11,425.8l.02,.07s.02,.05,.02,.08c-.02-.05-.03-.1-.05-.15Z"/>
  <path d="M19.74,710.71s.02,.09,.03,.14l.02,.07-.05-.21Z"/>
  <path d="M16.14,693.33s0-.02,0-.03c0,.02,.01,.04,.01,.06,0,.02,0,.05,.01,.07,0-.04-.01-.07-.02-.11Z"/>
  <path d="M16.02,692.72s.01,.06,.02,.09c0,.03,.01,.06,.02,.09-.01-.06-.02-.12-.04-.18Z"/>
  <path d="M2.82,594.84c0,.1,.02,.21,.03,.31,0-.1-.02-.21-.03-.31Z"/>
  <path d="M2.8,594.68s0,.03,0,.04c0,.04,0,.08,0,.12,0-.05,0-.11-.01-.16Z"/>
  <path d="M.14,537.98c0,.08,0,.15,0,.23v.04c0-.09,0-.18,0-.27Z"/>
  <path d="M54,831.39c.12,.31,.25,.63,.37,.95-.12-.32-.24-.63-.37-.95Z"/>
  <path d="M28.47,742.98s-.02-.08-.04-.12c0,0,0,0,0,0,.01,.03,.02,.07,.03,.1,0,.02,.01,.04,.02,.06,0-.01,0-.03-.01-.04Z"/>
  <path d="M28.44,742.86s0,0,0,0c-.01-.03-.02-.07-.03-.1,0,.03,.02,.05,.02,.08,0,.01,0,.03,.01,.04,0,0,0-.01,0-.02Z"/>
  <path d="M28.39,742.7c.02,.05,.03,.11,.05,.16,0,0,0,0,0,0-.02-.05-.03-.11-.05-.16Z"/>
  <path d="M28.05,741.56c.07,.25,.15,.49,.22,.74-.07-.25-.14-.49-.22-.74Z"/>
  <path d="M20.01,711.96c.02,.1,.04,.2,.06,.29-.02-.1-.04-.2-.06-.29Z"/>
  <path d="M19.87,711.32s.02,.08,.03,.12c.02,.09,.04,.18,.06,.26-.03-.13-.06-.26-.08-.39Z"/>
  <path d="M19.87,711.32s0-.01,0-.02c0-.01,0-.03,0-.04,0,0,0,.01,0,.02,0,.04,.02,.07,.02,.11,0,0,0,.02,0,.02,0-.03-.01-.06-.02-.09Z"/>
  <path d="M16.07,692.94s0,.04,.01,.06c0,.03,0,.05,.01,.08,0-.05-.02-.09-.03-.14Z"/>
  <path d="M.96,566.61c.02,.27,.03,.54,.04,.8,.01,.26,.03,.53,.04,.79-.03-.53-.05-1.06-.08-1.59Z"/>
  <path d="M.05,523.84c0,.31,0,.62,0,.93,0-.31,0-.62,0-.93Z"/>
  <path d="M291.95,50.54c-.09,.05-.18,.09-.27,.14,.09-.05,.18-.09,.27-.14Z"/>
  <path d="M309.8,1098.66c.05,.02,.1,.04,.15,.06-.05-.02-.1-.04-.15-.06Z"/>
  <path d="M157.73,1002.66s.07,.06,.1,.09c-.04-.03-.07-.06-.1-.09Z"/>
  <path d="M1033.4,878.14c-.55,.79-1.09,1.58-1.64,2.37-.11-1.05,.69-1.72,1.64-2.37Z"/>
  <path d="M1078.27,798.46c-.03,.07-.06,.13-.09,.2,.03-.06,.05-.13,.09-.2Z"/>
  <path d="M1110.48,718.33c1.68,1.25,.19,2.02-.65,2.63-.03,.02-.05,.04-.08,.06,.24-.9,.49-1.79,.73-2.69Z"/>
  <path d="M1076.51,309.23s-.02-.06-.04-.09c.02,.06,.05,.11,.07,.17-.01-.03-.02-.06-.04-.08Z"/>
  <path d="M8.56,223.36s.01-.02,.02-.03c.01-.02,.02-.03,.03-.05,0,0,.01-.02,.02-.03,0,0,0,0,0,0-.04,.06-.08,.12-.12,.19,.02-.03,.03-.05,.05-.08Z"/>
  <path d="M746.91,945.18c.09,0,.19,.02,.28,.03-.09,0-.19-.02-.28-.03Z"/>
  <path d="M869.81,894.02l-.64,.63c.21-.21,.43-.42,.64-.63Z"/>
  <path d="M870.19,893.65c-.07,.07-.13,.13-.2,.19,.06-.06,.13-.13,.2-.19Z"/>
  <path d="M873.83,890c.05-.05,.1-.1,.15-.15-.06,.06-.12,.12-.18,.18,0,0,.02-.02,.03-.03Z"/>
  <path d="M874.04,889.78s-.04,.05-.07,.07c-.03,.03-.07,.07-.1,.1,.05-.06,.11-.11,.16-.17Z"/>
  <path d="M876.7,887.03c-.05,.05-.1,.11-.15,.16,.05-.05,.1-.11,.15-.16Z"/>
  <path d="M878.87,884.74s0,0-.01,.01c-.02,.02-.04,.04-.06,.06,0,0-.02,.02-.03,.03,.03-.03,.06-.07,.09-.1Z"/>
  <path d="M883.56,879.6s-.02,.03-.03,.04c-.02,.03-.05,.05-.07,.08,.02-.03,.05-.05,.07-.08,.01-.01,.03-.03,.04-.04-.13,.15-.26,.29-.39,.44,.13-.15,.25-.29,.38-.44Z"/>
  <path d="M926.43,814.32c-.09,.17-.18,.33-.27,.5,.09-.17,.18-.34,.27-.5Z"/>
  <path d="M866.45,206.57c.88,.32,1.61,.79,2.34,1.26-.53,.35-1.06,.7-1.59,1.06-.3-.72-.61-1.44-.75-2.31Z"/>
  <path d="M566.81,767.45c-.16-.36-.2-.58-.15-.77,.27-.92,.56-1.83,.85-2.74,.13,.2,.41,.44,.37,.6-.27,1.03-.6,2.04-1.07,2.91Z"/>
  <path d="M1016.73,663.98c.1-.03,.19-.06,.29-.08,0,.12,.01,.24,.02,.36-.1-.09-.2-.18-.3-.28Z"/>
  <path d="M683.86,1007.78c.42,.2,.69,.56,.95,.92-.5,.24-.99,.48-1.49,.72,.13-.5,.26-.99,.54-1.65Z"/>
  <path d="M694.63,1008.08s.07-.06,.1-.08c.41,.07,.81,.14,1.22,.2-.02,.12-.05,.24-.09,.36-.41-.16-.82-.32-1.23-.48Z"/>
  <path d="M698.02,1009.14c.07-.2,.14-.39,.21-.59,.28,.04,.56,.08,.85,.12,.15,.1,.28,.21,.38,.35-.41,.1-.74,.13-1.06,.13-.13,0-.26,0-.39,0Z"/>
  <path d="M88.02,462.5c.41-.1,.74-.12,1.05-.12-.21,.16-.41,.33-.6,.52-.17-.11-.32-.23-.44-.39Z"/>
  <path d="M684.01,108.41c-.44-.49-.57-.99-.7-1.48,.62-.06,1.23-.12,1.85-.18-.28,.55-.55,1.11-1.14,1.66Z"/>
  <path d="M708.37,798.3s0,0,.01,0c0,0-.01,0-.02,0h0c-.09-.02-.17-.04-.26-.05-.01,0-.02,0-.03-.01,0,0,0,0,0-.01,.13,.04,.25,.06,.38,.08-.03,0-.06,0-.09,0Z"/>
  <path d="M789.35,696.91c.32-.47,.48-.78,.64-1.09,.25,.22,.51,.44,.76,.66-.5,.4-1.01,.81-1.52,1.2-.02,.01-.22-.13-.21-.17,.03-.15,.11-.29,.33-.6Z"/>
  <path d="M893.05,858.26c-.05-.06-.1-.13-.15-.19,.04-.06,.08-.12,.12-.17,.14,.06,.28,.12,.43,.15-.1,.11-.19,.23-.29,.34-.04-.04-.07-.09-.11-.13Z"/>
  <path d="M842.48,729.8c-.04,.07-.09,.14-.14,.21,.05-.07,.09-.14,.14-.21Z"/>
  <path d="M846.67,724.19c-.04,.06-.08,.12-.12,.18,.04-.06,.08-.12,.12-.18Z"/>
  <path class="cls-2" d="M717.57,806.4c.23-.32,.45-.66,.65-.99-.3,.21-.61,.41-.93,.6,.1,.13,.19,.27,.27,.39Zm73.88-200.98s-.03-.09-.04-.14c-.3,0-.59,0-.89,0,.31,.05,.61,.09,.92,.14Zm63.38,21.05c.64,.36,1.28,.73,1.91,1.11-.24-.46-.75-.94-1.13-1-.26-.04-.52-.08-.78-.11Zm3.21,268.53c.23-.86,.29-1.8,.13-2.8-.02-.11-.04-.23-.07-.36-38.32-35.82-75.04-73.3-111.53-111.02-.32,.02-.65-.02-.99-.11-5.59,1.14-10.78,2.96-14.39,7.74-1.33,8.69-2.7,17.78-8.7,24.67-9.35,13.07-28.38,9.5-32.06,22.66-.1,.3-.19,.59-.28,.89,.07,6.01,1.18,12.02,2.27,18.04,2.05,6.99,3.37,13.27,2.2,16.56,.11,3.15-.04,6.3-.59,9.46,.06-.17,.11-.36,.16-.5-.26,1.17-1.06,2.07-2.06,2.57-.7,1.94-1.96,3.05-4.04,2.84-2.48-.29-3.82-2.69-3.44-5.02,.19-5.19-.45-11.37-1.41-16.14-2.05-6.84-3.24-13.92-2.66-20.89-.35-1.05-.7-2.11-1.05-3.16-4.22-10.75-5.58-24.77,4.99-32.31,6.06-5.98,17.03-4.74,24.88-7.33-.28-.14-.54-.29-.8-.46,.38-.15,.75-.32,1.11-.48,0,0,0,0,0,0,.02-.01,.05-.02,.07-.03h0c.48-.18,.96-.31,1.41-.57,.13-.08,.27-.16,.4-.25,0,0,0,0,0,0,.23-.14,.45-.29,.65-.46,.23-.19,.46-.39,.67-.59,.36-.34,.64-.7,.89-1.11l.11-.18,.06-.11c.86-1.45,1.57-2.97,2.37-4.45,.25-.46,.47-.93,.7-1.39,.2-.42,.43-.85,.56-1.3,.16-.55,.31-1.11,.44-1.68,.09-.4,.13-.8,.19-1.21,0-.02,0-.04,.01-.06,.06-.11,.12-.22,.18-.34,0-.21,0-.41-.02-.62,.08-.48,.15-.96,.19-1.46,.05-.67,.02-1.34,.03-2.02,.09-1.21,.21-2.42,.27-3.64,.03-.6,0-1.2,.02-1.79,.02-.52,.04-1.04,.08-1.55,.07-.71,.26-1.42,.41-2.12,.14-.68,.22-1.36,.37-2.04,.11-.43,.24-.88,.32-1.31,.03-.17,.05-.34,.09-.51,.09-.29,.21-.56,.29-.85,.15-.51,.27-1.03,.41-1.54,.12-.35,.26-.68,.39-1.02,.02-.04,.03-.08,.05-.12,.06-.15,.11-.31,.16-.46,.16-.57,.32-1.14,.43-1.73,.08-.34,.2-.67,.26-1.02,.05-.27,.07-.54,.09-.8,.18-.28,.35-.55,.54-.82l-.07-.73c-.11-1.09-.21-2.18-.32-3.28-29.96-27.29-60.14-54.38-88.98-82.86-11.62,13.36-23.22,27.14-30.54,43.27,0,.29-.02,.57-.03,.85-.33,5.73-.99,11.44-1.18,17.17-.21,6.34,.71,12.82-.31,19-.59,3.57,1.54,7.51-.14,10.92l.29,3.21c1.74,21.27,6.11,42.39,15.46,61.69,9.28,20.21,22.54,37.89,38.4,53.02,.08,0,.17,0,.25,0,.18,0,.36,0,.53,0-.01,.24,.02,.51,.03,.77,6.59,6.21,13.62,12,20.98,17.34,1.77,.59,3.18,1.57,4.15,2.89,9.05,6.05,18.66,11.18,28.55,15.72,1.59,.07,3.17,.14,4.76,.2,5.04,.21,10.1,.3,15.13,.67,2.67,.2,5.34,.21,8.03,.48,.25,.88,1.04,1.57,2,1.61,.11,0,.21,0,.31,0,.71,0,1.41-.09,2.11-.16,.7-.07,1.41-.16,2.11-.27,.12-.02,.23-.04,.35-.05,1.28,.26,2.56,.53,3.84,.79,.95,.19,2.61,.12,2.94-.43,.35-.57,.66-.87,.96-.98,.25,.02,.51,.04,.77,.07,.39,.19,.79,.57,1.23,.86,.61,.41,1.81,.93,2.09,.67,.76-.69,1.55-1.17,2.36-1.48,1.71-.09,3.42-.18,5.13-.24,1.18-.04,2.36-.05,3.53-.06,.41,0,.82,0,1.23-.02,.34-.01,.69-.02,1.04-.04,1.51-.06,3.03-.12,4.54-.16,.77,.04,1.55,.09,2.32,.08,3.72-.05,7.45-.19,11.17-.23,.88,0,1.75,.03,2.63,.07,1.22,.06,2.43,.12,3.64,.04,5.45-.33,10.89-.81,16.34-1.21,.43-.03,.88-.02,1.32-.01,.39,0,.79,.02,1.18,0,1.33-.07,2.64-.29,3.95-.54h.02c1.1,.07,2.18,.06,3.28,0,.67-.04,1.27-.37,1.66-.87,1.51-.17,3.03-.2,4.58,.09,1.18-.55,2.36-1.12,3.53-1.7-.32-.03-.65-.06-.98-.09-.04,0-.07,0-.1-.01,.43-.07,.86-.14,1.29-.21,.25-.04,.5-.09,.74-.15,.04-.01,.08-.02,.12-.03,.14-.04,.29-.07,.43-.11,.38-.1,.75-.21,1.12-.32,.19-.06,.38-.11,.57-.17,.14-.04,.28-.09,.42-.12,1.07-.32,2.14-.65,3.22-.98,2.25-.68,4.48-1.37,6.6-2.42,.12-.06,.23-.12,.35-.18,.26-.14,.52-.28,.77-.42,.18-.1,.36-.2,.53-.31,.43-.25,.85-.52,1.28-.78,1.07-.66,2.04-1.46,3.01-2.25,.49-.4,.98-.82,1.45-1.25,.17-.16,.34-.31,.5-.47,.21-.2,.43-.41,.64-.62,.15-.15,.3-.3,.46-.46,.34-.34,.67-.7,1-1.05,.35-.38,.69-.76,1.03-1.15,1.17-1.34,2.31-2.73,3.16-4.3,.03-.05,.05-.1,.08-.15,.03-.05,.05-.1,.08-.16,.05-.11,.1-.21,.15-.32,.03-.05,.05-.11,.07-.17,.02-.06,.04-.11,.07-.17,.35-.93,.51-1.98,.16-2.9-.02-.06-.05-.12-.08-.18Zm42.52-32.94c-.69,.95-1.39,1.91-2.09,2.86,.04,.05,.08,.11,.12,.17,.63-1.02,1.3-2.03,1.97-3.03Zm18.03-19.61c-.28,.02-.58,.01-.9-.03-.16,.07-.33,.14-.51,.2-.19,.06-.38,.11-.57,.14-.26,.25-.53,.48-.82,.69-.17,.28-.33,.56-.5,.84,.69,.75,.96,1.8,.92,3.06,.81-1.62,1.61-3.26,2.39-4.9Zm5.44-12.23c1.94-4.67,3.73-9.37,5.39-14.07-2.02,3.87-4.3,8-6.82,12.3,.55,.52,1.02,1.14,1.43,1.77Zm.9-51.37c.07-1.41,.14-2.81,.13-4.22-.01-1.63-.13-3.25-.22-4.88-.27-5.04-.48-10.08-1-15.09-.27-2.55-.62-5.09-1.07-7.61-.43-2.39-1.04-4.75-1.59-7.12-1.16-4.99-2.4-9.96-3.1-15.04-.34-2.44-.69-4.88-1.21-7.29-.09-.45-.19-.89-.28-1.34-.41-2.01-.77-4.02-1.24-6.01-.29-1.21-.61-2.4-.93-3.59-.23-.84-.45-1.68-.71-2.51-.04-.12-.07-.24-.11-.36-.07-.22-.14-.43-.22-.65-.43-1.23-.91-2.43-1.51-3.59-.23-.44-.46-.88-.7-1.31-.34-.62-.7-1.24-1.03-1.87-1.09-2.05-2.21-4.1-3.26-6.18-.45-.93-.87-1.86-1.32-2.79-1.09-2.18-2.36-4.27-3.79-6.24-.71-.98-1.44-1.95-2.14-2.93-.74-1.03-1.48-2.04-2.29-3-.18-.22-.37-.44-.56-.65-.04-.04-.07-.09-.11-.13-1.4-1.58-2.92-3.06-4.31-4.65-.11-.13-.22-.26-.34-.39-1.23-1.59-2.48-3.16-3.78-4.69-.11-.02-.22-.03-.33-.05-.07-.08-.14-.16-.22-.24-1.5-1.67-3.12-3.22-4.62-4.9-1.3-1.45-2.51-2.98-3.75-4.49-.19-.23-.38-.46-.57-.68-.29-.36-.59-.71-.89-1.06-1.33-1.57-2.72-3.11-4.35-4.37-1.07-.83-2.21-1.53-3.38-2.19-1.01-.84-2.03-1.66-3.07-2.46l-1.1-.08s-.05-.04-.07-.05c-1.03-.9-2-1.85-3.05-2.72-1.01-.84-2.05-1.65-3.07-2.47-.1-.08-.2-.16-.3-.24-.55-.46-1.11-.91-1.67-1.35-.65-.52-1.3-1.03-1.96-1.54-1.36-1.05-2.77-2.03-4.17-3.02-1.3-.91-2.6-1.84-3.95-2.68-.64-.4-1.28-.82-1.95-1.17-.71-.37-1.44-.71-2.17-1.05-.02,0-.03-.01-.05-.02,0,0,.01,0,.02,0-.02,0-.04-.02-.05-.02-.03-.02-.06-.03-.09-.04h0s-.03-.02-.04-.02h-.02s0-.02,0-.02c-.9-.42-1.77-.86-2.63-1.37-1-.58-1.99-1.14-3.03-1.65-.94-.46-1.93-.81-2.9-1.2-.04-.02-.08-.03-.12-.05-.95-.38-1.88-.77-2.82-1.18-2.2-.95-4.4-1.95-6.68-2.71-.2-.07-.4-.13-.6-.18-.25-.07-.5-.14-.75-.2-.13-.03-.26-.06-.39-.09-.45-.1-.89-.17-1.34-.23-.14-.02-.29-.04-.44-.06-.05,0-.09-.01-.14-.02l-.2-.02c-.35-.04-.7-.08-1.04-.11-.02,0-.04,0-.05,0-.54-.05-1.07-.09-1.61-.13-.56-.04-1.12-.12-1.69-.15-.57-.03-1.12-.02-1.68,.02-4.35-1.2-8.78-2.22-13.3-3.06-35.85-7.64-72.78-7.01-106.43,5.05-.21,.71-.47,1.48-.91,1.63-1.48,.49-3.12,.62-4.7,.69-.16,0-.33,0-.49,0-1.11,.45-2.21,.91-3.32,1.39-8.66,6-16.77,12.77-24.46,19.98,0,.12,0,.24,0,.36,21.69,19.6,40.32,42.32,60.53,63.4,10.92,11.62,22.21,22.84,33.69,33.88,1.1,.03,2.18,.12,3.26,.25,1.21-.21,2.41-.41,3.61-.59,4.62-.7,9.3-.95,13.96-1.36,.11-.78,.23-1.56,.36-2.34,.88-8,2.68-15.84,5.36-23.28-.02-.39,0-.77,0-1.16,0,0,.25,0,.42,0,.11-.29,.21-.57,.32-.86-.34-.21-.67-.42-1.01-.62,.29-.34,.57-.68,1.17-1.02,.13,.41,.08,.82,0,1.24,7.46-19.13,20.91-35.47,39.98-44.97,9.38-4.68,29.73-11.51,35.21,1.3,7.75,11.84,3.21,25.93-1.23,38.11-.19,.61-.39,1.21-.59,1.81-.24,.36-.47,.71-.7,1.07-.71,1.14-1.28,2.36-1.95,3.53-.18,.27-.36,.54-.56,.8-.59,.73-1.16,1.46-1.63,2.28-.45,.77-.86,1.57-1.29,2.36-.32,.54-.66,1.05-1.02,1.57-.13,.2-.27,.39-.41,.59-.18,.26-.36,.52-.55,.78h0c-.04,.05-.07,.09-.1,.14-.68,.96-1.27,2-1.92,2.99-.62,.86-1.29,1.69-1.96,2.51-.77,.92-1.43,1.89-2.08,2.89-.59,.86-1.18,1.72-1.82,2.53-.59,.67-1.16,1.35-1.69,2.07-.51,.68-.91,1.45-1.34,2.18-.27,.44-.55,.86-.85,1.28-.43,.52-.87,1.01-1.3,1.53-.36,.44-.71,.89-1.09,1.31-.81,.91-1.59,1.85-2.4,2.76-.21,.21-.42,.42-.65,.62-.82,.67-1.64,1.33-2.45,2.02-.23,.2-.45,.39-.68,.6,.07-.07,.15-.13,.22-.2-.98,.84-1.95,1.7-2.98,2.48-1.09,.76-2.23,1.45-3.29,2.26-.88,.67-1.66,1.46-2.52,2.16-.59,.44-1.17,.87-1.74,1.33,.08-.06,.16-.12,.23-.19-.23,.18-.46,.36-.7,.53h0c-.07,.05-.13,.1-.2,.14-.28,.17-.57,.33-.86,.49l-.05-.08c-3.27,1.34-6.68,2.34-10.22,2.95,.02,0,.03,.02,.04,.03-.25,.04-.5,.08-.75,.12l-.02-.02c-.36,.06-.73,.11-1.09,.16-.2,0-.39,.01-.58,.01-1.47-.02-2.93,.16-4.4,.23-.06,0-.12,0-.18,0-.26,0-.52-.01-.79-.03-.46-.05-.92-.14-1.38-.14-.21,0-.41,0-.62,0-.25,0-.49,.02-.74,0,0,0-.02,0-.02,0-.03-.01-.07-.02-.1-.03-.25-.09-.49-.18-.75-.21-.29-.04-.58-.02-.87,0h-.01c-.05,0-.11,.01-.15,.02-.05,0-.11,.02-.16,.03-.05,0-.11,.02-.17,.04-.04,.01-.09,.03-.14,.04-.05,.01-.1,.03-.15,.05-.05,.02-.1,.04-.15,.06-.07,.03-.14,.06-.22,.09-.02,.01-.05,.02-.07,.03-.66-.04-1.32-.08-1.98-.12-.9,.68-1.79,1.37-2.67,2.08-.11,.12-.23,.24-.36,.36,0-.02,0-.04,0-.07-2,1.61-3.97,3.25-5.97,4.86,6.55,6.11,13.11,12.19,19.65,18.3,24.48,22.38,49.12,44.59,74.47,65.98,4.45,3.75,8.96,7.42,13.49,11.08,.25,0,.49,0,.72-.02,.08,.09,.16,.18,.24,.27,.1,.11,.2,.21,.31,.32,.3,.31,.64,.63,1.02,.86,.48,.29,1.02,.55,1.59,.55,.1,0,.2,0,.3-.02,.3-.05,.59-.09,.87-.2,1.09-.45,1.85-1.55,2.58-2.44,.83-1,1.71-1.96,2.57-2.94,.38-.43,.75-.86,1.12-1.29,.37-.43,.74-.86,1.11-1.29,.39-.45,.79-.91,1.19-1.35h0c.36-.41,.72-.8,1.09-1.19,.39-.41,.79-.82,1.17-1.23,.4-.43,.79-.86,1.14-1.32,.79-1.02,1.55-2.07,2.28-3.14,1.37-2.03,2.36-4.29,3.34-6.52,.07-.15,.13-.3,.2-.45,.28-.64,.55-1.27,.83-1.91,.44-1.02,.88-2.04,1.29-3.07,.03-.08,.07-.16,.1-.25,.04-.08,.07-.16,.1-.24,.05-.11,.09-.23,.14-.34,.11-.29,.23-.57,.34-.86,.13-.33,.25-.66,.38-.99,.3-.82,.59-1.65,.84-2.49,.36-1.2,.67-2.41,1.02-3.61,.1-.34,.19-.68,.28-1.02,.58-2.14,1.07-4.3,1.63-6.45,.32-1.21,.67-2.42,.95-3.64,.12-.54,.24-1.09,.36-1.63,.07-.3,.13-.6,.19-.9,.03-.1,.05-.2,.07-.31,.06-.3,.12-.6,.18-.91,.48-2.47,.86-4.96,1.3-7.44,.51-2.76,.97-5.52,1.42-8.29,.43-2.66,.85-5.34,1.01-8.04,0-.02,0-.04,0-.07,0-.06,0-.12,.01-.18,.16-2.87,.23-5.74,.38-8.6Zm18.24-29.43c1.51,7.8,2.43,15.71,2.25,23.67,.27,32.46-13.67,62.99-29.27,90.77-38.19,66.55-89.43,87.11-164.01,84.23-22.25-.63-44.63-3.23-65.89-10.04-.84,0-1.68-.02-2.52-.06-.61-.03-1.29-.59-1.93-1.43-7.23-2.61-14.68-5.23-21.43-8.99-.06-.04-.12-.07-.18-.1-2.25-1.21-4.45-2.52-6.59-3.93-10.36-7.1-19.82-15.46-28.21-24.77-.97-.44-1.6-1.15-2.01-2.27-.38-.43-.75-.86-1.11-1.29-5.9-5.41-11.46-11.21-16.62-17.33-.61-.35-1.07-.91-1.33-1.6-9.6-11.65-17.76-24.44-24.14-37.99-2.57-5.86-4.37-12.04-4.78-18.44-1.2-10.28-1.91-20.6-2.22-30.93-.34-.59-.53-1.28-.55-2.01-.1-3.74-.13-7.48-.09-11.23-.14-.77-.28-1.53-.41-2.29-.08-.43-.38-.94-.24-1.27,.62-1.51,1.04-2.64-.04-4.46-.82-1.39-.05-3.82,.29-5.73,.05-.26,.39-.47,.8-.66,.17-3.86,.43-7.71,.78-11.56,.25-4.64,.56-9.29,.93-13.92,.45-3.46,1.34-14.7,3.29-24.84,1.01-7.32,2.93-14.5,6.2-21.38,0-.09,0-.18,0-.27,0-1.74,.28-3.14,1.91-3.84,5.12-10.66,11.4-20.97,18.65-30.68t0,0c.42-.7,.84-1.4,1.28-2.09-.19-.84-.49-1.56,.04-1.92,.87-.59,1.63-1.29,2.45-1.95,4.55-6.84,9.7-13.28,15.45-19.18,.03-.38,.12-.69,.33-.86,.64-.52,1.32-1.03,2.02-1.49,1.93-1.88,3.93-3.7,5.99-5.45,15.1-12.29,32.1-24.2,51.05-29.4,.09-.75,.18-1.49,.28-2.24,0-.03,.17-.02,.38-.02,.25,0,.57,.02,.78-.03,.79-.19,1.57-.46,2.36-.7-.45-.32-.95-.6-1.34-.98-.24-.23-.33-.61-.49-.93,.29,.09,.61,.3,.88,.25,1.34-.22,2.68-.5,4.01-.77,.57-.12,1.13-.36,1.7-.39,8.56-.6,17.12-1.26,25.7-1.73,26-5.85,52.81-8.69,79.2-4.52,8.64,1.38,17.17,3.47,25.5,6.19,.23,.03,.46,.05,.7,.08,2.17,.24,4.38,.25,6.51,.66,.96,.18,1.73,1.24,2.69,1.64,.54,.23,.7,.98,.95,1.58,.53,.21,1.05,.43,1.58,.64,.11-.05,.23-.11,.36-.18,.02,.12,.03,.23,.05,.35,20.03,8.34,38.57,20.39,54.32,35.24,.62,0,1.25,0,1.88,.02,.41,0,.81,.33,1.21,.51-.34,.24-.66,.52-1.03,.71-.17,.09-.34,.16-.52,.23,.4,.38,.8,.77,1.19,1.16,.68,.21,1.38,.41,2.06,.62-.25,.2-.57,.38-.84,.58,.36,.36,.72,.73,1.08,1.09,17.26,18.19,32.34,38.96,42.63,61.87,.89,1.75,.68,3.31-.09,4.45,5.09,16.34,6.39,33.44,5.81,50.58,.17,.32,.29,.68,.36,1.05Z"/>
  <path class="cls-2" d="M64.09,613.71c-.01-.43-.02-.86-.04-1.29-.29,.11-.57,.21-.86,.31,.19,.43,.39,.86,.89,.98Zm-.35-78.38c.22-.4,.45-.8,.35-1.52-.4,.22-.8,.44-1.21,.66,.29,.29,.57,.57,.86,.86Zm.08-39.33c.29-.29,.57-.57,.86-.86-.34-.19-.68-.38-1.2-.38-.1,0-.21,0-.32,.02,.22,.4,.44,.8,.66,1.21Zm0,98.01c.29-.29,.57-.57,.86-.86-.34-.19-.68-.37-1.2-.37-.1,0-.2,0-.32,.02,.22,.4,.44,.81,.66,1.21Zm0-19.35c.29-.29,.57-.57,.86-.86-.34-.19-.68-.37-1.2-.37-.1,0-.2,0-.32,.02,.22,.4,.44,.81,.66,1.21Zm0-19.98c.29-.29,.57-.57,.86-.86-.34-.18-.68-.37-1.21-.37-.1,0-.2,0-.31,.02,.22,.41,.44,.81,.66,1.21Zm.9-40.22l-1.29-.59c-.1,.29-.21,.57-.31,.86,.43,.02,.86,.03,1.6-.27Zm19.35,197.26c-.01-.43-.03-.86-.04-1.29-.29,.11-.57,.21-.86,.31,.2,.43,.39,.86,.9,.98Zm.35-19.7c-.11-.29-.21-.57-.31-.86-.43,.2-.86,.39-.98,.9,.43-.01,.86-.03,1.29-.04Zm18.41-334.2c.29-.1,.57-.21,.86-.31-.2-.43-.39-.86-.9-.98,.02,.43,.03,.86,.04,1.29Zm.94,392.88c-.11-.29-.21-.57-.31-.86-.43,.2-.86,.39-.98,.9,.43-.02,.86-.03,1.29-.04Zm20.25,39.05c-.43-.2-.86-.39-1.29-.59-.11,.29-.21,.57-.31,.86,.43,.01,.86,.02,1.6-.27Zm0-471.93c-.43-.2-.86-.39-1.29-.59-.11,.29-.21,.57-.31,.86,.43,.01,.86,.03,1.6-.27Zm18.69,511.91c.01-.43,.02-.86-.27-1.6-.2,.43-.39,.86-.59,1.29,.29,.11,.57,.21,.86,.31Zm19.43-570.55c.29-.1,.57-.21,.86-.31-.2-.43-.39-.86-.89-.97,.01,.43,.02,.86,.04,1.29Zm22.71,696.93c.01-.42,.02-.83-.28-1.56l-1.2,.68c.49,.29,.98,.59,1.48,.88Zm3.61,24.23c.47-.51-.43-2.32-.78-3.52-.27-.89-.62-1.33-1.1-1.33s-1.01,.4-1.7,1.21c-1.31,.89-2.58,1.89,.11,2.45,1.29,.27,1.99,2.8,3.46,1.19ZM532.23,66.92c.01-.43,.03-.86-.27-1.6-.2,.43-.39,.86-.59,1.29,.29,.11,.57,.21,.86,.31Zm19.7-.35c-.22-.4-.44-.8-.66-1.21l-.86,.86c.41,.22,.81,.44,1.52,.35Zm20.02-.04c-.11-.29-.21-.57-.31-.86-.43,.2-.86,.39-.98,.89,.43-.01,.86-.02,1.29-.04Zm18.65,.62c.22-.4,.44-.8,.35-1.52-.4,.22-.81,.44-1.21,.66,.29,.29,.57,.57,.86,.86Zm20.64-.59c-.22-.4-.44-.8-.66-1.21-.29,.29-.57,.57-.86,.86,.4,.22,.8,.44,1.52,.35Zm223.92,931.87c-.02-.05-.04-.1-.06-.15-.08,.04-.16,.08-.25,.12,.11,0,.21,.02,.31,.03Zm70.14-793.33c.29-.29,.57-.57,.86-.86-.34-.18-.68-.37-1.2-.37-.1,0-.21,0-.32,.02,.22,.4,.44,.8,.66,1.21Zm19.93,19.39c.2-.43,.39-.86,.59-1.29-.29-.11-.57-.21-.86-.31-.01,.43-.02,.86,.27,1.6Zm39.02,58.99c.4-.22,.81-.44,1.21-.66l-.86-.86c-.22,.4-.44,.81-.35,1.52Zm43.11-90.55c.1-.29,.21-.57,.31-.86-.08,0-.17,0-.25,0-.36,0-.75,.04-1.35,.28,.43,.2,.86,.39,1.29,.59Zm16.5,207.6c-.43,.01-.86,.03-1.29,.04,.11,.29,.21,.57,.31,.86,.43-.2,.86-.39,.98-.9Zm2.22-168.19c.29-.11,.57-.21,.86-.31-.2-.43-.39-.86-.9-.98,.01,.43,.03,.86,.04,1.29Zm7.45-1.92c-.29-.7-.41-1.59-.91-2.05-.47-.43-1.36-.41-2.06-.59,.26,.36,.52,.73,1.1,1.4,.26,.52,.46,1.09,.82,1.53,.1,.11,.69-.18,1.06-.29Zm4.17,3.55c-.15,0-.3,0-.46,0-.36,0-.73,0-1.07,.07-.73,.15-1.5,.71-2.13,.55-.94-.23-1.76-.93-2.64-1.42,.62,.88,1.24,1.76,1.89,2.61,.25,.33,.57,.59,1.18,1.19,.88-.62,1.78-1.21,2.61-1.89,.3-.26,.42-.74,.63-1.12Zm8.36,18.34c.29-.1,.57-.21,.86-.31-.2-.43-.39-.86-.89-.98,.01,.43,.02,.86,.04,1.29Zm19.93,39.29c-.01-.43-.02-.86-.04-1.29-.29,.1-.57,.21-.86,.31,.2,.43,.39,.86,.89,.98Zm58.72,196.68c.29-.11,.57-.21,.86-.31-.2-.43-.39-.86-.9-.98,.01,.43,.03,.86,.04,1.29Zm5.01,27.32c.91,14.18,.99,28.38,.44,42.58-.53,11.13-1.5,22.23-2.66,33.32-1.16,11.05-2.52,22.09-3.98,33.11-2.84,20.88-6,41.77-10.7,62.32h0s0,.02,0,.02c-2.48,10.82-5.24,21.57-8.15,32.29-3,11.06-6.1,22.1-9.5,33.05-2.66,8.34-5.45,16.65-8.52,24.85-2.71,7.26-5.55,14.45-8.55,21.59-2.61,6.04-5.3,12.04-8.14,17.98-.38,.48-.65,1.04-.78,1.63-2.52,5.2-5.17,10.33-7.94,15.41-4.05,7.29-8.3,14.47-12.74,21.53-4,6.35-8.16,12.59-12.37,18.81,.02-.12,.05-.24,.06-.36-1.29,.21-2.6,.34-3.85,.68-.32,.09-.71,1.22-.65,1.26,2.23,1.52-.07,2.2-.69,2.66-1.94,1.46-.97,2.32,.01,3.19-5.15,7.41-10.39,14.74-15.78,21.98-6.71,9.03-13.66,17.89-20.71,26.66-.04,.05-.09,.1-.12,.16,0,0,0,0-.01,.01l-.04,.05c-1.14,1.42-2.3,2.85-3.45,4.27-1.92,1.94-3.85,3.87-5.79,5.79-.64,.62-1.27,1.24-1.9,1.86-.05,.05-.1,.09-.14,.14l-.03,.03c-.67,.66-1.34,1.31-2.01,1.96l-.64,.62c-18.56,17.81-38.1,34.63-58.7,50.04-16.13,12.06-32.55,23.73-49.46,34.68-16.95,10.99-34.29,21.34-52.09,30.92h0s0,0,0,0c0,0-.01,0-.02,0h0s-.03,.02-.04,.03c-.11,.05-.21,.11-.32,.17-.04,.02-.07,.04-.11,.06-.11,.06-.21,.12-.32,.18-.67,.36-1.34,.71-2.01,1.07-1,.51-2.05,.99-3.01,1.57-.01,0-.03,.01-.04,.02-31.87,16.27-65.57,28.84-99.89,38.86-19.41,5.66-39.2,10.19-59.1,13.72-20.27,3.6-40.67,6.23-61.21,7.7l-.47,.04s-.07,0-.1,0c-1.02,.06-2.04,.12-3.05,.19-.75,.04-1.5,.09-2.25,.13-.09,0-.17,0-.26,.01-.11,0-.23,.01-.34,.02-.03,0-.06,0-.09,0-.04,0-.09,0-.13,0-.04,0-.09,0-.13,0h-.03s-.01,0-.02,0c-9.49,.49-18.98,.78-28.49,.78-5.65,0-11.3-.1-16.95-.32-21.27-.82-42.5-2.66-63.66-5-20.5-2.26-40.95-5.27-61.16-9.4-20.7-4.23-41.12-9.51-61.21-16.03-19.4-6.3-38.36-14.05-56.81-22.73-8.68-4.18-17.26-8.58-25.68-13.29-18.37-10.28-36.06-21.77-52.93-34.37-16.36-12.21-31.91-25.54-46.9-39.39-.75-.7-1.5-1.4-2.25-2.11-.12-.11-.25-.23-.38-.35-.02-.02-.04-.04-.05-.05-.73-.81-1.59-1.52-2.39-2.26-.24-.23-.48-.46-.73-.7-.02-.02-.04-.04-.06-.05l-.03-.03s-.02-.02-.04-.03c0,0,0,0,0-.01,0,0,0,0,0,0l-.18-.16s-.04-.04-.05-.05h0s-.03-.04-.05-.05c-.04-.04-.07-.07-.11-.11-.04-.04-.07-.07-.12-.11,0,0,0,0,0-.01l-.02-.02s0,0,0,.02c-.21-.2-.42-.41-.64-.61-10.49-10.14-20.59-20.69-30.29-31.6-12.37-13.91-23.85-28.56-35.13-43.36-8.78-11.52-17.4-23.17-26.07-34.78-3.59-7.64-7.02-15.36-10.42-23.09-.65-1.55-1.29-3.11-1.94-4.66l-.08-.19c-.09-.21-.18-.43-.27-.65-.46-1.11-.93-2.23-1.39-3.34-.43-1.04-.86-2.08-1.3-3.12-1.5-3.8-3-7.6-4.5-11.4-.13-.33-.26-.66-.4-.97-.13-.36-.27-.73-.42-1.1,.12,.32,.25,.63,.38,.95-2.31-6.13-4.63-12.27-6.86-18.43-2.38-6.61-4.68-13.25-6.96-19.9-4.4-12.8-8.2-25.81-12.02-38.8,0-.03-.02-.06-.03-.09-.03-.11-.06-.21-.09-.32,0-.03-.02-.06-.03-.09h0s0-.03-.01-.04h0s0-.03,0-.04c0,0,0,.02,0,.02,0-.03-.02-.05-.02-.09,0-.02-.01-.04-.02-.07h0s-.01-.04-.02-.06c-.03-.11-.06-.21-.09-.31,0-.02-.01-.04-.02-.05h0s0-.03-.01-.04c0-.02,0-.03-.01-.04-.54-1.89-1.08-3.79-1.62-5.68-.73-2.58-1.48-5.15-2.2-7.73-1.34-4.89-2.66-9.78-3.95-14.68-.2-.89-.4-1.79-.59-2.69h0s-.02-.1-.04-.15v-.05s-.02-.02-.02-.03c0-.04-.01-.07-.02-.11v.02s0-.03,0-.04h0s0-.04-.01-.05c-.02-.12-.05-.24-.08-.36-.47-2.2-.94-4.39-1.42-6.58l-.02-.11c-.01-.06-.02-.12-.04-.19,0,0,0-.01,0-.02s0-.02,0-.03h0c-.02-.11-.04-.22-.07-.33,.02,.09,.04,.18,.05,.27-.04-.18-.07-.36-.11-.55-.02-.1-.04-.2-.06-.3h0c-.41-1.97-.81-3.93-1.22-5.91-.19-.95-.37-1.89-.55-2.84-.02-.07-.03-.15-.05-.23-.04-.2-.08-.39-.12-.59,0,0,0,.01,0,.02,0-.03-.01-.06-.02-.09,0-.02,0-.04-.01-.06-.02-.1-.04-.2-.06-.31,0-.02,0-.05-.01-.07,0-.04-.02-.07-.02-.11,0-.03-.01-.06-.02-.09-.01-.07-.02-.14-.04-.21-.12-.62-.24-1.25-.37-1.87-.34-1.84-.68-3.68-1.03-5.53,0,0,0-.02,0-.03-.03-.14-.05-.28-.08-.42-.02-.11-.04-.22-.06-.34-.03-.15-.05-.3-.08-.45-.42-2.34-.83-4.69-1.24-7.04-2.53-15.12-4.73-30.29-6.57-45.52-.41-3.39-.8-6.79-1.18-10.18l-.45-4.12c-.05-.42-.09-.84-.15-1.23-.02-.25-.04-.5-.07-.76v-.14c-.18-1.63-.34-3.26-.51-4.89-.08-.78-.16-1.55-.23-2.34-.17-1.88-.35-3.75-.52-5.63-.03-.28-.05-.55-.08-.84-.16-1.84-.31-3.67-.47-5.5v-.13c-.03-.29-.05-.57-.08-.85,0-.11-.02-.23-.03-.34v-.02c-.14-1.84-.29-3.7-.43-5.54-.05-.59-.09-1.19-.14-1.79-.07-1.09-.15-2.17-.23-3.26,0-.02,0-.03,0-.04,0-.11-.01-.23-.02-.34-.03-.46-.06-.93-.1-1.4-.03-.38-.05-.77-.08-1.15-.12-1.9-.24-3.8-.36-5.71-.02-.35-.04-.7-.07-1.06,0-.03,0-.06,0-.09v-.03c-.11-2.12-.22-4.25-.33-6.36-.35-8.25-.62-16.49-.8-24.75-.02-1.3-.04-2.6-.06-3.89,0-.06,0-.12,0-.18,0-.19,0-.38,0-.57v-.23c0-.18,0-.37-.01-.56,0-.1,0-.2,0-.31,0-.29,0-.57-.01-.86-.01-1.14-.02-2.29-.03-3.43,0-.76-.01-1.51-.02-2.27,0-.43,0-.87,0-1.3,0-.22,0-.44,0-.65H.01c0-1.6-.01-3.19-.01-4.78,.14-31.95,1.37-63.86,4.1-95.7,1.73-20.22,3.95-40.38,6.95-60.45,.43-2.84,.87-5.68,1.32-8.51,.71-1.87,1.41-3.74,2.11-5.62,1.77-4.77,3.6-9.52,5.14-14.37,.77-2.43,1.55-4.85,2.14-7.34,.25-1.04,.51-2.11,.7-3.18,.12-.05,.27-.11,.43-.21,.03-.28,.05-.55,.08-.83,1.98-3.69,3.98-7.36,6-11.03,8.27-15.06,16.77-30,25.61-44.73,5.52-7.8,11.17-15.5,16.93-23.13,8.69-11.5,17.76-22.69,26.89-33.84,9.22-11.26,18.73-22.29,28.33-33.23,4.98-5.67,10-11.3,15.1-16.87,11.89-11.32,23.94-22.46,36.23-33.34-.48,2.23-.83,4.5-1.07,6.75-1.09,10-1.04,20.09-1.37,30.13-.41,10.86-.8,21.72-1.24,32.57-.39,8.82-.68,17.64-1.09,26.45-.42,9.14-1.07,18.28-1.59,27.42-2.17,1.27-3.72,3.47-5.28,5.39-1.8,2.21-3.58,4.45-5.34,6.7,.11-.14,.21-.27,.31-.41-1.55,1.98-3.08,3.97-4.6,5.98-12.61,16.71-24.26,34.19-34.59,52.41-10.21,18.02-19.32,36.75-26.95,56.01-3.66,9.23-7.02,18.59-10.14,28.02-2.98,9.01-5.74,18.12-7.84,27.38-2.16,9.54-3.79,19.2-5.08,28.89-1.38,10.31-2.69,20.63-3.83,30.97-1.71,15.13-2.98,30.3-3.25,45.54-.19,10.68,.12,21.36,.58,32.04,.43,10.21,1.02,20.43,1.98,30.62,1.01,10.7,2.33,21.37,4.27,31.95,1.98,10.8,4.42,21.5,7.4,32.06l.18,.64s-.02-.08-.03-.12c.56,1.99,1.14,3.96,1.74,5.94,2.51,8.25,5.41,16.38,8.54,24.42,.09,.7,.36,1.38,.81,2.08,.53,1.34,1.06,2.68,1.59,4.01,3.24,8.2,6.76,16.3,10.71,24.19,.69,2.1,1.4,4.2,2.14,6.28-.72,1.12-.55,2.16,.75,3.37,.45,.41,.45,1.26,.75,1.85,.8,1.57,1.5,3.21,2.3,4.78,2.98,7.4,6.27,14.66,9.84,21.8,.09,.2,.2,.39,.29,.59,0,.02,.02,.03,.02,.04,1.77,3.49,3.59,6.95,5.48,10.36,.28,.68,.62,1.36,.91,1.89,.45,.83,.97,1.62,1.51,2.39,1.24,2.16,2.51,4.29,3.81,6.41,.27,.73,.54,1.47,.82,2.2,3.35,8.94,6.79,17.85,10.5,26.65,7.22,17.14,16.08,33.5,24.92,49.84,.03,.06,.06,.12,.1,.18,.01,.02,.02,.04,.04,.06t0,0c.14,.3,.29,.58,.46,.86,2.46,4.53,4.97,9.04,7.39,13.59,1.37,2.59,4,4.18,6.76,4.2-.13,13.13,0,26.27,1.06,39.37,.61,7.48,1.45,14.95,2.7,22.35,1.65,9.77,3.87,19.49,6.85,28.95l.32,.98c-1.35,.75-2.45,1.9-3.14,3.29-.09-.03-.18-.06-.27-.08,0,.25-.02,.51-.03,.76-.63,1.73-.55,3.51,.02,5.27,.22,.69,.64,1.42,1.03,2.04,.91,1.48,1.89,2.87,3.02,4.19,2.56,2.99,5.57,5.56,8.86,7.72,6.49,4.25,13.79,7.19,21.16,9.51,7.62,2.35,15.45,3.88,23.36,4.82,9.03,1.07,18.08,1.44,27.14,1.44,12.23,0,24.48-.67,36.71-1.17-.34,.01-.67,.02-1,.04,16.27-.61,32.55-1.35,48.82-1.5,5.61-.02,11.21,.02,16.82,.09,5.88-4.66,14.75-3.5,22.18-3.22,33.2-.43,66.15,4.11,99.26,5.84,30.84,1.27,61.74,.83,92.57-.34,24.61-1.21,49.16-2.75,73.56-5.42,8.58-.68,17.26-2.12,25.89-2.32,.34-.78,.79-1.45,1.31-2.05,.07-.09,.61,.22,.94,.35-.41,.48-.79,1-1.23,1.45-.1,.1-.21,.18-.33,.25,3.96-.06,7.92,.15,11.86,.84-.16-.4-.21-.87-.27-1.34,6.12,.8,12.28,1.32,18.45,1.72,25.47-2.44,51-5.15,76-10.67,24.67-7.01,48.54-16.62,71.45-28.12,51.79-31.31,96-73.33,135.04-131.2,5.27-7.99,10.62-16.03,15.64-24.25,2.32-8.1,4.28-16.3,6-24.55,2.24-10.79,4.12-21.66,5.84-32.54,.43-2.74,.86-5.48,1.27-8.22,.49-1.86,.97-3.71,1.43-5.58,5.31-21.29,9.81-42.8,12.98-64.52,1.54-10.52,2.66-21.11,3.58-31.69,.96-11.02,1.6-22.05,1.81-33.11,.13-6.85,.07-13.71-.17-20.56,.09-.94,.14-1.87,.2-2.77,.12-2.23,.22-4.45,.26-6.67,.07-4.59,0-9.18-.16-13.77-.32-9.29-.88-18.55-1.58-27.81-1.48-20.18-4.02-40.24-7.39-60.19-3.5-20.63-8.05-41.12-13.56-61.3-.06-.34-.15-.68-.27-1.01-.01-.04-.03-.07-.04-.11-.27-.95-.53-1.91-.8-2.86,0-.04-.02-.08-.03-.12-.07-.25-.14-.5-.21-.75,.02,.07,.04,.14,.05,.21-.34-1.2-.69-2.39-1.03-3.58,0-.02-.01-.05-.02-.07-.05-.18-.1-.35-.15-.52-.01-.04-.02-.09-.04-.13-.22-.77-.45-1.55-.69-2.32-.01-.03-.02-.07-.03-.1-.02-.05-.04-.11-.05-.17-.05-.16-.09-.33-.14-.5-.33-1.08-.66-2.15-.99-3.23-.05-.16-.1-.32-.15-.48-.03-.09-.05-.18-.08-.28,0,.01,0,.02,0,.03-3.84-12.42-8.24-24.7-13.18-36.73-4.14-10.1-8.65-20.04-13.5-29.82-4.86-9.79-10-19.45-15.66-28.8-3.43-5.67-6.96-11.27-10.61-16.8-3.32-5.72-6.73-11.39-10.24-17-11.68-18.69-24.98-36.31-39.14-53.18h0s-.07-.09-.11-.13c-.03-.04-.06-.07-.09-.11-.01-.02-.02-.03-.04-.04-.06-.07-.12-.14-.18-.21-.05-.07-.11-.13-.17-.2,0,0-.02-.02-.02-.03-1.48-1.75-2.98-3.47-4.49-5.19-.05-.05-.09-.1-.14-.15,0,0-.01-.02-.02-.02-.03-.04-.06-.07-.1-.11-.04-.05-.08-.09-.12-.14-.04-.04-.07-.08-.11-.12-.57-.64-1.14-1.29-1.71-1.94-.2-.25-.41-.5-.65-.73,0,0-.02-.01-.02-.02-2.72-3.05-5.47-6.08-8.25-9.08-6.07-7.41-12.32-14.69-18.75-21.79,.15-.05,.3-.11,.45-.16-.19-.43-.39-.86-.89-.98,0,.23,.02,.45,.02,.68-7.02-7.72-14.27-15.23-21.79-22.46-14.93-14.34-30.98-27.77-48.49-38.87-.08-.05-.16-.1-.24-.15,0,0-.02-.01-.03-.02,0,0-.01,0-.02-.02-.04-.02-.07-.05-.11-.07,0,0,0,0,0,0h0c-9.21-5.79-18.78-11.04-28.82-15.27-9.31-3.92-18.83-7.25-28.5-10.14-15.78-4.71-31.96-8.09-48.2-10.89,.04-.04,.08-.08,.12-.12-.34-.18-.68-.37-1.21-.37-.1,0-.2,0-.31,.02l.14,.26c-2.99-.51-5.98-1-8.97-1.48,.12,.02,.25,.04,.38,.07-1.3-.21-2.6-.42-3.91-.63-20.67-3.23-41.45-5.65-62.31-7.22-9.72-.73-19.45-1.35-29.19-1.94-1.29-.68-2.61-1.3-3.85-2.06-2.03-1.24-4.61-1.52-6.5,1.01-.24,.32-1.41,.09-2.09-.1-.73-.2-1.36-.87-2.08-.98-3.74-.53-7.48-1.25-11.2-.68-4.43-.55-8.87-1.06-13.31-1.52-.29-.05-.59-.08-.9-.09-.15-.01-.29-.03-.44-.04,.07,0,.14,.02,.2,.02-5.89-.59-11.79-1.12-17.69-1.55-1.98-.27-3.96-.53-5.94-.79-.96-.13-1.92-.25-2.88-.37-1.29-.16-2.59-.32-3.89-.48-.11-.02-.23-.03-.34-.04-.17-.02-.33-.04-.5-.06-.02,0-.03,0-.05,0-8.42-.99-16.85-1.92-25.31-2.67-21.65-1.91-43.33-3.36-65.07-3.38-20.97-.01-41.96,1.06-62.86,2.78-21.23,1.75-42.45,3.59-63.6,6.11,0,0-.01,0-.02,0h0s0,0,0,0h0c-.12,.02-.24,.03-.37,.04-.06,0-.12,.02-.19,.02-.04,0-.07,.01-.11,.02h0c-2.72,.33-5.44,.65-8.15,.99-21.41,2.68-42.74,5.8-63.97,9.7,.14-.02,.29-.05,.43-.07-.62,.11-1.24,.23-1.86,.34,3.78-2.57,7.59-5.1,11.42-7.59,11.77-7.66,23.74-14.93,36.13-21.55-.04,.02-.07,.04-.11,.05l.36-.2c.13-.07,.27-.13,.41-.21,.07-.04,.15-.07,.22-.11,.09-.05,.18-.09,.27-.14,.3-.16,.61-.32,.91-.48,4.09-2.13,8.2-4.23,12.32-6.31,12.34-6.22,24.71-12.35,37.25-18.18,6.09-2.83,12.22-5.57,18.36-8.29,3.08-1.36,6.15-2.74,9.2-4.16,1.62-.76,3.25-1.53,4.83-2.38,1.26-.68,2.46-1.43,3.45-2.39,3.12-.38,6.23-.75,9.36-1.09,10.56-1.11,21.15-1.99,31.74-2.8-.32,.02-.64,.05-.97,.07,12.23-.91,24.45-1.84,36.69-2.65,11.96-.79,23.93-1.52,35.91-1.97,12.54-.47,25.09-.69,37.64-.75,.68,0,1.36,0,2.05,0,24.52,.03,49.05,1.27,73.49,3.34l2.24,.2c23.61,2.12,47.16,4.94,70.56,8.65,4.44,.71,8.88,1.46,13.3,2.21,23.89,4.09,47.62,9.04,71.17,14.75,3.33,.82,6.66,1.65,9.98,2.5,5.05,2.23,10.11,4.44,15.17,6.66l.28,.13c7.65,3.41,15.27,6.87,22.9,10.32-.21-.1-.41-.19-.62-.29,8.33,3.8,16.66,7.62,24.95,11.49,0,0-.01,0-.02,0,11.47,5.41,22.88,10.95,34.3,16.47,1.49,.73,2.98,1.46,4.46,2.2,3.11,1.59,6.23,3.18,9.34,4.77,2.76,1.44,5.51,2.9,8.25,4.38,4.88,4.09,9.69,8.27,14.49,12.45,7.82,6.81,15.68,13.57,23.62,20.23,8.12,6.82,16.28,13.6,24.35,20.48,7.41,6.32,14.72,12.73,21.99,19.2,4.65,4.16,9.28,8.35,13.86,12.58-.27,.03-.58,.1-.99,.26l1.29,.59c.05-.14,.11-.29,.16-.43,4.98,4.59,9.91,9.23,14.79,13.92,.39,.38,.86,.62,1.36,.72,.36,.34,.71,.67,1.07,1.01,.95,.9,1.89,1.82,2.83,2.73,8.14,9.54,15.73,19.51,22.78,29.89,4.27,6.35,8.38,12.81,12.34,19.35-.77,.2-1.54,.39-2.32,.58,1.05,.32,2.07,.73,3.14,.9,.03,0,.05,0,.07,0,.1,.17,.2,.34,.3,.5,2.22,3.69,4.4,7.41,6.58,11.13,.03,.14,.05,.28,.07,.41,.04-.04,.08-.07,.12-.1,.36,.61,.71,1.21,1.07,1.81-.04,0-.07,0-.11,0,.18,.24,.35,.48,.52,.71,1.45,2.46,2.9,4.92,4.38,7.36,.29,.61,.57,1.22,.85,1.84,6.63,14.27,12.98,28.66,19.03,43.18,.01,.03,.03,.07,.04,.1l.05,.12s.02,.03,.02,.04c0,0,0,0,0,.01,0,.01,.01,.02,.01,.04h0c2.84,6.9,5.59,13.85,8.23,20.84t0,0s0,0,0,0c2.55,6.73,4.99,13.5,7.33,20.32,4.39,12.77,8.44,25.64,12.33,38.57-.02,.05-.04,.09-.05,.14,.03,0,.06,0,.09,0,.43,1.42,.85,2.84,1.27,4.25v-.02s0,.01,0,.02c0,0,0,0,0,.01,0,0,0,.02,0,.03,0,0,0,.02,0,.02,3.32,11.3,6.54,22.64,9.52,34.04,1.55,5.92,3.04,11.85,4.34,17.83,1.3,6,2.52,12.02,3.62,18.06,0,0,0,.01,0,.02,3.01,17.23,5.16,34.59,6.47,52.04Z"/>
  <path class="cls-1" d="M203.92,126.81c-.43-.2-.86-.39-1.29-.59-.11,.29-.21,.57-.31,.86,.43,.01,.86,.02,1.6-.27Zm2.46-4.96c.01-.43,.03-.86-.27-1.6-.2,.43-.39,.86-.59,1.29,.29,.11,.57,.21,.86,.31Zm204.63,735.83c.18-4.81,.41-9.61,.23-14.42-.14-3.11-.43-6.16-1.01-9.23-.49-2.6-1.23-5.16-2.03-7.68-1.37-4.26-2.68-8.61-4.51-12.7-1.86-4.16-4.2-8.11-7.14-11.6-3.07-3.66-6.5-7.13-10.03-10.34-7.77-7.07-17.81-10.64-27.97-12.66-10.37-2.06-20.85-3.27-31.43-3.34-4.93-.03-9.91,.04-14.79,.84-2.66,.44-5.32,1.05-7.95,1.74-.93,0-1.88,.11-2.78,.23-3.29,.43-6.55,1.65-9.58,2.96-4.79,2.09-9.29,4.73-13.51,7.81-7.03,5.14-13.59,11.07-18.56,18.28-6.17,8.95-9.61,19.47-10.99,30.2-.64,4.91-.94,9.87-.74,14.82,.25,6.05,1.1,12,2.27,17.93,0,0,0,.02,0,.02,.11,.55,.22,1.1,.33,1.65-.05,.52-.13,1.04-.24,1.55-.43,2.05,.41,2.99,1.48,4.07,1.77,7.52,4.04,14.92,7.15,22.02,1.83,4.16,4.03,8.15,6.47,11.98,2.31,3.63,4.7,7.2,7.43,10.53-.03-.03-.05-.06-.07-.09l.11,.13s.05,.05,.07,.08c2.93,3.45,6.24,6.43,9.94,9.05,3.2,2.27,6.42,4.58,9.81,6.57,2.32,1.36,4.73,2.42,7.34,3.1,2.57,.67,5.18,1.2,7.82,1.46,4.52,.45,9.1,.61,13.64,.71,.98,.02,1.97,.04,2.95,.04,8.59,0,17.11-.86,25.46-2.96,3.7-.93,7.37-1.97,11-3.13,.77-.11,1.57-.33,2.19-.72,2.05-.69,4.08-1.43,6.07-2.27,2.11-.9,4.16-1.98,6.19-3.06,3.71-1.98,7.34-4.11,10.76-6.56,3.68-2.64,6.64-6.09,9.24-9.76,.9-1.3,1.73-2.62,2.53-3.98,.04-.07,.08-.14,.12-.21,.02-.02,.03-.05,.05-.08,.02-.02,.03-.05,.04-.07,2.28-4.03,4.28-8.2,5.97-12.5,1.27-1.6,2.09-3.53,1.95-5.23v-.15c1.24-3.83,2.25-7.74,2.99-11.72,.32-1.79,.59-3.56,.8-5.37,.23-2.05,.39-4.09,.51-6.14v-.02c.02-.31,.04-.62,.05-.94-.01,.14-.02,.29-.03,.43,.2-3.71,.29-7.43,.4-11.14,.01-.31,.02-.61,.04-.92,0,.27-.02,.53-.03,.8Zm.8-204.09c.03-3.66-.02-7.3-.23-10.96,0-.04,0-.07,0-.11-.66-10.27-2.43-20.71-6.88-30.08-3.84-8.1-9.34-15.5-16.58-20.86-7.79-5.78-16.77-9.86-25.98-12.8-1.22-.38-2.45-.75-3.69-1.09-4.98-1.34-10.07-2.27-15.19-2.89-4.84-.59-9.79-.92-14.66-.55-5.12,.38-10.2,1.18-15.11,2.71-2.75,.86-5.46,1.89-8.1,3.06-.07,0-.13,0-.2,0-2.06,.11-4.07,.4-6.08,.87-4.48,1.05-8.7,2.99-12.73,5.17-3.94,2.13-7.71,4.62-11.08,7.59-4.11,3.62-7.72,7.73-11.04,12.09-6.61,8.66-11.06,18.62-14.33,28.96-3.2,10.12-4.8,20.68-3.98,31.31,.48,6.13,1.86,12.23,3.99,18,2,5.41,4.56,10.49,7.55,15.4,0,.02,.02,.03,.03,.05,0,0,0,0,0,0,.02,.03,.04,.06,.05,.09,0,0,0,.01,.01,.02,3.02,4.9,6.5,9.52,10.37,13.79,7.04,7.76,15.12,14.95,24.3,20.08,2.28,1.28,4.62,2.45,7.07,3.37,2.44,.91,4.94,1.62,7.46,2.26,4.93,1.26,9.93,2.19,14.98,2.77-.32-.04-.64-.07-.96-.11,4.19,.5,8.49,.92,12.76,.92,2.26,0,4.51-.12,6.73-.41,7.31-.94,14.57-2.69,21.49-5.23,4.97-1.82,9.7-4.19,14.24-6.91,3.83-2.3,7.61-4.73,11.18-7.43,1.88-1.43,3.77-2.88,5.47-4.53,1.92-1.86,3.57-3.93,5.07-6.13,2.54-3.73,4.52-7.77,6.13-11.96,.6-.59,1.4-1.18,1.58-1.88,.26-.99,.21-2.05,.16-3.12,.26-.82,.52-1.65,.76-2.48,0,0,0-.02,0-.02,0-.02,.01-.04,.02-.05h0s0-.02,0-.02l.05-.15c.64-2.24,1.23-4.49,1.73-6.77,.51-2.19,.94-4.39,1.33-6.61,.46-2.59,.84-5.18,1.18-7.77h0s0,0,0-.01h0s0-.02,0-.02c.02-.15,.04-.3,.05-.45,.65-5.39,.97-10.79,1.05-16.22,0-.02,0-.05,0-.07v-.23c0-.06,0-.12,0-.18,0-.12,0-.25,0-.38h0Zm.03-398.5c0-.22,0-.43,0-.65,0,.15,0,.31,0,.46,.05-4.21-.09-8.4-.4-12.6v-.03s0,0,0-.01h0c0-.06,0-.11-.01-.16-.73-8.89-2.29-17.82-5.51-26.17-1.49-3.86-3.49-7.54-5.68-11.04-2.61-4.16-5.44-8.18-8.59-11.95-3.47-4.13-7.16-8.02-11.27-11.52-3.77-3.21-7.77-6.21-12.13-8.58-4.84-2.63-10.02-4.65-15.28-6.24-4.46-1.35-8.98-2.6-13.58-3.39-9.85-1.71-19.83-1.35-29.63,.45-3.02,.57-6.02,1.25-8.93,2.26-2.64,.92-5.18,2.11-7.59,3.51-2.98,1.74-5.6,3.9-7.9,6.36-13.72,9.89-23.88,24.36-30.77,39.66-4.46,9.9-7.78,20.32-9.06,31.13-.63,5.32-.6,10.66,.12,15.96,.84,6.18,2.75,12.15,5.09,17.91h0s.03,.08,.05,.11c.05,.12,.1,.24,.14,.36v.02c2.07,4.94,4.61,9.65,7.61,14.09,3.04,4.47,6.54,8.66,10.26,12.57,6.24,6.54,13.02,12.74,20.94,17.19,.08,2.22,1.07,3.06,3.19,3.31,1.6,.19,3.2,.36,4.8,.53,7.05,2.88,14.62,4.66,22.18,4.97,1.01,.04,2.02,.06,3.04,.06,8.37,0,16.74-1.34,24.96-2.7,2.72-.45,5.42-.96,8.11-1.56,.48,0,.95-.02,1.42-.04,2.55-.12,5.11-.32,7.64-.65,.71-.09,1.73-.58,1.95-1.14,.16-.42,.32-.84,.47-1.27,2.76-.89,5.48-1.89,8.17-3.02,4.13-1.73,8.15-3.72,11.81-6.32,4.31-3.06,8.04-6.85,11.03-11.22,3.11-4.56,5.41-9.64,7.3-14.81,1.77-4.82,3.15-9.82,4.14-14.86,1.27-6.8,1.77-13.7,1.91-20.61,0-.05,0-.11,0-.16,0-.07,0-.14,0-.21Zm.72,208.74c.09-2.63,.14-5.25,.1-7.88,0-.39-.01-.78-.02-1.17v.24c-.05-2.41-.19-4.8-.42-7.2h0c-.03-.31-.06-.63-.1-.95,0,.09,.02,.18,.02,.27-.36-3.58-.86-7.13-1.53-10.67,0,0,0-.01,0-.02,0,0,0-.02,0-.02h0s-.02-.08-.03-.12c0-.02,0-.04-.01-.05,0,0,0-.01,0-.02,0,0,0-.01,0-.02h0c-.02-.09-.04-.18-.06-.27-.02-.09-.04-.18-.05-.27,0-.05-.02-.09-.03-.14v-.02s0,0,0,0,0,0,0-.01c0,0,0,0,0-.02h0s0,0,0,0c0-.03-.02-.07-.02-.11,0,0,0-.02,0-.02,0-.01,0-.03,0-.04,0-.02,0-.03,0-.05-.02-.11-.05-.23-.07-.35-.61-3.02-1.33-6-2.18-8.96l-.02-.08c-.02-.07-.04-.14-.06-.21l-.04-.12c-.84-2.79-1.79-5.56-2.88-8.27-.26-1.68-.55-3.34-.85-5.01-.15-.82-.61-2.19-1.09-2.27-.5-.08-1.01-.15-1.52-.22-.05-.09-.1-.19-.15-.29-2.84-5.29-6.39-10.14-10.52-14.5-6.75-7.12-15.13-12.4-24.07-16.36-5.31-2.35-10.88-3.91-16.65-4.55-1.13-.12-2.27-.21-3.4-.27,.15-1.84-1.91-2.92-3.96-2.79-3.39,.22-6.81,.41-10.23-.39-2.27-.53-4.67-.6-7.01-.64-1.11-.02-2.21,.26-3.33,.44-.84-.18-1.7-.29-2.54-.39-1.54-.2-3.11-.16-4.65-.09-3.99,.2-8.03,1.3-11.76,2.69-4.29,1.61-8.36,3.73-12.41,5.88-3.69,1.95-7.31,4-10.68,6.49-4.14,3.05-8.04,6.54-11.33,10.5-2.86,3.44-5.39,7.16-7.64,11.01-5.02,8.57-8.3,18.2-10.68,27.82-1.15,4.66-2.06,9.34-2.36,14.14-.33,5.29,.05,10.56,.8,15.8,.02,.11,.03,.22,.05,.33,.01,.07,.02,.15,.04,.23,1.01,6.64,2.61,13.23,4.92,19.54l-.07-.04c.03,.35-.04,.94,.11,1.01,.11,.05,.23,.07,.36,.08,.61,1.59,1.26,3.16,1.95,4.7,1.29,2.87,2.67,5.7,4.35,8.36,1.42,2.26,2.97,4.43,4.62,6.52,3.38,4.29,7.08,8.36,11.24,11.91,4.01,3.42,8.35,6.4,13.14,8.62,4.16,1.93,8.47,3.43,12.9,4.58,.02,0,.03,0,.04,.01,.04,.01,.08,.02,.11,.03,0,0,.02,0,.02,0,8.19,2.04,16.73,3.09,25.21,3.09,2.43,0,4.85-.09,7.26-.26,11.09-.8,22.09-3.01,32.66-6.46,1.34-.44,2.68-.9,4.01-1.39,1.48-.23,2.94-.34,4.36-.16,2.29,.3,2.46-.1,3.26-1.82,.36-.77,2.66-.61,4.07-.95,.2-.05,.41-.46,.44-.72,.07-.61,.15-1.23,.24-1.84,2.8-1.5,5.5-3.17,8.02-5.15,3.71-3.05,6.9-6.66,9.49-10.7,1.86-.24,2.07-2.34,2.36-4.09,2.52-4.84,4.34-9.95,5.62-15.25,1.02-4.36,1.75-8.76,2.17-13.22,0,0,0,0,0,0,.03-.29,.05-.58,.08-.88,.2-2.18,.36-4.34,.44-6.54Zm201.2,72.11s.19-.5,.29-.76c-.73-.15-1.46-.29-2.81-.44-.07,.07-.16,.14-.21,.22-.03,.05,0,.2,.02,.21,.9,.27,1.8,.55,2.71,.77Zm89.88-268.38c.82-8.96,1-18.01,.53-26.99,0,0,0,0,0,.01,0-.15-.02-.3-.03-.45,0-.05,0-.1,0-.15h0c0-.12-.01-.23-.02-.34h0c-.32-5.5-.88-11-2-16.4-2.14-10.43-6.91-20.14-13.42-28.53-1.58-2.03-3.24-3.99-5.04-5.82-.14-.14-.28-.28-.41-.41-.03-.03-.05-.05-.07-.08-1.96-2-3.99-3.92-6.16-5.68-4.36-3.55-9.03-6.7-14.1-9.16-4.77-2.31-9.72-4.16-14.84-5.53-10.26-2.75-21.06-3.7-31.58-1.98-5.43,.89-10.93,2.24-15.9,4.68-.44,.21-.88,.44-1.3,.66-3.3,.49-6.53,1.38-9.68,2.52-.8,.01-1.6,.04-2.4,.09-1.02,.07-2.7,.95-2.84,1.7-.02,.11-.04,.23-.06,.34-2.79,1.24-5.5,2.65-8.09,4.27-9.14,5.74-16.67,13.66-22.52,22.68l.3-.48c-.18,.27-.35,.54-.52,.81,.07-.11,.14-.22,.22-.33-2.86,4.48-5.27,9.25-7.29,14.17-.82,.94-1.36,2.05-1.36,3.51-.79,2.15-1.51,4.33-2.16,6.52-1.16,3.92-2.04,7.94-2.7,11.97-.7,4.31-1.25,8.66-1.26,13.03,0,9.93,1.79,19.82,4.52,29.35,2.79,9.72,7.09,19.32,13.7,27.05,6.04,7.07,13.54,13.12,21.79,17.41,4.97,2.59,10.28,4.51,15.56,6.33,4.96,1.71,10.02,3.15,15.17,4.21,5.58,1.15,11.24,1.94,16.93,2.22,.93,.05,1.86,.07,2.79,.07,4.72,0,9.42-.56,14.09-1.29,4.59-.72,9.04-1.8,13.34-3.56,4.88-1.99,9.49-4.34,13.78-7.41,1.21-.89,2.35-1.81,3.49-2.8,3.75-3.29,7.17-6.86,10.32-10.73,0,0,0,0,0-.01,.02-.02,.04-.04,.05-.06h0s.05-.07,.08-.1c0,0,.01-.01,.01-.02,0,0,.02-.01,.02-.02,1.27-1.59,2.46-3.22,3.63-4.88,.01-.02,.03-.04,.04-.05l.08-.12c1.39-2,2.7-4.03,3.96-6.11,1.5-2.49,2.9-5.03,4.23-7.62,.11-.21,.22-.43,.32-.65-.09,.16-.17,.33-.25,.49,.88-1.77,1.67-3.58,2.38-5.42,.28-.3,.48-.64,.5-.93,.02-.18,.03-.36,.04-.54,2.16-6.02,3.45-12.35,4.04-18.72,.03-.25,.05-.5,.07-.75t0,0Zm4.13,185.23c.56-6.33,.34-12.86-.91-19.1-.56-2.82-1.21-5.64-2.15-8.36-.2-.57-.38-1.14-.6-1.7-.38-1.32-1-2.62-1.54-3.83-.61-1.36-1.25-2.7-1.93-4.02-2.38-4.62-5.27-8.94-8.43-13.07-3.28-4.28-6.73-8.53-10.66-12.24-7.52-7.1-16.58-12.31-26.2-16.03-4.32-1.67-8.75-3.08-13.17-4.45-4.76-1.48-9.59-2.74-14.56-3.31-3-.34-5.99-.5-9-.25-.02,0-.05,0-.08,0-1.07-.46-2.23-.68-3.41-.68-.27,0-.55,.01-.82,.04-1.14,.1-2.29,.22-3.44,.36-2.38,.28-4.73,.64-7.06,1.22-.18,.05-.36,.09-.54,.14l-.11,.02c-2.83,.73-5.63,1.54-8.39,2.52-4.51,1.59-8.88,3.48-13.05,5.83-4.61,2.59-9.04,5.57-13.25,8.74-4.02,3.02-7.84,6.28-11.18,10.05-3.83,4.31-7.06,9.1-9.88,14.12-2.61,4.64-4.87,9.47-6.38,14.58-2.95,10.01-3.42,20.57-2.98,30.94,.23,5.56,.92,11.12,2.12,16.56,1.2,5.43,2.73,10.83,4.84,15.99,3.49,8.55,7.46,17.37,14.26,23.83,3.16,3,6.69,5.7,10.27,8.19,1.84,1.28,3.77,2.47,5.76,3.56,.07,1.01,.46,1.76,2.12,1.77,.59,0,1.17,.08,1.76,.19,.93,.43,1.87,.84,2.82,1.22,4.46,1.8,9.05,3.18,13.7,4.39,4.98,1.3,10,2.31,15.11,2.95,5.46,.68,10.97,1.13,16.46,1.13,4.77,0,9.54-.34,14.27-1.16,4.94-.85,9.76-2.19,14.48-3.86,2.21-.78,4.4-1.61,6.57-2.51,2.59-1.08,5.2-2.18,7.65-3.57,.19-.1,.37-.21,.55-.31,.06,.07,.12,.14,.18,.22,.05-.14,.11-.28,.16-.42,4.32-2.49,8.53-5.3,12.1-8.8,2.16-2.12,4.24-4.34,6-6.81,1.6-2.26,3.02-4.6,4.33-7.03,.02-.04,.04-.07,.06-.11,.02-.02,.03-.05,.04-.07v-.02s.02,0,.02-.02c.01-.01,.02-.02,.02-.04h0s0-.01,0-.02c0,0,0,0,0,0v-.02s.03-.03,.04-.05c0,0,0,0,0-.02,0,0,0,0,0-.02l.04-.06s0-.02,0-.03h0c2.62-5,4.73-10.24,6.62-15.57h0s.03-.06,.04-.1c.04-.1,.07-.21,.11-.31-.02,.07-.05,.13-.07,.2,1.27-3.64,2.39-7.31,3.37-11.05,.03-.1,.06-.21,.08-.31v-.04c.04-.08,.05-.17,.08-.25,0-.02,.01-.04,.02-.07t0,0v-.02s.02-.05,.02-.07c.01-.04,.02-.09,.04-.13,1.59-6.18,3.07-12.48,3.64-18.84Zm51.16-321.33c.05,.1,.71-.11,1.09-.18-.49-.77-.97-1.53-2.08-2.29,.32,.83,.6,1.68,1,2.47Zm22.4,382.98c-.07,.49-.05,1.01-.21,1.46-.5,1.39-1,2.78-1.51,4.17-.07,0-.14,.02-.22,.02-9.35,1.01-18.56,2.6-27.74,4.62-19.11,4.21-37.95,9.53-56.71,15.05-7.33,2.16-14.59,4.52-21.8,7.05-3.16-.73-8.98,.71-10.3,3.28-.09,.18-.18,.37-.28,.55-7.72,2.89-15.4,5.96-22.95,9.27-9.29,4.07-18.11,9.16-26.71,14.51-8.61,5.35-17.07,11.03-24.93,17.45-8.44,6.9-16.15,14.59-23.39,22.74-6.81,7.66-13.21,15.71-19.11,24.1-.05,.07-.1,.14-.14,.2l-.02,.04s0,.01-.01,.02c-3.25,4.66-6.27,9.5-9.07,14.45-4.83,8.55-8.95,17.45-12.64,26.54-4.21,10.35-7.5,20.99-10.19,31.83-.25,1.02-.49,2.04-.73,3.05-.61,2.6-1.18,5.21-1.72,7.83-.08,.31-.15,.62-.2,.95,0,.01,0,.02,0,.04-.08,.39-.16,.79-.24,1.18-.09,.45-.18,.89-.27,1.34,0-.04,.02-.08,.02-.12-.02,.1-.04,.21-.06,.31,0,.02,0,.05-.02,.07-.06,.31-.12,.61-.18,.92-.04,.23-.09,.46-.14,.7,0,.02,0,.04,0,.05t0,0s0,0,0,.01c-.39,2.05-.78,4.11-1.13,6.18-1.82,10.55-3.25,21.18-3.74,31.88-.47,10.23-.41,20.53,.3,30.75,.74,10.62,2.18,21.12,4.71,31.47,2.45,10.02,5.68,19.96,9.65,29.49,4.22,10.14,9.39,19.75,14.96,29.21,5.4,9.16,11.28,17.99,17.67,26.49,.01,.02,.02,.03,.04,.04,1.98,2.64,4.02,5.23,6.08,7.81,4.51,5.61,9.12,11.16,14.04,16.42,2.7,2.89,5.46,5.72,8.3,8.48,.02,.02,.04,.04,.05,.06,.21,.23,.44,.45,.67,.64,.02,.02,.04,.04,.06,.05,2.34,2.25,4.71,4.46,7.13,6.63,7.62,6.93,15.57,13.58,24.07,19.42,8.5,5.84,17.35,11.19,26.58,15.79,9.19,4.58,18.61,8.85,28.37,12.1,.67,.22,1.34,.45,2.01,.66-1.28,.03-2.53-.02-3.65-.43-1.14-.43-1.49-.56-2.29,.27-.49,.5-1,.93-1.42,.93s-.74-.41-.91-1.56c-.08-.56-1.15-.99-1.77-1.48-1.58,3.19-3.52,.51-5.33,.36-1.82-.15-4.54-.89-5.3-.02-.99,1.15-1.98,.86-3,.56-.89-.26-1.8-.52-2.74,.21-1.27,.99-4.16,.21-6.23-.25-.4-.09-.88,.09-1.37,.27-.99,.36-2,.73-2.39-1.17,0,0-1.03,.05-1.09,.23-.56,1.82-1.76,1.37-3.13,1.16-3-.46-6.18-1.39-9.02-.82-.03,0-.06,.01-.09,.02-1.35-1.8-3.44-3.04-5.78-2.97-16.34,.49-32.68,.86-49.02,1.21-.15,0-.3,0-.45,0h.21c-14.74,.31-29.46,.92-44.2,1.45-.65,.02-1.3,.05-1.96,.07-1.09-.16-2.19-.19-3.29,.11-.84,.03-1.67,.05-2.51,.07-2.41-.27-4.81-.52-7.21-.77-.07,0-.14,.16-.23,.2-.72,.35-1.52,.62-2.37,.8-1.85,.04-3.7,.07-5.54,.1-1.48-.25-2.89-.73-4.07-1.43-.14-.08-.55,0-.58,.08-.21,.77-.54,1.2-.93,1.43-.87,.01-1.73,.02-2.6,.04-.3-.04-.6-.07-.87-.05-.38,.03-.75,.05-1.13,.07-.9,.01-1.81,.02-2.71,.03-.38,0-.76-.01-1.14-.02-.91-.02-1.81-.03-2.71-.02-.92,.01-1.84,.05-2.77,.1-1.48,.02-2.96,.03-4.44,.04-1.95-.21-4.41-1.23-5.36-.41-.72,.62-1.6,.44-2.43,.25-.83-.19-1.61-.38-2.13,.25-.57,0-1.14,.01-1.7,.02-.71-.45-1.47-.96-1.9-.77-.41,.18-.92-.03-1.43-.23-.89-.37-1.75-.74-2.01,1.06-.05,0-.1,0-.15,0-1.3-.32-2.6-.65-3.91-.93-.39-.09-1.1-.14-1.2,.03-.22,.42-.46,.73-.72,.94-2.33,.02-4.66,.03-6.99,.03-.31-.07-.62-.17-.94-.26-1.41-.42-2.86-.84-4.32,.27h-.06c-.19-.07-.66-.59-1.02-.65-.39-.07-.88,.1-1.25,.3-.18,.09-.34,.21-.5,.34-1.9,0-3.8-.02-5.7-.03-19.62-.17-39.24-.72-58.87-.94-20.3-.23-40.57,.59-60.84,1.41,.09,0,.17,0,.26,0-.19,0-.38,.01-.56,.02-.04,0-.08,0-.13,0-.02,0-.04,0-.07,0-.02,0-.04,0-.06,0,0,0,.01,0,.02,0-.19,0-.38,.01-.57,.02-.02,0-.05,0-.07,0-3.42,.13-6.85,.28-10.27,.43,.02-.11,.03-.23,.02-.37-.33,.14-.66,.27-.99,.41-6.23,.26-12.46,.49-18.69,.59,.21-.22,.41-.48,.62-.7-.54-.09-1.17-.36-1.67-.36-.15,0-.29,.03-.4,.09-.33,.17-.57,.52-.79,1-5.63,.05-11.26-.03-16.88-.33,.03-.02,.06-.04,.09-.06-.2-.2-.47-.61-.62-.61,0,0-.01,0-.02,0-.54,.17-1.09,.34-1.63,.54-3.32-.21-6.66-.51-9.98-.9-.03,0-.06,0-.09-.01-.03,0-.05,0-.08,0-.01,0-.03,0-.04,0-.02,0-.04,0-.05,0-.19-.03-.38-.05-.57-.07-6.52-.89-12.96-2.16-19.26-4.07-.04-.01-.08-.02-.12-.04-.08-.02-.16-.05-.24-.07-.04-.01-.07-.02-.11-.04-3.96-1.28-7.84-2.79-11.58-4.61,.18-1.87-.35-3.79-1.49-5.29-.67-.89-1.5-1.56-2.43-2.05-.15-.2-.3-.39-.44-.6-.57-.94-1.09-1.89-1.59-2.87-.99-2.15-1.81-4.36-2.56-6.61-4.97-15.66-7.86-31.83-9.32-48.18,0-.02,0-.04,0-.06s0-.04,0-.05c0,0,0-.02,0-.03,0-.04,0-.07,0-.11,0-.01,0-.03,0-.04v-.12c-.02-.13-.03-.26-.04-.38,0-.02,0-.03,0-.05v-.18s-.02-.02-.02-.02c0-.02,0-.03,0-.04,0-.08-.02-.17-.02-.25t0,0s0,.07,.01,.11c-.04-.55-.09-1.11-.14-1.66,0-.02,0-.04,0-.07,0-.04,0-.09,0-.13,0-.02,0-.03,0-.05,0-.06,0-.12-.02-.17,0,.01,0,.03,0,.04,0-.05-.01-.11-.02-.17,0-.07-.01-.14-.02-.21-1.09-15.02-.94-30.08-.71-45.13h0v-.02c0-.11,0-.23,0-.34,0-.04,0-.09,0-.13v-.22h0v-.04s0-.08,0-.12c0-.04,0-.08,0-.12,0,.01,0,.03,0,.04,0-.06,0-.12,0-.18,.16-8.89,.41-17.79,.62-26.68,.27-10.64,.32-21.29-.41-31.92-.36-5.27-1.04-10.52-1.74-15.76-.18-1.31-.36-2.62-.54-3.93-.07-.53-.14-1.04-.22-1.53-.02-.22-.05-.44-.08-.66-.19-1.32-.38-2.63-.57-3.95-.37-2.57-.75-5.13-1.14-7.7-.75-4.91-1.53-9.82-2.29-14.73-.93-5.94-1.86-11.87-2.82-17.8V352.86c0-8.57-.05-17.13,.03-25.7,.02-2.73,.59-5.45,.55-8.17-.07-5.32-.5-10.65-.54-15.97-.03-3.52,.48-7.04,.54-10.57,.03-2.03-.45-4.06-.54-6.09-.04-.77,.62-1.59,.54-2.34-.55-5.3-1.18-10.59-1.86-15.87-.04-.34-.2-.68-.39-1,.21-3.41,.42-6.81,.61-10.21,.01-.16,.02-.33,.03-.5,0-.16,.02-.32,.03-.49,.01-.23,.03-.46,.04-.69,.53-9.19,1.21-18.38,1.62-27.57,.39-8.79,.7-17.58,1.05-26.37,0-.06,0-.12,0-.18,0-.03,0-.05,0-.09,0-.05,0-.11,0-.17,0-.07,0-.14,0-.21,0-.07,0-.14,0-.22,0-.02,0-.03,0-.04h0c.46-10.53,.83-21.06,1.2-31.6,.32-9.26,.29-18.58,1.16-27.81,.32-2.81,.8-5.59,1.45-8.35,.39-1.49,.85-2.95,1.39-4.4,.55-1.32,1.16-2.59,1.84-3.85,.48-.81,.98-1.61,1.53-2.38,.43-.54,.88-1.06,1.35-1.57,.3-.29,.61-.56,.94-.83,.29-.2,.58-.4,.88-.59,.59-.3,1.19-.58,1.8-.85,0,.05,0,.11,.01,.17,.28,.14,.55,.28,.83,.42-.07-.28-.14-.56-.21-.84,1.34-.51,2.71-.95,4.1-1.33,1.58-.36,3.18-.62,4.79-.81,2.13-.21,4.27-.32,6.4-.43,8.3-.39,16.59-.23,24.89-.12,9.24,.12,18.48,.16,27.71,.13h.09c.14,0,.29,0,.43,0h.51c9.46-.03,18.92-.04,28.38,.1,9.32,.12,18.65,.48,27.97,.5,6.75,.01,13.51-.05,20.26-.11,3.8-.04,7.6-.03,11.4-.02,5.56,.01,11.11,.02,16.67-.1,10.41-.23,20.79-1.06,31.15-1.96,5.56-.48,11.11-.96,16.66-1.45,4.45,.6,8.95,.91,13.43,1.16,.05,0,.11,0,.15,0,.2,.02,.39,.02,.59,.04,.03,0,.06,0,.09,0h.04c15.42,.86,30.87,1.26,46.31,1.27,1.86,0,3.73,0,5.59,0,7.04,0,14.09-.04,21.13-.31,4.24-.16,8.48-.36,12.72-.56,1.17-.06,2.35-.12,3.52-.18,.29-.02,.58-.04,.86-.06,.26,0,.52,0,.78-.02,.59-.03,1.19-.06,1.78-.09,2.45-.13,4.89-.28,7.34-.43,3.95-.24,7.89-.5,11.84-.75,.1,.04,.2,.07,.3,.11,1.18,.46,2.64,.04,4.15-.38,.02,0,.04,0,.05-.01,3.9-.23,7.79-.44,11.69-.61,1.22,.14,2.45,.43,3.68,.99,1.07,.49,2.5,.06,3.98-.36,1.08-.31,2.18-.62,3.2-.57,1.2,.05,2.4,.01,3.6-.03,.78-.02,1.56-.05,2.34-.05,2.12,0,4.25,.17,6.43,.98,1.44,.54,3.21,.1,5.01-.34,1.25-.3,2.53-.61,3.74-.58,5.25,.11,10.47,1.02,15.71,1.07,3.77,.04,7.55-1.01,11.34-1.09,2.11-.04,4.22,.1,6.34,.24,2.31,.15,4.62,.3,6.93,.22,3.24-.12,6.34-.59,9.71-.11,4.3,.62,8.81-.26,13.24-.4,.68-.02,1.38,.06,2.07,.15,.79,.1,1.57,.2,2.35,.14,1.96-.14,4.16-1.34,5.76-.75,1.81,.67,2.07-.46,2.96-1.03,.43-.28,1.47-3.52,1.37,.21,0,.2,.94,.68,1.03,.59,.9-.87,1.96-.73,2.98-.58,.78,.11,1.53,.22,2.14-.13,1.07-.63,5.63,.61,2.66-3.4-.19-.25,0-.78,.04-1.21,.42,.11,.84,.21,1.26,.32,.27,.74,.29,1.57,.48,2.35,.12,.5,.3,1.05,.62,1.42,.24,.27,.77,.28,1.17,.41,.02-.55,.21-1.16,.04-1.63-.3-.83-.34-1.48-.18-1.99,1.98,.52,3.96,1.07,5.93,1.63-1.17,.11-2.34,.25-3.5,.42-.27,.04-.45,.78-.35,1.51,1.12,.49,2.23,1.36,3.35,1.38,1.46,.02,2.96-.59,4.38-1.1,.09-.03,.04-.55-.06-1.09,4.41,1.32,8.8,2.71,13.18,4.12,8.25,2.66,16.5,5.37,24.91,7.53,8.23,2.11,16.68,3.46,24.77,6.08,1.45,.51,2.89,1.05,4.31,1.63,.25,1.34,.51,2.67,.75,4,.03,.15,.05,.3,.08,.45-.43,.96-.8,1.96-.93,2.98-.2,1.52,.13,3.11,.16,4.68,0,.29-.34,.58-.53,.87-.23-.25-.6-.46-.67-.75-.46-1.83-1.05-3.66-1.21-5.52-.12-1.38,.38-2.8,.55-4.21,.11-.87,.14-1.75,.21-2.63-1.07,.27-2.68,.22-3.08,.89-.64,1.09-.79,2.69-.6,4,.29,1.97,1.7,3.97,1.45,5.8-.46,3.39,.26,6.22,2.02,8.97,.31,.49,.59,1,.88,1.51,.12-.53,.23-1.07,.38-1.6,.18-.7,.39-1.39,.59-2.09,.43,.69,1.16,1.36,1.22,2.08,.18,2.01,.12,4.12,2.13,3.65,.05,.43,.1,.87,.15,1.3,.39,3.81,.77,7.62,1.15,11.44,.92,9.25,2.03,18.46,3.11,27.69,1.1,9.51,1.89,19.03,2.55,28.57,0,0,0,0,0,0,0,.03,0,.06,0,.09h0s0,.03,0,.04c0,.05,0,.1,0,.15,0,.09,.01,.18,.02,.28,.01,.15,.02,.3,.03,.45,0-.09-.01-.17-.02-.26,.77,11.83,1.59,23.66,2.11,35.51-.14,.23-.3,.45-.47,.68-.24,.32,.2,1.19,.59,1.97,.01,.32,.02,.64,.04,.96,.16,4.75,.26,9.5,.34,14.26,0,.33,.01,.66,.02,.98-.18,.42-.4,.84-.66,1.25-.66,1.09-1.29,2.61,.72,3.38,0,0,.02,0,.02,0,.1,4.48,.24,8.96,.45,13.44-.03,.16-.05,.32-.08,.48-.41,2.32-1.22,3.61-.06,6.46,.35,.86,.59,1.77,.73,2.73l.2,2.53c.04,2.71-.41,5.59-.85,8.22-.38,2.3-1.34,3.55-.09,6.46,1.59,3.7,.65,8.76-.07,13.09-.38,2.25-2.73,4.18,.46,6.08,.18,.11,.02,.79,.02,1.21,0,3.74,.28,7.52-.09,11.23-.28,2.84-2.32,5-.23,8.58,1.63,2.79,.5,7.31,.24,11.04-.1,1.44-1.62,2.81-1.65,4.22-.02,1.27,1.76,2.64,1.62,3.84-.56,5.16,1.96,10.66-1.66,15.54-.32,.44,.66,1.87,1.09,2.82,.16,.35,.66,.64,.66,.96,.05,4.27,.58,8.63-.18,12.76-.44,2.39-3.06,4.38,.21,6.55-.74,5.18,1.57,10.64-1.43,15.64-.43,.71-.7,2.31-.38,2.53,3.39,2.36,1.55,5.76,1.71,8.63,.16,2.91,1.05,6.14-1.7,8.66-.41,.37-.11,2.45,.19,2.53,2.48,.68,1.5,2.61,1.58,4.06,.12,2.28,.04,4.58,.03,6.87-.01,2.2,.31,4.4-1.53,6.29-.39,.41,.39,2.03,.71,3.06,.17,.54,.84,1.07,.77,1.53-.77,5.14,1.87,10.65-1.71,15.53-.42,.57,0,1.77,.04,2.68,.56-.05,1.14-.04,1.68-.17,.25-.06,.43-.39,.65-.6-.03,1.07-.05,2.13-.14,3.19,0,.03-.7,.1-1.02-.02-.46-.17-.86-.49-1.29-.75,.12,.75,.1,1.56,.41,2.21,.26,.54,1.38,.93,1.34,1.3-.45,3.74,1.46,7.8-1.46,11.25-.3,.36-.14,1.1-.2,1.66,.43-.1,.86-.28,1.29-.29,.56-.02,1.13,.09,1.69,.14Z"/>
</svg>