<?xml version="1.0" encoding="UTF-8"?>
<svg id="Calque_vectoriel" data-name="Calque vectoriel" xmlns="http://www.w3.org/2000/svg" viewBox="0 0 700 700">
  <defs>
    <style>
      .cls-1 {
        fill: rgba(255, 0, 214, 0);
      }

      .cls-2 {
        fill: #ff00d6;
      }

      .cls-3 {
        fill: #0f00ff;
      }
    </style>
  </defs>
  <path d="M245.08,303.39c1.11-.11,2.22-.22,3.32-.32-1.03-.68-2.44-.73-3.51-.11l.18,.44Z"/>
  <path d="M84.73,69.82c-1.75,1.71-3.91,3.01-6.25,3.72,1.91-1.61,4-2.82,6.25-3.72Z"/>
  <path d="M179.07,264.88c.86,5.93,3.36,10.96,6.91,15.43-8.72-8.77-17.23-17.74-25.19-27.21-6.91-8.35-13.17-17.23-20.15-25.52-10.23-7.51-19.53-16.08-26.84-26.75-9.11-11.58-17.01-23.98-24.54-36.63-7.95-12.29-14.39-25.63-18.14-39.8-3.49-14.66-6.36-31.61,2.42-44.98,1.23-2.04,2.64-3.75,4.19-5.19,2.73,5.05-.69,12.42-6.39,13.45,1.56,3.06,2.89,6.23,3.97,9.49,.2,.59,.38,1.17,.56,1.76,2.33,7.67,3.34,15.74,2.99,23.75-.07,1.58-.19,3.17-.38,4.74-.35,3.16-.93,6.3-1.72,9.38,2.69,.98,5.38,1.96,8.06,2.95,.62,3.93,1.24,7.87,1.87,11.8,4.87,9.5,11.34,18.17,19.04,25.55,3.54,8.7,7.08,17.39,10.61,26.08l21.45,21.09c1.6,1.57,3.19,3.14,4.79,4.7l36.52,35.92Z"/>
  <path d="M230.19,116.55c-1.43-.16-2.86-.32-4.29-.47-2.08-.23-4.16-.46-6.24-.69-3.71-3.95-7.41-7.9-11.12-11.85-14.91-8.38-29.83-16.76-44.74-25.14-2.35-1.32-4.69-2.64-7.04-3.96-3.26-1.21-6.55-2.3-9.88-3.29,.47-.02,.95,.03,1.42,.16,13.91,2.41,26.5,9.62,38.95,15.98,15.38,8.08,29.89,17.83,42.93,29.25Z"/>
  <path d="M248.04,134.34c-1-1.03-2.01-2.06-3.02-3.09-.32,.05-.64,.1-.96,.14-3.93,.47-7.99-.18-11.56-1.88-.27-.12-.54-.26-.8-.4,.03-.1,.07-.21,.09-.31,.74-2.45,.88-5.07,.45-7.6-.23-1.34-.62-2.64-1.17-3.88,6,5.31,11.67,10.98,16.96,17.01Z"/>
  <path d="M256.06,349.7c6.02,5.3,11.62,11.08,16.73,17.26-21.94-21.2-42.88-43.39-64.6-64.79-4.6-4.5-9.22-8.99-13.81-13.5,8.39,6.88,18.79,12.55,27.58,18.81,14.93,10.62,26.86,25.4,34.09,42.23Z"/>
  <path d="M273.56,160.48c-6.05-6.19-12.09-12.38-18.14-18.57,1.78,1.7,3.54,3.41,5.26,5.11,4.35,4.43,8.62,8.93,12.88,13.46Z"/>
  <path d="M414.67,461.93c1.62,.51,3.22,1.12,4.77,1.84-7.09,5.79-15.39,11.98-24.98,11.14-39.61-5.66-85.43-70.37-115.92-102.19,3.53,.62,7.06,1.25,10.59,1.88,2.24,1.79,4.43,3.64,6.57,5.55,.5,.45,1,.9,1.5,1.35,0,0,.01,.01,.02,.02,9.18,8.38,17.42,17.8,24.5,28.01,2.25,3.25,4.39,6.58,6.41,9.99,.62,1.04,1.22,2.09,1.81,3.14,6.98,7.56,13.95,15.12,20.93,22.68,.86,0,1.72,.05,2.57,.16,2.01,.25,3.97,.79,5.84,1.57,3.73,1.57,7.06,4.12,9.53,7.32,1.11,1.43,2.04,2.98,2.75,4.64,.27,.61,.5,1.23,.71,1.87,.95,.01,1.89,.02,2.83,.04,1.23,.02,2.47,.03,3.71,.05,1.92,.02,3.83,.05,5.75,.07-.35,1.11-.22,2.3,.25,3.36,.07,.18,.16,.36,.26,.54h0c.86,1.51,2.41,2.64,4.15,2.7,.98,.04,1.93-.28,2.74-.82,.08-.05,.15-.11,.23-.16,1.61-1.2,2.61-3.3,2.13-5.27,5.23-1.46,10.71-1.58,16.01-.57,1.46,.28,2.91,.64,4.34,1.09Z"/>
  <path d="M495.93,463.21c.75,.41,1.48,.86,2.2,1.34-2.14-1.16-4.53-2.08-6.71-2.81-2.33-.79-4.81-2.14-6.81-3.81,3.87,1.55,7.72,3.17,11.32,5.29Z"/>
  <path d="M507.49,474.11c-.95-.08-1.9-.16-2.86-.23,.27-1.93-.25-3.6-1.27-5.05,.98,.96,1.9,1.97,2.78,3.02,.45,.75,.89,1.5,1.34,2.25Z"/>
  <path d="M559.68,506.89c.16,1.76,1.09,3.07,2.43,4.09-1.54-.64-3.09-1.22-4.67-1.73-5.41-2.08-11.74-4.08-18.22-6.34l20.46,3.98Z"/>
  <path d="M612.39,565.53c.1,10.21,.2,20.41,.29,30.62-3.63-15.06-6.02-30.46-12.09-44.8-3.75-8.47-7.63-17.22-14.01-24.08-5.79-5.47-12.32-10.32-19.45-13.97,1.18,.36,2.38,.65,3.49,.92,20.92,5,36.42,26.77,34.29,48.18,2.49,1.04,4.98,2.09,7.47,3.13Z"/>
  <path class="cls-2" d="M194.05,165.81c-1.22,1.28-2.85,2.53-2.56,4.49-7.98,6.54-17.16,12.29-27.58,13.64-10.48,.97-3.72-7.61,.22-11.32,3.84-3.41,8.3-6,12.88-8.3,4.21-2.21,16.03-5.46,17.04,1.49Z"/>
  <path class="cls-2" d="M315.72,286.61c1.32,4.15,5.12,6.83,9.18,7.96-3.16,8.03-11.31,14.17-19.74,15.59-1.53,.02-3.5,.23-4.64-.99-2.08-8.54,9.86-17.06,15.2-22.56Z"/>
  <path class="cls-2" d="M323.18,283.6c1.72-.18,2.7,1.49,2.97,2.98-1.45-.48-2.64-1.41-3.03-2.91,.07,.09,.07,.04,.06-.01v-.06Z"/>
  <path class="cls-2" d="M245.08,303.39c1.11-.11,2.21-.21,3.32-.32-1.03-.68-2.44-.73-3.51-.11l.18,.43Zm142.52,45.71c5.03-2.63,5.79-10.21-1.11-9.89-2.47,.44-4.2,2.59-5.29,4.7-4.09,2.9-8.3,5.63-12.82,7.81-7.88,4.9-37.82,14.23-24.04-4.9,5.69-7.16,13.94-12.71,17.47-21.37,3.05-11.61-9.34-11.98-17.13-8.65,13.18-15.59,8.59-23.91-10.44-28.17,.96-8.39-8.14-16.64-15.91-11.39-2.31-1.41-4.6,.39-6.43,1.81-8.79,5.89-17.62,11.95-27.6,15.65-4.06,1.57-12.56,3.04-9.73-4.08,4.92-12.32,16.32-20.41,23.37-31.37,7.29-10.71-.84-18.16-11.96-13.27,.59-2.22-1.14-4.72-3.44-4.88-3.61-.26-6.54,2.53-9.71,3.86-9.33,4.51-19.06,9.56-29.6,10.05h-.08c-.37-.09-.73-.11-1.07-.08-2.05-.1-4.21-.03-5.79-.63,5.71-11.49,18.45-18.11,23.91-29.8,2.06-4.21,1.26-10.27-3.65-11.98-4.9-1.55-9.98,.99-14.66,2.33,3.4-4.15,5.44-12.53-1.27-14.43-5.75-.91-11.43,2.02-16.86,3.58,5.47-6.12,12.3-20.46,.16-23.09-9.02-.65-17.68,4.25-24.93,9.14-2.91,1.77-21.01,18.11-20.16,8.32,1.85-7.91,8.76-13.27,14.31-18.7,2.75-3.57,12.21-7.2,8.85-12.5,1.78-8.49-8-14.11-15.45-13.54-9.84,.65-18.82,6.03-26.43,11.98-.17,.14-.33,.27-.5,.41-.43-1.73-1.93-3.23-3.9-3.09-6.81-.19-15.16,1.81-21.3-1.53-4.87-7.66,6.14-16.81,11.53-21.34,5.54-4.35,11.48-8.11,17.46-11.8,6.65,3.29,13.54,6.11,20.28,9.2,4.82,1.88,7.73-5.53,2.87-7.44-4.99-2.29-10.09-4.43-15.09-6.74,2.42-1.51,4.82-3.05,7.18-4.65,3.46-2.37,6.85-4.85,10.29-7.23,2.18-1.61,1.91-5.43-.59-6.61-2.13-1.21-4.27,.1-5.94,1.45-3.5,2.35-7.08,4.61-10.68,6.79-3.21,1.89-6.45,3.73-9.73,5.52-2.14-1.18-4.24-2.44-6.28-3.79-2.02-5.37-9.91-1.75-7.59,3.36,1.18,2.21,3.38,3.54,5.54,4.8-7.42,3.74-15,7.14-22.77,10.05-7.91,2.78-16.28,5.12-24.72,4.34-3.73,.43-4.71,5.83-1.38,7.55,9.63,2.01,19.77-1.4,28.89-4.46-12.57,12.13-12.12,31.91,9.12,30.7,3.41-.3,8.07,.49,11.88-.05-10.52,13.38-.88,26.04,18.96,18.77-7.12,11.27-.09,24.24,13.5,17.99,11.92-5.8,20.95-17.91,34.95-19.12l-.05-.05c.27,.04,.53,.09,.79,.15,0,.04,.01,.08,.02,.12,0,.1,0,.19,0,.29-3.73,11.69-14.65,19.55-22.75,28.27-2.7,2.79-8.94,6.86-4.31,10.78,4.38,2.71,7.96-3.26,11.48-5.17,8.64-6.85,18.28-12.37,29.17-14.61-6.64,10.73-17.77,17.63-26.44,26.57-3.63,2.87-.49,9.22,3.96,7.31,12.87-7.89,23.44-20.52,39.32-22.36-4.53,10.94-16.11,17.25-22.25,27.29-7.92,12.12,2.36,16.2,13.28,15.83,.29,0,.58-.04,.86-.1,7.01-.12,16.91-4.52,21.52-6.33-12.48,12.62-26.42,23.77-39.27,35.95-2.67,3.67,2.19,8.26,5.71,5.45,20.5-14.03,34.72-38.46,59.42-45.64-5.86,10.98-16.61,18.59-22.64,29.52-12.2,21.67,7.57,26.84,24.27,17.19-5.68,11.3,1.05,21.34,13.8,18.66,10.87-2.58,21.04-10.61,24.72-21.36,4.02,1.07,8.3,2.15,11.57,4.84,.1,2.02-1.22,3.89-2.2,5.59-6.33,9.6-15.42,16.86-23.42,24.98-3.52,2.86-1.71,9.17,3.21,8.04,5.07-1.82,8.81-6.21,13.25-9.17,5.48-4.03,12.25-7.35,19.18-7.91-3.73,7.56-11.22,12.5-16.26,19.14-10.42,12.9-4.74,26.17,12.5,24.26,9.84-1.29,18.98-5.92,27.55-10.73-2.05,7.72,.41,22.36-4.84,27.76-3.2,1.57-7.12-.11-9.84-1.97-1.29-1.09-2.27-2.73-4.11-2.87-1.04-.12-2.11,.19-2.93,.84-4.8,4.73,3.32,9.73,7.42,11.2,26.91,8.74,18.27-26.57,23.83-41.36Zm216.51,156.92c27.14,34.36,38.34,80.79,29.86,123.74-6.99-.16-13.99-.32-20.98-.48-.11-11.04-.21-22.09-.32-33.12-.09-10.21-.19-20.41-.29-30.62-2.49-1.04-4.98-2.09-7.47-3.13,2.12-21.41-13.37-43.18-34.29-48.18-1.12-.27-2.32-.56-3.49-.92-.03-.01-.06-.02-.09-.03-.14-.04-.29-.09-.43-.13-1.06-.34-2.09-.74-3.02-1.23-.07-.03-.13-.07-.2-.11-.19-.11-.38-.21-.57-.33-.12-.07-.24-.15-.36-.23-.12-.08-.24-.17-.35-.25-1.34-1.02-2.27-2.33-2.43-4.09l-20.46-3.98c-11.29-2.2-22.57-4.4-33.86-6.6-13.68-5.25-25.66-14.8-33.85-26.95-10.68-7.91-23.11,21.21-33.53,12.95-.09-.22-.19-.44-.29-.65-.06-.14-.12-.27-.19-.4-.07-.16-.15-.33-.23-.49-.12-.23-.23-.47-.36-.7-.07-.13-.13-.26-.2-.38-.18-.34-.37-.68-.57-1.01-.11-.2-.23-.39-.35-.58-.09-.15-.18-.3-.27-.44l-.19-.29c-.08-.12-.16-.25-.24-.37-.13-.2-.27-.4-.4-.6-.14-.21-.29-.41-.45-.62-.12-.17-.25-.34-.38-.51-.12-.17-.25-.33-.38-.5-.14-.18-.28-.36-.42-.53-.43-.53-.88-1.05-1.34-1.55-.11-.12-.23-.25-.34-.37-.06-.06-.12-.13-.18-.19-.13-.14-.26-.27-.39-.41-.16-.16-.32-.32-.48-.48-.3-.29-.61-.58-.91-.87-1.12-1.02-2.31-1.98-3.55-2.87-.18-.13-.36-.26-.55-.39-.48-.34-.98-.66-1.48-.98-.23-.14-.45-.28-.68-.42-.24-.14-.48-.29-.73-.42-.48-.28-.98-.55-1.48-.8-.25-.13-.5-.25-.75-.38-.25-.12-.51-.25-.77-.36h0c-.16-.07-.31-.15-.47-.21-.35-.16-.7-.31-1.06-.46-.2-.08-.4-.16-.61-.24-.1-.04-.21-.08-.31-.12-.17-.07-.34-.13-.51-.19-.43-.16-.86-.31-1.3-.45l-.52-.16c-.36-.11-.72-.22-1.08-.32-.18-.05-.36-.1-.53-.15-.18-.05-.36-.1-.54-.14-.72-.18-1.45-.34-2.18-.48-.56-.11-1.12-.2-1.68-.29-.04,0-.08,0-.12-.02-.24-.04-.48-.07-.71-.09h-.11c-.21-.04-.41-.06-.62-.08-.58-.06-1.16-.11-1.73-.13-.14-.01-.28-.02-.42-.02-1.46-.07-2.93-.04-4.38,.08-.38,.03-.76,.07-1.14,.11-.38,.04-.76,.09-1.14,.15-.57,.09-1.14,.19-1.7,.3-.38,.07-.75,.16-1.12,.25s-.75,.19-1.12,.29c.11,.45,.14,.91,.11,1.36,0,.08-.01,.16-.02,.23-.01,.12-.03,.23-.05,.35-.02,.1-.04,.2-.07,.3-.07,.25-.16,.51-.27,.75-.02,.06-.05,.12-.08,.19-.15,.31-.33,.61-.54,.89-.04,.06-.09,.12-.14,.19-.18,.23-.38,.44-.59,.63-.07,.06-.13,.12-.2,.18-.09,.07-.18,.15-.27,.21-.07,.05-.15,.11-.23,.16-.12,.08-.23,.15-.36,.21-.07,.04-.13,.07-.2,.11-.14,.07-.27,.13-.41,.18-.08,.03-.16,.06-.24,.09-.02,0-.04,.01-.06,.02-.07,.02-.13,.04-.2,.05-.12,.04-.25,.06-.38,.09-.06,.01-.12,.02-.19,.03-.08,.01-.16,.02-.24,.02-.11,.01-.21,.02-.31,.02-.05,0-.1,0-.16,0-.05,0-.1,0-.14,0h-.14c-.08-.02-.16-.03-.24-.05-.06,0-.13-.02-.19-.03-.2-.04-.4-.1-.59-.17-.07-.02-.15-.05-.22-.08-.02,0-.04-.02-.05-.02-.06-.02-.12-.05-.18-.08-.11-.05-.22-.11-.33-.17-.04-.02-.08-.05-.12-.07l-.09-.06s-.06-.04-.09-.06c-.09-.06-.18-.12-.26-.19-.04-.03-.09-.07-.13-.1-.04-.04-.08-.07-.12-.11-.31-.26-.59-.56-.83-.89-.05-.06-.1-.13-.14-.2-.09-.13-.18-.27-.27-.41h0c-.04-.07-.08-.15-.12-.22-.02-.05-.05-.09-.07-.14-.03-.05-.05-.11-.08-.17h0c-.11-.25-.2-.5-.27-.75-.02-.09-.05-.17-.06-.26-.05-.24-.09-.49-.11-.74-.02-.22-.01-.44,0-.66,.02-.24,.06-.48,.12-.71,.02-.08,.04-.16,.07-.23-1.92-.03-3.83-.05-5.75-.07-1.23-.02-2.47-.04-3.71-.05h0c-.95-.01-1.88-.02-2.83-.04-.06-.2-.13-.39-.2-.59-.04-.12-.09-.24-.13-.36-.12-.31-.24-.62-.38-.92-.09-.21-.18-.41-.28-.62-.09-.2-.19-.41-.3-.61-.09-.18-.19-.36-.29-.54-.43-.77-.89-1.52-1.41-2.23l-.22-.3c-.08-.11-.17-.23-.25-.34h0c-.46-.61-.96-1.18-1.48-1.74-.17-.18-.35-.36-.52-.54-.24-.24-.48-.47-.73-.7-.12-.12-.25-.23-.38-.34-.2-.18-.41-.36-.62-.53-.18-.15-.37-.29-.55-.43-.2-.16-.4-.31-.61-.45-.2-.15-.4-.29-.61-.43,0,0,0,0-.02,0-.21-.14-.42-.28-.64-.41-.57-.36-1.16-.7-1.76-1-.16-.08-.31-.16-.47-.24-.37-.18-.75-.35-1.13-.51h0c-.23-.1-.46-.19-.7-.28-.22-.09-.45-.17-.68-.25-.04-.01-.07-.02-.11-.04-.2-.07-.41-.14-.62-.2-.02,0-.03,0-.05-.02-.2-.06-.39-.12-.59-.17-.06-.02-.12-.03-.18-.05-.22-.06-.44-.12-.66-.17t0,0c-.24-.06-.49-.11-.73-.16-.23-.05-.47-.09-.71-.13-.02,0-.05,0-.08-.01-.21-.04-.43-.07-.64-.09-.02,0-.05,0-.07,0-.21-.03-.43-.05-.64-.07-.28-.03-.55-.05-.83-.06-.15,0-.3-.02-.45-.02-.21,0-.43-.01-.64-.01-6.97-7.56-13.95-15.12-20.93-22.68-.3-.53-.59-1.05-.9-1.57-.3-.52-.61-1.05-.91-1.57-.18-.3-.36-.6-.54-.9-.13-.22-.26-.43-.39-.65-.18-.3-.37-.61-.55-.91-.04-.07-.09-.14-.13-.21-.23-.38-.46-.75-.7-1.13-.57-.9-1.14-1.8-1.73-2.69-.18-.27-.36-.55-.54-.82-.3-.45-.6-.9-.9-1.34-.3-.45-.61-.89-.91-1.33,0,0,0,0,0,0-.01-.02-.02-.04-.04-.05-.43-.62-.87-1.24-1.31-1.86,0,0,0,0,0-.01-.44-.61-.88-1.22-1.32-1.82-.07-.09-.14-.18-.21-.28-.36-.49-.72-.97-1.09-1.45-.11-.15-.22-.3-.34-.44-.38-.5-.77-1.01-1.16-1.5-.05-.06-.09-.12-.14-.18-.36-.46-.71-.91-1.08-1.37-.16-.21-.34-.43-.51-.64-.2-.25-.4-.5-.61-.75-.26-.33-.54-.66-.81-.99-1.03-1.25-2.08-2.47-3.15-3.69-.39-.45-.78-.89-1.18-1.33-.06-.07-.12-.13-.17-.19-.41-.45-.81-.9-1.23-1.34-.15-.16-.3-.33-.45-.49-.46-.5-.92-.98-1.39-1.47-.54-.56-1.07-1.12-1.62-1.68-.04-.04-.07-.07-.1-.11-.51-.52-1.02-1.04-1.54-1.55-.55-.55-1.11-1.09-1.66-1.63-.5-.48-1-.96-1.5-1.43-.16-.16-.33-.31-.5-.47-.38-.36-.77-.71-1.15-1.06-.08-.08-.16-.16-.25-.23,0,0-.01-.02-.02-.02-.07-.07-.14-.13-.22-.2-.34-.31-.68-.62-1.02-.92l-.26-.23s-.08-.07-.12-.1c-.33-.3-.66-.59-1-.88-.27-.24-.54-.47-.81-.71-.98-.85-1.97-1.68-2.98-2.5-.55-.46-1.11-.91-1.67-1.36-3.53-.63-7.06-1.26-10.59-1.88-.46-.08-.91-.16-1.37-.24-.55-.73-1.11-1.46-1.68-2.18-.23-.3-.46-.6-.7-.89-.37-.46-.73-.92-1.11-1.38-.29-.36-.58-.72-.88-1.07h0s-.02-.03-.03-.04c-.3-.37-.61-.74-.93-1.11-.32-.38-.64-.77-.98-1.14-.79-.93-1.6-1.84-2.42-2.74-.35-.39-.71-.78-1.07-1.17-.97-1.05-1.96-2.09-2.96-3.12-.42-.43-.84-.86-1.27-1.28s-.86-.86-1.3-1.29c-1.04-1.02-2.09-2.02-3.16-3-.39-.36-.78-.72-1.18-1.07-.48-.44-.96-.87-1.45-1.3-7.23-16.83-19.17-31.61-34.09-42.23-.53-.38-1.07-.75-1.61-1.12-.58-.4-1.16-.8-1.76-1.2-.29-.2-.57-.39-.86-.57-.38-.25-.76-.5-1.14-.75-.49-.32-.98-.64-1.47-.96-2.05-1.33-4.13-2.65-6.21-3.98l-.89-.57c-.73-.47-1.45-.94-2.17-1.41l-1.37-.9c-3.52-2.34-6.95-4.74-10.09-7.32h0v-.02c-.6-.48-1.18-.97-1.74-1.46-.18-.15-.36-.31-.54-.47-1.33-1.18-2.59-2.4-3.77-3.67-.16-.17-.32-.35-.48-.52-.15-.16-.3-.33-.45-.5-.5-.56-.98-1.13-1.43-1.71h0s-.02-.04-.04-.05c-.1-.12-.2-.25-.29-.37-.11-.14-.22-.29-.32-.43-.1-.13-.19-.26-.29-.39-.36-.49-.7-.98-1.03-1.48-.13-.2-.26-.39-.38-.59-.16-.26-.32-.52-.48-.78-.14-.24-.29-.48-.43-.73-.44-.78-.84-1.57-1.21-2.38-.06-.13-.12-.26-.17-.39-.12-.26-.23-.52-.33-.78-.09-.22-.18-.45-.27-.67-.11-.29-.21-.58-.32-.87-.09-.24-.16-.48-.24-.73-.04-.1-.07-.2-.09-.31-.07-.2-.12-.41-.18-.61-.03-.11-.06-.22-.09-.33-.05-.2-.11-.39-.15-.59-.07-.27-.13-.55-.19-.82-.04-.15-.07-.3-.1-.45-.04-.2-.08-.41-.12-.61-.02-.11-.04-.21-.06-.32-.04-.25-.08-.5-.12-.75-12.17-11.97-24.34-23.94-36.51-35.91h0c-1.59-1.57-3.18-3.14-4.78-4.71h0c-7.15-7.04-14.3-14.07-21.45-21.1-3.54-8.7-7.07-17.39-10.61-26.08-7.71-7.38-14.18-16.05-19.04-25.55-.62-3.93-1.25-7.87-1.87-11.8-2.69-.98-5.38-1.96-8.06-2.95,.1-.39,.2-.77,.29-1.16,.09-.37,.18-.75,.26-1.12,.11-.48,.21-.96,.3-1.44,.06-.3,.12-.61,.17-.91,0-.03,.02-.06,.02-.09,.05-.3,.11-.59,.16-.89,.03-.2,.07-.39,.09-.58,.03-.15,.05-.3,.07-.45,.04-.21,.07-.43,.09-.64,.05-.34,.1-.69,.14-1.03,.05-.36,.09-.71,.13-1.07,.04-.35,.08-.71,.11-1.06,.05-.51,.09-1.02,.13-1.53,.02-.32,.05-.64,.07-.97,.02-.39,.05-.79,.06-1.19,0-.08,0-.16,0-.24,.01-.24,.02-.48,.03-.71,0-.22,.01-.44,.02-.66,0-.2,.01-.4,.01-.6,.01-.69,0-1.37,0-2.06,0-.24,0-.48-.02-.71,0-.11,0-.22,0-.34,0-.21-.01-.43-.02-.64-.01-.32-.03-.65-.05-.97-.03-.56-.06-1.12-.11-1.68-.02-.33-.05-.66-.08-.99v-.13c-.05-.39-.09-.79-.13-1.18,0-.03,0-.05,0-.08-.04-.35-.08-.7-.12-1.04-.06-.51-.13-1.01-.21-1.52-.06-.43-.13-.86-.2-1.29,0,0,0-.02,0-.02-.06-.37-.12-.74-.19-1.11-.09-.51-.2-1.02-.3-1.53-.09-.4-.17-.8-.26-1.2-.09-.41-.18-.81-.28-1.21-.01-.05-.03-.11-.04-.16-.09-.39-.19-.78-.3-1.17-.22-.84-.46-1.68-.71-2.51h0c-.18-.59-.36-1.18-.56-1.77-.13-.41-.27-.81-.42-1.21,0,0,0-.01,0-.02-.11-.32-.23-.64-.35-.96-.06-.16-.12-.33-.18-.49-.12-.33-.25-.66-.38-.98-.15-.38-.3-.76-.46-1.14-.27-.65-.55-1.29-.84-1.93-.12-.28-.25-.56-.39-.84-.03-.07-.06-.13-.09-.2-.12-.27-.25-.54-.39-.8-.15-.31-.3-.62-.46-.93,.86-.16,1.67-.46,2.41-.87,.31-.17,.61-.36,.89-.57,.7-.51,1.32-1.12,1.86-1.82,.09-.12,.19-.25,.28-.38,.54-.77,.98-1.61,1.3-2.49,.03-.07,.05-.14,.07-.21,.05-.16,.11-.33,.15-.49,.06-.2,.11-.39,.15-.59,.21-.96,.28-1.94,.2-2.9,0-.07-.01-.14-.02-.21,0-.08-.02-.16-.03-.24-.02-.11-.03-.22-.05-.33-.01-.06-.02-.12-.03-.18-.02-.09-.04-.17-.06-.26-.05-.25-.12-.49-.21-.73-.03-.08-.05-.16-.09-.24-.03-.08-.06-.16-.09-.24l-.11-.25c-.07-.15-.14-.3-.23-.45-.07-.14-.15-.28-.24-.42,.2-.04,.39-.09,.59-.15,.13-.03,.26-.07,.39-.11,.01,0,.02,0,.03,0,0,0,0,0,0,0,2.34-.71,4.49-2.01,6.24-3.71,.32-.31,.62-.64,.91-.97,.09-.09,.17-.19,.25-.29,.11-.13,.21-.26,.31-.39,.09-.12,.18-.23,.26-.36,.09-.12,.17-.24,.25-.36,.5-.73,.93-1.5,1.28-2.31,5.52-.47,11.05-.65,16.59-.54,.25,0,.51,.01,.77,.02,.41,0,.82,.02,1.23,.04,.39,0,.79,.02,1.18,.04,.3,0,.6,.02,.89,.04,.97,.04,1.95,.09,2.92,.16,.4,.02,.8,.05,1.19,.08,.68,.04,1.36,.1,2.04,.16,.34,.03,.69,.06,1.03,.09,.15,.01,.3,.03,.46,.04,.34,.03,.69,.06,1.03,.1,.46,.04,.92,.09,1.38,.14,.41,.04,.81,.09,1.21,.14,.11,.01,.23,.02,.34,.04,.4,.05,.8,.1,1.21,.15,1.46,.18,2.92,.39,4.38,.61,.48,.07,.95,.15,1.42,.23,.42,.07,.84,.14,1.25,.21,.11,.02,.22,.04,.33,.05,.42,.07,.84,.15,1.26,.23,.47,.09,.94,.17,1.41,.26,.63,.12,1.26,.25,1.89,.38,.43,.09,.85,.17,1.27,.27,.37,.07,.73,.16,1.1,.24,.46,.1,.91,.2,1.37,.31,.47,.1,.93,.21,1.4,.33,.93,.22,1.87,.45,2.8,.69,.46,.12,.93,.24,1.39,.37,.46,.12,.93,.25,1.39,.38,.46,.12,.92,.25,1.38,.39,.46,.13,.92,.26,1.38,.4h0l1.24,.38c.27,.08,.53,.16,.8,.25,.32,.09,.63,.2,.95,.3,.66,.21,1.32,.43,1.98,.64,.53,.18,1.06,.36,1.59,.54,.6,.21,1.2,.42,1.8,.63,.51,.18,1.02,.37,1.52,.55,1.85,1.04,3.7,2.07,5.54,3.12,.49,.28,.99,.56,1.48,.84,0,0,0,0,.01,0,14.91,8.38,29.82,16.76,44.74,25.14,3.7,3.95,7.41,7.9,11.12,11.85,2.08,.23,4.16,.46,6.24,.69,1.43,.16,2.85,.32,4.28,.47h0c.18,.02,.36,.04,.55,.06,.06,.12,.12,.23,.17,.36s.11,.24,.16,.36h0c.05,.12,.11,.24,.16,.37,.08,.2,.16,.39,.23,.59,.06,.16,.11,.31,.16,.47,.05,.16,.11,.32,.15,.48,.04,.12,.07,.25,.11,.37,.06,.2,.11,.41,.16,.61,.04,.16,.07,.33,.11,.49,.03,.17,.07,.34,.09,.5,.04,.21,.07,.42,.09,.63,0,.04,.01,.09,.02,.12,.03,.22,.05,.43,.07,.65h0c.02,.23,.04,.44,.04,.66,0,.06,0,.11,0,.17,0,.21,.01,.41,.01,.62s0,.4-.01,.6c0,.09,0,.19-.02,.29,0,.13-.01,.26-.02,.39-.01,.18-.03,.36-.05,.54-.01,.14-.03,.27-.05,.41,0,.08-.02,.16-.03,.23-.01,.1-.03,.2-.05,.3-.02,.12-.04,.24-.07,.36-.03,.16-.06,.32-.1,.48-.04,.16-.07,.32-.12,.49-.02,.06-.03,.12-.05,.18-.04,.13-.07,.26-.11,.39,0,.03-.02,.06-.02,.09-.03,.1-.06,.21-.09,.31,.18,.09,.36,.19,.54,.27,.09,.04,.17,.08,.26,.12h0c.18,.09,.35,.17,.53,.24,.33,.15,.66,.29,1,.41,.03,0,.05,.02,.09,.03,.36,.14,.73,.27,1.11,.38,.21,.07,.42,.13,.64,.19,.21,.06,.41,.11,.62,.16,.2,.05,.39,.1,.59,.14,.17,.04,.33,.07,.5,.1,.1,.02,.2,.04,.3,.05,.16,.03,.32,.05,.48,.08h.02c.21,.04,.42,.06,.62,.09h0c.12,.02,.24,.03,.36,.04,.15,.02,.3,.03,.44,.04,.17,.02,.33,.03,.5,.04,.11,0,.22,.02,.33,.02s.22,0,.34,.01c.36,.01,.72,.01,1.08,0,.12,0,.25,0,.38-.01,.3-.01,.6-.03,.9-.05,.13-.01,.27-.02,.4-.04,.11,0,.22-.02,.33-.04h0c.32-.04,.64-.09,.96-.14,1,1.03,2,2.05,3,3.07,0,0,.01,.01,.02,.02,2.46,2.52,4.92,5.04,7.38,7.57h0c3.02,3.1,6.04,6.2,9.06,9.29,3.02,3.09,6.04,6.19,9.07,9.29,.02,.02,.03,.04,.05,.05,1.77,1.82,3.55,3.64,5.34,5.46,3.22,3.3,6.45,6.6,9.68,9.89,3.89,3.98,7.79,7.95,11.69,11.93,1.78,1.82,3.56,3.63,5.35,5.45,3.57,3.63,7.13,7.26,10.71,10.89,1.78,1.81,3.57,3.62,5.36,5.44,7.14,7.25,14.3,14.49,21.47,21.71,1.79,1.81,3.59,3.61,5.38,5.42,13.68,13.76,27.4,27.46,41.2,41.09,1.69,1.67,3.39,3.34,5.08,5.02,2.79,2.75,5.58,5.5,8.38,8.24,3.45,3.39,6.91,6.78,10.38,10.16l.89,.87c2.12,2.07,4.25,4.15,6.39,6.21,1.88,1.83,3.77,3.66,5.66,5.49,.44,.43,.88,.86,1.32,1.28,1.94,1.88,3.88,3.75,5.82,5.62,2.14,2.06,4.28,4.12,6.42,6.18s4.29,4.11,6.44,6.16c9.75,9.32,19.81,18.96,24.99,31.41,5.18,12.45,4.11,28.57-6.17,37.29,9.82,4.78,20.25,10.14,25.39,19.77,5.14,9.63,1.4,24.55-9.34,26.5-.74,1.21-.98,2.44-.84,3.64,0,.06,.01,.12,.02,.18,0,.04,0,.07,.02,.11,.01,.08,.03,.15,.04,.23,.02,.11,.05,.23,.08,.34l.06,.21c.21,.71,.54,1.4,.97,2.07,.04,.06,.08,.12,.12,.18,.09,.14,.19,.28,.29,.41,.05,.07,.1,.13,.15,.2,.09,.12,.18,.24,.28,.36,.29,.35,.6,.68,.93,1.02,.11,.11,.22,.21,.33,.32,.23,.22,.48,.44,.73,.64,2,1.68,4.47,3.03,6.8,3.81,2.18,.73,4.56,1.65,6.71,2.81,.4,.22,.8,.45,1.18,.68,.12,.08,.25,.16,.38,.24,.12,.08,.25,.16,.37,.25,.11,.07,.21,.14,.32,.21,.37,.27,.73,.54,1.07,.83,.11,.09,.21,.18,.32,.28,.07,.06,.14,.13,.21,.2,.35,.33,.68,.67,.97,1.03,.07,.09,.14,.17,.21,.26,0,0,0,0,0,0,.08,.1,.15,.2,.23,.3h0c1.02,1.45,1.53,3.12,1.27,5.05,.95,.07,1.9,.15,2.86,.23,1.3,.11,2.59,.22,3.89,.33,.38,.03,.75,.07,1.12,.1,1.92,.17,3.84,.36,5.76,.56,.55,.05,1.09,.11,1.64,.18,.54,.06,1.08,.12,1.62,.18,.33,.04,.66,.08,.99,.12,.5,.06,1.01,.12,1.51,.19,.69,.09,1.38,.18,2.06,.27,.39,.05,.79,.11,1.18,.16,.55,.07,1.09,.16,1.64,.24,.89,.13,1.77,.27,2.65,.41,.36,.06,.72,.12,1.08,.18,.59,.1,1.17,.2,1.76,.31,.64,.11,1.28,.23,1.92,.36,.68,.13,1.36,.27,2.04,.41,.68,.14,1.36,.29,2.03,.43,7.07,1.57,14.01,3.68,20.76,6.31,9.71,3.78,18.97,8.62,28.21,13.45,4.92,2.57,9.84,5.14,14.75,7.71Z"/>
  <path class="cls-2" d="M163.64,98.57c-2.9-.79-5.81-1.72-8.84-1.71-2.19,.46-4.46-.91-4.89-3.14-.43-2.16,1.02-4.21,3.13-4.68,4.46-.59,8.91,.79,13.16,1.99,4.89,1.61,2.18,9.3-2.66,7.51,0,0,.1,.02,.1,.02Z"/>
  <path class="cls-2" d="M283.78,183.22c-43.44-48.23-94.97-97.29-161.17-108.15-4.47-.58-9-1.11-13.52-.74-1.8,.57-3.9-.4-4.72-2.1-1.57-3.29,1.67-6.25,4.93-5.92,57.54,1.04,111.88,41.74,151.37,80.7,9.93,10.13,19.53,20.6,29.15,31.02,3.34,3.82-2.65,9.15-6.05,5.18Z"/>
  <path class="cls-2" d="M394.46,474.92c-41.81-5.98-90.57-77.78-120.88-107.2-22.22-21.43-43.41-43.9-65.38-65.55-16.25-15.91-32.77-31.63-47.41-49.07-8.16-9.86-15.41-20.45-24.02-29.96-3.66-4.38-7.74-8.4-11.17-12.97-2.01-2.73,.82-6.94,4.14-6.09,14.95,13.27,26.15,31.15,39.25,46.35,10.24,12.01,21.41,23.13,32.65,34.18,31.24,31.11,62.82,61.93,92.99,94.02,27.73,30.47,53.23,65.72,89.92,85.63,23.75,13.26,40.23-26.79,45.55-11.08,.03,4.4-7.4,6.67-9.99,10.05-7.23,5.94-15.75,12.55-25.63,11.68Zm27.73-22.08c.06-.36,.15-.7,.29-1.03-.14,.33-.27,.67-.29,1.03Z"/>
  <path class="cls-2" d="M389.36,466.1c-21.82-4.93-37.92-21.77-52.7-37.49-14.11-14.54-26.89-30.24-39.68-45.87-2.79-2.37-.66-7.39,2.98-6.95,3.12,.4,4.57,3.62,6.5,5.72,7.22,8.71,13.77,17.97,21.68,26.09,18.6,19.07,34.84,42.7,61.41,50.33,6.2,1.92,12.85,1.76,19-.3,3.95-2.8,8.6,3.22,4.82,6.32-7.11,3.92-16.22,3.99-24,2.15Z"/>
  <path class="cls-2" d="M265.42,170.2c-13.46-19.34-28.12-38.25-46.59-52.91-20.24-15.58-42.68-28.77-66.85-37.11-3.01-1.42-7.4,.21-9.2-3.18-1.68-3.56,2.08-6.59,5.53-5.69,13.91,2.41,26.5,9.62,38.95,15.98,26.77,14.07,50.94,33.2,69.23,57.41,5.43,6.86,10.61,13.93,15.59,21.12,2.78,4.31-3.68,8.72-6.66,4.37Z"/>
  <path class="cls-2" d="M190.09,258.13c-26.84-16.85-57.87-30.4-76.31-57.3-9.11-11.58-17.01-23.98-24.54-36.63-7.95-12.28-14.39-25.63-18.14-39.8-3.49-14.67-6.36-31.61,2.42-44.98,9.85-16.3,31.02-12.13,46.46-7.89,13.22,3.45,26.35,7.28,39.25,11.78,5.02,2.05,10.98,3.2,15.01,6.95,2.46,3.55-2.27,7.99-5.65,5.41-6.93-3.47-14.43-5.64-21.75-8.12-13.86-4.23-27.75-8.67-42.04-11.2-15.85-2.75-25.48,1.74-28.71,18.31-1.99,23.46,7.78,46.45,20.24,65.85,7.64,12.95,16.28,26.02,25.48,37.77,8.33,11.92,19.92,20.83,32.06,28.59,13.2,8.65,26.44,16.13,39.87,24.18,4.55,2.34,1.08,9.49-3.63,7.09Zm-21.45-162.44c-.34-.23-.64-.51-.91-.84,.25,.33,.55,.62,.91,.84Z"/>
  <path class="cls-2" d="M78.85,129.52c-1.22-6.89-3.09-13.69-3.6-20.7-.49-1.61-1.03-2.27-.96-3.77-2.34-2.97-1.82-8.32,2.82-8.18,1.75-2.21,5.67-1.96,6.83,.74,.59,1.37,.45,2.91-.34,4.05-.42,2.27-.67,4.66-.26,6.93,.89,6.66,2.5,13.27,3.26,19.92-.2,4.22-6.51,5.06-7.75,1Z"/>
  <path class="cls-2" d="M617.35,612.32c-7.05-19.93-8.5-41.43-16.76-60.98-3.75-8.47-7.63-17.22-14.01-24.08-8.32-7.87-18.2-14.46-29.14-18.02-18.54-7.11-47.76-13.35-57.38-32.26-6.44-8.24-16.78-10.5-25.73-14.87-2.13,.14-4.01-1.64-4.14-3.73-.14-2.81,2.29-4.49,4.76-4.3,2.43,.28,4.51,1.79,6.76,2.67,4.83,1.94,9.71,3.8,14.21,6.45,3.94,2.18,7.35,5.19,10.22,8.64,2.06,3.41,3.88,6.97,7.25,9.33,19.39,15.3,45.33,16.2,65.46,29.83,9.72,6.17,18.16,14.32,23.15,24.81,8.03,14.66,12.68,30.87,15.82,47.21,1.92,9.03,4.08,18.01,7.07,26.74,1.56,4.86-5.78,7.53-7.55,2.54Z"/>
  <path class="cls-1" d="M633.98,629.76c8.48-42.95-2.73-89.39-29.86-123.74-4.92-2.57-9.84-5.14-14.75-7.71-9.24-4.83-18.5-9.67-28.21-13.45-6.75-2.63-13.69-4.74-20.76-6.31-10.81-2.4-21.86-3.52-32.91-4.43-.45-.75-.89-1.5-1.34-2.25-.88-1.05-1.8-2.07-2.78-3.02-1.2-1.71-3.11-3.12-5.25-4.29-.71-.47-1.45-.92-2.2-1.34-3.6-2.12-7.45-3.73-11.32-5.29-3.3-2.77-5.3-6.44-3.17-9.91,10.74-1.95,14.48-16.87,9.34-26.5-5.14-9.63-15.57-14.99-25.39-19.77,10.28-8.72,11.35-24.85,6.17-37.29-5.18-12.45-15.24-22.1-24.99-31.41-58.87-56.26-116.04-114.26-172.95-172.5-.02-.02-.04-.03-.05-.05-4.25-4.53-8.53-9.03-12.88-13.46-1.73-1.7-3.48-3.41-5.26-5.11-2.46-2.52-4.92-5.04-7.38-7.57-5.3-6.03-10.97-11.7-16.96-17.01-.11-.24-.22-.48-.34-.72-.18-.02-.36-.04-.55-.06-13.04-11.42-27.56-21.17-42.93-29.25-12.45-6.36-25.04-13.57-38.95-15.98-.47-.12-.95-.18-1.42-.16-19.03-5.65-39.12-7.72-58.89-6.03-.77,1.76-1.89,3.35-3.27,4.69-2.24,.89-4.34,2.11-6.25,3.72h0c-.33,.1-.67,.19-1.01,.27,.09,.14,.17,.28,.24,.42-1.55,1.44-2.96,3.15-4.19,5.19-8.78,13.37-5.91,30.32-2.42,44.98,3.75,14.18,10.2,27.52,18.14,39.8,7.53,12.64,15.43,25.05,24.54,36.63,7.32,10.67,16.61,19.24,26.84,26.75,6.98,8.29,13.24,17.17,20.15,25.52,7.96,9.47,16.47,18.44,25.19,27.21,2.39,3.02,5.26,5.77,8.41,8.35,4.59,4.52,9.21,9,13.81,13.5,21.72,21.4,42.66,43.59,64.6,64.79,1.5,1.81,2.96,3.65,4.38,5.53,.46,.08,.91,.16,1.37,.24,30.48,31.82,76.31,96.53,115.92,102.19,9.59,.84,17.89-5.35,24.98-11.14,8.14,3.76,15.01,10.27,18.55,18.53,10.41,8.26,22.84-20.86,33.53-12.95,8.18,12.15,20.17,21.7,33.85,26.95,11.29,2.2,22.58,4.4,33.86,6.6,6.48,2.27,12.81,4.27,18.22,6.34,1.58,.51,3.14,1.09,4.67,1.73t0,0c1.37,1.03,3.17,1.75,5.01,2.32,7.12,3.64,13.66,8.5,19.45,13.97,6.38,6.86,10.26,15.61,14.01,24.08,6.07,14.35,8.46,29.75,12.09,44.8,.11,11.04,.21,22.08,.32,33.12,7,.16,13.99,.32,20.98,.48ZM700,0V700H0V0H700Z"/>
  <path class="cls-3" d="M191.49,170.3c-.29-1.96,1.34-3.21,2.56-4.49-1.01-6.95-12.83-3.7-17.04-1.49-4.58,2.3-9.04,4.89-12.88,8.3-3.94,3.71-10.7,12.29-.22,11.32,10.42-1.35,19.59-7.1,27.58-13.64Zm133.41,124.27c-4.05-1.14-7.86-3.82-9.18-7.96-5.34,5.5-17.28,14.03-15.2,22.56,1.14,1.23,3.11,1.01,4.64,.99,8.43-1.42,16.59-7.56,19.74-15.59Zm1.25-7.99c-.27-1.49-1.25-3.16-2.97-2.98v.06s.02,.1-.06,.01c.39,1.5,1.59,2.43,3.03,2.91Zm60.34,52.63c6.9-.32,6.14,7.26,1.11,9.89-5.56,14.79,3.08,50.1-23.83,41.36-4.09-1.47-12.22-6.47-7.42-11.2,.82-.66,1.88-.96,2.93-.84,1.84,.14,2.82,1.79,4.11,2.87,2.73,1.86,6.65,3.55,9.84,1.97,5.25-5.41,2.79-20.04,4.84-27.76-8.57,4.81-17.7,9.44-27.55,10.73-17.25,1.91-22.92-11.36-12.5-24.26,5.04-6.64,12.53-11.58,16.26-19.14-6.93,.56-13.7,3.88-19.18,7.91-4.44,2.96-8.18,7.35-13.25,9.17-4.91,1.13-6.73-5.19-3.21-8.04,8-8.12,17.09-15.38,23.42-24.98,.98-1.7,2.3-3.57,2.2-5.59-3.27-2.69-7.55-3.77-11.57-4.84-3.68,10.74-13.85,18.77-24.72,21.36-12.75,2.68-19.49-7.36-13.8-18.66-16.7,9.66-36.47,4.48-24.27-17.19,6.04-10.93,16.78-18.54,22.64-29.52-24.7,7.18-38.92,31.61-59.42,45.64-3.52,2.81-8.38-1.78-5.71-5.45,12.84-12.18,26.79-23.33,39.27-35.95-4.61,1.81-14.5,6.2-21.52,6.33-.28,.07-.57,.1-.86,.1-10.92,.38-21.2-3.7-13.28-15.83,6.14-10.04,17.72-16.36,22.25-27.29-15.88,1.84-26.45,14.46-39.32,22.36-4.46,1.91-7.59-4.44-3.96-7.31,8.67-8.94,19.79-15.84,26.44-26.57-10.89,2.24-20.53,7.77-29.17,14.61-3.52,1.91-7.1,7.89-11.48,5.17-4.63-3.91,1.61-7.99,4.31-10.78,8.1-8.73,19.02-16.58,22.75-28.27,0,.18-.02,.34-.02,.51,.01-.17,.02-.34,.02-.51,0-.1,0-.19,0-.29,0-.04-.01-.08-.02-.12-.26-.07-.52-.12-.79-.15l.05,.05c-14,1.21-23.02,13.32-34.95,19.12-13.6,6.25-20.63-6.72-13.5-17.99-19.84,7.27-29.48-5.39-18.96-18.77-3.81,.54-8.48-.26-11.88,.05-21.24,1.21-21.69-18.57-9.12-30.7-9.12,3.05-19.26,6.46-28.89,4.46-3.34-1.72-2.35-7.12,1.38-7.55,8.44,.78,16.81-1.55,24.72-4.34,7.77-2.92,15.36-6.32,22.77-10.05-2.16-1.26-4.37-2.59-5.54-4.8-2.32-5.11,5.57-8.72,7.59-3.36,2.04,1.36,4.14,2.61,6.28,3.79,3.28-1.79,6.52-3.63,9.73-5.52,3.61-2.18,7.18-4.44,10.68-6.79,1.68-1.36,3.81-2.67,5.94-1.45,2.5,1.19,2.77,5,.59,6.61-3.44,2.39-6.82,4.86-10.29,7.23-2.36,1.6-4.76,3.14-7.18,4.65,5,2.31,10.1,4.45,15.09,6.74,4.86,1.91,1.96,9.32-2.87,7.44-6.75-3.09-13.63-5.91-20.28-9.2-5.98,3.69-11.92,7.45-17.46,11.8-5.39,4.53-16.4,13.68-11.53,21.34,6.14,3.34,14.49,1.34,21.3,1.53,1.98-.14,3.47,1.35,3.9,3.09,.16-.14,.33-.28,.5-.41,7.61-5.95,16.59-11.33,26.43-11.98,7.46-.57,17.23,5.05,15.45,13.54,3.37,5.3-6.1,8.93-8.85,12.5-5.55,5.43-12.46,10.79-14.31,18.7-.85,9.79,17.25-6.55,20.16-8.32,7.26-4.89,15.92-9.79,24.93-9.14,12.14,2.63,5.31,16.97-.16,23.09,5.43-1.57,11.11-4.5,16.86-3.58,6.7,1.91,4.66,10.29,1.27,14.43,4.68-1.34,9.76-3.88,14.66-2.33,4.91,1.72,5.71,7.77,3.65,11.98-5.45,11.69-18.19,18.32-23.91,29.8,1.58,.6,3.74,.53,5.79,.63,.34-.04,.7-.01,1.07,.07h.08c10.54-.48,20.27-5.53,29.6-10.04,3.18-1.33,6.1-4.12,9.71-3.86,2.3,.16,4.03,2.66,3.44,4.88,11.11-4.9,19.25,2.55,11.96,13.27-7.05,10.96-18.45,19.05-23.37,31.37-2.82,7.12,5.67,5.66,9.73,4.08,9.98-3.7,18.81-9.76,27.6-15.65,1.83-1.42,4.11-3.22,6.43-1.81,7.77-5.25,16.88,3.01,15.91,11.39,19.03,4.25,23.62,12.58,10.44,28.17,7.79-3.33,20.18-2.96,17.13,8.65-3.54,8.66-11.78,14.21-17.47,21.37-13.79,19.13,16.15,9.8,24.04,4.9,4.52-2.18,8.73-4.91,12.82-7.81,1.09-2.11,2.82-4.27,5.29-4.7Z"/>
</svg>